<svg width="449" height="255" viewBox="0 0 449 255" fill="none" xmlns="http://www.w3.org/2000/svg">
<rect width="449" height="255" rx="10" fill="url(#paint0_linear_4001_32)" fill-opacity="0.19"/>
<rect x="0.5" y="0.5" width="448" height="254" rx="9.5" stroke="white" stroke-opacity="0.04"/>
<path d="M45.1111 28.006C45.5792 28.7428 46.109 29.439 46.5133 30.2164C48.9203 34.8428 48.3423 40.4438 43.7561 43.4011C39.2806 46.2865 33.0792 45.8019 28.0431 45.0309L28.1132 44.9114C33.1012 42.0961 37.9565 38.8131 41.3868 34.1457C42.7789 32.2514 43.6944 30.3232 44.8508 28.3153C44.8888 28.2489 45.0359 27.9545 45.1111 28.006Z" fill="#BEEE11"/>
<path d="M28.0008 46.9324C28.9075 46.8019 29.8142 46.6481 30.7264 46.5522C35.847 46.0136 42.7886 46.2882 46.0507 50.915C48.644 54.5934 47.8805 59.4965 45.61 63.1247C45.515 63.2767 45.1457 63.8821 45.049 63.9582C45.0038 63.9937 45.0135 64.0194 44.9628 63.9582C43.5825 61.6612 42.2875 59.2946 40.6318 57.1776C37.9312 53.7244 34.5512 51.0329 30.8696 48.6886L28 46.9324H28.0008Z" fill="#BEEE11"/>
<path d="M63.9975 46.9747C64.0262 47.0051 63.8023 47.2708 63.7659 47.3131C60.0222 51.6446 56.3047 56.2773 51.9994 60.0504C50.3978 61.4542 48.7031 62.7626 46.9717 64C47.0516 62.2793 47.5273 60.5641 48.1112 58.9507C49.5844 54.8811 52.9348 49.057 56.998 47.1783C59.2655 46.1297 61.6547 46.2155 63.9975 46.9747Z" fill="#BEEE11"/>
<path d="M63.9975 45.0727C63.4165 45.2519 62.8259 45.4183 62.2243 45.518C54.9223 46.7233 50.5651 38.9985 48.3761 33.2129C47.7449 31.5446 47.2003 29.7842 47.0136 28.0064L49.3326 29.6794C54.9561 33.858 59.1806 39.4814 63.7431 44.7158C63.79 44.7694 64.0228 45.0381 63.9975 45.0727Z" fill="#BEEE11"/>
<mask id="mask0_4001_32" style="mask-type:alpha" maskUnits="userSpaceOnUse" x="0" y="0" width="449" height="255">
<rect width="449" height="255" rx="10" fill="#D9D9D9"/>
</mask>
<g mask="url(#mask0_4001_32)">
<path d="M344.395 -25.9485C348.4 -19.6449 352.933 -13.6884 356.392 -7.03785C376.985 32.5437 372.04 80.4636 332.802 105.765C294.512 130.451 241.456 126.305 198.369 119.709L198.969 118.686C241.644 94.5996 283.184 66.512 312.531 26.5799C324.442 10.3728 332.275 -6.1234 342.168 -23.3027C342.493 -23.8702 343.751 -26.3894 344.395 -25.9485Z" fill="white" fill-opacity="0.02"/>
<path d="M198.007 135.977C205.764 134.861 213.521 133.545 221.326 132.725C265.136 128.116 324.525 130.465 352.434 170.051C374.621 201.521 368.089 243.47 348.664 274.511C347.85 275.812 344.691 280.992 343.863 281.642C343.477 281.946 343.56 282.166 343.126 281.642C331.317 261.991 320.238 241.743 306.072 223.631C282.967 194.087 254.049 171.059 222.551 151.003L198 135.977H198.007Z" fill="white" fill-opacity="0.02"/>
<path d="M505.978 136.339C506.224 136.599 504.308 138.873 503.997 139.234C471.968 176.293 440.162 215.928 403.329 248.209C389.625 260.22 375.127 271.413 360.314 282C360.997 267.278 365.067 252.604 370.063 238.8C382.667 203.983 411.331 154.154 446.094 138.081C465.494 129.11 485.935 129.844 505.978 136.339Z" fill="white" fill-opacity="0.02"/>
<path d="M505.978 120.067C501.008 121.599 495.955 123.023 490.808 123.876C428.335 134.188 391.057 68.0987 372.329 18.5992C366.929 4.32588 362.269 -10.7354 360.672 -25.9449L380.513 -11.6318C428.624 24.1184 464.767 72.23 503.802 117.013C504.203 117.472 506.195 119.77 505.978 120.067Z" fill="white" fill-opacity="0.02"/>
<path d="M-7.3947 128.052C-11.3998 134.355 -15.9326 140.312 -19.3918 146.962C-39.9847 186.544 -35.0398 234.464 4.1976 259.765C42.4879 284.451 95.5443 280.305 138.631 273.709L138.031 272.686C95.3563 248.6 53.8164 220.512 24.4688 180.58C12.5584 164.373 4.72534 147.877 -5.16805 130.697C-5.49336 130.13 -6.75128 127.611 -7.3947 128.052Z" fill="white" fill-opacity="0.02"/>
<path d="M138.993 289.977C131.236 288.861 123.479 287.545 115.674 286.725C71.8645 282.116 12.4752 284.465 -15.4337 324.051C-37.6207 355.521 -31.0889 397.47 -11.6636 428.511C-10.8503 429.812 -7.6911 434.992 -6.86334 435.642C-6.47656 435.946 -6.55971 436.166 -6.12593 435.642C5.68323 415.991 16.7622 395.743 30.9282 377.631C54.0332 348.087 82.9507 325.059 114.449 305.003L139 289.977H138.993Z" fill="white" fill-opacity="0.02"/>
<path d="M-168.978 290.339C-169.224 290.599 -167.308 292.873 -166.997 293.234C-134.968 330.293 -103.162 369.928 -66.3285 402.209C-52.6252 414.22 -38.1267 425.413 -23.3138 436C-23.9969 421.278 -28.0671 406.604 -33.0625 392.8C-45.6669 357.983 -74.3314 308.154 -109.094 292.081C-128.494 283.11 -148.935 283.844 -168.978 290.339Z" fill="white" fill-opacity="0.02"/>
<path d="M-168.978 274.067C-164.008 275.599 -158.955 277.023 -153.808 277.876C-91.3349 288.188 -54.0567 222.099 -35.329 172.599C-29.9286 158.326 -25.2693 143.265 -23.6716 128.055L-43.5126 142.368C-91.6241 178.118 -127.767 226.23 -166.802 271.013C-167.203 271.472 -169.195 273.77 -168.978 274.067Z" fill="white" fill-opacity="0.02"/>
</g>
<g opacity="0.96">
<circle cx="403" cy="46" r="18" fill="#EE4C11"/>
<mask id="mask1_4001_32" style="mask-type:alpha" maskUnits="userSpaceOnUse" x="385" y="28" width="36" height="36">
<circle cx="403" cy="46" r="18" fill="#D9D9D9"/>
</mask>
<g mask="url(#mask1_4001_32)">
<circle cx="414.5" cy="57.5" r="15.5" fill="#FFA142"/>
<circle cx="420.5" cy="40.5" r="15.5" fill="#E7C228" style="mix-blend-mode:lighten"/>
</g>
</g>
<defs>
<linearGradient id="paint0_linear_4001_32" x1="277.5" y1="4.4717e-06" x2="140" y2="255" gradientUnits="userSpaceOnUse">
<stop offset="0.114168" stop-color="#BEEE11"/>
<stop offset="0.557084" stop-color="#8EA637" stop-opacity="0.595"/>
<stop offset="1" stop-color="#5D5D5D" stop-opacity="0.19"/>
</linearGradient>
</defs>
</svg>
