<svg width="318" height="181" viewBox="0 0 318 181" fill="none" xmlns="http://www.w3.org/2000/svg">
<path d="M31.7112 19.1245C32.0428 19.6649 32.4179 20.1756 32.7043 20.7457C34.4088 24.139 33.9995 28.2471 30.7517 30.4162C27.5823 32.5325 23.1907 32.1771 19.6243 31.6116L19.6739 31.5239C23.2063 29.459 26.6446 27.0511 29.0738 23.6277C30.0597 22.2383 30.708 20.8241 31.5269 19.3514C31.5539 19.3027 31.658 19.0867 31.7112 19.1245Z" fill="#BEEE11"/>
<path d="M19.5943 33.0063C20.2364 32.9105 20.8785 32.7977 21.5245 32.7274C25.1507 32.3323 30.0666 32.5337 32.3767 35.9273C34.2131 38.6253 33.6725 42.2215 32.0646 44.8826C31.9973 44.9941 31.7358 45.4382 31.6673 45.494C31.6352 45.52 31.6421 45.5389 31.6062 45.494C30.6287 43.8092 29.7117 42.0734 28.5392 40.5207C26.6267 37.9879 24.2331 36.0138 21.6259 34.2944L19.5938 33.0063H19.5943Z" fill="#BEEE11"/>
<path d="M45.086 33.0373C45.1063 33.0596 44.9477 33.2545 44.922 33.2855C42.2708 36.4625 39.6382 39.8604 36.5894 42.6277C35.4551 43.6574 34.255 44.617 33.0289 45.5246C33.0855 44.2626 33.4224 43.0045 33.8358 41.8212C34.8791 38.8363 37.2518 34.5646 40.1292 33.1866C41.735 32.4175 43.4269 32.4804 45.086 33.0373Z" fill="#BEEE11"/>
<path d="M45.086 31.6423C44.6746 31.7736 44.2563 31.8957 43.8302 31.9689C38.6592 32.8529 35.5736 27.1871 34.0234 22.9436C33.5764 21.7199 33.1908 20.4287 33.0585 19.1248L34.7008 20.3519C38.6831 23.4167 41.6748 27.5413 44.9058 31.3804C44.9391 31.4198 45.1039 31.6169 45.086 31.6423Z" fill="#BEEE11"/>
<rect x="0.472656" y="0.00012207" width="316.854" height="180.279" rx="10" fill="url(#paint0_linear_4030_32)" fill-opacity="0.19"/>
<rect x="0.972656" y="0.500122" width="315.854" height="179.279" rx="9.5" stroke="white" stroke-opacity="0.04"/>
<mask id="mask0_4030_32" style="mask-type:alpha" maskUnits="userSpaceOnUse" x="0" y="0" width="318" height="181">
<rect width="317.433" height="180.279" rx="10" fill="#D9D9D9"/>
</mask>
<g mask="url(#mask0_4030_32)">
<path d="M243.482 -18.3464C246.314 -13.8899 249.518 -9.67879 251.964 -4.97702C266.522 23.0062 263.026 56.8845 235.287 74.7717C208.216 92.2244 170.707 89.2935 140.245 84.63L140.669 83.9069C170.839 66.8783 200.207 47.021 220.955 18.7899C229.376 7.33191 234.913 -4.33052 241.908 -16.4759C242.138 -16.8771 243.027 -18.6581 243.482 -18.3464Z" fill="white" fill-opacity="0.02"/>
<path d="M139.989 96.1315C145.474 95.3419 150.958 94.4118 156.475 93.8317C187.448 90.5737 229.434 92.2346 249.165 120.22C264.851 142.469 260.233 172.126 246.5 194.071C245.925 194.991 243.692 198.653 243.106 199.113C242.833 199.328 242.892 199.484 242.585 199.113C234.236 185.22 226.404 170.905 216.389 158.1C200.054 137.213 179.61 120.933 157.341 106.754L139.984 96.1315H139.989Z" fill="white" fill-opacity="0.02"/>
<path d="M357.718 96.387C357.892 96.571 356.537 98.1783 356.317 98.4338C333.673 124.633 311.187 152.655 285.147 175.476C275.459 183.968 265.209 191.882 254.736 199.366C255.219 188.958 258.097 178.584 261.629 168.825C270.54 144.21 290.805 108.982 315.381 97.6187C329.096 91.2764 343.548 91.7951 357.718 96.387Z" fill="white" fill-opacity="0.02"/>
<path d="M357.718 84.883C354.204 85.9665 350.632 86.9733 346.992 87.5763C302.826 94.8666 276.471 48.1428 263.231 13.1478C259.413 3.05688 256.119 -7.5911 254.989 -18.3438L269.017 -8.22482C303.03 17.0498 328.583 51.0635 356.179 82.7238C356.463 83.0483 357.871 84.6735 357.718 84.883Z" fill="white" fill-opacity="0.02"/>
<path d="M-5.22421 90.5306C-8.05569 94.987 -11.2603 99.1982 -13.7059 103.9C-28.2646 131.883 -24.7686 165.761 2.97128 183.649C30.0417 201.101 67.5513 198.17 98.0128 193.507L97.5886 192.784C67.4184 175.755 38.0506 155.898 17.3025 127.667C8.88215 116.209 3.34438 104.546 -3.65001 92.401C-3.88 91.9999 -4.76933 90.2188 -5.22421 90.5306Z" fill="white" fill-opacity="0.02"/>
<path d="M98.2683 205.008C92.7842 204.219 87.3001 203.289 81.7828 202.709C50.8102 199.451 8.82337 201.112 -10.9076 229.097C-26.5933 251.346 -21.9755 281.003 -8.24225 302.948C-7.66726 303.868 -5.43375 307.53 -4.84855 307.99C-4.57511 308.205 -4.63388 308.361 -4.32722 307.99C4.02159 294.097 11.8542 279.782 21.8692 266.977C38.2039 246.09 58.6479 229.81 80.9165 215.631L98.2734 205.008H98.2683Z" fill="white" fill-opacity="0.02"/>
<path d="M-119.46 205.264C-119.634 205.448 -118.279 207.055 -118.06 207.311C-95.4154 233.51 -72.9296 261.532 -46.889 284.353C-37.2011 292.845 -26.951 300.758 -16.4786 308.243C-16.9616 297.835 -19.8391 287.461 -23.3708 277.702C-32.2818 253.087 -52.5469 217.859 -77.1231 206.496C-90.8385 200.153 -105.29 200.672 -119.46 205.264Z" fill="white" fill-opacity="0.02"/>
<path d="M-119.46 193.76C-115.946 194.843 -112.374 195.85 -108.735 196.453C-64.568 203.744 -38.2131 157.02 -24.9731 122.025C-21.1552 111.934 -17.8611 101.286 -16.7316 90.5331L-30.7588 100.652C-64.7724 125.927 -90.3248 159.94 -117.922 191.601C-118.205 191.925 -119.613 193.55 -119.46 193.76Z" fill="white" fill-opacity="0.02"/>
</g>
<g opacity="0.96">
<circle cx="284.917" cy="32.5215" r="12.7256" fill="#EE4C11"/>
<mask id="mask1_4030_32" style="mask-type:alpha" maskUnits="userSpaceOnUse" x="272" y="19" width="26" height="27">
<circle cx="284.917" cy="32.5215" r="12.7256" fill="#D9D9D9"/>
</mask>
<g mask="url(#mask1_4030_32)">
<circle cx="293.048" cy="40.6515" r="10.9581" fill="#E7FF8F" style="mix-blend-mode:soft-light"/>
<circle cx="297.29" cy="28.6329" r="10.9581" fill="#AACE2A" style="mix-blend-mode:lighten"/>
</g>
</g>
<defs>
<linearGradient id="paint0_linear_4030_32" x1="196.301" y1="0.000125232" x2="98.9946" y2="180.131" gradientUnits="userSpaceOnUse">
<stop offset="0.114168" stop-color="#1178EE"/>
<stop offset="0.557084" stop-color="#3770A6" stop-opacity="0.595"/>
<stop offset="1" stop-color="#5D5D5D" stop-opacity="0.19"/>
</linearGradient>
</defs>
</svg>
