<svg width="319" height="182" viewBox="0 0 319 182" fill="none" xmlns="http://www.w3.org/2000/svg">
<rect x="1.43359" y="0.860352" width="316.854" height="180.279" rx="10" fill="url(#paint0_linear_71_486)" fill-opacity="0.19"/>
<rect x="1.93359" y="1.36035" width="315.854" height="179.279" rx="9.5" stroke="white" stroke-opacity="0.04"/>
<mask id="mask0_71_486" style="mask-type:alpha" maskUnits="userSpaceOnUse" x="0" y="0" width="319" height="182">
<rect x="0.962891" y="0.860352" width="317.433" height="180.279" rx="10" fill="#D9D9D9"/>
</mask>
<g mask="url(#mask0_71_486)">
<path d="M244.445 -17.486C247.276 -13.0296 250.481 -8.81843 252.927 -4.11666C267.485 23.8665 263.989 57.7448 236.249 75.632C209.179 93.0848 171.669 90.1538 141.208 85.4904L141.632 84.7672C171.802 67.7387 201.17 47.8813 221.918 19.6503C230.339 8.19226 235.876 -3.47017 242.871 -15.6156C243.101 -16.0167 243.99 -17.7978 244.445 -17.486Z" fill="white" fill-opacity="0.02"/>
<path d="M140.952 96.9918C146.436 96.2022 151.921 95.2721 157.438 94.6921C188.411 91.434 230.397 93.095 250.128 121.081C265.814 143.33 261.196 172.987 247.463 194.932C246.888 195.852 244.654 199.513 244.069 199.973C243.796 200.188 243.855 200.344 243.548 199.973C235.199 186.08 227.367 171.765 217.352 158.961C201.017 138.074 180.573 121.794 158.304 107.614L140.947 96.9918H140.952Z" fill="white" fill-opacity="0.02"/>
<path d="M358.681 97.2474C358.854 97.4314 357.5 99.0386 357.28 99.2942C334.636 125.494 312.15 153.515 286.11 176.337C276.422 184.828 266.172 192.742 255.699 200.226C256.182 189.819 259.06 179.444 262.591 169.685C271.503 145.07 291.768 109.842 316.344 98.479C330.059 92.1367 344.51 92.6555 358.681 97.2474Z" fill="white" fill-opacity="0.02"/>
<path d="M358.681 85.7434C355.167 86.8268 351.594 87.8336 347.955 88.4367C303.789 95.727 277.434 49.0031 264.194 14.0081C260.376 3.91723 257.082 -6.73075 255.952 -17.4835L269.979 -7.36446C303.993 17.9101 329.546 51.9238 357.142 83.5841C357.426 83.9087 358.834 85.5338 358.681 85.7434Z" fill="white" fill-opacity="0.02"/>
<path d="M-4.26327 91.3909C-7.09476 95.8474 -10.2994 100.059 -12.745 104.76C-27.3036 132.743 -23.8077 166.622 3.93222 184.509C31.0026 201.962 68.5122 199.031 98.9737 194.367L98.5495 193.644C68.3793 176.616 39.0115 156.758 18.2635 128.527C9.84309 117.069 4.30532 105.407 -2.68907 93.2614C-2.91907 92.8602 -3.80839 91.0792 -4.26327 91.3909Z" fill="white" fill-opacity="0.02"/>
<path d="M99.2293 205.869C93.7452 205.079 88.2611 204.149 82.7437 203.569C51.7711 200.311 9.78431 201.972 -9.94669 229.958C-25.6323 252.207 -21.0145 281.864 -7.28131 303.809C-6.70632 304.729 -4.47282 308.39 -3.88761 308.85C-3.61417 309.065 -3.67294 309.221 -3.36628 308.85C4.98253 294.957 12.8151 280.642 22.8301 267.838C39.1649 246.951 59.6088 230.671 81.8774 216.491L99.2344 205.869H99.2293Z" fill="white" fill-opacity="0.02"/>
<path d="M-118.499 206.124C-118.673 206.308 -117.318 207.916 -117.099 208.171C-94.4544 234.371 -71.9686 262.392 -45.9281 285.214C-36.2402 293.705 -25.9901 301.619 -15.5177 309.103C-16.0006 298.696 -18.8781 288.321 -22.4098 278.562C-31.3209 253.947 -51.586 218.719 -76.1622 207.356C-89.8775 201.014 -104.329 201.532 -118.499 206.124Z" fill="white" fill-opacity="0.02"/>
<path d="M-118.499 194.62C-114.985 195.704 -111.413 196.711 -107.774 197.314C-63.6071 204.604 -37.2522 157.88 -24.0122 122.885C-20.1942 112.794 -16.9002 102.146 -15.7707 91.3935L-29.7978 101.512C-63.8115 126.787 -89.3639 160.801 -116.961 192.461C-117.244 192.786 -118.652 194.411 -118.499 194.62Z" fill="white" fill-opacity="0.02"/>
</g>
<path d="M32.6722 19.9849C33.0037 20.5253 33.3789 21.0359 33.6652 21.6061C35.3697 24.9994 34.9604 29.1075 31.7127 31.2765C28.5433 33.3928 24.1516 33.0374 20.5852 32.4719L20.6349 32.3843C24.1672 30.3193 27.6056 27.9114 30.0348 24.4881C31.0206 23.0987 31.669 21.6845 32.4879 20.2117C32.5148 20.1631 32.6189 19.9471 32.6722 19.9849Z" fill="#CCCCCC"/>
<path d="M20.5553 33.8666C21.1974 33.7709 21.8394 33.6581 22.4854 33.5878C26.1117 33.1927 31.0275 33.3941 33.3376 36.7877C35.1741 39.4856 34.6334 43.0819 33.0255 45.7429C32.9582 45.8545 32.6967 46.2985 32.6282 46.3543C32.5962 46.3803 32.6031 46.3992 32.5672 46.3543C31.5897 44.6696 30.6726 42.9338 29.5001 41.381C27.5876 38.8482 25.194 36.8741 22.5868 35.1547L20.5547 33.8666H20.5553Z" fill="#CCCCCC"/>
<path d="M46.0469 33.8976C46.0672 33.9199 45.9087 34.1148 45.8829 34.1458C43.2318 37.3228 40.5991 40.7207 37.5503 43.4881C36.416 44.5178 35.216 45.4774 33.9898 46.385C34.0464 45.1229 34.3833 43.8649 34.7968 42.6815C35.8401 39.6966 38.2127 35.4249 41.0901 34.047C42.6959 33.2779 44.3878 33.3408 46.0469 33.8976Z" fill="#CCCCCC"/>
<path d="M46.0469 32.5026C45.6355 32.634 45.2172 32.7561 44.7912 32.8292C39.6201 33.7132 36.5345 28.0474 34.9844 23.8039C34.5374 22.5803 34.1517 21.2891 34.0195 19.9852L35.6618 21.2122C39.6441 24.2771 42.6358 28.4016 45.8668 32.2408C45.9 32.2801 46.0649 32.4772 46.0469 32.5026Z" fill="#CCCCCC"/>
<g opacity="0.96">
<circle cx="285.876" cy="33.3818" r="12.7256" fill="#EE4C11"/>
<mask id="mask1_71_486" style="mask-type:alpha" maskUnits="userSpaceOnUse" x="273" y="20" width="26" height="27">
<circle cx="285.876" cy="33.3818" r="12.7256" fill="#D9D9D9"/>
</mask>
<g mask="url(#mask1_71_486)">
<circle cx="294.007" cy="41.5118" r="10.9581" fill="#E7FF8F" style="mix-blend-mode:soft-light"/>
<circle cx="298.247" cy="29.4933" r="10.9581" fill="#AACE2A" style="mix-blend-mode:lighten"/>
</g>
</g>
<defs>
<linearGradient id="paint0_linear_71_486" x1="197.262" y1="0.860355" x2="99.9555" y2="180.991" gradientUnits="userSpaceOnUse">
<stop offset="0.114168" stop-color="#EE4C11"/>
<stop offset="0.557084" stop-color="#A45234" stop-opacity="0.595"/>
<stop offset="1" stop-color="#5D5D5D" stop-opacity="0.19"/>
</linearGradient>
</defs>
</svg>
