<svg width="1124" height="809" viewBox="0 0 1124 809" fill="none" xmlns="http://www.w3.org/2000/svg">
<rect x="4" y="4" width="1116" height="801" rx="24" fill="url(#paint0_radial_1147_2381)"/>
<rect x="4" y="4" width="1116" height="801" rx="24" fill="url(#paint1_radial_1147_2381)" fill-opacity="0.43"/>
<rect x="4" y="4" width="1116" height="801" rx="24" fill="url(#paint2_radial_1147_2381)" fill-opacity="0.43"/>
<rect x="2" y="2" width="1120" height="805" rx="26" stroke="#121212" stroke-opacity="0.52" stroke-width="4"/>
<mask id="mask0_1147_2381" style="mask-type:alpha" maskUnits="userSpaceOnUse" x="4" y="4" width="1116" height="801">
<rect x="4" y="4" width="1116" height="801" rx="24" fill="#D9D9D9"/>
</mask>
<g mask="url(#mask0_1147_2381)">
<mask id="path-4-inside-1_1147_2381" fill="white">
<path d="M18 398H116.909L116.909 489.2H18L18 398Z"/>
<path d="M116.909 398L215.818 398L215.818 489.2H116.909L116.909 398Z"/>
<path d="M215.818 398H314.727V489.2L215.818 489.2L215.818 398Z"/>
<path d="M314.727 398H413.636V489.2H314.727V398Z"/>
<path d="M413.636 398H512.545V489.2L413.636 489.2V398Z"/>
<path d="M512.545 398L611.455 398V489.2H512.545V398Z"/>
<path d="M611.455 398H710.364V489.2H611.455V398Z"/>
<path d="M710.364 398H809.273V489.2H710.364V398Z"/>
<path d="M809.273 398L908.182 398V489.2H809.273V398Z"/>
<path d="M908.182 398H1007.09V489.2L908.182 489.2V398Z"/>
<path d="M1007.09 398H1106V489.2H1007.09V398Z"/>
<path d="M18 489.2H116.909L116.909 580.4H18L18 489.2Z"/>
<path d="M116.909 489.2H215.818V580.4H116.909L116.909 489.2Z"/>
<path d="M215.818 489.2L314.727 489.2L314.727 580.4H215.818V489.2Z"/>
<path d="M314.727 489.2H413.636L413.636 580.4H314.727L314.727 489.2Z"/>
<path d="M413.636 489.2L512.545 489.2V580.4L413.636 580.4L413.636 489.2Z"/>
<path d="M512.545 489.2H611.455V580.4H512.545V489.2Z"/>
<path d="M611.455 489.2H710.364V580.4H611.455V489.2Z"/>
<path d="M710.364 489.2H809.273V580.4H710.364V489.2Z"/>
<path d="M809.273 489.2H908.182V580.4H809.273V489.2Z"/>
<path d="M908.182 489.2L1007.09 489.2V580.4L908.182 580.4V489.2Z"/>
<path d="M1007.09 489.2H1106V580.4H1007.09V489.2Z"/>
<path d="M18 580.4H116.909L116.909 671.6H18L18 580.4Z"/>
<path d="M116.909 580.4H215.818L215.818 671.6H116.909L116.909 580.4Z"/>
<path d="M215.818 580.4H314.727V671.6H215.818L215.818 580.4Z"/>
<path d="M314.727 580.4H413.636V671.6H314.727V580.4Z"/>
<path d="M413.636 580.4L512.545 580.4V671.6H413.636V580.4Z"/>
<path d="M512.545 580.4H611.455V671.6L512.545 671.6V580.4Z"/>
<path d="M611.455 580.4H710.364V671.6H611.455V580.4Z"/>
<path d="M710.364 580.4H809.273V671.6H710.364V580.4Z"/>
<path d="M809.273 580.4H908.182V671.6L809.273 671.6V580.4Z"/>
<path d="M908.182 580.4L1007.09 580.4V671.6H908.182V580.4Z"/>
<path d="M1007.09 580.4H1106V671.6H1007.09V580.4Z"/>
<path d="M18 671.6H116.909L116.909 762.8H18L18 671.6Z"/>
<path d="M116.909 671.6H215.818V762.8H116.909L116.909 671.6Z"/>
<path d="M215.818 671.6H314.727V762.8H215.818V671.6Z"/>
<path d="M314.727 671.6H413.636V762.8H314.727V671.6Z"/>
<path d="M413.636 671.6H512.545V762.8H413.636V671.6Z"/>
<path d="M512.545 671.6L611.455 671.6L611.455 762.8L512.545 762.8V671.6Z"/>
<path d="M611.455 671.6H710.364L710.364 762.8H611.455L611.455 671.6Z"/>
<path d="M710.364 671.6H809.273L809.273 762.8H710.364L710.364 671.6Z"/>
<path d="M809.273 671.6L908.182 671.6L908.182 762.8L809.273 762.8L809.273 671.6Z"/>
<path d="M908.182 671.6H1007.09L1007.09 762.8H908.182L908.182 671.6Z"/>
<path d="M1007.09 671.6H1106V762.8H1007.09L1007.09 671.6Z"/>
<path d="M18 762.8H116.909L116.909 854H18L18 762.8Z"/>
<path d="M116.909 762.8H215.818L215.818 854H116.909L116.909 762.8Z"/>
<path d="M215.818 762.8H314.727V854H215.818L215.818 762.8Z"/>
<path d="M314.727 762.8H413.636V854H314.727V762.8Z"/>
<path d="M413.636 762.8H512.545V854H413.636V762.8Z"/>
<path d="M512.545 762.8L611.455 762.8V854L512.545 854V762.8Z"/>
<path d="M611.455 762.8H710.364V854H611.455V762.8Z"/>
<path d="M710.364 762.8H809.273V854H710.364V762.8Z"/>
<path d="M809.273 762.8L908.182 762.8V854L809.273 854V762.8Z"/>
<path d="M908.182 762.8H1007.09V854H908.182V762.8Z"/>
<path d="M1007.09 762.8H1106V854H1007.09V762.8Z"/>
</mask>
<path d="M116.909 398H116.409L116.409 489.2H116.909H117.409L117.409 398H116.909ZM116.909 489.2V488.7H18V489.2V489.7H116.909V489.2ZM215.818 398H215.318L215.318 489.2H215.818H216.318L216.318 398H215.818ZM215.818 489.2V488.7H116.909V489.2V489.7H215.818V489.2ZM314.727 398H314.227V489.2H314.727H315.227V398H314.727ZM314.727 489.2V488.7L215.818 488.7V489.2V489.7L314.727 489.7V489.2ZM413.636 398H413.136V489.2H413.636H414.136V398H413.636ZM413.636 489.2V488.7H314.727V489.2V489.7H413.636V489.2ZM512.545 398H512.045V489.2H512.545H513.045V398H512.545ZM512.545 489.2V488.7L413.636 488.7V489.2V489.7L512.545 489.7V489.2ZM611.455 398H610.955V489.2H611.455H611.955V398H611.455ZM611.455 489.2V488.7H512.545V489.2V489.7H611.455V489.2ZM710.364 398H709.864V489.2H710.364H710.864V398H710.364ZM710.364 489.2V488.7H611.455V489.2V489.7H710.364V489.2ZM809.273 398H808.773V489.2H809.273H809.773V398H809.273ZM809.273 489.2V488.7H710.364V489.2V489.7H809.273V489.2ZM908.182 398H907.682V489.2H908.182H908.682V398H908.182ZM908.182 489.2V488.7H809.273V489.2V489.7H908.182V489.2ZM1007.09 398H1006.59V489.2H1007.09H1007.59V398H1007.09ZM1007.09 489.2V488.7L908.182 488.7V489.2V489.7L1007.09 489.7V489.2ZM1106 489.2V488.7H1007.09V489.2V489.7H1106V489.2ZM116.909 489.2H116.409L116.409 580.4H116.909H117.409L117.409 489.2H116.909ZM116.909 580.4V579.9H18V580.4V580.9H116.909V580.4ZM215.818 489.2H215.318V580.4H215.818H216.318V489.2H215.818ZM215.818 580.4V579.9H116.909V580.4V580.9H215.818V580.4ZM314.727 489.2H314.227L314.227 580.4H314.727H315.227L315.227 489.2H314.727ZM314.727 580.4V579.9H215.818V580.4V580.9H314.727V580.4ZM413.636 489.2H413.136L413.136 580.4H413.636H414.136L414.136 489.2H413.636ZM413.636 580.4V579.9H314.727V580.4V580.9H413.636V580.4ZM512.545 489.2H512.045V580.4H512.545H513.045V489.2H512.545ZM512.545 580.4V579.9L413.636 579.9V580.4V580.9L512.545 580.9V580.4ZM611.455 489.2H610.955V580.4H611.455H611.955V489.2H611.455ZM611.455 580.4V579.9H512.545V580.4V580.9H611.455V580.4ZM710.364 489.2H709.864V580.4H710.364H710.864V489.2H710.364ZM710.364 580.4V579.9H611.455V580.4V580.9H710.364V580.4ZM809.273 489.2H808.773V580.4H809.273H809.773V489.2H809.273ZM809.273 580.4V579.9H710.364V580.4V580.9H809.273V580.4ZM908.182 489.2H907.682V580.4H908.182H908.682V489.2H908.182ZM908.182 580.4V579.9H809.273V580.4V580.9H908.182V580.4ZM1007.09 489.2H1006.59V580.4H1007.09H1007.59V489.2H1007.09ZM1007.09 580.4V579.9L908.182 579.9V580.4V580.9L1007.09 580.9V580.4ZM1106 580.4V579.9H1007.09V580.4V580.9H1106V580.4ZM116.909 580.4H116.409L116.409 671.6H116.909H117.409L117.409 580.4H116.909ZM116.909 671.6V671.1H18V671.6V672.1H116.909V671.6ZM215.818 580.4H215.318L215.318 671.6H215.818H216.318L216.318 580.4H215.818ZM215.818 671.6V671.1H116.909V671.6V672.1H215.818V671.6ZM314.727 580.4H314.227V671.6H314.727H315.227V580.4H314.727ZM314.727 671.6V671.1H215.818V671.6V672.1H314.727V671.6ZM413.636 580.4H413.136V671.6H413.636H414.136V580.4H413.636ZM413.636 671.6V671.1H314.727V671.6V672.1H413.636V671.6ZM512.545 580.4H512.045V671.6H512.545H513.045V580.4H512.545ZM512.545 671.6V671.1H413.636V671.6V672.1H512.545V671.6ZM611.455 580.4H610.955V671.6H611.455H611.955V580.4H611.455ZM611.455 671.6V671.1L512.545 671.1V671.6V672.1L611.455 672.1V671.6ZM710.364 580.4H709.864V671.6H710.364H710.864V580.4H710.364ZM710.364 671.6V671.1H611.455V671.6V672.1H710.364V671.6ZM809.273 580.4H808.773V671.6H809.273H809.773V580.4H809.273ZM809.273 671.6V671.1H710.364V671.6V672.1H809.273V671.6ZM908.182 580.4H907.682V671.6H908.182H908.682V580.4H908.182ZM908.182 671.6V671.1L809.273 671.1V671.6V672.1L908.182 672.1V671.6ZM1007.09 580.4H1006.59V671.6H1007.09H1007.59V580.4H1007.09ZM1007.09 671.6V671.1H908.182V671.6V672.1H1007.09V671.6ZM1106 671.6V671.1H1007.09V671.6V672.1H1106V671.6ZM116.909 671.6H116.409L116.409 762.8H116.909H117.409L117.409 671.6H116.909ZM116.909 762.8V762.3H18L18 762.8V763.3H116.909V762.8ZM215.818 671.6H215.318V762.8H215.818H216.318V671.6H215.818ZM215.818 762.8V762.3H116.909V762.8V763.3H215.818V762.8ZM314.727 671.6H314.227V762.8H314.727H315.227V671.6H314.727ZM314.727 762.8V762.3H215.818V762.8V763.3H314.727V762.8ZM413.636 671.6H413.136V762.8H413.636H414.136V671.6H413.636ZM413.636 762.8V762.3H314.727V762.8V763.3H413.636V762.8ZM512.545 671.6H512.045V762.8H512.545H513.045V671.6H512.545ZM512.545 762.8V762.3H413.636V762.8V763.3H512.545V762.8ZM611.455 671.6H610.955L610.955 762.8H611.455H611.955L611.955 671.6H611.455ZM611.455 762.8V762.3L512.545 762.3V762.8V763.3L611.455 763.3V762.8ZM710.364 671.6H709.864L709.864 762.8H710.364H710.864L710.864 671.6H710.364ZM710.364 762.8V762.3H611.455V762.8V763.3H710.364V762.8ZM809.273 671.6H808.773L808.773 762.8H809.273H809.773L809.773 671.6H809.273ZM809.273 762.8V762.3H710.364V762.8V763.3H809.273V762.8ZM908.182 671.6H907.682L907.682 762.8H908.182H908.682L908.682 671.6H908.182ZM908.182 762.8V762.3L809.273 762.3V762.8V763.3L908.182 763.3V762.8ZM1007.09 671.6H1006.59L1006.59 762.8H1007.09H1007.59L1007.59 671.6H1007.09ZM1007.09 762.8V762.3H908.182V762.8V763.3H1007.09V762.8ZM1106 762.8V762.3H1007.09V762.8V763.3H1106V762.8ZM116.909 762.8H116.409L116.409 854H116.909H117.409L117.409 762.8H116.909ZM215.818 762.8H215.318L215.318 854H215.818H216.318L216.318 762.8H215.818ZM314.727 762.8H314.227V854H314.727H315.227V762.8H314.727ZM413.636 762.8H413.136V854H413.636H414.136V762.8H413.636ZM512.545 762.8H512.045V854H512.545H513.045V762.8H512.545ZM611.455 762.8H610.955V854H611.455H611.955V762.8H611.455ZM710.364 762.8H709.864V854H710.364H710.864V762.8H710.364ZM809.273 762.8H808.773V854H809.273H809.773V762.8H809.273ZM908.182 762.8H907.682V854H908.182H908.682V762.8H908.182ZM1007.09 762.8H1006.59V854H1007.09H1007.59V762.8H1007.09ZM18 398V397H17V398H18ZM1106 398H1107V397H1106V398ZM18 854H17V855H18V854ZM1106 854V855H1107V854H1106ZM18 398V399H116.909V398V397H18V398ZM18 489.2H19L19 398H18H17L17 489.2H18ZM116.909 398V399L215.818 399V398V397L116.909 397V398ZM215.818 398V399H314.727V398V397H215.818V398ZM314.727 398V399H413.636V398V397H314.727V398ZM413.636 398V399H512.545V398V397H413.636V398ZM512.545 398V399L611.455 399V398V397L512.545 397V398ZM611.455 398V399H710.364V398V397H611.455V398ZM710.364 398V399H809.273V398V397H710.364V398ZM809.273 398V399L908.182 399V398V397L809.273 397V398ZM908.182 398V399H1007.09V398V397H908.182V398ZM1007.09 398V399H1106V398V397H1007.09V398ZM1106 398H1105V489.2H1106H1107V398H1106ZM18 580.4H19L19 489.2H18H17L17 580.4H18ZM1106 489.2H1105V580.4H1106H1107V489.2H1106ZM18 671.6H19L19 580.4H18H17L17 671.6H18ZM1106 580.4H1105V671.6H1106H1107V580.4H1106ZM18 762.8H19L19 671.6H18H17L17 762.8H18ZM1106 671.6H1105V762.8H1106H1107V671.6H1106ZM116.909 854V853H18V854V855H116.909V854ZM18 854H19L19 762.8H18H17L17 854H18ZM215.818 854V853H116.909V854V855H215.818V854ZM314.727 854V853H215.818V854V855H314.727V854ZM413.636 854V853H314.727V854V855H413.636V854ZM512.545 854V853H413.636V854V855H512.545V854ZM611.455 854V853L512.545 853V854V855L611.455 855V854ZM710.364 854V853H611.455V854V855H710.364V854ZM809.273 854V853H710.364V854V855H809.273V854ZM908.182 854V853L809.273 853V854V855L908.182 855V854ZM1007.09 854V853H908.182V854V855H1007.09V854ZM1106 762.8H1105V854H1106H1107V762.8H1106ZM1106 854V853H1007.09V854V855H1106V854Z" fill="url(#paint3_radial_1147_2381)" fill-opacity="0.3" mask="url(#path-4-inside-1_1147_2381)"/>
<rect x="4.5" y="4.5" width="1115" height="800" rx="23.5" stroke="#1D1C20"/>
<mask id="path-7-inside-2_1147_2381" fill="white">
<path d="M18 -212L116.909 -212L116.909 -120.8L18 -120.8L18 -212Z"/>
<path d="M116.909 -212H215.818L215.818 -120.8L116.909 -120.8L116.909 -212Z"/>
<path d="M215.818 -212L314.727 -212V-120.8L215.818 -120.8L215.818 -212Z"/>
<path d="M314.727 -212H413.636V-120.8L314.727 -120.8V-212Z"/>
<path d="M413.636 -212L512.545 -212V-120.8L413.636 -120.8V-212Z"/>
<path d="M512.545 -212H611.455V-120.8L512.545 -120.8V-212Z"/>
<path d="M611.455 -212L710.364 -212V-120.8L611.455 -120.8V-212Z"/>
<path d="M710.364 -212H809.273V-120.8L710.364 -120.8V-212Z"/>
<path d="M809.273 -212L908.182 -212V-120.8L809.273 -120.8V-212Z"/>
<path d="M908.182 -212L1007.09 -212V-120.8L908.182 -120.8V-212Z"/>
<path d="M1007.09 -212H1106V-120.8L1007.09 -120.8V-212Z"/>
<path d="M18 -120.8L116.909 -120.8L116.909 -29.6L18 -29.6L18 -120.8Z"/>
<path d="M116.909 -120.8L215.818 -120.8V-29.6H116.909L116.909 -120.8Z"/>
<path d="M215.818 -120.8L314.727 -120.8L314.727 -29.6L215.818 -29.6V-120.8Z"/>
<path d="M314.727 -120.8L413.636 -120.8L413.636 -29.6H314.727L314.727 -120.8Z"/>
<path d="M413.636 -120.8L512.545 -120.8V-29.6L413.636 -29.6L413.636 -120.8Z"/>
<path d="M512.545 -120.8L611.455 -120.8V-29.6H512.545V-120.8Z"/>
<path d="M611.455 -120.8L710.364 -120.8V-29.6L611.455 -29.6V-120.8Z"/>
<path d="M710.364 -120.8L809.273 -120.8V-29.6H710.364V-120.8Z"/>
<path d="M809.273 -120.8L908.182 -120.8V-29.6L809.273 -29.6V-120.8Z"/>
<path d="M908.182 -120.8L1007.09 -120.8V-29.6L908.182 -29.6V-120.8Z"/>
<path d="M1007.09 -120.8L1106 -120.8V-29.6H1007.09V-120.8Z"/>
<path d="M18 -29.6L116.909 -29.6L116.909 61.6H18L18 -29.6Z"/>
<path d="M116.909 -29.6H215.818L215.818 61.6L116.909 61.6L116.909 -29.6Z"/>
<path d="M215.818 -29.6L314.727 -29.6V61.6H215.818L215.818 -29.6Z"/>
<path d="M314.727 -29.6H413.636V61.6H314.727V-29.6Z"/>
<path d="M413.636 -29.6L512.545 -29.6V61.6H413.636V-29.6Z"/>
<path d="M512.545 -29.6H611.455V61.6L512.545 61.6V-29.6Z"/>
<path d="M611.455 -29.6L710.364 -29.6V61.6H611.455V-29.6Z"/>
<path d="M710.364 -29.6H809.273V61.6H710.364V-29.6Z"/>
<path d="M809.273 -29.6L908.182 -29.6V61.6L809.273 61.6V-29.6Z"/>
<path d="M908.182 -29.6L1007.09 -29.6V61.6H908.182V-29.6Z"/>
<path d="M1007.09 -29.6H1106V61.6H1007.09V-29.6Z"/>
<path d="M18 61.6H116.909L116.909 152.8H18L18 61.6Z"/>
<path d="M116.909 61.6L215.818 61.6V152.8L116.909 152.8L116.909 61.6Z"/>
<path d="M215.818 61.6H314.727V152.8H215.818V61.6Z"/>
<path d="M314.727 61.6H413.636V152.8H314.727V61.6Z"/>
<path d="M413.636 61.6H512.545V152.8H413.636V61.6Z"/>
<path d="M512.545 61.6L611.455 61.6L611.455 152.8L512.545 152.8V61.6Z"/>
<path d="M611.455 61.6H710.364L710.364 152.8H611.455L611.455 61.6Z"/>
<path d="M710.364 61.6H809.273L809.273 152.8H710.364L710.364 61.6Z"/>
<path d="M809.273 61.6L908.182 61.6L908.182 152.8L809.273 152.8L809.273 61.6Z"/>
<path d="M908.182 61.6H1007.09L1007.09 152.8H908.182L908.182 61.6Z"/>
<path d="M1007.09 61.6H1106V152.8H1007.09L1007.09 61.6Z"/>
<path d="M18 152.8H116.909L116.909 244H18L18 152.8Z"/>
<path d="M116.909 152.8L215.818 152.8L215.818 244L116.909 244L116.909 152.8Z"/>
<path d="M215.818 152.8H314.727V244H215.818L215.818 152.8Z"/>
<path d="M314.727 152.8H413.636V244H314.727V152.8Z"/>
<path d="M413.636 152.8H512.545V244H413.636V152.8Z"/>
<path d="M512.545 152.8L611.455 152.8V244L512.545 244V152.8Z"/>
<path d="M611.455 152.8H710.364V244H611.455V152.8Z"/>
<path d="M710.364 152.8H809.273V244H710.364V152.8Z"/>
<path d="M809.273 152.8L908.182 152.8V244L809.273 244V152.8Z"/>
<path d="M908.182 152.8H1007.09V244H908.182V152.8Z"/>
<path d="M1007.09 152.8H1106V244H1007.09V152.8Z"/>
</mask>
<path d="M116.909 -212H116.409L116.409 -120.8H116.909H117.409L117.409 -212H116.909ZM116.909 -120.8V-121.3L18 -121.3V-120.8V-120.3L116.909 -120.3V-120.8ZM215.818 -212H215.318L215.318 -120.8H215.818H216.318L216.318 -212H215.818ZM215.818 -120.8V-121.3L116.909 -121.3V-120.8V-120.3L215.818 -120.3V-120.8ZM314.727 -212H314.227V-120.8H314.727H315.227V-212H314.727ZM314.727 -120.8V-121.3L215.818 -121.3V-120.8V-120.3L314.727 -120.3V-120.8ZM413.636 -212H413.136V-120.8H413.636H414.136V-212H413.636ZM413.636 -120.8V-121.3L314.727 -121.3V-120.8V-120.3L413.636 -120.3V-120.8ZM512.545 -212H512.045V-120.8H512.545H513.045V-212H512.545ZM512.545 -120.8V-121.3L413.636 -121.3V-120.8V-120.3L512.545 -120.3V-120.8ZM611.455 -212H610.955V-120.8H611.455H611.955V-212H611.455ZM611.455 -120.8V-121.3L512.545 -121.3V-120.8V-120.3L611.455 -120.3V-120.8ZM710.364 -212H709.864V-120.8H710.364H710.864V-212H710.364ZM710.364 -120.8V-121.3L611.455 -121.3V-120.8V-120.3L710.364 -120.3V-120.8ZM809.273 -212H808.773V-120.8H809.273H809.773V-212H809.273ZM809.273 -120.8V-121.3L710.364 -121.3V-120.8V-120.3L809.273 -120.3V-120.8ZM908.182 -212H907.682V-120.8H908.182H908.682V-212H908.182ZM908.182 -120.8V-121.3L809.273 -121.3V-120.8V-120.3L908.182 -120.3V-120.8ZM1007.09 -212H1006.59V-120.8H1007.09H1007.59V-212H1007.09ZM1007.09 -120.8V-121.3L908.182 -121.3V-120.8V-120.3L1007.09 -120.3V-120.8ZM1106 -120.8V-121.3L1007.09 -121.3V-120.8V-120.3L1106 -120.3V-120.8ZM116.909 -120.8H116.409L116.409 -29.6H116.909H117.409L117.409 -120.8H116.909ZM116.909 -29.6V-30.1L18 -30.1V-29.6V-29.1L116.909 -29.1V-29.6ZM215.818 -120.8H215.318V-29.6H215.818H216.318V-120.8H215.818ZM215.818 -29.6V-30.1H116.909V-29.6V-29.1H215.818V-29.6ZM314.727 -120.8H314.227L314.227 -29.6H314.727H315.227L315.227 -120.8H314.727ZM314.727 -29.6V-30.1L215.818 -30.1V-29.6V-29.1L314.727 -29.1V-29.6ZM413.636 -120.8H413.136L413.136 -29.6H413.636H414.136L414.136 -120.8H413.636ZM413.636 -29.6V-30.1H314.727V-29.6V-29.1H413.636V-29.6ZM512.545 -120.8H512.045V-29.6H512.545H513.045V-120.8H512.545ZM512.545 -29.6V-30.1L413.636 -30.1V-29.6V-29.1L512.545 -29.1V-29.6ZM611.455 -120.8H610.955V-29.6H611.455H611.955V-120.8H611.455ZM611.455 -29.6V-30.1H512.545V-29.6V-29.1H611.455V-29.6ZM710.364 -120.8H709.864V-29.6H710.364H710.864V-120.8H710.364ZM710.364 -29.6V-30.1L611.455 -30.1V-29.6V-29.1L710.364 -29.1V-29.6ZM809.273 -120.8H808.773V-29.6H809.273H809.773V-120.8H809.273ZM809.273 -29.6V-30.1H710.364V-29.6V-29.1H809.273V-29.6ZM908.182 -120.8H907.682V-29.6H908.182H908.682V-120.8H908.182ZM908.182 -29.6V-30.1L809.273 -30.1V-29.6V-29.1L908.182 -29.1V-29.6ZM1007.09 -120.8H1006.59V-29.6H1007.09H1007.59V-120.8H1007.09ZM1007.09 -29.6V-30.1L908.182 -30.1V-29.6V-29.1L1007.09 -29.1V-29.6ZM1106 -29.6V-30.1H1007.09V-29.6V-29.1H1106V-29.6ZM116.909 -29.6H116.409L116.409 61.6H116.909H117.409L117.409 -29.6H116.909ZM116.909 61.6V61.1H18V61.6V62.1H116.909V61.6ZM215.818 -29.6H215.318L215.318 61.6H215.818H216.318L216.318 -29.6H215.818ZM215.818 61.6V61.1L116.909 61.1V61.6V62.1L215.818 62.1V61.6ZM314.727 -29.6H314.227V61.6H314.727H315.227V-29.6H314.727ZM314.727 61.6V61.1H215.818V61.6V62.1H314.727V61.6ZM413.636 -29.6H413.136V61.6H413.636H414.136V-29.6H413.636ZM413.636 61.6V61.1H314.727V61.6V62.1H413.636V61.6ZM512.545 -29.6H512.045V61.6H512.545H513.045V-29.6H512.545ZM512.545 61.6V61.1H413.636V61.6V62.1H512.545V61.6ZM611.455 -29.6H610.955V61.6H611.455H611.955V-29.6H611.455ZM611.455 61.6V61.1L512.545 61.1V61.6V62.1L611.455 62.1V61.6ZM710.364 -29.6H709.864V61.6H710.364H710.864V-29.6H710.364ZM710.364 61.6V61.1H611.455V61.6V62.1H710.364V61.6ZM809.273 -29.6H808.773V61.6H809.273H809.773V-29.6H809.273ZM809.273 61.6V61.1H710.364V61.6V62.1H809.273V61.6ZM908.182 -29.6H907.682V61.6H908.182H908.682V-29.6H908.182ZM908.182 61.6V61.1L809.273 61.1V61.6V62.1L908.182 62.1V61.6ZM1007.09 -29.6H1006.59V61.6H1007.09H1007.59V-29.6H1007.09ZM1007.09 61.6V61.1H908.182V61.6V62.1H1007.09V61.6ZM1106 61.6V61.1H1007.09V61.6V62.1H1106V61.6ZM116.909 61.6H116.409L116.409 152.8H116.909H117.409L117.409 61.6H116.909ZM116.909 152.8V152.3H18L18 152.8V153.3H116.909V152.8ZM215.818 61.6H215.318V152.8H215.818H216.318V61.6H215.818ZM215.818 152.8V152.3L116.909 152.3V152.8V153.3L215.818 153.3V152.8ZM314.727 61.6H314.227V152.8H314.727H315.227V61.6H314.727ZM314.727 152.8V152.3H215.818V152.8V153.3H314.727V152.8ZM413.636 61.6H413.136V152.8H413.636H414.136V61.6H413.636ZM413.636 152.8V152.3H314.727V152.8V153.3H413.636V152.8ZM512.545 61.6H512.045V152.8H512.545H513.045V61.6H512.545ZM512.545 152.8V152.3H413.636V152.8V153.3H512.545V152.8ZM611.455 61.6H610.955L610.955 152.8H611.455H611.955L611.955 61.6H611.455ZM611.455 152.8V152.3L512.545 152.3V152.8V153.3L611.455 153.3V152.8ZM710.364 61.6H709.864L709.864 152.8H710.364H710.864L710.864 61.6H710.364ZM710.364 152.8V152.3H611.455V152.8V153.3H710.364V152.8ZM809.273 61.6H808.773L808.773 152.8H809.273H809.773L809.773 61.6H809.273ZM809.273 152.8V152.3H710.364V152.8V153.3H809.273V152.8ZM908.182 61.6H907.682L907.682 152.8H908.182H908.682L908.682 61.6H908.182ZM908.182 152.8V152.3L809.273 152.3V152.8V153.3L908.182 153.3V152.8ZM1007.09 61.6H1006.59L1006.59 152.8H1007.09H1007.59L1007.59 61.6H1007.09ZM1007.09 152.8V152.3H908.182V152.8V153.3H1007.09V152.8ZM1106 152.8V152.3H1007.09V152.8V153.3H1106V152.8ZM116.909 152.8H116.409L116.409 244H116.909H117.409L117.409 152.8H116.909ZM215.818 152.8H215.318L215.318 244H215.818H216.318L216.318 152.8H215.818ZM314.727 152.8H314.227V244H314.727H315.227V152.8H314.727ZM413.636 152.8H413.136V244H413.636H414.136V152.8H413.636ZM512.545 152.8H512.045V244H512.545H513.045V152.8H512.545ZM611.455 152.8H610.955V244H611.455H611.955V152.8H611.455ZM710.364 152.8H709.864V244H710.364H710.864V152.8H710.364ZM809.273 152.8H808.773V244H809.273H809.773V152.8H809.273ZM908.182 152.8H907.682V244H908.182H908.682V152.8H908.182ZM1007.09 152.8H1006.59V244H1007.09H1007.59V152.8H1007.09ZM18 -212V-213H17V-212H18ZM1106 -212H1107V-213H1106V-212ZM18 244H17V245H18V244ZM1106 244V245H1107V244H1106ZM18 -212V-211L116.909 -211V-212V-213L18 -213V-212ZM18 -120.8H19L19 -212H18H17L17 -120.8H18ZM116.909 -212V-211H215.818V-212V-213H116.909V-212ZM215.818 -212V-211L314.727 -211V-212V-213L215.818 -213V-212ZM314.727 -212V-211H413.636V-212V-213H314.727V-212ZM413.636 -212V-211L512.545 -211V-212V-213L413.636 -213V-212ZM512.545 -212V-211H611.455V-212V-213H512.545V-212ZM611.455 -212V-211L710.364 -211V-212V-213L611.455 -213V-212ZM710.364 -212V-211H809.273V-212V-213H710.364V-212ZM809.273 -212V-211L908.182 -211V-212V-213L809.273 -213V-212ZM908.182 -212V-211L1007.09 -211V-212V-213L908.182 -213V-212ZM1007.09 -212V-211H1106V-212V-213H1007.09V-212ZM1106 -212H1105V-120.8H1106H1107V-212H1106ZM18 -29.6H19L19 -120.8H18H17L17 -29.6H18ZM1106 -120.8H1105V-29.6H1106H1107V-120.8H1106ZM18 61.6H19L19 -29.6H18H17L17 61.6H18ZM1106 -29.6H1105V61.6H1106H1107V-29.6H1106ZM18 152.8H19L19 61.6H18H17L17 152.8H18ZM1106 61.6H1105V152.8H1106H1107V61.6H1106ZM116.909 244V243H18V244V245H116.909V244ZM18 244H19L19 152.8H18H17L17 244H18ZM215.818 244V243L116.909 243V244V245L215.818 245V244ZM314.727 244V243H215.818V244V245H314.727V244ZM413.636 244V243H314.727V244V245H413.636V244ZM512.545 244V243H413.636V244V245H512.545V244ZM611.455 244V243L512.545 243V244V245L611.455 245V244ZM710.364 244V243H611.455V244V245H710.364V244ZM809.273 244V243H710.364V244V245H809.273V244ZM908.182 244V243L809.273 243V244V245L908.182 245V244ZM1007.09 244V243H908.182V244V245H1007.09V244ZM1106 152.8H1105V244H1106H1107V152.8H1106ZM1106 244V243H1007.09V244V245H1106V244Z" fill="url(#paint4_radial_1147_2381)" fill-opacity="0.3" mask="url(#path-7-inside-2_1147_2381)"/>
</g>
<defs>
<radialGradient id="paint0_radial_1147_2381" cx="0" cy="0" r="1" gradientUnits="userSpaceOnUse" gradientTransform="translate(562 404.5) rotate(90) scale(400.5 558)">
<stop stop-color="#111017"/>
<stop offset="1" stop-color="#0A090E"/>
</radialGradient>
<radialGradient id="paint1_radial_1147_2381" cx="0" cy="0" r="1" gradientUnits="userSpaceOnUse" gradientTransform="translate(562 4.00001) rotate(90) scale(235 512.007)">
<stop stop-color="#BEEE11" stop-opacity="0.12"/>
<stop offset="1" stop-color="#BEEE11" stop-opacity="0"/>
</radialGradient>
<radialGradient id="paint2_radial_1147_2381" cx="0" cy="0" r="1" gradientTransform="matrix(646.972 -407.486 454.607 810.88 212.152 1212.49)" gradientUnits="userSpaceOnUse">
<stop stop-color="white" stop-opacity="0.37"/>
<stop offset="1" stop-color="#121212" stop-opacity="0"/>
</radialGradient>
<radialGradient id="paint3_radial_1147_2381" cx="0" cy="0" r="1" gradientUnits="userSpaceOnUse" gradientTransform="translate(562 735.6) rotate(90) scale(306.8 732.014)">
<stop stop-color="#9A9A9A" stop-opacity="0.21"/>
<stop offset="1" stop-color="#898989" stop-opacity="0"/>
</radialGradient>
<radialGradient id="paint4_radial_1147_2381" cx="0" cy="0" r="1" gradientUnits="userSpaceOnUse" gradientTransform="translate(562 125.6) rotate(90) scale(306.8 732.014)">
<stop stop-color="#9A9A9A" stop-opacity="0.21"/>
<stop offset="1" stop-color="#898989" stop-opacity="0"/>
</radialGradient>
</defs>
</svg>
