<svg width="32" height="32" viewBox="0 0 32 32" fill="none" xmlns="http://www.w3.org/2000/svg">
<g opacity="0.5">
<rect x="0.5" y="0.5" width="31" height="31" rx="4.5" fill="black" fill-opacity="0.3" stroke="#FF8833"/>
<path d="M16.5 7.75C16.5 7.33579 16.1642 7 15.75 7C15.3358 7 15 7.33579 15 7.75L15 15H7.75C7.33579 15 7 15.3358 7 15.75C7 16.1642 7.33579 16.5 7.75 16.5H15V23.75C15 24.1642 15.3358 24.5 15.75 24.5C16.1642 24.5 16.5 24.1642 16.5 23.75V16.5H23.75C24.1642 16.5 24.5 16.1642 24.5 15.75C24.5 15.3358 24.1642 15 23.75 15H16.5L16.5 7.75Z" fill="#FF8833"/>
<path d="M16.7 7.75C16.7 7.22533 16.2747 6.8 15.75 6.8C15.2253 6.8 14.8 7.22533 14.8 7.75L14.8 14.8H7.75C7.22533 14.8 6.8 15.2253 6.8 15.75C6.8 16.2747 7.22533 16.7 7.75 16.7H14.8V23.75C14.8 24.2747 15.2253 24.7 15.75 24.7C16.2747 24.7 16.7 24.2747 16.7 23.75V16.7H23.75C24.2747 16.7 24.7 16.2747 24.7 15.75C24.7 15.2253 24.2747 14.8 23.75 14.8H16.7L16.7 7.75Z" stroke="#FF8833" stroke-opacity="0.34" stroke-width="0.4" stroke-linecap="round"/>
</g>
</svg>
