<svg width="24" height="24" viewBox="0 0 24 24" fill="none" xmlns="http://www.w3.org/2000/svg">
<path d="M16.2859 18.8568H18.8573C19.3716 18.8568 19.7144 18.5139 19.7144 17.9997V15.4282H15.4287V17.9997C15.4287 18.5139 15.7716 18.8568 16.2859 18.8568Z" fill="white" fill-opacity="0.12"/>
<path d="M5.14303 18.8568H7.71446C8.22875 18.8568 8.5716 18.5139 8.5716 17.9997V15.4282H4.28589V17.9997C4.28589 18.5139 4.62875 18.8568 5.14303 18.8568Z" fill="white" fill-opacity="0.12"/>
<path d="M11.1429 18H10.2857C10.2857 19.4571 9.17143 20.5714 7.71429 20.5714H5.14286C3.68571 20.5714 2.57143 19.4571 2.57143 18H0V23.1429C0 23.6571 0.342857 24 0.857143 24H8.57143C9.51429 24 10.4571 23.6571 11.1429 23.1429V18Z" fill="white" fill-opacity="0.12"/>
<path d="M21.4286 18C21.4286 19.4571 20.3143 20.5714 18.8572 20.5714H16.2857C14.8286 20.5714 13.7143 19.4571 13.7143 18H12.8572V23.1429C13.5429 23.7429 14.4857 24 15.4286 24H23.1429C23.6572 24 24 23.6571 24 23.1429V18H21.4286Z" fill="white" fill-opacity="0.12"/>
<path d="M11.1429 16.2862V12.8577H0V16.2862H2.57143V14.572C2.57143 14.0577 2.91429 13.7148 3.42857 13.7148H9.42857C9.94286 13.7148 10.2857 14.0577 10.2857 14.572V16.2862H11.1429Z" fill="white" fill-opacity="0.12"/>
<path d="M12.8572 12.8577V16.2862H13.7143V14.572C13.7143 14.0577 14.0572 13.7148 14.5715 13.7148H20.5715C21.0857 13.7148 21.4286 14.0577 21.4286 14.572V16.2862H24V12.8577H12.8572Z" fill="white" fill-opacity="0.12"/>
<path d="M12.8572 11.1429H24C24 10.7143 23.7429 10.3714 23.3143 10.2857C21.6857 9.85714 20.5715 8.4 20.5715 6.68571V0.857143C20.5715 0.342857 20.2286 0 19.7143 0H17.1429C16.8 0 16.5429 0.171429 16.3715 0.428571L12.8572 6.34286V11.1429Z" fill="white" fill-opacity="0.12"/>
<path d="M11.1429 6.34286L7.62857 0.428571C7.45714 0.171429 7.2 0 6.85714 0H4.28571C3.77143 0 3.42857 0.342857 3.42857 0.857143V6.77143C3.42857 8.48571 2.31429 9.94286 0.685714 10.3714C0.257143 10.3714 0 10.7143 0 11.1429H11.1429V6.34286Z" fill="white" fill-opacity="0.12"/>
</svg>
