<svg width="13" height="16" viewBox="0 0 13 16" fill="none" xmlns="http://www.w3.org/2000/svg">
<path d="M10.5145 0H10.3054C9.91348 0 9.54609 0.195282 9.3227 0.522471L8.56415 1.63357C8.16658 2.21592 7.53839 2.54985 6.84073 2.54985C6.8406 2.54985 6.84085 2.54985 6.84073 2.54985C6.14285 2.54973 5.51426 2.21554 5.11681 1.63294L4.35936 0.522815C4.13598 0.195438 3.76856 0 3.37644 0H3.24828C3.1229 0 3.02647 0.112719 3.04376 0.238845C3.05939 0.352626 3.07182 0.442846 3.0752 0.466189C3.23382 1.3661 3.68939 2.25195 4.32567 2.89754C4.82204 3.40117 5.66743 4.00152 6.8762 4.00152C8.07218 4.00152 8.9052 3.40295 9.39338 2.90086C10.0198 2.25651 10.476 1.38463 10.6781 0.445689C10.6804 0.434439 10.6957 0.35797 10.7169 0.251657C10.7428 0.121751 10.645 0 10.5145 0Z" fill="#4870FF"/>
<path d="M8.40698 11.9173H12.7912C12.9065 11.9173 13 11.8234 13 11.7076V11.2736C13 11.1578 12.9065 11.0639 12.7912 11.0639H8.40695C8.15517 11.0639 7.93852 10.8695 7.92669 10.6169C7.91403 10.3472 8.12801 10.1245 8.39375 10.1245H12.7912C12.9065 10.1245 13 10.0306 13 9.91477V9.52014C13 9.4043 12.9065 9.31039 12.7912 9.31039H8.40695C8.15517 9.31039 7.93852 9.11605 7.92669 8.86342C7.91403 8.59371 8.12801 8.37105 8.39375 8.37105H12.7912C12.9065 8.37105 13 8.27714 13 8.1613V6.74708L12.95 6.64736C12.4987 5.7482 12.2548 4.74076 12.2445 3.73395C12.2342 2.72713 12.4575 1.71482 12.8902 0.80672C12.9761 0.626689 12.9616 0.417626 12.8509 0.250719C12.7446 0.0904064 12.5603 0 12.3686 0H11.5956C11.4963 0 11.4107 0.0704064 11.391 0.16825C11.3071 0.584595 11.2964 0.636876 11.2943 0.646314C11.0528 1.75663 10.5033 2.79172 9.74719 3.56088C8.85967 4.46373 7.74949 4.94092 6.53668 4.94092C5.31609 4.94092 4.19577 4.46413 3.29693 3.5621C2.51998 2.78244 1.96416 1.71207 1.77193 0.62547C1.76919 0.610032 1.76536 0.583876 1.70961 0.181094C1.6953 0.0774064 1.60704 0 1.50279 0H0.620591C0.46255 0 0.307962 0.0605626 0.199916 0.176407C0.0454212 0.342032 0.00566205 0.577532 0.0904069 0.780939L0.230404 1.11685C0.927402 2.78891 0.908207 4.69857 0.177765 6.35617L3.10934e-05 6.75948V8.18095C3.10934e-05 8.2968 0.0935179 8.39071 0.208844 8.39071H4.58419C4.83596 8.39071 5.05262 8.58505 5.06444 8.83767C5.0771 9.10739 4.86312 9.33005 4.59738 9.33005H0.208813C0.0934868 9.33005 0 9.42396 0 9.5398V9.93443C0 10.0503 0.0934868 10.1442 0.208813 10.1442H4.58416C4.83593 10.1442 5.05259 10.3385 5.06441 10.5911C5.07707 10.8609 4.86309 11.0835 4.59735 11.0835H0.208813C0.0934868 11.0835 0 11.1774 0 11.2933V11.7272C0 11.8431 0.0934868 11.937 0.208813 11.937H4.58416C4.83593 11.937 5.05259 12.1313 5.06441 12.3839C5.07707 12.6537 4.86309 12.8763 4.59735 12.8763H0.208813C0.0934868 12.8763 0 12.9702 0 13.0861V13.9644C0 14.5105 0.357708 14.9915 0.879057 15.1465L1.10187 15.2127C2.86779 15.7376 4.68352 16 6.49997 16C8.31592 16 10.1326 15.7375 11.898 15.2127L12.1209 15.1464C12.6423 14.9915 13 14.5104 13 13.9643V13.0664C13 12.9505 12.9065 12.8566 12.7912 12.8566H8.39375C8.12801 12.8566 7.91406 12.6339 7.92669 12.3642C7.93855 12.1116 8.1552 11.9173 8.40698 11.9173Z" fill="#4870FF"/>
</svg>
