<svg width="18" height="18" viewBox="0 0 18 18" fill="none" xmlns="http://www.w3.org/2000/svg">
<path d="M3.06641 17.9785H14.9121C15.9342 17.9785 16.7008 17.7262 17.2119 17.2217C17.723 16.7171 17.9785 15.9603 17.9785 14.9512V3.02734C17.9785 2.01823 17.723 1.26139 17.2119 0.756836C16.7008 0.252279 15.9342 0 14.9121 0H3.06641C2.04427 0 1.27767 0.252279 0.766602 0.756836C0.255534 1.26139 0 2.01823 0 3.02734V14.9512C0 15.9603 0.255534 16.7171 0.766602 17.2217C1.27767 17.7262 2.04427 17.9785 3.06641 17.9785ZM13.9746 10.0684C13.9746 10.8431 13.8102 11.5202 13.4814 12.0996C13.1527 12.6791 12.6921 13.1283 12.0996 13.4473C11.5071 13.7663 10.8203 13.9258 10.0391 13.9258H8.7207C8.48633 13.9258 8.29753 13.8591 8.1543 13.7256C8.01107 13.5921 7.93945 13.4147 7.93945 13.1934C7.93945 12.9785 8.00944 12.8044 8.14941 12.6709C8.28939 12.5374 8.47331 12.4707 8.70117 12.4707H10.0391C10.7748 12.4707 11.3721 12.251 11.8311 11.8115C12.29 11.372 12.5195 10.791 12.5195 10.0684C12.5195 9.40431 12.2933 8.86719 11.8408 8.45703C11.3883 8.04688 10.791 7.8418 10.0488 7.8418H7.19727L6.19141 7.80273L6.65039 8.125L7.83203 9.26758C7.98828 9.42383 8.06641 9.60286 8.06641 9.80469C8.06641 10.013 7.99642 10.1904 7.85645 10.3369C7.71647 10.4834 7.54557 10.5566 7.34375 10.5566C7.1224 10.5566 6.94336 10.485 6.80664 10.3418L4.24805 7.72461C4.07227 7.54883 3.98438 7.34375 3.98438 7.10938C3.98438 6.88151 4.07227 6.67318 4.24805 6.48438L6.79688 3.89648C6.94011 3.75325 7.11914 3.68164 7.33398 3.68164C7.54231 3.68164 7.71647 3.75325 7.85645 3.89648C7.99642 4.03971 8.06641 4.21875 8.06641 4.43359C8.06641 4.64192 7.98828 4.81445 7.83203 4.95117L6.8457 5.9082L6.18164 6.43555L7.19727 6.38672H10.0488C10.8301 6.38672 11.5169 6.53971 12.1094 6.8457C12.7018 7.15169 13.1608 7.58138 13.4863 8.13477C13.8118 8.68815 13.9746 9.33269 13.9746 10.0684Z" fill="white" fill-opacity="0.85"/>
</svg>
