<svg width="24" height="24" viewBox="0 0 24 24" fill="none" xmlns="http://www.w3.org/2000/svg">
<rect width="24" height="24" rx="7" fill="black" fill-opacity="0.2"/>
<path d="M12.5143 6.51429C12.5143 6.23025 12.284 6 12 6C11.716 6 11.4857 6.23025 11.4857 6.51429L11.4857 11.4857H6.51429C6.23025 11.4857 6 11.716 6 12C6 12.284 6.23025 12.5143 6.51429 12.5143H11.4857V17.4857C11.4857 17.7697 11.716 18 12 18C12.284 18 12.5143 17.7697 12.5143 17.4857V12.5143H17.4857C17.7697 12.5143 18 12.284 18 12C18 11.716 17.7697 11.4857 17.4857 11.4857H12.5143L12.5143 6.51429Z" fill="white" stroke="white" stroke-linecap="round"/>
</svg>
