<svg width="17" height="14" viewBox="0 0 17 14" fill="none" xmlns="http://www.w3.org/2000/svg">
<path opacity="0.4" d="M16.0232 4.55811V10.6302C16.0232 12.4941 14.533 13.9999 12.6984 13.9999H3.32481C1.49016 13.9999 0 12.4941 0 10.6302V4.55811H16.0232Z" fill="white"/>
<path d="M16.0232 3.36975V4.55811H0V3.36975C0 1.50581 1.49016 0 3.32481 0H12.6984C14.533 0 16.0232 1.50581 16.0232 3.36975Z" fill="white"/>
<path d="M4.80695 11.2732H3.20463C2.87615 11.2732 2.60376 10.9964 2.60376 10.6627C2.60376 10.329 2.87615 10.0522 3.20463 10.0522H4.80695C5.13542 10.0522 5.40781 10.329 5.40781 10.6627C5.40781 10.9964 5.13542 11.2732 4.80695 11.2732Z" fill="white"/>
<path d="M10.0145 11.2732H6.80985C6.48138 11.2732 6.20898 10.9964 6.20898 10.6627C6.20898 10.329 6.48138 10.0522 6.80985 10.0522H10.0145C10.343 10.0522 10.6154 10.329 10.6154 10.6627C10.6154 10.9964 10.343 11.2732 10.0145 11.2732Z" fill="white"/>
</svg>
