<svg width="39" height="23" viewBox="0 0 39 23" fill="none" xmlns="http://www.w3.org/2000/svg">
<path d="M35.5765 8.61924V6.26831C35.5765 6.26809 35.5765 6.26794 35.5765 6.26764C35.5747 -2.09187 0 -2.08677 0 6.26831V6.26869V16.6184C0 24.9797 35.5765 24.9725 35.5765 16.6184V14.4492C37.1387 14.396 38.3935 13.1093 38.3935 11.5343C38.3935 9.95919 37.1387 8.67255 35.5765 8.61924ZM12.758 17.8004C11.7723 17.8004 10.9733 17.0014 10.9733 16.0158C10.9733 15.0301 11.7723 14.2311 12.758 14.2311C13.7436 14.2311 14.5426 15.0301 14.5426 16.0158C14.5427 17.0014 13.7437 17.8004 12.758 17.8004ZM17.7883 17.8004C16.8026 17.8004 16.0036 17.0014 16.0036 16.0158C16.0036 15.0301 16.8026 14.2311 17.7883 14.2311C18.7739 14.2311 19.5729 15.0301 19.5729 16.0158C19.573 17.0014 18.774 17.8004 17.7883 17.8004ZM22.8185 17.8004C21.8329 17.8004 21.0339 17.0014 21.0339 16.0158C21.0339 15.0301 21.8329 14.2311 22.8185 14.2311C23.8041 14.2311 24.6031 15.0301 24.6031 16.0158C24.6032 17.0014 23.8042 17.8004 22.8185 17.8004ZM8.54315 8.64961C14.0213 7.48805 21.5516 7.487 27.0338 8.64961C21.5566 9.81731 14.0253 9.81829 8.54315 8.64961ZM31.8179 6.95639C24.9638 4.02619 10.6092 4.02762 3.75836 6.95639C3.55687 6.82584 3.09263 6.48982 3.02086 6.26786C3.37398 5.22066 8.53513 3.01229 17.7889 3.01229C26.8848 3.01229 32.187 5.1741 32.5554 6.26786C32.482 6.49125 32.0223 6.82382 31.8179 6.95639Z" fill="white" fill-opacity="0.12"/>
</svg>
