<svg width="38" height="40" viewBox="0 0 38 40" fill="none" xmlns="http://www.w3.org/2000/svg">
<path d="M35.2837 10.8415C35.3213 10.5634 35.357 10.2752 35.3915 9.97125C36.679 9.78211 37.6673 8.67344 37.6673 7.33336C37.6673 6.0893 36.8148 5.04391 35.6622 4.74953C35.6563 4.39891 35.6452 4.03898 35.6292 3.6643C36.4471 3.20883 37.0006 2.33602 37.0006 1.33336C37.0006 1.02641 36.9491 0.725313 36.8488 0.443203C36.7542 0.1775 36.5027 1.02579e-07 36.2206 1.02579e-07H32.448C32.165 1.02579e-07 31.9128 0.178672 31.819 0.445625C31.7191 0.729688 31.6673 1.02844 31.6673 1.33336C31.6673 1.51258 31.6852 1.68758 31.7189 1.85688C31.7196 1.86055 31.7202 1.86438 31.7209 1.86805C31.7283 1.90406 31.7367 1.93969 31.7455 1.97523C31.7473 1.98234 31.7487 1.98961 31.7505 1.99672C31.7588 2.02914 31.7682 2.06117 31.7777 2.09305C31.7806 2.10297 31.7831 2.11313 31.7862 2.12297C31.7955 2.1532 31.8059 2.18289 31.8163 2.21266C31.8202 2.22391 31.8238 2.23539 31.8278 2.24656C31.8383 2.27531 31.8498 2.30352 31.8612 2.33172C31.8659 2.34352 31.8702 2.35563 31.8752 2.36734C31.8866 2.3943 31.8989 2.42063 31.9111 2.44711C31.917 2.45977 31.9223 2.47273 31.9284 2.48531C31.9405 2.51078 31.9538 2.5357 31.9667 2.5607C31.9735 2.57375 31.9798 2.58711 31.9869 2.6C31.9999 2.62406 32.0138 2.64758 32.0276 2.67125C32.0354 2.68461 32.0427 2.69828 32.0508 2.71156C32.0646 2.73445 32.0794 2.7568 32.0939 2.7793C32.1026 2.79266 32.1109 2.80633 32.1198 2.81961C32.1345 2.84141 32.1499 2.86258 32.1652 2.88391C32.1747 2.89727 32.1839 2.91086 32.1937 2.92398C32.2089 2.94445 32.2249 2.9643 32.2408 2.98438C32.2514 2.99781 32.2616 3.01148 32.2725 3.02469C32.2883 3.04391 32.3048 3.06258 32.3212 3.08133C32.3327 3.09469 32.344 3.10828 32.3559 3.12141C32.3724 3.13969 32.3896 3.15734 32.4066 3.17516C32.419 3.18805 32.431 3.20125 32.4437 3.21398C32.4609 3.23125 32.4787 3.24789 32.4963 3.26469C32.5095 3.27719 32.5223 3.29008 32.5358 3.30234C32.5535 3.31852 32.5718 3.33406 32.59 3.34977C32.6041 3.36195 32.6178 3.37438 32.6321 3.38625C32.6503 3.40133 32.6691 3.41578 32.6877 3.43039C32.7026 3.44211 32.7172 3.45414 32.7323 3.46555C32.751 3.47961 32.7702 3.49297 32.7893 3.50648C32.805 3.51766 32.8205 3.52914 32.8364 3.54C32.8555 3.55305 32.8752 3.56539 32.8948 3.57789C32.9112 3.58844 32.9273 3.5993 32.9441 3.60945C32.9637 3.62148 32.9838 3.63273 33.0038 3.6443C33.0209 3.65422 33.0378 3.66438 33.0552 3.67391C33.0752 3.68484 33.0956 3.695 33.1159 3.70547C33.1338 3.71469 33.1516 3.72422 33.1697 3.73305C33.1899 3.74289 33.2106 3.75203 33.2312 3.76133C33.2498 3.76984 33.2684 3.77859 33.2873 3.78672C33.3079 3.79555 33.3289 3.80359 33.3498 3.81188C33.3691 3.81953 33.3883 3.8275 33.4078 3.83477C33.4288 3.8425 33.4501 3.84953 33.4713 3.85672C33.4913 3.86352 33.5111 3.87063 33.5313 3.87703C33.5524 3.88367 33.5739 3.88961 33.5952 3.8957C33.6159 3.90164 33.6364 3.90789 33.6573 3.91328C33.6788 3.91891 33.7005 3.92375 33.7222 3.92883C33.7434 3.93383 33.7644 3.93906 33.7858 3.94352C33.8076 3.94805 33.8296 3.9518 33.8515 3.95578C33.8731 3.95977 33.8947 3.96398 33.9166 3.96742C33.9384 3.97086 33.9606 3.97352 33.9827 3.97641C34.005 3.97937 34.0272 3.9825 34.0497 3.98492C34.0717 3.98727 34.094 3.98875 34.1162 3.99055C34.139 3.99242 34.1616 3.99445 34.1846 3.99578C34.2068 3.99703 34.2292 3.99742 34.2516 3.99813C34.2705 3.99867 34.2894 3.99992 34.3085 4.00008C34.318 4.25727 34.3248 4.50727 34.3291 4.75227C34.2905 4.76227 34.2523 4.77328 34.2145 4.785C34.2033 4.78844 34.1923 4.79234 34.1811 4.79594C34.1535 4.80484 34.126 4.81398 34.0988 4.82375C34.0848 4.82875 34.071 4.83414 34.0571 4.83937C34.0328 4.84859 34.0087 4.85805 33.9847 4.86797C33.9705 4.87383 33.9563 4.87977 33.9423 4.88586C33.9184 4.89625 33.8947 4.90695 33.8712 4.91805C33.858 4.92422 33.8449 4.93023 33.832 4.93656C33.8055 4.94945 33.7795 4.96297 33.7535 4.97672C33.744 4.98172 33.7344 4.98648 33.7249 4.99164C33.6899 5.01078 33.6553 5.03062 33.6213 5.05125C33.614 5.0557 33.607 5.06047 33.5996 5.06492C33.5729 5.08141 33.5465 5.09828 33.5204 5.1157C33.5088 5.12344 33.4975 5.13148 33.486 5.13945C33.4645 5.1543 33.4432 5.16937 33.4222 5.18484C33.41 5.19383 33.398 5.20289 33.386 5.21203C33.3658 5.22742 33.3458 5.2432 33.326 5.25914C33.3145 5.26844 33.303 5.27773 33.2916 5.28719C33.2708 5.30469 33.2502 5.32258 33.2299 5.3407C33.2205 5.34906 33.2109 5.35727 33.2016 5.36578C33.1724 5.3925 33.1437 5.41977 33.1156 5.44781C33.1145 5.44898 33.1133 5.45031 33.1121 5.45148C33.0853 5.47836 33.0591 5.50594 33.0335 5.53398C33.0248 5.54344 33.0165 5.5532 33.008 5.56281C32.99 5.58297 32.9723 5.60328 32.9549 5.62406C32.9454 5.63547 32.936 5.64703 32.9266 5.65859C32.9107 5.67828 32.895 5.6982 32.8796 5.71836C32.8705 5.73039 32.8613 5.74242 32.8523 5.75461C32.8368 5.7757 32.8217 5.79711 32.8068 5.81859C32.7989 5.82992 32.7909 5.84117 32.7833 5.85266C32.7652 5.87969 32.7477 5.90719 32.7305 5.93492C32.7267 5.94109 32.7227 5.94711 32.7189 5.95336C32.6983 5.98742 32.6784 6.02203 32.6593 6.05703C32.6539 6.06695 32.6488 6.07711 32.6435 6.08711C32.63 6.11258 32.6168 6.13813 32.6041 6.16406C32.5977 6.17711 32.5916 6.19039 32.5854 6.20359C32.5744 6.22711 32.5637 6.2507 32.5533 6.27453C32.5472 6.28859 32.5412 6.30273 32.5353 6.31695C32.5254 6.34102 32.5159 6.36523 32.5066 6.38961C32.5014 6.40336 32.4961 6.41703 32.4912 6.43094C32.4812 6.45867 32.4719 6.48664 32.4628 6.51477C32.4594 6.52539 32.4557 6.53586 32.4524 6.54648C32.4405 6.58531 32.4292 6.62453 32.4191 6.66406C32.417 6.67188 32.4154 6.67984 32.4134 6.68766C32.4055 6.71953 32.398 6.75164 32.3912 6.78398C32.3882 6.79797 32.3857 6.81211 32.383 6.82617C32.3778 6.85281 32.373 6.87961 32.3686 6.90648C32.3661 6.92203 32.3638 6.93766 32.3616 6.95328C32.3578 6.97961 32.3545 7.00609 32.3515 7.03266C32.3498 7.04812 32.348 7.06359 32.3465 7.07914C32.3438 7.10773 32.3417 7.13648 32.3399 7.16539C32.3391 7.17891 32.338 7.19227 32.3373 7.20586C32.3353 7.2482 32.3341 7.2907 32.3341 7.33344C32.3341 7.39719 32.3372 7.46016 32.3416 7.52273C32.3425 7.53625 32.3435 7.54977 32.3446 7.5632C32.35 7.62617 32.357 7.68867 32.3667 7.75031C32.3669 7.75109 32.367 7.7518 32.3671 7.75258C32.3773 7.81719 32.3903 7.88078 32.4051 7.94375C32.4062 7.94844 32.4072 7.9532 32.4084 7.95789C32.6159 8.82281 33.2445 9.52352 34.0656 9.83109C34.0313 10.133 33.9959 10.4187 33.9586 10.693C33.9531 10.6937 33.9477 10.6948 33.9423 10.6956C33.9249 10.6982 33.9077 10.7013 33.8903 10.7041C33.8654 10.7083 33.8405 10.7126 33.8159 10.7174C33.798 10.7209 33.7805 10.7248 33.7627 10.7287C33.7389 10.7339 33.7151 10.7393 33.6915 10.7452C33.6737 10.7495 33.6559 10.7542 33.6383 10.759C33.6151 10.7652 33.592 10.7718 33.5691 10.7786C33.5516 10.7838 33.5341 10.7892 33.5168 10.7948C33.494 10.8021 33.4713 10.8098 33.4488 10.8178C33.4318 10.8238 33.4148 10.8298 33.398 10.836C33.3752 10.8445 33.3527 10.8536 33.3302 10.8627C33.3141 10.8693 33.298 10.8757 33.2821 10.8825C33.2588 10.8925 33.2358 10.9032 33.2128 10.9138C33.1982 10.9206 33.1835 10.9271 33.169 10.9341C33.1436 10.9465 33.1187 10.9595 33.0938 10.9727C33.0821 10.9788 33.0703 10.9845 33.0588 10.9908C33.0227 11.0105 32.987 11.0309 32.9519 11.0523C32.9483 11.0545 32.9448 11.0568 32.9413 11.059C32.9098 11.0783 32.8786 11.0982 32.848 11.1188C32.8363 11.1266 32.8251 11.1349 32.8136 11.143C32.7914 11.1584 32.7692 11.1739 32.7475 11.19C32.7344 11.1998 32.7216 11.2098 32.7087 11.2198C32.6891 11.2349 32.6695 11.25 32.6505 11.2656C32.6371 11.2765 32.6241 11.2877 32.611 11.2988C32.5928 11.3142 32.5748 11.3298 32.557 11.3456C32.5438 11.3574 32.5309 11.3694 32.518 11.3814C32.5009 11.3973 32.4839 11.4134 32.4672 11.4298C32.4545 11.4423 32.4419 11.4549 32.4294 11.4677C32.413 11.4844 32.397 11.5013 32.381 11.5184C32.369 11.5313 32.357 11.5443 32.3452 11.5575C32.3295 11.5752 32.3141 11.593 32.2988 11.6111C32.2876 11.6244 32.2763 11.6376 32.2653 11.6511C32.25 11.6699 32.2351 11.6891 32.2202 11.7084C32.2101 11.7216 32.1997 11.7348 32.1898 11.7482C32.1743 11.7691 32.1595 11.7904 32.1446 11.8116C32.1359 11.8241 32.1271 11.8363 32.1187 11.8488C32.1012 11.8748 32.0845 11.9013 32.0678 11.928C32.0627 11.9363 32.0573 11.9443 32.0523 11.9526C32.0309 11.9877 32.0105 12.0234 31.9908 12.0595C31.9855 12.0691 31.9808 12.079 31.9757 12.0887C31.9615 12.1155 31.9474 12.1425 31.9341 12.1698C31.9274 12.1836 31.9213 12.1977 31.9148 12.2115C31.9038 12.2352 31.8929 12.2588 31.8826 12.2829C31.8759 12.2984 31.8697 12.3143 31.8633 12.33C31.854 12.3528 31.8448 12.3757 31.8361 12.3989C31.8298 12.4155 31.8241 12.4323 31.8181 12.4491C31.8102 12.4718 31.8023 12.4946 31.7949 12.5176C31.7894 12.5348 31.7841 12.5523 31.7789 12.5698C31.772 12.5927 31.7655 12.6158 31.7592 12.639C31.7545 12.6567 31.7498 12.6745 31.7455 12.6923C31.7397 12.7158 31.7343 12.7395 31.7291 12.7631C31.7252 12.7809 31.7214 12.7988 31.7179 12.8167C31.7131 12.8411 31.7089 12.8655 31.7048 12.8902C31.7018 12.9078 31.6988 12.9254 31.6961 12.9432C31.6923 12.969 31.6892 12.995 31.6863 13.0209C31.6843 13.0378 31.682 13.0545 31.6804 13.0715C31.6776 13.1003 31.6756 13.1293 31.6738 13.1584C31.6728 13.1727 31.6715 13.187 31.6708 13.2015C31.6687 13.2451 31.6674 13.2889 31.6674 13.333C31.6674 13.387 31.6695 13.4405 31.6727 13.4936C31.6735 13.5077 31.6748 13.5216 31.6759 13.5356C31.679 13.5774 31.683 13.6189 31.6881 13.6601C31.6896 13.6718 31.691 13.6835 31.6926 13.6952C31.8014 14.4963 32.2655 15.184 32.9214 15.5946C32.8131 15.9754 32.7045 16.3355 32.5938 16.6792C32.5083 16.6709 32.4217 16.6664 32.3341 16.6664C30.8614 16.6664 29.6674 17.8607 29.6674 19.333C29.6674 19.3816 29.6689 19.4298 29.6715 19.4778C29.6721 19.4887 29.6733 19.4996 29.674 19.5105C29.6765 19.5483 29.6795 19.586 29.6834 19.6234C29.6845 19.6328 29.6859 19.6422 29.687 19.6516C29.6917 19.6912 29.6972 19.7305 29.7036 19.7696C29.7046 19.7756 29.7058 19.7815 29.7068 19.7875C29.7143 19.8311 29.7228 19.8743 29.7324 19.9171C29.7327 19.9184 29.733 19.9196 29.7333 19.9209C29.8627 20.4959 30.1775 21.0004 30.6121 21.3684C30.4859 21.6039 30.3578 21.8341 30.2278 22.0591C30.0471 22.0205 29.8598 21.9997 29.6675 21.9997C28.1948 21.9997 27.0009 23.194 27.0009 24.6663C27.0009 24.7203 27.003 24.7738 27.0061 24.827C27.0069 24.8395 27.008 24.8517 27.0089 24.8641C27.0122 24.9089 27.0166 24.9534 27.022 24.9976C27.023 25.0053 27.0239 25.013 27.025 25.0209C27.0705 25.3628 27.1805 25.6842 27.3428 25.9724C27.1277 26.2003 26.9155 26.4144 26.7046 26.6152C26.6837 26.5978 26.6622 26.5812 26.6408 26.5645C26.6306 26.5566 26.6207 26.5484 26.6105 26.5406C26.5903 26.5253 26.5696 26.5106 26.549 26.4959C26.537 26.4873 26.5249 26.4785 26.5127 26.4701C26.4922 26.4559 26.4713 26.4422 26.4503 26.4286C26.4377 26.4205 26.4252 26.4123 26.4125 26.4043C26.3911 26.3909 26.3694 26.3778 26.3476 26.365C26.3352 26.3577 26.3228 26.3506 26.3103 26.3436C26.2876 26.3308 26.2648 26.3182 26.2416 26.306C26.2301 26.2999 26.2184 26.2941 26.2067 26.2881C26.1823 26.2757 26.1578 26.2634 26.133 26.2518C26.1236 26.2473 26.1141 26.2433 26.1045 26.239C26.0771 26.2265 26.0497 26.2141 26.0218 26.2026C26.0216 26.2025 26.0213 26.2023 26.021 26.2023C25.9241 26.1621 25.8243 26.1279 25.722 26.0992C25.711 26.0961 25.7001 26.0928 25.689 26.0898C25.6641 26.0832 25.6391 26.0773 25.6139 26.0713C25.5984 26.0677 25.5828 26.0639 25.5672 26.0605C25.5442 26.0555 25.521 26.051 25.4978 26.0466C25.4793 26.0431 25.4608 26.0398 25.4421 26.0367C25.4207 26.0331 25.3992 26.0298 25.3776 26.0267C25.3561 26.0237 25.3346 26.021 25.313 26.0185C25.2935 26.0162 25.2741 26.0139 25.2545 26.012C25.2284 26.0095 25.2023 26.0078 25.1761 26.0061C25.1603 26.0051 25.1446 26.0037 25.1287 26.003C25.0862 26.0009 25.0435 25.9998 25.0006 25.9998C24.9359 25.9998 24.8718 26.0029 24.8082 26.0074C24.7941 26.0084 24.78 26.0094 24.7659 26.0106C24.7039 26.016 24.6424 26.0232 24.5817 26.0327C24.5726 26.0342 24.5635 26.0361 24.5544 26.0376C24.4994 26.0469 24.4449 26.0579 24.3911 26.0705C24.3795 26.0732 24.3677 26.0756 24.3562 26.0785C24.2975 26.0931 24.2396 26.1096 24.1826 26.128C24.1706 26.1319 24.1588 26.1361 24.147 26.1401C24.0942 26.1579 24.0422 26.1771 23.991 26.198C23.9844 26.2008 23.9777 26.2031 23.9711 26.2059C23.9158 26.2291 23.8616 26.2545 23.8083 26.2813C23.7961 26.2873 23.784 26.2936 23.772 26.2998C23.7187 26.3276 23.6661 26.3565 23.615 26.3877C23.6121 26.3895 23.6093 26.3913 23.6064 26.3931C23.5575 26.4232 23.5098 26.4552 23.4631 26.4883C23.4525 26.4958 23.4418 26.5033 23.4313 26.5109C23.3838 26.5455 23.3373 26.5816 23.2923 26.6192C23.2845 26.6257 23.277 26.6325 23.2693 26.6391C23.2289 26.6736 23.1895 26.7094 23.1513 26.7462C23.1437 26.7535 23.1359 26.7607 23.1283 26.7681C23.0866 26.8093 23.0463 26.852 23.0073 26.8958C22.9988 26.9053 22.9906 26.9151 22.9823 26.9248C22.9457 26.9671 22.9102 27.0104 22.8763 27.0551C22.8733 27.059 22.8702 27.0627 22.8672 27.0666C22.8315 27.1142 22.7978 27.1633 22.7653 27.2132C22.7579 27.2245 22.7506 27.2359 22.7434 27.2474C22.7116 27.2978 22.6811 27.349 22.6527 27.4016C22.6499 27.4067 22.6474 27.4121 22.6447 27.4173C22.6186 27.4665 22.5942 27.5166 22.5712 27.5676C22.5659 27.5793 22.5605 27.5909 22.5553 27.6027C22.5316 27.6571 22.5095 27.7124 22.4895 27.7687C22.4881 27.7723 22.4865 27.7758 22.4852 27.7795L19.4008 25.4664C19.3984 25.4645 19.3955 25.4634 19.3931 25.4616C19.367 25.4425 19.3397 25.425 19.3109 25.4098C19.3099 25.4093 19.3091 25.4086 19.308 25.408C19.3059 25.4069 19.3034 25.4063 19.3012 25.4052C19.2736 25.3912 19.2448 25.379 19.2151 25.3689C19.213 25.3682 19.2111 25.367 19.2091 25.3664C19.2082 25.3661 19.2073 25.366 19.2064 25.3658C19.1766 25.3561 19.1459 25.3489 19.1145 25.3435C19.1082 25.3424 19.102 25.3416 19.0956 25.3406C19.0645 25.3362 19.033 25.3331 19.0008 25.3331C18.9685 25.3331 18.937 25.3362 18.9059 25.3406C18.8996 25.3416 18.8934 25.3424 18.8871 25.3435C18.8557 25.3489 18.8249 25.3562 18.7952 25.3658C18.7943 25.3661 18.7934 25.3662 18.7925 25.3664C18.7905 25.3671 18.7885 25.3682 18.7865 25.3689C18.7567 25.379 18.728 25.3912 18.7003 25.4052C18.6981 25.4063 18.6957 25.4069 18.6935 25.408C18.6926 25.4085 18.6917 25.4093 18.6907 25.4098C18.6619 25.425 18.6346 25.4425 18.6084 25.4616C18.6059 25.4634 18.6032 25.4645 18.6008 25.4664L15.5164 27.7795C15.5152 27.7758 15.5134 27.7723 15.5121 27.7687C15.492 27.7124 15.4699 27.6571 15.4462 27.6027C15.4411 27.5909 15.4357 27.5793 15.4304 27.5676C15.4073 27.5167 15.383 27.4665 15.3569 27.4173C15.3541 27.4121 15.3516 27.4068 15.3488 27.4016C15.3205 27.349 15.2899 27.2978 15.2582 27.2474C15.251 27.2359 15.2437 27.2246 15.2362 27.2132C15.2037 27.1633 15.1701 27.1141 15.1344 27.0666C15.1314 27.0627 15.1283 27.059 15.1253 27.0551C15.0914 27.0105 15.0559 26.9672 15.0193 26.9248C15.0109 26.9151 15.0027 26.9054 14.9942 26.8958C14.9552 26.852 14.915 26.8093 14.8733 26.7681C14.8657 26.7606 14.8579 26.7535 14.8502 26.7462C14.812 26.7093 14.7727 26.6736 14.7323 26.6391C14.7245 26.6325 14.7171 26.6257 14.7093 26.6192C14.6642 26.5816 14.6178 26.5456 14.5703 26.5109C14.5598 26.5033 14.5491 26.4958 14.5384 26.4883C14.4916 26.4552 14.4441 26.4232 14.3952 26.3931C14.3923 26.3913 14.3895 26.3894 14.3866 26.3877C14.3355 26.3565 14.2829 26.3276 14.2296 26.2998C14.2175 26.2936 14.2055 26.2873 14.1933 26.2813C14.1399 26.2545 14.0858 26.2291 14.0305 26.2059C14.0239 26.2032 14.0171 26.2008 14.0105 26.198C13.9594 26.1771 13.9073 26.1579 13.8546 26.1401C13.8427 26.1361 13.8309 26.1319 13.819 26.128C13.7619 26.1097 13.7041 26.0931 13.6454 26.0785C13.6338 26.0756 13.6221 26.0732 13.6105 26.0705C13.5566 26.0579 13.5023 26.0468 13.4472 26.0376C13.438 26.036 13.4291 26.0341 13.4198 26.0327C13.3591 26.0231 13.2977 26.016 13.2357 26.0106C13.2216 26.0094 13.2075 26.0084 13.1934 26.0074C13.1298 26.0029 13.0657 25.9998 13.0009 25.9998C12.958 25.9998 12.9153 26.0009 12.8727 26.003C12.8565 26.0038 12.8403 26.0052 12.8241 26.0063C12.7984 26.008 12.7727 26.0097 12.7473 26.0121C12.7269 26.0141 12.7066 26.0165 12.6864 26.0189C12.6658 26.0213 12.6452 26.0238 12.6246 26.0268C12.6018 26.03 12.5791 26.0337 12.5565 26.0374C12.5395 26.0403 12.5225 26.0434 12.5055 26.0466C12.4805 26.0512 12.4555 26.0562 12.4306 26.0616C12.4176 26.0645 12.4046 26.0676 12.3916 26.0706C12.3637 26.0771 12.3359 26.0838 12.3084 26.0912C12.3013 26.0931 12.2944 26.0952 12.2873 26.0972C12.1073 26.1471 11.9351 26.2153 11.7725 26.2999C11.7704 26.301 11.7682 26.3021 11.766 26.3032C11.7347 26.3196 11.7038 26.3367 11.6732 26.3543C11.6698 26.3563 11.6665 26.3581 11.6631 26.3601C11.6327 26.3777 11.6028 26.3959 11.5732 26.4148C11.5704 26.4166 11.5676 26.4184 11.5648 26.4202C11.5342 26.4398 11.504 26.4598 11.4743 26.4807C11.474 26.4809 11.4736 26.4812 11.4733 26.4814C11.4107 26.5252 11.3498 26.5715 11.2913 26.6204C11.0752 26.4158 10.8623 26.2031 10.6532 25.9826C10.8179 25.693 10.9298 25.3699 10.9762 25.0257C10.9774 25.0165 10.9785 25.0073 10.9797 24.998C10.9851 24.9546 10.9894 24.9109 10.9927 24.8669C10.9937 24.8538 10.9948 24.8408 10.9956 24.8277C10.9988 24.7742 11.0009 24.7205 11.0009 24.6663C11.0009 23.1939 9.80695 21.9997 8.3343 21.9997C8.14086 21.9997 7.9525 22.0208 7.77078 22.0599C7.63438 21.8255 7.50625 21.5977 7.38461 21.3729C7.82094 21.0052 8.13727 20.5003 8.26766 19.9245C8.2682 19.9221 8.26875 19.9198 8.2693 19.9175C8.27867 19.8755 8.28703 19.8332 8.29445 19.7905C8.29562 19.7837 8.29695 19.7769 8.29813 19.77C8.30445 19.7316 8.30977 19.6927 8.31445 19.6537C8.3157 19.6437 8.31719 19.6338 8.31828 19.6237C8.32227 19.5866 8.32523 19.5491 8.32773 19.5116C8.32852 19.5004 8.32969 19.4893 8.33031 19.478C8.33289 19.43 8.33438 19.3817 8.33438 19.333C8.33438 17.8606 7.14039 16.6664 5.66773 16.6664C5.58086 16.6664 5.49508 16.6709 5.41031 16.679C5.29117 16.3141 5.18031 15.9541 5.07719 15.5966C5.73477 15.1862 6.20023 14.4977 6.30922 13.6953C6.31078 13.6838 6.31219 13.6723 6.31359 13.6608C6.31867 13.6194 6.32273 13.5777 6.32594 13.5356C6.32703 13.5217 6.32828 13.5078 6.32914 13.4938C6.33234 13.4406 6.33438 13.3871 6.33438 13.333C6.33438 13.2889 6.33313 13.245 6.33102 13.2014C6.33031 13.1871 6.32898 13.173 6.32805 13.1588C6.32617 13.1295 6.32422 13.1003 6.32141 13.0713C6.31977 13.0545 6.3175 13.0378 6.31555 13.021C6.3125 12.995 6.30945 12.9689 6.30562 12.9431C6.30305 12.9253 6.29992 12.9077 6.29695 12.89C6.29281 12.8655 6.28859 12.8409 6.28383 12.8166C6.28031 12.7987 6.27648 12.7809 6.27258 12.763C6.26742 12.7392 6.26203 12.7155 6.25617 12.692C6.2518 12.6742 6.24719 12.6565 6.24242 12.6388C6.23617 12.6156 6.22961 12.5926 6.22273 12.5696C6.2175 12.5522 6.21227 12.5348 6.20664 12.5174C6.19922 12.4944 6.19141 12.4716 6.18344 12.4488C6.17758 12.4321 6.17172 12.4153 6.16547 12.3987C6.1568 12.3755 6.14766 12.3527 6.13836 12.3299C6.13195 12.3141 6.1257 12.2983 6.11898 12.2827C6.10875 12.2588 6.09781 12.2352 6.08688 12.2116C6.08039 12.1976 6.07414 12.1834 6.06734 12.1695C6.05414 12.1423 6.04016 12.1155 6.02602 12.0888C6.02086 12.0791 6.01602 12.069 6.0107 12.0593C5.99102 12.0231 5.97047 11.9874 5.94914 11.9523C5.94438 11.9444 5.93922 11.9368 5.93438 11.929C5.9175 11.9018 5.90047 11.8748 5.88266 11.8484C5.8743 11.8359 5.86547 11.8238 5.85688 11.8116C5.84203 11.7902 5.82711 11.7688 5.81164 11.7479C5.80172 11.7345 5.79133 11.7213 5.78109 11.7081C5.76625 11.6888 5.75133 11.6696 5.73602 11.6508C5.725 11.6373 5.71375 11.6241 5.7025 11.6108C5.68719 11.5927 5.6718 11.5748 5.65609 11.5572C5.6443 11.544 5.63227 11.531 5.62023 11.518C5.6043 11.5009 5.5882 11.484 5.57188 11.4673C5.55938 11.4546 5.5468 11.442 5.53406 11.4295C5.51742 11.4131 5.50047 11.397 5.48336 11.3811C5.47039 11.3691 5.45742 11.357 5.44422 11.3452C5.42656 11.3295 5.40852 11.314 5.39039 11.2986C5.37719 11.2874 5.36406 11.2762 5.35062 11.2652C5.33164 11.2498 5.31227 11.2348 5.29281 11.2198C5.27969 11.2098 5.2668 11.1995 5.25352 11.1896C5.23227 11.1738 5.21047 11.1587 5.18875 11.1435C5.1768 11.1352 5.16508 11.1266 5.15297 11.1184C5.12398 11.099 5.09445 11.0802 5.06469 11.0618C5.05945 11.0586 5.05445 11.0552 5.04922 11.052C5.01406 11.0306 4.97844 11.0102 4.94227 10.9905C4.93102 10.9844 4.91953 10.9787 4.9082 10.9728C4.88297 10.9595 4.85773 10.9462 4.83203 10.9337C4.81766 10.9267 4.80297 10.9202 4.78836 10.9135C4.76531 10.9028 4.74234 10.8922 4.71898 10.8821C4.70305 10.8752 4.68688 10.8688 4.67078 10.8623C4.64828 10.8532 4.62578 10.8441 4.60305 10.8356C4.58617 10.8293 4.56922 10.8234 4.55219 10.8173C4.52969 10.8095 4.50711 10.8017 4.4843 10.7944C4.46687 10.7888 4.44937 10.7834 4.43187 10.7782C4.40898 10.7714 4.38602 10.7648 4.36289 10.7586C4.34516 10.7538 4.32734 10.7491 4.30945 10.7447C4.28602 10.7389 4.26242 10.7335 4.23875 10.7284C4.22086 10.7245 4.20297 10.7205 4.185 10.717C4.16062 10.7123 4.13609 10.708 4.11156 10.7039C4.09391 10.7009 4.07641 10.6978 4.05867 10.6952C4.05297 10.6944 4.04742 10.6933 4.0418 10.6924C3.99992 10.3973 3.96273 10.1122 3.92977 9.83328C4.75406 9.52703 5.38523 8.82484 5.59344 7.95773C5.59438 7.95383 5.59523 7.94992 5.59609 7.94609C5.61102 7.8825 5.62422 7.81828 5.63453 7.75305C5.63461 7.75234 5.63484 7.75156 5.63492 7.75086C5.64469 7.68891 5.6518 7.62617 5.65719 7.56297C5.65836 7.54969 5.6593 7.53633 5.66023 7.52297C5.66469 7.46016 5.66773 7.39703 5.66773 7.33305C5.66773 7.29023 5.66648 7.24773 5.66453 7.20547C5.66391 7.19195 5.66281 7.17852 5.66195 7.165C5.66016 7.13617 5.65813 7.10734 5.65539 7.07875C5.65391 7.0632 5.65219 7.04773 5.65039 7.03227C5.64742 7.0057 5.64406 6.97922 5.64031 6.95289C5.63805 6.93727 5.63578 6.92164 5.63328 6.90609C5.62891 6.87914 5.62406 6.85242 5.61891 6.82578C5.61617 6.81172 5.61367 6.79758 5.6107 6.78359C5.60391 6.75125 5.59641 6.71914 5.58844 6.68727C5.58648 6.67945 5.58484 6.67148 5.58281 6.66367C5.57258 6.62406 5.56141 6.58492 5.54945 6.54609C5.54617 6.53547 5.54242 6.525 5.53906 6.51438C5.53 6.48625 5.52063 6.45828 5.5107 6.43055C5.5057 6.41672 5.50039 6.40297 5.49523 6.38922C5.48602 6.36484 5.47648 6.34062 5.46656 6.31656C5.4607 6.30234 5.45477 6.28828 5.44859 6.27414C5.43828 6.25031 5.4275 6.22664 5.41648 6.2032C5.41031 6.19 5.40422 6.1768 5.39781 6.16367C5.38516 6.13773 5.37187 6.11219 5.35836 6.08672C5.35305 6.07672 5.34805 6.06656 5.34258 6.05664C5.32344 6.02164 5.30359 5.98703 5.28297 5.95297C5.27922 5.94672 5.27516 5.9407 5.27133 5.93453C5.25422 5.9068 5.23672 5.8793 5.21859 5.85227C5.21094 5.84078 5.20289 5.82953 5.19508 5.8182C5.18016 5.79664 5.16508 5.77523 5.14953 5.75422C5.14055 5.74203 5.13141 5.73 5.12227 5.71797C5.10688 5.69781 5.09117 5.67789 5.07523 5.6582C5.06586 5.64664 5.05656 5.63508 5.04695 5.62367C5.02961 5.60297 5.01187 5.58266 4.99391 5.56242C4.98539 5.55281 4.97703 5.54313 4.96836 5.53359C4.94273 5.50555 4.91656 5.47805 4.88977 5.45109C4.88859 5.44984 4.88742 5.44859 4.88625 5.44742C4.8582 5.41945 4.82945 5.39219 4.80023 5.36539C4.79094 5.35688 4.78133 5.34867 4.77195 5.34031C4.75164 5.32219 4.73109 5.3043 4.71023 5.2868C4.69891 5.27727 4.68734 5.26805 4.67586 5.25875C4.65609 5.24273 4.63609 5.22703 4.61586 5.21164C4.60383 5.2025 4.59188 5.19336 4.57969 5.18445C4.55867 5.16898 4.53734 5.15391 4.51586 5.13906C4.50437 5.13117 4.49305 5.12312 4.48148 5.11531C4.45547 5.09789 4.42898 5.08102 4.40227 5.06453C4.395 5.06 4.38789 5.05523 4.38055 5.05086C4.34648 5.03023 4.31188 5.01039 4.27688 4.99125C4.2675 4.98617 4.25797 4.98141 4.24859 4.97641C4.22258 4.96258 4.19641 4.94906 4.16984 4.93609C4.15687 4.92977 4.14383 4.92375 4.13078 4.91766C4.10719 4.90656 4.08344 4.89578 4.05945 4.88539C4.04539 4.8793 4.03133 4.87336 4.01711 4.8675C3.99312 4.85758 3.96891 4.84812 3.94461 4.83891C3.9307 4.83367 3.91695 4.82836 3.90297 4.82328C3.87578 4.81352 3.84828 4.80438 3.8207 4.79547C3.80953 4.79188 3.79852 4.78797 3.78734 4.78453C3.74945 4.77289 3.71125 4.76188 3.67273 4.7518C3.67695 4.5068 3.68383 4.2568 3.69328 3.99961C3.7125 3.99945 3.73148 3.9982 3.75055 3.99766C3.77273 3.99695 3.79492 3.99656 3.81688 3.99539C3.84031 3.99406 3.86344 3.99195 3.88664 3.99008C3.90836 3.98828 3.93008 3.9868 3.95164 3.98453C3.97484 3.98211 3.99781 3.97883 4.02086 3.97578C4.04211 3.97297 4.06344 3.97047 4.08453 3.96711C4.1075 3.96352 4.13016 3.95906 4.15289 3.95492C4.17367 3.95109 4.19461 3.94758 4.21523 3.94328C4.23805 3.93852 4.26047 3.93297 4.28305 3.92766C4.30328 3.92289 4.32359 3.91844 4.34359 3.9132C4.36617 3.90727 4.38844 3.90063 4.41086 3.89414C4.43047 3.88844 4.45016 3.88313 4.46953 3.87703C4.49188 3.87 4.51383 3.86219 4.53586 3.85461C4.55484 3.84805 4.57398 3.84188 4.59281 3.83492C4.61492 3.8268 4.63656 3.81781 4.65836 3.80906C4.67672 3.80172 4.69516 3.79469 4.71328 3.78695C4.735 3.77766 4.75633 3.76766 4.77781 3.75781C4.79547 3.74969 4.81336 3.74187 4.83086 3.73344C4.85219 3.72305 4.87312 3.71195 4.89414 3.70102C4.91117 3.69219 4.92844 3.68359 4.94523 3.67445C4.96625 3.66297 4.98672 3.65078 5.00734 3.63875C5.02367 3.62922 5.04016 3.62008 5.05625 3.61023C5.07695 3.59758 5.09703 3.58422 5.11734 3.57109C5.13289 3.56102 5.14859 3.55125 5.16391 3.54086C5.18414 3.52711 5.20383 3.51266 5.22359 3.49844C5.23836 3.48781 5.25336 3.4775 5.26789 3.46656C5.28773 3.45164 5.30703 3.43602 5.32648 3.42055C5.34031 3.40953 5.35445 3.39883 5.36812 3.3875C5.38758 3.37141 5.40641 3.35461 5.42539 3.33789C5.43836 3.32648 5.45164 3.31539 5.46445 3.30375C5.48336 3.28648 5.50164 3.26852 5.52 3.25078C5.53219 3.23906 5.54461 3.22758 5.55656 3.21563C5.57492 3.19719 5.59258 3.17813 5.61039 3.15914C5.62172 3.14711 5.63336 3.13539 5.64445 3.12313C5.66219 3.10352 5.67922 3.08328 5.69641 3.06313C5.70688 3.05094 5.71758 3.03898 5.72781 3.02656C5.74492 3.0057 5.76133 2.9843 5.77781 2.96289C5.78734 2.95055 5.79727 2.93852 5.80656 2.92602C5.82305 2.90391 5.83875 2.88117 5.85461 2.85852C5.8632 2.84617 5.87219 2.83422 5.88055 2.82172C5.89633 2.79828 5.91125 2.7743 5.92625 2.75039C5.93398 2.73813 5.94203 2.72617 5.94953 2.71375C5.96461 2.68883 5.97883 2.66336 5.99312 2.63797C5.99984 2.62602 6.00695 2.61438 6.01344 2.60234C6.02789 2.57563 6.04148 2.54828 6.05508 2.52102C6.06062 2.50984 6.06664 2.49891 6.07203 2.48766C6.08562 2.45938 6.09828 2.43047 6.11094 2.40164C6.11563 2.39094 6.1207 2.38055 6.12523 2.36977C6.13812 2.3393 6.15 2.30828 6.16172 2.27719C6.16531 2.26773 6.1693 2.25852 6.17273 2.24898C6.18492 2.21563 6.19609 2.1818 6.20695 2.14789C6.20937 2.14039 6.21219 2.13305 6.21453 2.12547C6.2257 2.08953 6.23578 2.05313 6.24547 2.01648C6.24703 2.0107 6.24883 2.005 6.25031 1.99922C6.26062 1.95898 6.26992 1.91836 6.27844 1.87742C6.27891 1.87516 6.27953 1.87289 6.28 1.87063C6.31547 1.69711 6.33422 1.51742 6.33422 1.33336C6.33422 1.33258 6.33414 1.33188 6.33414 1.33109C6.33391 1.02531 6.2825 0.726953 6.18227 0.445234C6.08773 0.179609 5.83641 0.0021876 5.55453 0.00203135L1.78156 1.02579e-07C1.49867 -0.000156147 1.24656 0.178203 1.1525 0.445C1.05258 0.728438 1.00055 1.02813 1.00055 1.33336C1.00055 2.33609 1.55414 3.20898 2.37211 3.66437C2.35609 4.03898 2.345 4.39891 2.33914 4.74953C1.18648 5.04383 0.333984 6.0893 0.333984 7.33336C0.333984 8.67109 1.31883 9.77844 2.60305 9.97039C2.63641 10.2541 2.67398 10.5436 2.71609 10.8421C1.7132 11.2253 1.00063 12.1961 1.00063 13.3334C1.00063 14.8063 2.19445 16 3.66727 16C3.71328 16 3.75906 15.9988 3.80453 15.9966C3.91359 16.3733 4.03086 16.7525 4.15664 17.1362C3.45852 17.6171 3.00055 18.4217 3.00055 19.3334C3.00055 20.8062 4.19438 22 5.66719 22C5.84289 22 6.01453 21.9825 6.1807 21.9501C6.30617 22.1836 6.43805 22.4196 6.57766 22.661C6.01984 23.1498 5.66719 23.867 5.66719 24.6666C5.66719 26.1395 6.86102 27.3333 8.33383 27.3333C8.84398 27.3333 9.32047 27.1898 9.72562 26.9415C9.98172 27.2098 10.243 27.4679 10.5095 27.7148C10.3963 28.0105 10.3337 28.3312 10.3337 28.6666C10.3337 30.1395 11.5276 31.3333 13.0004 31.3333V35.3333C13.0004 35.3376 13.0011 35.3418 13.0012 35.3461C13.0015 35.364 13.0025 35.382 13.0043 35.3999C13.005 35.407 13.0058 35.4141 13.0067 35.4211C13.0091 35.4387 13.0123 35.4561 13.016 35.4736C13.0174 35.4803 13.0187 35.487 13.0203 35.4938C13.0248 35.5116 13.0303 35.5294 13.0363 35.547C13.0382 35.5527 13.0397 35.5585 13.0418 35.5641C13.0502 35.5868 13.0597 35.6093 13.0708 35.6315C13.0819 35.6537 13.0941 35.6748 13.1073 35.6951C13.1105 35.7001 13.1142 35.7048 13.1176 35.7096C13.1281 35.7251 13.1391 35.7402 13.1507 35.7545C13.155 35.7598 13.1597 35.7648 13.1641 35.7699C13.1759 35.7834 13.188 35.7965 13.2006 35.8089C13.2057 35.8139 13.2109 35.8187 13.2161 35.8235C13.2294 35.8357 13.2431 35.8473 13.2573 35.8584C13.2606 35.861 13.2636 35.8641 13.267 35.8666L18.6004 39.8666C18.6028 39.8684 18.6055 39.8697 18.608 39.8715C18.6342 39.8905 18.6615 39.908 18.6903 39.9233C18.6934 39.9249 18.6967 39.9263 18.6999 39.9279C18.7276 39.9419 18.7562 39.9541 18.786 39.9641C18.789 39.9652 18.7919 39.9664 18.7948 39.9673C18.8246 39.977 18.8553 39.9842 18.8867 39.9896C18.893 39.9907 18.8993 39.9916 18.9056 39.9925C18.9366 39.997 18.9681 40 19.0004 40C19.0327 40 19.0641 39.997 19.0952 39.9925C19.1015 39.9916 19.1077 39.9907 19.1141 39.9896C19.1455 39.9842 19.1762 39.977 19.2059 39.9673C19.2089 39.9664 19.2118 39.9652 19.2148 39.9641C19.2445 39.9541 19.2732 39.9419 19.3009 39.9279C19.3041 39.9262 19.3073 39.9249 19.3105 39.9233C19.3393 39.9081 19.3666 39.8906 19.3927 39.8715C19.3952 39.8697 19.398 39.8685 19.4004 39.8666L24.7338 35.8666C24.7372 35.8641 24.7402 35.861 24.7435 35.8584C24.7577 35.8473 24.7714 35.8358 24.7847 35.8235C24.7899 35.8187 24.7951 35.8138 24.8002 35.8089C24.8128 35.7965 24.8249 35.7834 24.8366 35.7699C24.8411 35.7648 24.8458 35.7598 24.8501 35.7545C24.8617 35.7402 24.8727 35.7251 24.8832 35.7096C24.8866 35.7047 24.8902 35.7 24.8935 35.6951C24.9066 35.6748 24.919 35.6537 24.93 35.6315C24.9411 35.6094 24.9505 35.5869 24.959 35.5641C24.9611 35.5585 24.9626 35.5527 24.9645 35.547C24.9705 35.5293 24.976 35.5116 24.9805 35.4938C24.9821 35.487 24.9834 35.4803 24.9848 35.4735C24.9886 35.4561 24.9918 35.4386 24.9941 35.4211C24.9951 35.414 24.9959 35.407 24.9966 35.3998C24.9984 35.382 24.9994 35.3641 24.9997 35.3462C24.9998 35.3419 25.0005 35.3377 25.0005 35.3334V31.3334C26.4734 31.3334 27.6671 30.1395 27.6671 28.6667C27.6671 28.3287 27.6035 28.0057 27.4888 27.7081C27.7471 27.4677 28.0056 27.2105 28.2665 26.9359C28.6736 27.1877 29.1533 27.3334 29.6672 27.3334C31.1401 27.3334 32.3338 26.1395 32.3338 24.6667C32.3338 23.8655 31.9798 23.1472 31.4202 22.6583C31.553 22.4266 31.6842 22.1905 31.8132 21.9488C31.9816 21.9822 32.1556 22 32.3339 22C33.8068 22 35.0005 20.8062 35.0005 19.3334C35.0005 18.4227 34.5435 17.6189 33.8466 17.1377C33.9643 16.7748 34.0791 16.3959 34.1932 15.9963C34.2398 15.9988 34.2867 16.0001 34.3339 16.0001C35.8068 16.0001 37.0005 14.8063 37.0005 13.3334C37.0006 12.1955 36.2873 11.2243 35.2837 10.8415ZM5.00055 1.33508C5.00055 1.34031 4.99984 1.34539 4.99977 1.35063C4.99922 1.39117 4.99758 1.43156 4.99352 1.47117C4.9932 1.47398 4.99258 1.47664 4.99227 1.47945C4.98773 1.52133 4.98156 1.56281 4.9732 1.60344C4.97258 1.60648 4.97156 1.60938 4.97094 1.61234C4.96234 1.65258 4.95234 1.69234 4.94023 1.73109C4.93992 1.73203 4.93953 1.73289 4.93922 1.73383C4.79539 2.19117 4.41187 2.54227 3.93578 2.63961C3.93078 2.64063 3.92555 2.64094 3.92055 2.64195C3.88203 2.64938 3.84313 2.65578 3.80352 2.65977C3.7943 2.6607 3.78477 2.66047 3.77547 2.66117C3.73969 2.66406 3.70383 2.66664 3.66734 2.66664C3.66703 2.66664 3.66664 2.66656 3.66633 2.66656C3.63398 2.66656 3.60227 2.66398 3.57047 2.66172C3.47617 2.65266 3.37602 2.63063 3.26422 2.59469C3.23648 2.58578 3.20867 2.57906 3.18094 2.57383C2.68539 2.37938 2.33406 1.89813 2.33391 1.33359L5.00055 1.33508ZM1.66727 7.33336C1.66727 6.59727 2.26438 6 3.00063 6C3.73688 6 4.33398 6.59727 4.33398 7.33336C4.33398 7.37742 4.33156 7.42086 4.32742 7.46375C4.32523 7.48594 4.32125 7.50758 4.31797 7.52945C4.31508 7.54906 4.31273 7.56891 4.30898 7.58828C4.30289 7.61906 4.29523 7.64922 4.28703 7.67922C4.28461 7.6882 4.28266 7.69727 4.28008 7.70617C4.13078 8.21172 3.68547 8.59391 3.13438 8.65008C3.10656 8.65289 3.07961 8.65797 3.05305 8.66398C3.03555 8.66469 3.01828 8.66664 3.00063 8.66664C2.26414 8.66664 1.66727 8.06984 1.66727 7.33336ZM2.33398 13.3334C2.33398 12.6718 2.8168 12.1239 3.44891 12.0195C3.47391 12.0201 3.49906 12.0197 3.52445 12.0174C3.55586 12.0146 3.62656 12.0055 3.62656 12.0055C4.40352 12.0001 5.00063 12.5973 5.00063 13.3334C5.00063 13.3747 4.99812 13.4154 4.99445 13.4557C4.99297 13.4716 4.9907 13.4873 4.98867 13.503C4.98578 13.5259 4.98234 13.5486 4.97828 13.5712C4.97445 13.592 4.97031 13.6128 4.96555 13.6334C4.96242 13.6469 4.95875 13.6602 4.95523 13.6736C4.84031 14.102 4.51344 14.4512 4.07594 14.5934C4.05062 14.6016 4.02648 14.6116 4.00289 14.6224C3.89555 14.6503 3.78352 14.6666 3.66734 14.6666C2.93078 14.6666 2.33398 14.0698 2.33398 13.3334ZM4.33398 19.3334C4.33398 18.7866 4.66367 18.3171 5.13484 18.1114C5.15812 18.1055 5.18133 18.0984 5.20437 18.0898C5.32336 18.0452 5.43938 18.0172 5.55313 18.0059C5.59086 18.0027 5.62875 18.0001 5.66734 18.0001C6.40359 18.0001 7.0007 18.5973 7.0007 19.3334C7.0007 19.3738 6.9982 19.4137 6.99469 19.4531C6.99352 19.4664 6.99195 19.4796 6.99031 19.4928C6.98719 19.5189 6.98305 19.5447 6.97852 19.5704C6.97578 19.5855 6.97344 19.6008 6.97016 19.6158C6.96328 19.6477 6.955 19.6791 6.94594 19.7101C6.93828 19.7359 6.92945 19.7612 6.92023 19.7863C6.91789 19.7928 6.91562 19.7992 6.91312 19.8056C6.79102 20.1235 6.54797 20.3877 6.22781 20.5378C6.20898 20.5466 6.19102 20.5565 6.17352 20.5668C6.01742 20.6309 5.84672 20.6668 5.66742 20.6668C4.93078 20.6666 4.33398 20.0698 4.33398 19.3334ZM21.7377 30.5528L19.6673 29V27.3334L23.071 29.8862L21.7377 30.5528ZM19.0006 35.1666L17.0006 33.6666V31.6666L19.0006 30.1666L21.0006 31.6666V33.6666L19.0006 35.1666ZM16.2636 30.5528L14.9302 29.8862L18.334 27.3334V29L16.2636 30.5528ZM14.334 31.0787L15.6673 31.7453V33.588L14.334 34.2546V31.0787ZM16.2636 34.7805L18.334 36.3334V38L14.9302 35.4472L16.2636 34.7805ZM19.6673 36.3334L21.7377 34.7805L23.071 35.4472L19.6673 38V36.3334ZM22.334 33.588V31.7453L23.6673 31.0787V34.2546L22.334 33.588ZM7.00062 24.6666C7.00062 24.1627 7.2807 23.7239 7.69359 23.4973C7.71672 23.4892 7.73969 23.4802 7.76227 23.4694C7.95031 23.3794 8.14109 23.3333 8.33391 23.3333C9.07016 23.3333 9.66727 23.9305 9.66727 24.6666C9.66727 24.7105 9.66484 24.7537 9.6607 24.7964C9.65781 24.8259 9.65289 24.8549 9.64805 24.884C9.64609 24.8958 9.64484 24.9078 9.64258 24.9195C9.59469 25.1633 9.47805 25.3884 9.30398 25.5742C9.29 25.5891 9.27695 25.6047 9.26461 25.6205C9.0243 25.8549 8.69625 25.9999 8.33391 25.9999C7.5975 26 7.00062 25.4031 7.00062 24.6666ZM11.6673 28.6666C11.6673 28.3973 11.7479 28.1469 11.8854 27.9372C11.887 27.9348 11.8889 27.9327 11.8905 27.9303C11.9037 27.9105 11.9177 27.8913 11.9318 27.8722C11.9358 27.8669 11.9397 27.8615 11.9438 27.8562C11.988 27.7984 12.0366 27.745 12.0889 27.6958C12.1002 27.6852 12.1116 27.6748 12.1232 27.6646C12.1373 27.6522 12.1514 27.6396 12.1661 27.6278C12.1897 27.6088 12.2141 27.5907 12.2389 27.5734C12.2519 27.5643 12.2652 27.5557 12.2784 27.547C12.2994 27.5335 12.3207 27.5205 12.3424 27.5082C12.3555 27.5008 12.3686 27.4934 12.3819 27.4863C12.4084 27.4723 12.4355 27.4594 12.4631 27.4472C12.4748 27.442 12.4865 27.437 12.4984 27.4321C12.5307 27.4189 12.5634 27.4066 12.597 27.396C12.6055 27.3934 12.6141 27.3912 12.6227 27.3886C12.6528 27.3797 12.6834 27.3718 12.7145 27.365C12.7233 27.363 12.732 27.3609 12.7409 27.3591C12.7778 27.3519 12.8152 27.3462 12.8531 27.342C12.8619 27.3411 12.8707 27.3403 12.8795 27.3395C12.9195 27.3359 12.9598 27.3334 13.0007 27.3334C13.0727 27.3334 13.1427 27.3407 13.2116 27.3517C13.2308 27.3548 13.2504 27.3566 13.2693 27.3605C13.286 27.364 13.302 27.3691 13.3185 27.3732C13.3448 27.3797 13.3714 27.3854 13.397 27.3934C13.4277 27.403 13.4573 27.4147 13.487 27.4264C13.4977 27.4306 13.5089 27.4338 13.5195 27.4383C13.5839 27.4655 13.6448 27.4989 13.7036 27.5355C13.7177 27.5442 13.7323 27.552 13.7461 27.5612C13.7546 27.567 13.7623 27.5737 13.7706 27.5796C13.7972 27.5984 13.8237 27.6173 13.8488 27.638C13.8514 27.6402 13.8538 27.6427 13.8564 27.645C13.8865 27.6702 13.9157 27.6964 13.9434 27.7241C13.9601 27.7407 13.9751 27.7588 13.9909 27.7762C14.0037 27.7904 14.0173 27.8039 14.0295 27.8187C14.045 27.8374 14.0587 27.8575 14.0732 27.8771C14.0841 27.892 14.0959 27.9061 14.1063 27.9213C14.1171 27.9373 14.1263 27.9545 14.1364 27.971C14.1487 27.991 14.1618 28.0105 14.173 28.0313C14.1801 28.0443 14.1857 28.0581 14.1923 28.0713C14.205 28.0966 14.2181 28.1216 14.2291 28.1477C14.2367 28.1656 14.2425 28.1845 14.2493 28.2027C14.2577 28.2252 14.2669 28.2472 14.274 28.2702C14.2813 28.2938 14.2865 28.3182 14.2926 28.3423C14.2973 28.3609 14.303 28.379 14.3069 28.3979C14.3113 28.4195 14.3136 28.4418 14.317 28.4638C14.3204 28.4859 14.3248 28.5077 14.3271 28.5302C14.3291 28.5505 14.3291 28.5714 14.3302 28.592C14.3316 28.6167 14.334 28.6413 14.334 28.6664C14.334 28.6664 14.3333 28.667 14.3332 28.667L13.902 28.9904C13.8865 29.002 13.8767 29.0094 13.8767 29.0094L13.8766 29.0095C13.8755 29.0103 13.8745 29.0113 13.8734 29.0122L13.2673 29.4669C13.2638 29.4695 13.2608 29.4726 13.2574 29.4752C13.2434 29.4863 13.2297 29.4977 13.2164 29.5099C13.2163 29.5101 13.216 29.5102 13.2159 29.5104C13.2132 29.5128 13.2102 29.5148 13.2077 29.5173C13.2052 29.5197 13.2032 29.5223 13.2008 29.5247C13.1882 29.537 13.1761 29.5501 13.1645 29.5635C13.1614 29.567 13.1578 29.5702 13.1548 29.5738C13.1534 29.5755 13.1523 29.5774 13.1509 29.5791C13.1393 29.5934 13.1284 29.6084 13.1178 29.6238C13.1151 29.6278 13.1118 29.6315 13.1091 29.6355C13.1085 29.6365 13.1081 29.6375 13.1075 29.6384C13.0945 29.6587 13.0822 29.6797 13.0712 29.7017C13.0711 29.7018 13.071 29.702 13.071 29.702C13.0709 29.7022 13.0709 29.7023 13.0708 29.7025C13.0598 29.7245 13.0504 29.7468 13.042 29.7694C13.04 29.775 13.0384 29.7808 13.0365 29.7865C13.0305 29.8041 13.025 29.8219 13.0205 29.8398C13.0189 29.8464 13.0177 29.8532 13.0162 29.8599C13.0125 29.8774 13.0093 29.8948 13.007 29.9124C13.006 29.9195 13.0052 29.9266 13.0045 29.9337C13.0027 29.9516 13.0017 29.9695 13.0014 29.9875C13.0013 29.9918 13.0006 29.996 13.0006 30.0003C12.2641 30 11.6673 29.4031 11.6673 28.6666ZM25.0006 30C25.0006 29.9957 24.9999 29.9915 24.9998 29.9872C24.9995 29.9693 24.9985 29.9514 24.9967 29.9335C24.996 29.9264 24.9952 29.9193 24.9943 29.9122C24.992 29.8947 24.9888 29.8772 24.985 29.8598C24.9835 29.853 24.9823 29.8463 24.9806 29.8395C24.9762 29.8216 24.9707 29.804 24.9647 29.7863C24.9627 29.7806 24.9613 29.7748 24.9591 29.7691C24.9508 29.7466 24.9413 29.7243 24.9304 29.7023C24.9303 29.7021 24.9302 29.702 24.9302 29.7018C24.9301 29.7017 24.93 29.7015 24.93 29.7015C24.919 29.6795 24.9067 29.6584 24.8937 29.6382C24.893 29.6373 24.8927 29.6362 24.892 29.6353C24.8894 29.6312 24.8861 29.6276 24.8834 29.6236C24.8728 29.6081 24.862 29.5931 24.8502 29.5788C24.8488 29.5771 24.8477 29.5752 24.8463 29.5736C24.8434 29.57 24.8398 29.5668 24.8367 29.5633C24.825 29.5498 24.813 29.5368 24.8003 29.5244C24.798 29.522 24.7959 29.5194 24.7935 29.5171C24.7908 29.5145 24.7875 29.5123 24.7847 29.5097C24.7714 29.4975 24.7577 29.4859 24.7437 29.475C24.7403 29.4723 24.7373 29.4693 24.7339 29.4667L24.1279 29.0121C24.1267 29.0113 24.1258 29.0102 24.1246 29.0094L23.6673 28.6664C23.6673 28.6532 23.6689 28.6405 23.6693 28.6273C23.685 28.0923 24.0148 27.6357 24.4818 27.4381C24.56 27.4051 24.6421 27.3795 24.727 27.3617C24.7288 27.3614 24.7303 27.3608 24.732 27.3605C24.7563 27.3555 24.7814 27.3528 24.8062 27.3491C24.8698 27.3398 24.9344 27.3334 25.0006 27.3334C25.0416 27.3334 25.0821 27.3359 25.1222 27.3395C25.1307 27.3403 25.1391 27.341 25.1477 27.342C25.1859 27.3462 25.2238 27.3519 25.261 27.3593C25.269 27.3609 25.2768 27.3628 25.2847 27.3645C25.3181 27.3718 25.3511 27.3802 25.3835 27.39C25.3896 27.3918 25.3959 27.3934 25.402 27.3953C25.4374 27.4065 25.4721 27.4195 25.5062 27.4335C25.5152 27.4373 25.5242 27.4411 25.5332 27.445C25.567 27.4598 25.6004 27.4755 25.6327 27.4929C25.6373 27.4955 25.6419 27.4984 25.6466 27.5009C25.6753 27.5169 25.7032 27.5341 25.7306 27.552C25.739 27.5575 25.7473 27.5629 25.7556 27.5685C25.7846 27.5885 25.8128 27.6096 25.8402 27.6318C25.8484 27.6384 25.8563 27.6455 25.8642 27.6523C25.8854 27.6704 25.906 27.6892 25.926 27.7085C25.934 27.7163 25.9423 27.7238 25.9501 27.7316C25.9735 27.7555 25.9959 27.7803 26.0174 27.8058C26.0264 27.8163 26.035 27.8272 26.0437 27.8381C26.0602 27.8589 26.0761 27.8802 26.0914 27.902C26.0972 27.9102 26.1033 27.918 26.1089 27.9263C26.1091 27.9266 26.1092 27.9267 26.1093 27.9269C26.2509 28.1387 26.3338 28.393 26.3338 28.6668C26.334 29.4031 25.7371 30 25.0006 30ZM29.6673 26C29.3055 26 28.9778 25.8554 28.7376 25.6215C28.7237 25.6029 28.7089 25.5848 28.6928 25.5674C28.5205 25.3816 28.4052 25.1578 28.358 24.9161C28.3566 24.9086 28.3559 24.9009 28.3546 24.8934C28.3488 24.8609 28.3437 24.8283 28.3404 24.7952C28.3363 24.7528 28.3339 24.71 28.3339 24.6666C28.3339 23.9305 28.931 23.3332 29.6673 23.3332C29.8602 23.3332 30.0509 23.3791 30.2357 23.4677C30.2587 23.4787 30.2823 23.4879 30.3059 23.4961C30.7197 23.7225 31.0006 24.1618 31.0006 24.6666C31.0006 25.4031 30.4038 26 29.6673 26ZM32.334 20.6666C32.156 20.6666 31.9865 20.6311 31.8313 20.5678C31.8113 20.5556 31.7904 20.5444 31.7687 20.5341C31.4503 20.3842 31.2086 20.1202 31.0873 19.8029C31.0853 19.7977 31.0834 19.7923 31.0815 19.7871C31.072 19.7613 31.063 19.7352 31.0551 19.7087C31.0461 19.678 31.038 19.6471 31.0312 19.6156C31.0278 19.6005 31.0255 19.5849 31.0227 19.5695C31.0182 19.5441 31.0141 19.5185 31.011 19.4927C31.0094 19.4795 31.0079 19.4662 31.0066 19.4529C31.0031 19.4134 31.0006 19.3737 31.0006 19.3334C31.0006 18.5973 31.5977 18 32.334 18C32.3728 18 32.4111 18.0026 32.4491 18.0058C32.5636 18.0172 32.6801 18.0454 32.7986 18.0899C32.8212 18.0984 32.8439 18.1055 32.8667 18.1114C33.3377 18.3172 33.6673 18.7866 33.6673 19.3333C33.6673 20.0698 33.0705 20.6666 32.334 20.6666ZM36.334 7.33336C36.334 8.06984 35.7371 8.66672 35.0006 8.66672C34.981 8.66672 34.962 8.66461 34.9426 8.66383C34.9163 8.65773 34.8895 8.65266 34.8618 8.64977C34.3538 8.59617 33.9366 8.26586 33.7592 7.81766C33.7583 7.81523 33.7575 7.81281 33.7566 7.81039C33.7434 7.77648 33.7316 7.74188 33.7212 7.70672C33.718 7.69602 33.7157 7.685 33.7128 7.67422C33.7052 7.64594 33.6979 7.61758 33.6922 7.58859C33.6882 7.56813 33.6857 7.54719 33.6827 7.52641C33.6797 7.50555 33.6759 7.485 33.6738 7.46383C33.6697 7.42094 33.6673 7.3775 33.6673 7.33344C33.6673 6.59734 34.2644 6.00008 35.0006 6.00008C35.7369 6.00008 36.334 6.59727 36.334 7.33336ZM35.6673 1.33336C35.6673 1.89805 35.3159 2.37945 34.8202 2.57391C34.7926 2.57906 34.7648 2.58578 34.7371 2.59469C34.6255 2.63055 34.525 2.65266 34.4306 2.6618C34.3986 2.66406 34.3666 2.66664 34.334 2.66664C33.5975 2.66664 33.0007 2.06977 33.0007 1.33328L35.6673 1.33336ZM34.334 14.6666C34.217 14.6666 34.1041 14.6501 33.9959 14.6217C33.9723 14.6108 33.9481 14.6007 33.9228 14.5924C33.4864 14.4495 33.1608 14.101 33.0462 13.6736C33.0426 13.66 33.0388 13.6465 33.0356 13.6327C33.0309 13.6124 33.0268 13.5918 33.023 13.5711C33.019 13.5484 33.0155 13.5255 33.0126 13.5024C33.0105 13.4868 33.0083 13.4713 33.0069 13.4555C33.0032 13.4152 33.0007 13.3745 33.0007 13.3332C33.0007 12.5971 33.5978 11.9998 34.3341 11.9998C34.4163 12.0113 34.4163 12.0112 34.4704 12.0173C34.4989 12.0201 34.527 12.0204 34.555 12.0197C35.1859 12.1252 35.6674 12.6726 35.6674 13.3332C35.6673 14.0698 35.0705 14.6666 34.334 14.6666Z" fill="white" fill-opacity="0.12"/>
</svg>
