<svg width="40" height="40" viewBox="0 0 40 40" fill="none" xmlns="http://www.w3.org/2000/svg">
<rect width="40" height="40" rx="12" fill="#3388FF"/>
<path fill-rule="evenodd" clip-rule="evenodd" d="M15.6699 9.99902H24.3399C27.7299 9.99902 29.9999 12.379 29.9999 15.919V24.09C29.9999 27.62 27.7299 29.999 24.3399 29.999H15.6699C12.2799 29.999 9.99988 27.62 9.99988 24.09V15.919C9.99988 12.379 12.2799 9.99902 15.6699 9.99902ZM19.9899 17.06C19.5199 17.06 19.1299 16.669 19.1299 16.19C19.1299 15.7 19.5199 15.31 20.0099 15.31C20.4899 15.31 20.8799 15.7 20.8799 16.19C20.8799 16.669 20.4899 17.06 19.9899 17.06ZM20.8699 23.78C20.8699 24.26 20.4799 24.65 19.9899 24.65C19.5099 24.65 19.1199 24.26 19.1199 23.78V19.36C19.1199 18.879 19.5099 18.48 19.9899 18.48C20.4799 18.48 20.8699 18.879 20.8699 19.36V23.78Z" fill="white"/>
</svg>
