<svg width="24" height="24" viewBox="0 0 24 24" fill="none" xmlns="http://www.w3.org/2000/svg">
<path fill-rule="evenodd" clip-rule="evenodd" d="M12.5 5.52C12.5 5.23281 12.2761 5 12 5C11.7239 5 11.5 5.23281 11.5 5.52V9.68H10C9.38066 9.68 9.07099 9.68 8.81188 9.72268C7.38558 9.95762 6.26694 11.121 6.04104 12.6044C6 12.8738 6 13.1959 6 13.84C6 14.4841 6 14.8062 6.04104 15.0756C6.26694 16.559 7.38558 17.7224 8.81188 17.9573C9.07099 18 9.38066 18 10 18H14C14.6193 18 14.929 18 15.1881 17.9573C16.6144 17.7224 17.7331 16.559 17.959 15.0756C18 14.8062 18 14.4841 18 13.84C18 13.1959 18 12.8738 17.959 12.6044C17.7331 11.121 16.6144 9.95762 15.1881 9.72268C14.929 9.68 14.6193 9.68 14 9.68H12.5V5.52ZM12.5 9.68H11.5V14.4019C11.2849 14.1749 11.0292 13.8407 10.657 13.3526L9.72512 12.1303C9.55356 11.9052 9.23907 11.8674 9.02269 12.0459C8.80631 12.2243 8.76998 12.5514 8.94154 12.7764L9.89238 14.0236C10.2478 14.4898 10.5411 14.8746 10.8037 15.1487C11.0731 15.4299 11.3721 15.6631 11.7542 15.7264C11.8356 15.7399 11.9177 15.7467 12 15.7467C12.0823 15.7467 12.1644 15.7399 12.2458 15.7264C12.6279 15.6631 12.9269 15.4299 13.1963 15.1487C13.4589 14.8746 13.7522 14.4898 14.1076 14.0236L15.0585 12.7764C15.23 12.5514 15.1937 12.2243 14.9773 12.0459C14.7609 11.8674 14.4464 11.9052 14.2749 12.1303L13.343 13.3526C12.9708 13.8407 12.7151 14.1749 12.5 14.4019V9.68Z" fill="white"/>
</svg>
