<svg width="46" height="14" viewBox="0 0 46 14" fill="none" xmlns="http://www.w3.org/2000/svg">
<path fill-rule="evenodd" clip-rule="evenodd" d="M0.836906 2.57093C1.15397 2.8753 2.73666 3.78972 3.0524 4.70413C3.36946 5.61726 4.00359 11.4629 5.90334 12.9873C7.86254 14.5563 15.2528 13.9718 16.6677 13.293C19.8344 11.7711 20.2228 6.85516 20.783 4.70285C21.0987 3.48406 22.9984 3.48406 22.9984 3.48406C22.9984 3.48406 24.8982 3.48406 25.2153 4.70158C25.7754 6.85516 26.1665 11.7851 29.3305 13.3044C30.7467 13.9858 38.137 14.5703 40.0988 13.0013C41.9959 11.4769 42.6287 5.61599 42.9458 4.70158C43.2602 3.78844 44.8456 2.87403 45.1613 2.56965C45.4797 2.26527 45.4797 1.04648 45.1613 0.740832C44.5285 0.132074 37.0576 -0.41046 29.0134 0.436452C27.4083 0.605835 26.7979 1.04521 22.9971 1.04521C19.1989 1.04521 18.586 0.604561 16.9821 0.436452C8.94321 -0.409186 1.47104 0.133347 0.836906 0.742105C0.521162 1.04648 0.521162 2.26655 0.836906 2.57093Z" fill="white" fill-opacity="0.12"/>
</svg>
