<svg width="30" height="26" viewBox="0 0 30 26" fill="none" xmlns="http://www.w3.org/2000/svg">
<path d="M19.0691 2.6609e-06C18.9588 0.000121511 18.8524 0.0139081 18.7445 0.0224058L15.5785 5.0985C19.3338 5.4147 21.1932 7.08953 21.868 8.73888L20.8448 9.13381C20.3733 7.98156 19.1955 6.70785 16.4208 6.27107C17.593 7.08597 18.4727 8.02875 18.9246 9.17696L17.8959 9.55888C17.4149 8.33645 16.2362 7.29491 14.4863 6.35944C13.8708 6.60427 10.7173 7.85534 9.62558 8.21451C7.35321 8.96202 6.1155 10.4781 3.75381 13.1408L3.74579 13.1498L3.73753 13.1584C3.35445 13.5537 3.19343 13.9103 3.15648 14.1704C3.11953 14.4304 3.18609 14.5921 3.3038 14.7129C3.5392 14.9546 4.17115 15.1075 5.10665 14.4912L5.11124 14.4881L9.70193 11.5899L10.3659 12.4397L7.21813 15.1322L1.46161 20.3C0.731842 20.9551 0.743648 21.592 0.914084 21.8118C0.999363 21.9217 1.12814 22.0061 1.43916 21.9925C1.75017 21.9789 2.23114 21.8324 2.8328 21.432C4.65174 20.2218 6.34644 19.0125 7.83393 17.5539L7.83069 17.5406L7.85314 17.5352C7.86366 17.5249 7.87436 17.5148 7.88483 17.5045L7.90624 17.522C8.11494 17.4687 8.32082 17.4054 8.52313 17.3325C8.89099 17.199 9.28428 16.9556 9.33096 16.8941C9.35078 16.868 9.46396 16.4964 9.48329 16.1719C9.50262 15.8474 9.48366 15.5715 9.48366 15.5715L10.5822 15.4982C10.5822 15.4982 10.6065 15.8334 10.5827 16.2336C10.5588 16.6338 10.5426 17.1004 10.217 17.5291C9.86466 17.9932 9.34931 18.1746 8.90836 18.3346C8.78063 18.3806 8.65158 18.4231 8.52136 18.4619C7.03038 20.4042 5.13632 21.8834 3.38504 23.4244C2.77915 23.9576 2.52839 24.4162 2.4726 24.698C2.41675 24.9798 2.4808 25.0787 2.6308 25.1841C2.93068 25.3948 3.92553 25.4288 4.95536 24.5072C6.97502 22.6997 8.94537 20.904 10.4513 18.7596L10.5009 18.7883C10.5893 18.7512 10.7584 18.6781 10.9881 18.5563C11.2921 18.3951 11.6221 18.1393 11.6662 18.0746C11.7081 18.0132 11.8211 17.6242 11.8551 17.2942C11.889 16.9643 11.8864 16.6878 11.8864 16.6878L12.9874 16.6763C12.9874 16.6763 12.9914 17.0057 12.9507 17.4007C12.9101 17.7956 12.8672 18.2507 12.5839 18.6658C12.2985 19.084 11.8788 19.3028 11.5156 19.4953C11.4049 19.554 11.3029 19.6038 11.2083 19.6485C10.2006 21.426 8.75193 22.9662 7.20926 24.5781C6.87952 24.9226 6.8189 25.1845 6.83841 25.3692C6.85799 25.5539 6.96333 25.7119 7.17011 25.8367C7.58366 26.0862 8.3713 26.1257 9.09305 25.4021C9.92541 24.5677 10.6793 23.6955 11.336 22.7698C11.9048 21.7618 12.483 20.7441 13.0344 19.7275L13.0701 19.7436C13.1238 19.7266 13.3093 19.6667 13.5514 19.5627C13.8314 19.4425 14.1388 19.2351 14.1664 19.2006C14.1931 19.1671 14.3236 18.8285 14.3742 18.5369C14.4247 18.2453 14.439 17.9987 14.439 17.9987L15.5387 18.0576C15.5387 18.0576 15.5219 18.3577 15.46 18.7146C15.3981 19.0715 15.3349 19.4832 15.0359 19.8569C14.736 20.2317 14.3391 20.394 13.9967 20.541C13.9442 20.5636 13.8963 20.5821 13.8468 20.6018C13.4102 21.5646 12.8819 22.4683 12.2793 23.3237C12.0608 23.7111 11.8374 24.104 11.6279 24.4827C11.4351 24.8312 11.4231 25.0832 11.4666 25.2531C11.5102 25.4231 11.6084 25.5334 11.756 25.6061C12.0511 25.7516 12.5746 25.7355 13.0486 25.0943C16.5626 20.3408 20.7886 15.5698 22.6598 9.34751C22.797 8.89118 23.0966 8.66644 23.4547 8.34352C23.8128 8.02067 24.2489 7.67398 24.6764 7.32997C25.104 6.9859 25.5231 6.6442 25.8283 6.35599C26.0309 6.16464 26.1598 5.97727 26.2234 5.8917C26.0739 5.32556 25.8297 4.7587 25.5117 4.21282C24.8335 4.63587 24.0963 5.02493 23.5055 5.33935C23.8832 4.45379 24.1126 3.52028 24.264 2.56146C23.9467 2.22777 23.6044 1.9173 23.24 1.63259C21.9408 0.619212 20.4237 -0.00148297 19.0691 2.6609e-06ZM8.89074 0.237346C8.84213 0.236632 8.7935 0.23683 8.7449 0.237941C7.95243 0.255887 6.98279 0.547545 6.04833 1.03857C5.54779 1.30159 5.06162 1.62272 4.6132 1.98076C4.76113 3.12398 5.00032 4.23766 5.44672 5.2842C4.6964 4.88486 3.71062 4.36501 2.90878 3.80808C2.59036 4.29525 2.37019 4.79008 2.28461 5.26108C2.32131 5.42617 2.50086 5.77772 2.83182 6.16815C3.19264 6.59375 3.69196 7.06933 4.2051 7.52993C4.71818 7.9906 5.24448 8.43735 5.67411 8.83104C5.79634 8.943 5.90976 9.04337 6.01505 9.14059C6.98352 8.2715 7.98228 7.62573 9.27242 7.20137C10.1295 6.9194 12.7127 5.90418 13.6893 5.51851L10.4972 0.960193C10.1343 0.466906 9.60766 0.248043 8.89074 0.237346ZM23.5636 10.1369C23.2834 11.0045 22.9608 11.8431 22.604 12.6564L24.3949 13.6212L24.3995 13.6239C25.3771 14.1752 25.9966 13.9796 26.214 13.7226C26.3227 13.5941 26.3775 13.4283 26.3219 13.1715C26.2664 12.9145 26.0801 12.5697 25.6696 12.2013L25.6518 12.1852L25.6354 12.1677C24.8831 11.3623 24.1997 10.6957 23.5636 10.1369ZM21.9236 14.0982C21.1785 15.5771 20.3296 16.9738 19.43 18.3112C21.0778 20.3177 23.1499 21.9573 25.2712 23.6051C26.3648 24.4545 27.3546 24.3531 27.6387 24.1225C27.7806 24.0072 27.8376 23.9042 27.7617 23.6269C27.6856 23.3495 27.4025 22.909 26.7597 22.4183C24.8158 20.9343 22.7205 19.5287 21.0549 17.5587L21.8451 16.8184C23.4475 18.1939 25.2441 19.2973 27.1673 20.3934C27.7963 20.7519 28.2865 20.8655 28.5977 20.8579C28.909 20.8504 29.0314 20.7575 29.1086 20.642C29.2628 20.4112 29.2287 19.775 28.4537 19.1711L22.3395 14.4067L21.9236 14.0982ZM18.7564 19.2903C18.4198 19.7686 18.0775 20.243 17.7296 20.7137C18.0791 21.2458 18.4313 21.7768 18.7808 22.3049C19.5026 23.1838 20.3175 24.0028 21.2079 24.7788C21.9799 25.4516 22.7628 25.3586 23.1574 25.0816C23.3547 24.9431 23.4485 24.7784 23.4547 24.5928C23.4609 24.4072 23.3815 24.1502 23.0277 23.8288C21.4079 22.3574 19.883 20.9482 18.7564 19.2903ZM16.9789 21.7168C16.6123 22.2021 16.2441 22.6861 15.8741 23.169C16.3358 23.694 16.7929 24.217 17.24 24.7403C17.7589 25.3477 18.2821 25.328 18.5661 25.1629C18.7081 25.0803 18.7982 24.9637 18.8294 24.7913C18.8606 24.6188 18.8305 24.3682 18.613 24.0336C18.3767 23.6697 18.1254 23.2928 17.8793 22.921C17.5619 22.532 17.2615 22.1303 16.9789 21.7168Z" fill="white" fill-opacity="0.12"/>
</svg>
