<svg width="37" height="37" viewBox="0 0 37 37" fill="none" xmlns="http://www.w3.org/2000/svg">
<rect opacity="0.14" x="5.94338" y="5.73" width="24.753" height="24.753" fill="#33FF7E" fill-opacity="0.06" stroke="#33FF7E" stroke-width="0.853553"/>
<rect x="18.3198" y="0.603553" width="24.753" height="24.753" transform="rotate(45 18.3198 0.603553)" fill="url(#paint0_linear_90_21296)" fill-opacity="0.38"/>
<rect x="18.3198" y="0.603553" width="24.753" height="24.753" transform="rotate(45 18.3198 0.603553)" stroke="#24FF74" stroke-opacity="0.12" stroke-width="0.853553"/>
<rect x="18.3198" y="0.603553" width="24.753" height="24.753" transform="rotate(45 18.3198 0.603553)" stroke="url(#paint1_linear_90_21296)" stroke-width="0.853553"/>
<rect x="18.3198" y="0.603553" width="24.753" height="24.753" transform="rotate(45 18.3198 0.603553)" stroke="url(#paint2_linear_90_21296)" stroke-width="0.853553"/>
<rect x="5.21338" y="5" width="1" height="1" fill="#33FF7E"/>
<rect x="5.21338" y="30" width="1" height="1" fill="#33FF7E"/>
<rect x="30.2134" y="30" width="1" height="1" fill="#33FF7E"/>
<rect x="30.2134" y="5" width="1" height="1" fill="#33FF7E"/>
<path d="M13.4826 16.1374C13.5229 15.9396 13.5778 15.7289 13.6474 15.5055C13.717 15.282 13.7885 15.0742 13.8617 14.8819C13.935 14.6896 14.0009 14.5403 14.0595 14.4341C14.1328 14.3059 14.2152 14.2106 14.3068 14.1484C14.3984 14.0861 14.5174 14.044 14.6639 14.022C14.8727 13.9927 15.2207 13.9698 15.7079 13.9533C16.1951 13.9368 16.8635 13.9286 17.7134 13.9286C18.5632 13.9286 19.2326 13.9359 19.7216 13.9505C20.2106 13.9652 20.5577 13.989 20.7628 14.022C20.913 14.044 21.032 14.0861 21.1199 14.1484C21.2079 14.2106 21.2903 14.3059 21.3672 14.4341C21.4295 14.5366 21.4963 14.6841 21.5677 14.8764C21.6392 15.0687 21.7088 15.2775 21.7765 15.5027C21.8443 15.728 21.902 15.9396 21.9496 16.1374C21.9753 16.2399 21.967 16.3123 21.9249 16.3544C21.8828 16.3965 21.8086 16.4139 21.7024 16.4066C21.3983 16.3883 21.0641 16.37 20.6997 16.3516C20.3352 16.3333 19.9121 16.3187 19.4304 16.3077C18.9487 16.2967 18.3764 16.2912 17.7134 16.2912C17.0504 16.2912 16.478 16.2967 15.9963 16.3077C15.5147 16.3187 15.0925 16.3333 14.7299 16.3516C14.3672 16.37 14.0339 16.3883 13.7299 16.4066C13.6236 16.4139 13.5495 16.3965 13.5073 16.3544C13.4652 16.3123 13.457 16.2399 13.4826 16.1374ZM13.7518 20.1978C13.4991 20.1978 13.2885 20.1126 13.12 19.9423C12.9515 19.772 12.8672 19.5623 12.8672 19.3132C12.8672 19.0604 12.9515 18.8498 13.12 18.6813C13.2885 18.5128 13.4991 18.4286 13.7518 18.4286C14.0046 18.4286 14.2152 18.5128 14.3837 18.6813C14.5522 18.8498 14.6364 19.0604 14.6364 19.3132C14.6364 19.5623 14.5522 19.772 14.3837 19.9423C14.2152 20.1126 14.0046 20.1978 13.7518 20.1978ZM16.2628 19.978C16.0723 19.978 15.9185 19.9194 15.8013 19.8022C15.6841 19.6849 15.6255 19.5311 15.6255 19.3406C15.6255 19.1538 15.6841 19.0018 15.8013 18.8846C15.9185 18.7674 16.0723 18.7088 16.2628 18.7088H19.1694C19.3562 18.7088 19.5083 18.7674 19.6255 18.8846C19.7427 19.0018 19.8013 19.1538 19.8013 19.3406C19.8013 19.5311 19.7427 19.6849 19.6255 19.8022C19.5083 19.9194 19.3562 19.978 19.1694 19.978H16.2628ZM21.6749 20.1978C21.4258 20.1978 21.217 20.1126 21.0485 19.9423C20.88 19.772 20.7958 19.5623 20.7958 19.3132C20.7958 19.0604 20.88 18.8498 21.0485 18.6813C21.217 18.5128 21.4258 18.4286 21.6749 18.4286C21.9277 18.4286 22.1383 18.5128 22.3068 18.6813C22.4753 18.8498 22.5595 19.0604 22.5595 19.3132C22.5595 19.5623 22.4753 19.772 22.3068 19.9423C22.1383 20.1126 21.9277 20.1978 21.6749 20.1978ZM17.7134 21.6813C18.1749 21.6813 18.6621 21.6758 19.1749 21.6648C19.6877 21.6538 20.1914 21.6383 20.6859 21.6181C21.1804 21.598 21.6337 21.5751 22.0458 21.5494C22.4579 21.5238 22.794 21.4963 23.054 21.467C23.4276 21.423 23.7143 21.3003 23.9139 21.0989C24.1135 20.8974 24.2134 20.6209 24.2134 20.2692V19.3022C24.2134 18.9908 24.1914 18.7189 24.1474 18.4863C24.1035 18.2537 24.0302 18.0357 23.9277 17.8324C23.8251 17.6291 23.6895 17.4176 23.5211 17.1978L23.054 16.5989C22.9881 16.2692 22.9084 15.9432 22.815 15.6209C22.7216 15.2985 22.6282 15.0092 22.5348 14.7527C22.4414 14.4963 22.3635 14.3004 22.3013 14.1648C22.1547 13.8535 21.9432 13.6062 21.6667 13.4231C21.3901 13.2399 21.0705 13.1245 20.7079 13.0769C20.5833 13.0586 20.3755 13.044 20.0842 13.033C19.793 13.022 19.4432 13.0137 19.0348 13.0082C18.6264 13.0027 18.1859 13 17.7134 13C17.2408 13 16.8004 13.0037 16.3919 13.011C15.9835 13.0183 15.6337 13.0275 15.3425 13.0385C15.0513 13.0495 14.8452 13.0623 14.7244 13.0769C14.3581 13.1209 14.0376 13.2353 13.7628 13.4203C13.4881 13.6053 13.2775 13.8535 13.131 14.1648C13.065 14.3004 12.9863 14.4963 12.8947 14.7527C12.8031 15.0092 12.7097 15.2985 12.6145 15.6209C12.5192 15.9432 12.4387 16.2692 12.3727 16.5989L11.9112 17.1978C11.739 17.4176 11.6026 17.6291 11.5018 17.8324C11.4011 18.0357 11.3278 18.2537 11.2821 18.4863C11.2363 18.7189 11.2134 18.9908 11.2134 19.3022V20.2692C11.2134 20.6209 11.3141 20.8974 11.5156 21.0989C11.717 21.3003 12.0028 21.423 12.3727 21.467C12.6328 21.4963 12.9689 21.5238 13.381 21.5494C13.793 21.5751 14.2463 21.598 14.7408 21.6181C15.2354 21.6383 15.739 21.6538 16.2518 21.6648C16.7647 21.6758 17.2518 21.6813 17.7134 21.6813ZM11.9441 23.1923H12.587C12.7921 23.1923 12.9652 23.1227 13.1062 22.9835C13.2473 22.8443 13.3178 22.6721 13.3178 22.467V21.0989L11.2134 20.0989V22.467C11.2134 22.6721 11.283 22.8443 11.4222 22.9835C11.5614 23.1227 11.7354 23.1923 11.9441 23.1923ZM22.8398 23.1923H23.4881C23.6932 23.1923 23.8654 23.1227 24.0046 22.9835C24.1438 22.8443 24.2134 22.6721 24.2134 22.467V20.0989L22.1145 21.0989V22.467C22.1145 22.6721 22.1841 22.8443 22.3233 22.9835C22.4625 23.1227 22.6346 23.1923 22.8398 23.1923Z" fill="url(#paint3_radial_90_21296)"/>
<defs>
<linearGradient id="paint0_linear_90_21296" x1="43.7003" y1="25.5312" x2="18.2445" y2="0.0753545" gradientUnits="userSpaceOnUse">
<stop stop-color="#00E654"/>
<stop offset="1" stop-color="#B3FFCF"/>
</linearGradient>
<linearGradient id="paint1_linear_90_21296" x1="18.598" y1="0.428908" x2="21.4265" y2="3.25733" gradientUnits="userSpaceOnUse">
<stop stop-color="#3DFF84"/>
<stop offset="1" stop-color="#00CC4B" stop-opacity="0"/>
</linearGradient>
<linearGradient id="paint2_linear_90_21296" x1="41.9325" y1="23.7634" x2="43.3468" y2="25.1776" gradientUnits="userSpaceOnUse">
<stop stop-color="#00CC4B" stop-opacity="0"/>
<stop offset="1" stop-color="#66FF9E"/>
</linearGradient>
<radialGradient id="paint3_radial_90_21296" cx="0" cy="0" r="1" gradientUnits="userSpaceOnUse" gradientTransform="translate(17.7134 18.0961) rotate(90) scale(5.11332 6.52192)">
<stop stop-color="#3DFF84"/>
<stop offset="1" stop-color="#33FF7E"/>
</radialGradient>
</defs>
</svg>
