<svg width="46" height="28" viewBox="0 0 46 28" fill="none" xmlns="http://www.w3.org/2000/svg">
<path fill-rule="evenodd" clip-rule="evenodd" d="M36.023 14.1858C34.8065 16.7802 29.9119 19.9234 22.7031 19.9234C15.5395 19.9234 10.4441 16.8198 9.3718 14.2282C3.95951 14.4715 0.0693359 17.7082 0.0693359 19.632C0.0693359 22.8234 10.2008 27.3501 22.7031 27.3501C35.2025 27.3501 45.3368 22.8234 45.3368 19.632C45.3368 17.6827 41.4466 15.1987 36.023 14.1858Z" fill="white" fill-opacity="0.12"/>
<path fill-rule="evenodd" clip-rule="evenodd" d="M28.5795 0C27.1197 0 24.1037 1.00154 22.7372 1.00154C21.3707 1.00154 18.3547 0 16.8977 0C13.746 0 11.7768 3.88169 11.5024 5.36702L11.4458 12.2335C13.0358 13.6651 16.0037 15.4645 19.2573 15.7361C20.389 15.8295 21.5829 15.8861 22.8249 15.8861C24.0613 15.8861 25.2524 15.8295 26.3869 15.7361C29.6405 15.4617 32.2547 13.8858 33.9352 12.2816L33.9211 5.45473C33.6778 3.90998 31.703 0 28.5795 0Z" fill="white" fill-opacity="0.12"/>
</svg>
