<svg width="15" height="14" viewBox="0 0 15 14" fill="none" xmlns="http://www.w3.org/2000/svg">
<path d="M14.4401 11.9034L8.62336 6.41374L1.8275 0H1.2964L1.18795 0.260066C0.901732 0.946503 0.779438 1.64858 0.834342 2.29031C0.896923 3.02181 1.19137 3.65512 1.68591 4.12185L6.99112 9.12875L7.69087 8.46835L12.5955 13.6443C13.0834 14.1048 13.9232 14.1321 14.4401 13.6443C14.9487 13.1643 14.9487 12.3834 14.4401 11.9034Z" fill="#FFA048"/>
<path d="M4.51659 7.96924L0.379731 11.8906C-0.126577 12.3706 -0.126577 13.1515 0.379731 13.6315C0.860711 14.0874 1.69278 14.1277 2.21622 13.6315L6.35311 9.71005L4.51659 7.96924Z" fill="#FFA048"/>
<path d="M14.1383 2.33092L11.7916 4.55534L11.1794 3.97505L13.5261 1.75061L12.9139 1.17032L10.5672 3.39473L9.95507 2.81444L12.3017 0.590027L11.6896 0.00976562L8.62873 2.91121C8.25428 3.26616 8.03069 3.73746 7.99907 4.23834C7.99108 4.36524 7.96074 4.49007 7.9104 4.60879L9.89874 6.49357C10.024 6.4458 10.1557 6.41706 10.2895 6.40949C10.8179 6.3796 11.3151 6.1676 11.6896 5.81266L14.7505 2.91124L14.1383 2.33092Z" fill="#FFA048"/>
</svg>
