<svg width="24" height="18" viewBox="0 0 24 18" fill="none" xmlns="http://www.w3.org/2000/svg">
<path d="M13.8184 5.77148C13.6426 5.77148 13.4961 5.71289 13.3789 5.5957C13.2617 5.47851 13.2031 5.33529 13.2031 5.16602C13.2031 4.99675 13.2617 4.85514 13.3789 4.74121C13.4961 4.62728 13.6426 4.57031 13.8184 4.57031H19.1504C19.3197 4.57031 19.4629 4.62728 19.5801 4.74121C19.6973 4.85514 19.7559 4.99675 19.7559 5.16602C19.7559 5.33529 19.6973 5.47851 19.5801 5.5957C19.4629 5.71289 19.3197 5.77148 19.1504 5.77148H13.8184ZM13.8184 9.59961C13.6426 9.59961 13.4961 9.54102 13.3789 9.42383C13.2617 9.30664 13.2031 9.16016 13.2031 8.98438C13.2031 8.82161 13.2617 8.68327 13.3789 8.56934C13.4961 8.45541 13.6426 8.39844 13.8184 8.39844H19.1504C19.3197 8.39844 19.4629 8.45541 19.5801 8.56934C19.6973 8.68327 19.7559 8.82161 19.7559 8.98438C19.7559 9.16016 19.6973 9.30664 19.5801 9.42383C19.4629 9.54102 19.3197 9.59961 19.1504 9.59961H13.8184ZM13.8184 13.418C13.6426 13.418 13.4961 13.361 13.3789 13.2471C13.2617 13.1332 13.2031 12.9948 13.2031 12.832C13.2031 12.6627 13.2617 12.5179 13.3789 12.3975C13.4961 12.277 13.6426 12.2168 13.8184 12.2168H19.1504C19.3197 12.2168 19.4629 12.277 19.5801 12.3975C19.6973 12.5179 19.7559 12.6627 19.7559 12.832C19.7559 12.9948 19.6973 13.1332 19.5801 13.2471C19.4629 13.361 19.3197 13.418 19.1504 13.418H13.8184ZM3.64258 13.4863C3.48633 13.4863 3.36751 13.4375 3.28613 13.3398C3.20475 13.2422 3.16406 13.1218 3.16406 12.9785C3.16406 12.7442 3.25032 12.4463 3.42285 12.085C3.59538 11.7237 3.85905 11.3591 4.21387 10.9912C4.56868 10.6234 5.01465 10.3158 5.55176 10.0684C6.08887 9.82098 6.722 9.69727 7.45117 9.69727C8.18034 9.69727 8.8151 9.82098 9.35547 10.0684C9.89582 10.3158 10.3434 10.6234 10.6982 10.9912C11.0531 11.3591 11.3168 11.7237 11.4893 12.085C11.6618 12.4463 11.748 12.7442 11.748 12.9785C11.748 13.1218 11.7073 13.2422 11.626 13.3398C11.5446 13.4375 11.4258 13.4863 11.2695 13.4863H3.64258ZM7.45117 9.01367C6.86524 9.01367 6.36231 8.79232 5.94238 8.34961C5.52246 7.9069 5.3125 7.35026 5.3125 6.67969C5.3125 6.26302 5.40853 5.88216 5.60059 5.53711C5.79264 5.19206 6.05143 4.91536 6.37695 4.70703C6.70247 4.4987 7.06054 4.39453 7.45117 4.39453C7.84831 4.39453 8.20801 4.4987 8.53027 4.70703C8.85254 4.91536 9.1097 5.19206 9.30176 5.53711C9.49381 5.88216 9.58984 6.26302 9.58984 6.67969C9.58984 7.35026 9.38151 7.9069 8.96484 8.34961C8.54817 8.79232 8.04362 9.01367 7.45117 9.01367ZM3.06641 17.9785H19.9609C20.9896 17.9785 21.7578 17.7262 22.2656 17.2217C22.7734 16.7171 23.0273 15.9635 23.0273 14.9609V3.02734C23.0273 2.02474 22.7734 1.26953 22.2656 0.761719C21.7578 0.253906 20.9896 0 19.9609 0H3.06641C2.04427 0 1.27767 0.252279 0.766602 0.756836C0.255534 1.26139 0 2.01823 0 3.02734V14.9609C0 15.9635 0.255534 16.7171 0.766602 17.2217C1.27767 17.7262 2.04427 17.9785 3.06641 17.9785Z" fill="white" fill-opacity="0.85"/>
</svg>
