<svg width="24" height="24" viewBox="0 0 24 24" fill="none" xmlns="http://www.w3.org/2000/svg">
<rect width="24" height="24" rx="7" fill="black" fill-opacity="0.2"/>
<path fill-rule="evenodd" clip-rule="evenodd" d="M5 12C5 9.08354 5 7.62531 5.74271 6.60306C5.98258 6.27291 6.27291 5.98258 6.60306 5.74271C7.62531 5 9.08354 5 12 5C14.9165 5 16.3747 5 17.3969 5.74271C17.7271 5.98258 18.0174 6.27291 18.2573 6.60306C19 7.62531 19 9.08354 19 12C19 14.9165 19 16.3747 18.2573 17.3969C18.0174 17.7271 17.7271 18.0174 17.3969 18.2573C16.3747 19 14.9165 19 12 19C9.08354 19 7.62531 19 6.60306 18.2573C6.27291 18.0174 5.98258 17.7271 5.74271 17.3969C5 16.3747 5 14.9165 5 12ZM12 10.6389C12.3222 10.6389 12.5833 10.9001 12.5833 11.2222V15.8889C12.5833 16.2111 12.3222 16.4722 12 16.4722C11.6778 16.4722 11.4167 16.2111 11.4167 15.8889V11.2222C11.4167 10.9001 11.6778 10.6389 12 10.6389ZM12 9.66667C12.4296 9.66667 12.7778 9.31844 12.7778 8.88889C12.7778 8.45933 12.4296 8.11111 12 8.11111C11.5704 8.11111 11.2222 8.45933 11.2222 8.88889C11.2222 9.31844 11.5704 9.66667 12 9.66667Z" fill="white"/>
</svg>
