<svg width="35" height="31" viewBox="0 0 35 31" fill="none" xmlns="http://www.w3.org/2000/svg">
<path d="M8.43842 3.33044C7.42213 3.86614 6.58153 4.72168 6.07025 5.80105L0.174069 18.2482C-0.246098 19.1352 0.119852 20.1953 0.997626 20.6341L3.21651 21.7437C4.10772 22.1893 5.19131 21.828 5.63692 20.9369L7.53623 17.1383V28.8647C7.53623 29.8611 8.34389 30.6688 9.34027 30.6688H16.1055V10.7666C8.66395 10.0347 8.43842 4.81422 8.43842 3.33044ZM10.8476 25.5647L9.6374 23.1443L13.2455 21.3403L14.4557 23.7607L10.8476 25.5647Z" fill="white" fill-opacity="0.12"/>
<path d="M34.7447 18.2486L28.8487 5.80147C28.3374 4.72211 27.4967 3.86663 26.4805 3.33087C26.4805 4.81465 26.255 10.0351 18.8132 10.767V30.6691H25.5785C26.5748 30.6691 27.3825 29.8614 27.3825 28.865V17.1387L29.2818 20.9372C29.7274 21.8284 30.811 22.1896 31.7022 21.744L33.9211 20.6345C34.7989 20.1956 35.1649 19.1355 34.7447 18.2486ZM24.0714 25.5651L20.4632 23.7611L21.6734 21.3407L25.2815 23.1447L24.0714 25.5651Z" fill="white" fill-opacity="0.12"/>
<path d="M20.1641 0H14.7519L11.1438 3.60814C11.1438 5.83139 12.6039 7.67751 16.105 8.04905V5.97277L13.2894 3.15722H21.6266L18.8111 5.9727V8.04891C22.3121 7.67744 23.7723 5.83125 23.7723 3.60814L20.1641 0Z" fill="white" fill-opacity="0.12"/>
</svg>
