<svg width="38" height="21" viewBox="0 0 38 21" fill="none" xmlns="http://www.w3.org/2000/svg">
<path fill-rule="evenodd" clip-rule="evenodd" d="M31.5263 0.162268C28.4629 -0.793612 23.1261 2.78575 18.9985 2.78575C14.8502 2.78575 9.49268 -0.789006 6.42005 0.176087C1.98845 1.5696 0.657131 -1.199 0.657131 1.28168C0.657131 1.28168 0.21259 15.2122 8.36406 17.1424C12.9707 17.8011 16.299 20.5858 18.9985 20.5858C21.7441 20.5858 24.0405 18.1006 29.7481 17.1193C37.151 16.1082 37.3445 1.28168 37.3445 1.28168C37.3445 -1.21051 35.9855 1.55348 31.5263 0.162268ZM27.8294 10.3499C25.8624 11.0294 23.946 11.1307 22.6332 10.7299C21.8178 10.4812 21.2166 10.8981 20.7767 11.0708C20.3413 11.2436 20.3413 8.07649 22.1564 6.57472C23.0547 5.82614 23.4301 5.5912 24.9042 5.08217C28.0943 3.98348 32.7033 5.66721 32.7033 5.66721C32.7033 5.66721 31.0126 9.25349 27.8294 10.3499ZM5.22693 5.66721C5.22693 5.66721 9.83588 3.98579 13.026 5.08217C14.5047 5.59351 14.8802 5.82614 15.7739 6.57472C17.5912 8.07649 17.5912 11.2436 17.1558 11.0708C16.7182 10.8981 16.1147 10.4789 15.3017 10.7299C13.9842 11.1307 12.0701 11.0294 10.1008 10.3499C6.91757 9.25349 5.22693 5.66721 5.22693 5.66721Z" fill="white" fill-opacity="0.12"/>
</svg>
