<svg width="22" height="40" viewBox="0 0 22 40" fill="none" xmlns="http://www.w3.org/2000/svg">
<path d="M8.32432 39.9999L10.009 11.3833C10.009 10.8333 10.455 10.4666 10.9174 10.4666H11.0991C11.6441 10.4666 12.0075 10.9166 12.0075 11.3833L13.6757 39.9999H22L20.3814 3.28327V-6.10352e-05H1.61862V3.28327L0 39.9999H8.32432ZM12.6186 0.916606H19.473V2.18327H12.6186V0.916606ZM11 3.91661C11.3634 3.91661 11.545 4.18327 11.545 4.46661C11.545 4.73327 11.3634 5.01661 11 5.01661C10.7357 5.01661 10.455 4.74994 10.455 4.46661C10.455 4.09994 10.7357 3.91661 11 3.91661ZM11 6.28327C11.3634 6.28327 11.545 6.54994 11.545 6.83327C11.545 7.11661 11.3634 7.38327 11 7.38327C10.7357 7.38327 10.455 7.11661 10.455 6.83327C10.455 6.46661 10.7357 6.28327 11 6.28327ZM2.52703 0.916606H9.46396V2.18327H2.52703V0.916606Z" fill="white" fill-opacity="0.12"/>
</svg>
