<svg width="24" height="26" viewBox="0 0 24 26" fill="none" xmlns="http://www.w3.org/2000/svg">
<path fill-rule="evenodd" clip-rule="evenodd" d="M11.9185 0C9.00231 0 6.5976 2.18994 6.25923 5.01498C5.78678 5.10547 5.35153 5.23628 4.93403 5.42767C3.72751 5.98077 2.70611 6.87011 1.99229 7.98907C1.56024 8.66634 1.30388 9.42396 1.10248 10.3482C0.905171 11.2537 0.748386 12.3825 0.548922 13.8187L0.537874 13.8983C0.281188 15.7464 0.0805253 17.1911 0.0195784 18.3548C-0.0423025 19.5364 0.0325558 20.521 0.387997 21.4249C0.968944 22.9024 2.04161 24.1343 3.42511 24.913C4.27157 25.3894 5.23653 25.599 6.41536 25.7003C7.57639 25.8 9.03499 25.8 10.9008 25.8H12.9362C14.802 25.8 16.2606 25.8 17.4216 25.7003C18.6005 25.599 19.5654 25.3894 20.4119 24.913C21.7954 24.1343 22.868 22.9024 23.449 21.4249C23.8044 20.521 23.8793 19.5364 23.8174 18.3548C23.7565 17.1911 23.5558 15.7463 23.2991 13.8981L23.2881 13.8187C23.0886 12.3825 22.9318 11.2537 22.7345 10.3482C22.5331 9.42396 22.2767 8.66634 21.8447 7.98907C21.1309 6.87011 20.1095 5.98077 18.903 5.42767C18.4855 5.23628 18.0502 5.10547 17.5778 5.01498C17.2394 2.18994 14.8347 0 11.9185 0ZM10.8896 4.8C9.80713 4.79999 8.89595 4.79998 8.1158 4.8304C8.51098 3.09508 10.0635 1.8 11.9185 1.8C13.7735 1.8 15.326 3.09508 15.7212 4.8304C14.941 4.79998 14.0299 4.79999 12.9474 4.8H10.8896ZM7.75495 11.0636C7.40348 10.7121 6.83363 10.7121 6.48216 11.0636C6.13069 11.4151 6.13069 11.9849 6.48216 12.3364L6.96216 12.8164C9.6995 15.5537 14.1376 15.5537 16.875 12.8164L17.355 12.3364C17.7064 11.9849 17.7064 11.4151 17.355 11.0636C17.0035 10.7121 16.4336 10.7121 16.0822 11.0636L15.6022 11.5436C13.5678 13.578 10.2693 13.578 8.23495 11.5436L7.75495 11.0636Z" fill="#FF3333"/>
</svg>
