<svg width="37" height="37" viewBox="0 0 37 37" fill="none" xmlns="http://www.w3.org/2000/svg">
<rect opacity="0.14" x="6.00881" y="5.73" width="24.753" height="24.753" fill="#FF3333" fill-opacity="0.06" stroke="#FF3333" stroke-width="0.853553"/>
<rect x="18.3867" y="0.603553" width="24.753" height="24.753" transform="rotate(45 18.3867 0.603553)" fill="url(#paint0_linear_207_349)" fill-opacity="0.38"/>
<rect x="18.3867" y="0.603553" width="24.753" height="24.753" transform="rotate(45 18.3867 0.603553)" stroke="#FF2424" stroke-opacity="0.12" stroke-width="0.853553"/>
<rect x="18.3867" y="0.603553" width="24.753" height="24.753" transform="rotate(45 18.3867 0.603553)" stroke="url(#paint1_linear_207_349)" stroke-width="0.853553"/>
<rect x="18.3867" y="0.603553" width="24.753" height="24.753" transform="rotate(45 18.3867 0.603553)" stroke="url(#paint2_linear_207_349)" stroke-width="0.853553"/>
<path fill-rule="evenodd" clip-rule="evenodd" d="M20.0757 11.1757C20.3101 10.9414 20.69 10.9414 20.9243 11.1757L23.9485 14.2H26.1C26.4313 14.2 26.7 14.4686 26.7 14.8C26.7 15.1314 26.4313 15.4 26.1 15.4H25.6645C25.4834 16.0849 25.2492 16.8744 24.9767 17.7931L24.1566 20.5575C23.8309 21.6561 23.6312 22.3296 23.2812 22.8772C22.6786 23.82 21.7531 24.5109 20.6778 24.8205C20.0532 25.0003 19.3508 25.0002 18.2049 25H17.995C16.8492 25.0002 16.1467 25.0003 15.5222 24.8205C14.4469 24.5109 13.5214 23.82 12.9188 22.8772C12.5688 22.3296 12.3691 21.6561 12.0434 20.5575L11.2234 17.7936C10.9509 16.8747 10.7166 16.085 10.5354 15.4H10.1C9.76863 15.4 9.5 15.1314 9.5 14.8C9.5 14.4686 9.76863 14.2 10.1 14.2H12.4456L15.4698 11.1758C15.7042 10.9414 16.084 10.9414 16.3184 11.1758C16.5527 11.4101 16.5527 11.79 16.3184 12.0243L14.1426 14.2H22.2515L20.0757 12.0243C19.8414 11.79 19.8414 11.4101 20.0757 11.1757ZM17.1 18C17.1 17.6686 16.8314 17.4 16.5 17.4C16.1686 17.4 15.9 17.6686 15.9 18V21.2C15.9 21.5314 16.1686 21.8 16.5 21.8C16.8314 21.8 17.1 21.5314 17.1 21.2V18ZM20.3 18C20.3 17.6686 20.0314 17.4 19.7 17.4C19.3686 17.4 19.1 17.6686 19.1 18V21.2C19.1 21.5314 19.3686 21.8 19.7 21.8C20.0314 21.8 20.3 21.5314 20.3 21.2V18Z" fill="url(#paint3_radial_207_349)"/>
<rect x="5.2793" y="5" width="1" height="1" fill="#FF3333"/>
<rect x="5.2793" y="30" width="1" height="1" fill="#FF3333"/>
<rect x="30.2793" y="30" width="1" height="1" fill="#FF3333"/>
<rect x="30.2793" y="5" width="1" height="1" fill="#FF3333"/>
<defs>
<linearGradient id="paint0_linear_207_349" x1="43.7672" y1="25.5312" x2="18.3114" y2="0.0753545" gradientUnits="userSpaceOnUse">
<stop stop-color="#E60000"/>
<stop offset="1" stop-color="#FFB3B3"/>
</linearGradient>
<linearGradient id="paint1_linear_207_349" x1="18.6649" y1="0.428908" x2="21.4933" y2="3.25733" gradientUnits="userSpaceOnUse">
<stop stop-color="#FF3D3D"/>
<stop offset="1" stop-color="#CC0000" stop-opacity="0"/>
</linearGradient>
<linearGradient id="paint2_linear_207_349" x1="41.9994" y1="23.7634" x2="43.4137" y2="25.1776" gradientUnits="userSpaceOnUse">
<stop stop-color="#CC0000" stop-opacity="0"/>
<stop offset="1" stop-color="#FF6666"/>
</linearGradient>
<radialGradient id="paint3_radial_207_349" cx="0" cy="0" r="1" gradientUnits="userSpaceOnUse" gradientTransform="translate(18.1 18) rotate(90) scale(7.02361 8.62899)">
<stop stop-color="#FF3D3D"/>
<stop offset="1" stop-color="#FF3333"/>
</radialGradient>
</defs>
</svg>
