<svg width="40" height="37" viewBox="0 0 40 37" fill="none" xmlns="http://www.w3.org/2000/svg">
<path d="M4.06015 2.9706L3.00752 5.0466L4.5614 5.7386H5.91479C6.95071 5.8045 7.86967 5.95279 8.67168 6.18346C9.74102 6.51298 10.4929 6.99079 10.9273 7.61689C11.2281 8.07822 11.4871 8.40774 11.7043 8.60546C11.9215 8.80317 12.0969 8.90203 12.2306 8.90203C12.3642 8.90203 12.4645 8.8526 12.5313 8.75374L12.6316 8.60546L14.3358 7.41917L13.8346 5.68917L16.7419 5.19488V5.83746C16.675 6.36469 16.5581 6.87546 16.391 7.36974C16.1236 8.06174 15.7561 8.65489 15.2882 9.14917C14.6867 9.80822 13.9014 10.319 12.9323 10.6815C12.1637 10.319 11.4286 9.84117 10.7268 9.24803C10.3592 8.95146 10.0752 8.68784 9.87469 8.45717H8.5213L9.37343 10.1872L9.17293 12.708L11.2281 12.5597V14.9817L9.37343 15.6243L9.02256 17.7003L8.42105 18.3923C7.95322 18.9525 7.5188 19.3974 7.11779 19.7269C6.51629 20.1882 6.01504 20.4189 5.61404 20.4189H1.65414L1.15288 21.4569L1.65414 23.1869L2.10526 23.4835C2.50627 23.6812 3.00752 23.8624 3.60902 24.0272C4.47786 24.2249 5.46366 24.3567 6.56642 24.4226C7.96992 24.4885 9.54052 24.4226 11.2782 24.2249C12.3141 23.5988 13.0827 23.0386 13.584 22.5443C13.9181 22.2807 14.2356 21.8853 14.5363 21.358C14.8037 20.9956 15.0376 20.699 15.2381 20.4683C15.5723 20.0729 16.0234 19.661 16.5915 19.2326C17.594 18.4417 18.68 17.7827 19.8496 17.2555C20.2172 17.0907 20.4845 16.9589 20.6516 16.86C20.8521 16.7282 21.0359 16.547 21.203 16.3163C21.4035 16.0197 21.5539 15.5255 21.6541 14.8335C21.7544 14.3392 21.8212 13.779 21.8546 13.1529L21.9048 12.362L20.1003 10.5826L18.9474 10.1377L18.4461 7.07317L18.6466 6.38117C18.8471 5.82098 19.081 5.34317 19.3484 4.94774C19.716 4.4205 20.1003 4.10745 20.5013 4.0086C20.9023 3.90974 21.2531 3.77793 21.5539 3.61317C21.7544 3.48136 21.9215 3.33307 22.0551 3.16831L22.2055 2.9706V1.5866L21.1529 1.2406C20.3175 0.944025 19.4987 0.696882 18.6967 0.499168C17.5272 0.235549 16.4912 0.0707866 15.589 0.00488182C14.4194 -0.0280706 13.4503 0.103739 12.6817 0.400311C13.0827 0.466215 13.7343 0.515644 14.6366 0.548596C15.9733 0.647454 16.8588 0.762787 17.2932 0.894597C18.0618 1.12526 18.3292 1.53717 18.0952 2.13031C17.7945 2.85526 17.0259 3.49784 15.7895 4.05803C15.1546 4.32165 14.553 4.53584 13.985 4.7006L10.5764 2.6246L4.06015 2.9706ZM22.3559 12.4609V13.4C22.3225 14.1909 22.2222 14.8664 22.0551 15.4266C21.8212 16.2504 21.4703 16.8106 21.0025 17.1072C19.198 18.2935 17.7444 19.3479 16.6416 20.2706C16.274 20.6001 15.7393 21.2097 15.0376 22.0995C14.2356 23.0551 13.584 23.7306 13.0827 24.126C12.2807 24.7851 11.4119 25.164 10.4762 25.2629C8.20384 25.4606 6.01504 25.2629 3.90977 24.6698C2.84043 24.3732 2.00501 24.0601 1.40351 23.7306L0.75188 21.9017L0 22.2972L0.701754 24.6698L2.05514 25.1146C3.19131 25.4771 4.29407 25.7901 5.36341 26.0537C6.86717 26.3833 8.20384 26.5645 9.37343 26.5975C10.8438 26.6304 12.0134 26.4327 12.8822 26.0043C13.6508 25.6089 14.3024 25.1146 14.8371 24.5215C15.1378 24.159 15.4887 23.5988 15.8897 22.8409C16.3241 22.0171 16.7251 21.4239 17.0927 21.0615C17.6608 20.4683 18.4294 19.9905 19.3985 19.628C20.4344 19.2326 21.3367 18.5241 22.1053 17.5026C22.7402 16.6458 23.1579 15.7149 23.3584 14.7099C23.5589 13.7048 23.5088 12.9717 23.208 12.5103C23.0075 12.3785 22.7903 12.3291 22.5564 12.362C22.4561 12.362 22.3893 12.395 22.3559 12.4609ZM25.4135 6.57889L26.5163 8.45717C27.3517 9.74232 27.9532 10.4837 28.3208 10.6815C30.0251 11.67 31.6792 11.7359 33.2832 10.8792C33.8513 10.5496 34.4194 10.0059 34.9875 9.24803C35.3885 8.68784 35.7561 8.06174 36.0902 7.36974C36.3576 6.7766 36.4912 6.39765 36.4912 6.23288L36.2406 6.0846C34.9039 5.19488 33.6007 4.65117 32.3308 4.45345C29.9582 4.09098 27.6525 4.79946 25.4135 6.57889ZM24.9624 28.3769C25.1295 28.7064 25.2799 29.0195 25.4135 29.316C25.848 30.1069 26.2991 30.8318 26.7669 31.4909C27.4353 32.4136 28.1203 33.1879 28.8221 33.814C29.6909 34.5719 30.5764 35.0662 31.4787 35.2969C32.4478 35.4946 33.4169 35.5276 34.386 35.3958C35.188 35.2969 35.99 35.0827 36.792 34.7532C37.3266 34.5225 37.8446 34.2424 38.3459 33.9129L38.9474 33.468L40 31.4415L39.8997 33.1715L39.7494 33.6163C39.5823 33.9788 39.3651 34.3413 39.0977 34.7038C38.7302 35.1651 38.3124 35.5605 37.8446 35.89C37.2765 36.2855 36.6249 36.582 35.8897 36.7798C34.8872 37.0104 33.8847 37.0598 32.8822 36.928C32.0802 36.8292 31.2615 36.615 30.4261 36.2855C29.858 36.0548 29.3233 35.7912 28.8221 35.4946L28.2206 35.0498L27.7694 34.5555C27.3684 34.16 27.0175 33.7152 26.7168 33.2209C26.249 32.5289 25.8814 31.8204 25.614 31.0955C25.2464 30.2058 25.0292 29.2996 24.9624 28.3769ZM19.8997 7.61689C20.0334 7.38622 20.1504 7.15555 20.2506 6.92489C20.5848 6.39765 20.9524 5.88688 21.3534 5.3926C21.9549 4.66765 22.6065 4.02507 23.3083 3.46488C24.2105 2.77288 25.1796 2.21269 26.2155 1.78431C27.452 1.29003 28.7886 1.00169 30.2256 0.919311C31.6625 0.83693 32.949 0.911073 34.0852 1.14174C35.0543 1.33945 35.873 1.6525 36.5414 2.08088C37.1094 2.41041 37.5606 2.82231 37.8947 3.3166C38.1621 3.64612 38.3626 3.99212 38.4962 4.3546L38.5965 4.79946L37.5439 3.95917L36.792 3.51431C36.1905 3.15184 35.5221 2.83879 34.787 2.57517C33.7845 2.24564 32.7652 2.04793 31.7293 1.98203C30.4261 1.91612 29.1395 2.09736 27.8697 2.52574C26.3993 2.98707 24.9457 3.76145 23.5088 4.84888C23.4419 5.50793 23.7594 6.44708 24.4612 7.66631C24.8287 8.29241 25.1963 8.8526 25.5639 9.34689L26.0652 10.0389C26.4662 10.5661 26.8839 11.0604 27.3183 11.5217C27.9198 12.1808 28.5213 12.6751 29.1228 13.0046C29.858 13.433 30.5597 13.6307 31.2281 13.5977C32.4645 13.5318 33.7343 12.4444 35.0376 10.3355C35.8396 8.98441 36.5079 7.50155 37.0426 5.88688C37.1763 5.52441 37.4102 5.29374 37.7444 5.19488C37.9783 5.12898 38.2456 5.14546 38.5464 5.24431L38.9474 5.3926L39.9499 6.23288L37.2431 9.64346L37.0426 11.9172L35.2381 13.2517L35.188 17.206L36.0902 18.59L35.8897 20.1717L36.391 21.5063L35.3383 22.5938L36.391 24.6698L35.7393 24.3732C35.1713 24.1425 34.6032 23.9613 34.0351 23.8295C33.2665 23.6647 32.5647 23.6318 31.9298 23.7306C31.0944 23.8295 30.3759 24.1096 29.7744 24.5709C28.5046 25.5595 27.8864 26.0537 27.9198 26.0537C27.9532 26.0537 28.1036 25.9549 28.3709 25.7572L29.1228 25.4112C29.7577 25.1146 30.3926 24.8839 31.0276 24.7192C31.9298 24.4885 32.782 24.4061 33.584 24.472C34.5865 24.505 35.4887 24.7686 36.2907 25.2629C36.8254 26.1197 37.5439 27.1247 38.4461 28.278C38.914 28.9041 39.2314 29.349 39.3985 29.6126C39.6658 30.008 39.8329 30.387 39.8997 30.7495C39.6992 31.2108 39.4653 31.6392 39.198 32.0346C38.9975 32.2982 38.797 32.5454 38.5965 32.776L38.2957 32.9738L38.1955 33.1715C38.0618 33.3362 37.8613 33.4845 37.594 33.6163C37.2264 33.814 36.7251 33.9788 36.0902 34.1106C35.3216 34.2754 34.386 34.3907 33.2832 34.4566C31.6458 34.5225 30.2256 34.1106 29.0226 33.2209C28.1537 32.5618 27.452 31.6886 26.9173 30.6012C26.6165 30.041 26.416 29.5632 26.3158 29.1678L25.1629 27.6849L25.7143 20.8637L24.9123 18.2935L26.9173 15.7726L24.5614 13.5977L25.0125 11.8183L19.8997 7.61689Z" fill="white" fill-opacity="0.12"/>
</svg>
