<svg width="14" height="14" viewBox="0 0 14 14" fill="none" xmlns="http://www.w3.org/2000/svg">
<path fill-rule="evenodd" clip-rule="evenodd" d="M0 2.9601C0 1.31065 1.37208 0 3.03146 0H11.009C12.6459 0 13.9998 1.29295 13.9998 2.92057C13.9998 3.78554 13.6076 4.60217 12.935 5.15502L10.4076 7.23235C9.72347 7.79466 9.33318 8.61685 9.33318 9.47826V10.7201C9.33318 11.5125 8.94272 12.2514 8.29233 12.7108L6.89863 13.6954C5.84076 14.4428 4.30762 13.7302 4.30762 12.394V9.39493C4.30762 8.57397 3.95306 7.78683 3.32395 7.22666L0.9888 5.14737C0.361043 4.5884 0 3.79536 0 2.9601ZM4.12814 2.87175C3.83076 2.87175 3.58969 3.11282 3.58969 3.4102C3.58969 3.70758 3.83076 3.94865 4.12814 3.94865L9.87164 3.94866C10.169 3.94866 10.4101 3.70758 10.4101 3.4102C10.4101 3.11282 10.169 2.87175 9.87164 2.87175L4.12814 2.87175Z" fill="white"/>
</svg>
