<svg width="24" height="24" viewBox="0 0 24 24" fill="none" xmlns="http://www.w3.org/2000/svg">
<path d="M6 8.77419C6 7.79433 6.84426 7 7.88571 7C8.92717 7 9.77143 7.79433 9.77143 8.77419C9.77143 9.75405 8.92717 10.5484 7.88571 10.5484C6.84426 10.5484 6 9.75405 6 8.77419Z" fill="white"/>
<path d="M11.4857 8.77419C11.4857 8.50696 11.716 8.29032 12 8.29032L17.4857 8.29032C17.7697 8.29032 18 8.50696 18 8.77419C18 9.04143 17.7697 9.25806 17.4857 9.25806L12 9.25806C11.716 9.25806 11.4857 9.04143 11.4857 8.77419Z" fill="white"/>
<path d="M16.1143 13.4516C15.0728 13.4516 14.2286 14.2459 14.2286 15.2258C14.2286 16.2057 15.0728 17 16.1143 17C17.1557 17 18 16.2057 18 15.2258C18 14.2459 17.1557 13.4516 16.1143 13.4516Z" fill="white"/>
<path d="M6 15.2258C6 14.9586 6.23025 14.7419 6.51429 14.7419L12 14.7419C12.284 14.7419 12.5143 14.9586 12.5143 15.2258C12.5143 15.493 12.284 15.7097 12 15.7097L6.51429 15.7097C6.23025 15.7097 6 15.493 6 15.2258Z" fill="white"/>
</svg>
