<svg width="24" height="24" viewBox="0 0 24 24" fill="none" xmlns="http://www.w3.org/2000/svg">
<path d="M5 12C5 8.13401 8.13401 5 12 5C15.866 5 19 8.13401 19 12C19 12.2752 18.9841 12.5468 18.9531 12.814L17.7551 12.8139C16.644 12.8138 15.966 12.8137 15.4011 12.9972C14.2613 13.3676 13.3676 14.2613 12.9972 15.4011C12.8137 15.966 12.8138 16.644 12.8139 17.7551L12.814 18.9531C12.5468 18.9841 12.2752 19 12 19C8.13401 19 5 15.866 5 12Z" fill="white"/>
<path d="M13.7907 18.7687C16.2179 18.1282 18.1282 16.2179 18.7687 13.7907H17.8605C16.6105 13.7907 16.1013 13.7967 15.703 13.9261C14.8604 14.1999 14.1999 14.8604 13.9261 15.703C13.7967 16.1013 13.7907 16.6105 13.7907 17.8605V18.7687Z" fill="white"/>
</svg>
