<svg width="32" height="28" viewBox="0 0 32 28" fill="none" xmlns="http://www.w3.org/2000/svg">
<path d="M31.643 7.35L27.4336 3.03333C25.4995 1.05 22.8829 0 20.1525 0H19.925C19.4699 0 19.1286 0.233333 18.9011 0.583333C18.3322 1.63333 17.3083 2.33333 16.0569 2.33333C14.8054 2.33333 13.7815 1.63333 13.0989 0.583333C12.8714 0.233333 12.5301 0 12.1888 0H11.9613C9.1171 0 6.50046 1.05 4.56643 3.03333L0.357051 7.35C-0.0980171 7.81667 -0.0980172 8.4 0.243284 8.86667L4.79396 14.7C5.13526 14.9333 5.47656 15.1667 5.7041 15.1667C6.0454 15.1667 6.3867 15.05 6.61423 14.8167L8.0932 13.3V26.8333C8.0932 27.5333 8.54827 28 9.23087 28H22.8829C23.5655 28 24.0206 27.5333 24.0206 26.8333V13.3L25.4995 14.8167C25.7271 15.05 26.0684 15.1667 26.4097 15.1667C26.751 15.1667 26.9785 14.9333 27.206 14.7L31.7567 8.86667C32.098 8.4 32.098 7.81667 31.643 7.35Z" fill="white" fill-opacity="0.12"/>
</svg>
