<svg width="28" height="38" viewBox="0 0 28 38" fill="none" xmlns="http://www.w3.org/2000/svg">
<path d="M19.5111 18.1397L14.6613 18.0372L14.4688 11.4297C14.4688 11.0117 14.1299 10.6735 13.712 10.6735C13.2946 10.6735 12.9557 11.0117 12.9557 11.4297L12.7351 18.9944C12.7351 19.5335 13.1722 19.9706 13.7119 19.9706L19.511 19.8495C19.983 19.8495 20.3656 19.4662 20.3656 18.9944C20.3656 18.5217 19.9831 18.1397 19.5111 18.1397Z" fill="white" fill-opacity="0.12"/>
<path d="M25.6773 12.9265L22.4988 5.22886H17.9339V6.22487C16.605 5.78357 15.1891 5.53583 13.7121 5.53583C12.2351 5.53583 10.8179 5.7835 9.48896 6.22487V5.22886H4.92406L1.74319 12.9325C0.834086 14.74 0.310547 16.7748 0.310547 18.9367C0.310547 21.0981 0.834754 23.1328 1.74319 24.9409L4.92406 32.6441H9.48896V31.648C10.8179 32.0894 12.2351 32.3382 13.7121 32.3382C15.1891 32.3382 16.605 32.09 17.9339 31.6486V32.6441H22.4988L25.6767 24.9481C26.5876 23.1382 27.1129 21.101 27.1129 18.9367C27.1129 16.773 26.5876 14.7364 25.6773 12.9265ZM23.6898 18.9367C23.6886 21.6971 22.5757 24.1811 20.7675 25.9922C18.9559 27.8009 16.4731 28.9139 13.7121 28.9146C10.9511 28.914 8.46711 27.8009 6.65655 25.9922C4.84784 24.1811 3.73418 21.6972 3.73418 18.9367C3.73418 16.1757 4.84784 13.6924 6.65655 11.8813C8.46704 10.0732 10.951 8.95954 13.7121 8.95894C16.4731 8.95954 18.957 10.0731 20.7675 11.8813C22.5756 13.6917 23.6886 16.1757 23.6898 18.9367Z" fill="white" fill-opacity="0.12"/>
<path d="M22.3267 1.94127C22.3267 0.869027 21.4578 0 20.3855 0H7.03736C5.96505 0 5.0955 0.869027 5.0955 1.94127V3.76675H22.3267V1.94127Z" fill="white" fill-opacity="0.12"/>
<path d="M5.0955 36.0593C5.0955 37.131 5.96505 38 7.03736 38H20.3855C21.4578 38 22.3267 37.131 22.3267 36.0593V34.2338H5.0955V36.0593Z" fill="white" fill-opacity="0.12"/>
</svg>
