<svg width="14" height="13" viewBox="0 0 14 13" fill="none" xmlns="http://www.w3.org/2000/svg">
<path d="M4.93666 1.01609H8.44121V2.6H9.57783V0.508046C9.57783 0.226628 9.32432 0 9.00952 0H4.36835C4.05356 0 3.80005 0.226628 3.80005 0.508046V2.6H4.93666V1.01609Z" fill="#FF8934"/>
<path d="M9.5248 8.75901C9.20205 8.94133 8.80335 9.03516 8.326 9.03516C7.79712 9.03516 7.37672 8.89038 7.07296 8.60083C6.76648 8.31127 6.61459 7.91178 6.61459 7.40237C6.61459 6.89028 6.78275 6.47203 7.11635 6.1503C7.44995 5.82856 7.89476 5.6677 8.44805 5.6677C8.79793 5.6677 9.10441 5.71596 9.37292 5.8098V6.49884C9.11797 6.35406 8.80878 6.28167 8.43992 6.28167C8.13072 6.28167 7.8812 6.38087 7.68592 6.57927C7.49335 6.77768 7.39571 7.04042 7.39571 7.3702C7.39571 7.70534 7.4825 7.96272 7.65608 8.14772C7.82967 8.33003 8.06563 8.42387 8.36126 8.42387C8.53756 8.42387 8.6813 8.39974 8.78437 8.3488V7.71338H8.1253V7.12622H9.52752V8.75901H9.5248ZM5.56767 8.97618L4.60755 7.56056C4.58856 7.53375 4.55873 7.47476 4.52076 7.38092H4.50991V8.97618H3.76676V5.71864H4.50991V7.26027H4.52076C4.53974 7.21738 4.56958 7.15839 4.61297 7.07796L5.52428 5.71864H6.40846L5.25848 7.27368L6.5061 8.97886H5.56767V8.97618ZM13.2812 11.609L11.8573 3H1.42883L0.00762236 11.609C-0.0194998 11.7672 0.0266079 11.9308 0.132384 12.0514C0.238161 12.1747 0.392758 12.2444 0.555491 12.2444H12.7388C12.9015 12.2444 13.0561 12.1747 13.1619 12.0514C13.2622 11.9281 13.3084 11.7672 13.2812 11.609Z" fill="#FF8934"/>
</svg>
