<svg width="37" height="37" viewBox="0 0 37 37" fill="none" xmlns="http://www.w3.org/2000/svg">
<rect opacity="0.14" x="5.79592" y="5.73" width="24.753" height="24.753" fill="#999999" fill-opacity="0.06" stroke="white" stroke-width="0.853553"/>
<rect x="18.1724" y="0.603553" width="24.753" height="24.753" transform="rotate(45 18.1724 0.603553)" fill="url(#paint0_linear_90_21605)" fill-opacity="0.38"/>
<rect x="18.1724" y="0.603553" width="24.753" height="24.753" transform="rotate(45 18.1724 0.603553)" stroke="#919191" stroke-opacity="0.12" stroke-width="0.853553"/>
<rect x="18.1724" y="0.603553" width="24.753" height="24.753" transform="rotate(45 18.1724 0.603553)" stroke="url(#paint1_linear_90_21605)" stroke-width="0.853553"/>
<rect x="18.1724" y="0.603553" width="24.753" height="24.753" transform="rotate(45 18.1724 0.603553)" stroke="url(#paint2_linear_90_21605)" stroke-width="0.853553"/>
<path d="M11.3857 11L13.7493 13.3636H22.2507L24.6143 11H11.3857ZM11 11.3857V24.6143L13.3636 22.2507V13.7493L11 11.3857ZM25 11.3857L22.6364 13.7493V22.2507L25 24.6143V11.3857ZM12.6654 11.4545C12.7297 11.4545 12.7913 11.4801 12.8368 11.5255C12.8822 11.571 12.9078 11.6327 12.9078 11.697C12.9078 11.7613 12.8822 11.8229 12.8368 11.8684C12.7913 11.9139 12.7297 11.9394 12.6654 11.9394C12.6011 11.9394 12.5394 11.9139 12.4939 11.8684C12.4485 11.8229 12.4229 11.7613 12.4229 11.697C12.4229 11.6327 12.4485 11.571 12.4939 11.5255C12.5394 11.4801 12.6011 11.4545 12.6654 11.4545ZM23.3333 11.4786C23.3976 11.4786 23.4593 11.5041 23.5048 11.5496C23.5502 11.595 23.5758 11.6567 23.5758 11.721C23.5758 11.7853 23.5502 11.847 23.5048 11.8924C23.4593 11.9379 23.3976 11.9634 23.3333 11.9634C23.269 11.9634 23.2074 11.9379 23.1619 11.8924C23.1165 11.847 23.0909 11.7853 23.0909 11.721C23.0909 11.6567 23.1165 11.595 23.1619 11.5496C23.2074 11.5041 23.269 11.4786 23.3333 11.4786ZM13.6364 12.4242C13.7007 12.4242 13.7623 12.4498 13.8078 12.4952C13.8532 12.5407 13.8788 12.6024 13.8788 12.6667C13.8788 12.731 13.8532 12.7926 13.8078 12.8381C13.7623 12.8835 13.7007 12.9091 13.6364 12.9091C13.5721 12.9091 13.5104 12.8835 13.4649 12.8381C13.4195 12.7926 13.3939 12.731 13.3939 12.6667C13.3939 12.6024 13.4195 12.5407 13.4649 12.4952C13.5104 12.4498 13.5721 12.4242 13.6364 12.4242ZM22.347 12.4242C22.4113 12.4242 22.4729 12.4498 22.5184 12.4952C22.5639 12.5407 22.5894 12.6024 22.5894 12.6667C22.5894 12.731 22.5639 12.7926 22.5184 12.8381C22.4729 12.8835 22.4113 12.9091 22.347 12.9091C22.2827 12.9091 22.221 12.8835 22.1756 12.8381C22.1301 12.7926 22.1045 12.731 22.1045 12.6667C22.1045 12.6024 22.1301 12.5407 22.1756 12.4952C22.221 12.4498 22.2827 12.4242 22.347 12.4242ZM24.2688 12.4242C24.3331 12.4242 24.3947 12.4498 24.4402 12.4952C24.4857 12.5407 24.5112 12.6024 24.5112 12.6667C24.5112 12.731 24.4857 12.7926 24.4402 12.8381C24.3947 12.8835 24.3331 12.9091 24.2688 12.9091C24.2045 12.9091 24.1428 12.8835 24.0974 12.8381C24.0519 12.7926 24.0264 12.731 24.0264 12.6667C24.0264 12.6024 24.0519 12.5407 24.0974 12.4952C24.1428 12.4498 24.2045 12.4242 24.2688 12.4242ZM11.697 12.456C11.7613 12.456 11.8229 12.4815 11.8684 12.527C11.9139 12.5724 11.9394 12.6341 11.9394 12.6984C11.9394 12.7627 11.9139 12.8244 11.8684 12.8698C11.8229 12.9153 11.7613 12.9408 11.697 12.9408C11.6327 12.9408 11.571 12.9153 11.5255 12.8698C11.4801 12.8244 11.4545 12.7627 11.4545 12.6984C11.4545 12.6341 11.4801 12.5724 11.5255 12.527C11.571 12.4815 11.6327 12.456 11.697 12.456ZM12.6483 13.3939C12.7126 13.3939 12.7743 13.4195 12.8198 13.4649C12.8652 13.5104 12.8908 13.5721 12.8908 13.6364C12.8908 13.7007 12.8652 13.7623 12.8198 13.8078C12.7743 13.8532 12.7126 13.8788 12.6483 13.8788C12.584 13.8788 12.5224 13.8532 12.4769 13.8078C12.4315 13.7623 12.4059 13.7007 12.4059 13.6364C12.4059 13.5721 12.4315 13.5104 12.4769 13.4649C12.5224 13.4195 12.584 13.3939 12.6483 13.3939ZM23.3333 13.4C23.3976 13.4 23.4593 13.4255 23.5048 13.471C23.5502 13.5165 23.5758 13.5781 23.5758 13.6424C23.5758 13.7067 23.5502 13.7684 23.5048 13.8138C23.4593 13.8593 23.3976 13.8848 23.3333 13.8848C23.269 13.8848 23.2074 13.8593 23.1619 13.8138C23.1165 13.7684 23.0909 13.7067 23.0909 13.6424C23.0909 13.5781 23.1165 13.5165 23.1619 13.471C23.2074 13.4255 23.269 13.4 23.3333 13.4ZM13.9091 13.9091V19.7658L15.5364 18.1386L15.5171 13.9091H13.9091ZM16.0625 13.9091L16.0794 17.5956L17.7272 15.9477V13.9091H16.0625ZM18.2727 13.9091V15.4022L19.7658 13.9091H18.2727ZM20.5372 13.9091L13.9091 20.5372V22.0909H15.4628L22.0909 15.4628V13.9091H20.5372ZM22.0909 16.2342L20.4842 17.8409V22.0909H22.0909V16.2342ZM19.9387 18.3864L18.2727 20.0523V22.0909H19.9387V18.3864ZM17.7273 20.5978L16.2342 22.0909H17.7273V20.5978ZM12.6052 22.1212C12.6694 22.1212 12.7311 22.1468 12.7766 22.1922C12.822 22.2377 12.8476 22.2993 12.8476 22.3636C12.8476 22.4279 12.822 22.4896 12.7766 22.5351C12.7311 22.5805 12.6694 22.6061 12.6052 22.6061C12.5409 22.6061 12.4792 22.5805 12.4337 22.5351C12.3883 22.4896 12.3627 22.4279 12.3627 22.3636C12.3627 22.2993 12.3883 22.2377 12.4337 22.1922C12.4792 22.1468 12.5409 22.1212 12.6052 22.1212ZM23.3333 22.1412C23.3976 22.1412 23.4593 22.1667 23.5048 22.2122C23.5502 22.2576 23.5758 22.3193 23.5758 22.3836C23.5758 22.4479 23.5502 22.5095 23.5048 22.555C23.4593 22.6005 23.3976 22.626 23.3333 22.626C23.269 22.626 23.2074 22.6005 23.1619 22.555C23.1165 22.5095 23.0909 22.4479 23.0909 22.3836C23.0909 22.3193 23.1165 22.2576 23.1619 22.2122C23.2074 22.1667 23.269 22.1412 23.3333 22.1412ZM13.7493 22.6364L11.3857 25H24.6143L22.2507 22.6364H13.7493ZM11.697 23.0834C11.7613 23.0834 11.8229 23.1089 11.8684 23.1544C11.9139 23.1999 11.9394 23.2615 11.9394 23.3258C11.9394 23.3901 11.9139 23.4518 11.8684 23.4972C11.8229 23.5427 11.7613 23.5682 11.697 23.5682C11.6327 23.5682 11.571 23.5427 11.5255 23.4972C11.4801 23.4518 11.4545 23.3901 11.4545 23.3258C11.4545 23.2615 11.4801 23.1999 11.5255 23.1544C11.571 23.1089 11.6327 23.0834 11.697 23.0834ZM13.6364 23.1076C13.7007 23.1076 13.7623 23.1332 13.8078 23.1786C13.8532 23.2241 13.8788 23.2858 13.8788 23.3501C13.8788 23.4144 13.8532 23.476 13.8078 23.5215C13.7623 23.5669 13.7007 23.5925 13.6364 23.5925C13.5721 23.5925 13.5104 23.5669 13.4649 23.5215C13.4195 23.476 13.3939 23.4144 13.3939 23.3501C13.3939 23.2858 13.4195 23.2241 13.4649 23.1786C13.5104 23.1332 13.5721 23.1076 13.6364 23.1076ZM22.3636 23.1292C22.4279 23.1292 22.4896 23.1548 22.5351 23.2002C22.5805 23.2457 22.6061 23.3073 22.6061 23.3716C22.6061 23.4359 22.5805 23.4976 22.5351 23.5431C22.4896 23.5885 22.4279 23.6141 22.3636 23.6141C22.2993 23.6141 22.2377 23.5885 22.1922 23.5431C22.1468 23.4976 22.1212 23.4359 22.1212 23.3716C22.1212 23.3073 22.1468 23.2457 22.1922 23.2002C22.2377 23.1548 22.2993 23.1292 22.3636 23.1292ZM24.303 23.2728C24.3673 23.2728 24.429 23.2984 24.4745 23.3439C24.5199 23.3893 24.5455 23.451 24.5455 23.5153C24.5455 23.5796 24.5199 23.6412 24.4745 23.6867C24.429 23.7322 24.3673 23.7577 24.303 23.7577C24.2387 23.7577 24.1771 23.7322 24.1316 23.6867C24.0861 23.6412 24.0606 23.5796 24.0606 23.5153C24.0606 23.451 24.0861 23.3893 24.1316 23.3439C24.1771 23.2984 24.2387 23.2728 24.303 23.2728ZM23.3333 24.0606C23.3976 24.0606 23.4593 24.0861 23.5048 24.1316C23.5502 24.1771 23.5758 24.2387 23.5758 24.303C23.5758 24.3673 23.5502 24.429 23.5048 24.4745C23.4593 24.5199 23.3976 24.5455 23.3333 24.5455C23.269 24.5455 23.2074 24.5199 23.1619 24.4745C23.1165 24.429 23.0909 24.3673 23.0909 24.303C23.0909 24.2387 23.1165 24.1771 23.1619 24.1316C23.2074 24.0861 23.269 24.0606 23.3333 24.0606ZM12.6667 24.1382C12.731 24.1382 12.7926 24.1637 12.8381 24.2092C12.8835 24.2547 12.9091 24.3163 12.9091 24.3806C12.9091 24.4449 12.8835 24.5066 12.8381 24.552C12.7926 24.5975 12.731 24.623 12.6667 24.623C12.6024 24.623 12.5407 24.5975 12.4952 24.552C12.4498 24.5066 12.4242 24.4449 12.4242 24.3806C12.4242 24.3163 12.4498 24.2547 12.4952 24.2092C12.5407 24.1637 12.6024 24.1382 12.6667 24.1382Z" fill="url(#paint3_radial_90_21605)"/>
<rect x="5.06592" y="5" width="1" height="1" fill="white"/>
<rect x="5.06592" y="30" width="1" height="1" fill="white"/>
<rect x="30.0659" y="30" width="1" height="1" fill="white"/>
<rect x="30.0659" y="5" width="1" height="1" fill="white"/>
<defs>
<linearGradient id="paint0_linear_90_21605" x1="43.5529" y1="25.5312" x2="18.097" y2="0.0753545" gradientUnits="userSpaceOnUse">
<stop stop-color="#737373"/>
<stop offset="1" stop-color="#D9D9D9"/>
</linearGradient>
<linearGradient id="paint1_linear_90_21605" x1="18.4506" y1="0.428908" x2="21.279" y2="3.25733" gradientUnits="userSpaceOnUse">
<stop stop-color="#9E9E9E"/>
<stop offset="1" stop-color="#666666" stop-opacity="0"/>
</linearGradient>
<linearGradient id="paint2_linear_90_21605" x1="41.7851" y1="23.7634" x2="43.1993" y2="25.1776" gradientUnits="userSpaceOnUse">
<stop stop-color="#666666" stop-opacity="0"/>
<stop offset="1" stop-color="#B3B3B3"/>
</linearGradient>
<radialGradient id="paint3_radial_90_21605" cx="0" cy="0" r="1" gradientUnits="userSpaceOnUse" gradientTransform="translate(18 18) rotate(90) scale(7.02361)">
<stop stop-color="white"/>
<stop offset="1" stop-color="#999999"/>
</radialGradient>
</defs>
</svg>
