<svg width="37" height="37" viewBox="0 0 37 37" fill="none" xmlns="http://www.w3.org/2000/svg">
<rect opacity="0.14" x="5.72951" y="5.73" width="24.753" height="24.753" fill="#999999" fill-opacity="0.06" stroke="white" stroke-width="0.853553"/>
<rect x="18.1074" y="0.603553" width="24.753" height="24.753" transform="rotate(45 18.1074 0.603553)" fill="url(#paint0_linear_87_14882)" fill-opacity="0.38"/>
<rect x="18.1074" y="0.603553" width="24.753" height="24.753" transform="rotate(45 18.1074 0.603553)" stroke="#919191" stroke-opacity="0.12" stroke-width="0.853553"/>
<rect x="18.1074" y="0.603553" width="24.753" height="24.753" transform="rotate(45 18.1074 0.603553)" stroke="url(#paint1_linear_87_14882)" stroke-width="0.853553"/>
<rect x="18.1074" y="0.603553" width="24.753" height="24.753" transform="rotate(45 18.1074 0.603553)" stroke="url(#paint2_linear_87_14882)" stroke-width="0.853553"/>
<rect x="5" y="5" width="1" height="1" fill="white"/>
<rect x="5" y="30" width="1" height="1" fill="white"/>
<rect x="30" y="30" width="1" height="1" fill="white"/>
<rect x="30" y="5" width="1" height="1" fill="white"/>
<path fill-rule="evenodd" clip-rule="evenodd" d="M17.3609 11.0045C17.4818 10.9985 17.603 10.9985 17.7239 11.0045C18.1908 11.0277 18.6207 11.1633 19.0999 11.3857C19.5664 11.6022 20.1084 11.9152 20.7942 12.3111L20.833 12.3335C21.5188 12.7294 22.0609 13.0424 22.4816 13.3382C22.9138 13.642 23.2462 13.9464 23.4997 14.3392C23.5654 14.4409 23.626 14.5458 23.6813 14.6536C23.8946 15.0695 23.9921 15.5096 24.0391 16.0358C24.0848 16.548 24.0848 17.1739 24.0848 17.9658V18.0106C24.0848 18.8025 24.0848 19.4284 24.0391 19.9407C23.9921 20.4668 23.8946 20.9069 23.6813 21.3229C23.626 21.4306 23.5654 21.5355 23.4997 21.6373C23.1908 22.1159 22.7634 22.4647 22.182 22.8394C21.8131 23.0771 21.3636 23.3366 20.8232 23.6486L20.7942 23.6653C20.1084 24.0613 19.5664 24.3742 19.0999 24.5907C18.6207 24.8131 18.1908 24.9487 17.7239 24.9719C17.603 24.9779 17.4818 24.9779 17.3609 24.9719C16.894 24.9487 16.4642 24.8131 15.985 24.5907C15.5185 24.3742 14.9764 24.0613 14.2906 23.6653L14.2621 23.6489C13.7267 23.3398 13.2806 23.0822 12.9138 22.8464C12.3268 22.469 11.896 22.1189 11.5851 21.6373C11.5194 21.5355 11.4589 21.4306 11.4036 21.3229C11.1902 20.9069 11.0928 20.4668 11.0458 19.9407C11 19.4284 11 18.8025 11 18.0106V17.9658C11 17.1739 11 16.548 11.0458 16.0358C11.0928 15.5096 11.1902 15.0695 11.4036 14.6536C11.4589 14.5458 11.5194 14.4409 11.5851 14.3392C11.8386 13.9464 12.171 13.642 12.6032 13.3382C13.0239 13.0424 13.566 12.7295 14.2518 12.3335L14.2906 12.3111C14.9764 11.9152 15.5185 11.6022 15.985 11.3857C16.4642 11.1633 16.894 11.0277 17.3609 11.0045ZM21.7497 21.9812C21.3392 21.1256 20.4648 20.5348 19.4524 20.5348H15.6325C14.6201 20.5348 13.7457 21.1256 13.3351 21.9812C13.366 22.0015 13.3977 22.0222 13.4302 22.0431C13.7756 22.2652 14.2024 22.5117 14.7487 22.8271C15.4582 23.2367 15.9636 23.528 16.387 23.7245C16.802 23.9171 17.1072 24.0032 17.4082 24.0181C17.4976 24.0226 17.5872 24.0226 17.6766 24.0181C17.9776 24.0032 18.2829 23.9171 18.6979 23.7245C19.1212 23.528 19.6267 23.2367 20.3361 22.8271C20.8879 22.5085 21.3176 22.2603 21.6646 22.0366C21.6937 22.0179 21.722 21.9994 21.7497 21.9812ZM17.5424 13.0542C15.8722 13.0542 14.5183 14.4081 14.5183 16.0783C14.5183 17.7484 15.8722 19.1024 17.5424 19.1024C19.2126 19.1024 20.5665 17.7484 20.5665 16.0783C20.5665 14.4081 19.2126 13.0542 17.5424 13.0542Z" fill="url(#paint3_radial_87_14882)"/>
<defs>
<linearGradient id="paint0_linear_87_14882" x1="43.4879" y1="25.5312" x2="18.0321" y2="0.0753545" gradientUnits="userSpaceOnUse">
<stop stop-color="#737373"/>
<stop offset="1" stop-color="#D9D9D9"/>
</linearGradient>
<linearGradient id="paint1_linear_87_14882" x1="18.3856" y1="0.428908" x2="21.214" y2="3.25733" gradientUnits="userSpaceOnUse">
<stop stop-color="#9E9E9E"/>
<stop offset="1" stop-color="#666666" stop-opacity="0"/>
</linearGradient>
<linearGradient id="paint2_linear_87_14882" x1="41.7201" y1="23.7634" x2="43.1344" y2="25.1776" gradientUnits="userSpaceOnUse">
<stop stop-color="#666666" stop-opacity="0"/>
<stop offset="1" stop-color="#B3B3B3"/>
</linearGradient>
<radialGradient id="paint3_radial_87_14882" cx="0" cy="0" r="1" gradientUnits="userSpaceOnUse" gradientTransform="translate(17.5424 17.9882) rotate(90) scale(7.01178 6.56448)">
<stop stop-color="white"/>
<stop offset="1" stop-color="#999999"/>
</radialGradient>
</defs>
</svg>
