<svg width="18" height="18" viewBox="0 0 18 18" fill="none" xmlns="http://www.w3.org/2000/svg">
<circle cx="9" cy="9" r="9" fill="#FD0A34"/>
<path d="M12.6402 5.64017C12.7866 5.49372 12.7866 5.25628 12.6402 5.10983C12.4937 4.96339 12.2563 4.96339 12.1099 5.10983L8.87501 8.34468L5.64017 5.10984C5.49372 4.96339 5.25628 4.96339 5.10983 5.10984C4.96339 5.25628 4.96339 5.49372 5.10983 5.64017L8.34468 8.87501L5.10985 12.1098C4.9634 12.2563 4.9634 12.4937 5.10985 12.6402C5.2563 12.7866 5.49373 12.7866 5.64018 12.6402L8.87501 9.40534L12.1098 12.6402C12.2563 12.7866 12.4937 12.7866 12.6402 12.6402C12.7866 12.4937 12.7866 12.2563 12.6402 12.1098L9.40534 8.87501L12.6402 5.64017Z" fill="#56010F"/>
</svg>
