<svg width="330" height="330" viewBox="0 0 330 330" fill="none" xmlns="http://www.w3.org/2000/svg">
<mask id="mask0_441_3455" style="mask-type:alpha" maskUnits="userSpaceOnUse" x="45" y="44" width="241" height="187">
<path d="M265.5 230C277.499 211.899 284.198 191.525 285.191 169.831C286.184 148.136 281.271 126.579 270.976 107.458C260.681 88.3359 245.39 72.3664 226.733 61.2515C208.076 50.1367 186.752 44.2932 165.035 44.3441C143.319 44.3949 122.023 50.3382 103.418 61.5403C84.813 72.7423 69.5968 88.7833 59.3915 107.953C49.1863 127.123 44.3744 148.702 45.4689 170.392C46.5635 192.081 52.9167 211.955 65 230L165.035 230.644L265.5 230Z" fill="#999999"/>
</mask>
<g mask="url(#mask0_441_3455)">
<circle cx="165.316" cy="164.344" r="120" fill="url(#paint0_radial_441_3455)" fill-opacity="0.95"/>
</g>
<mask id="mask1_441_3455" style="mask-type:alpha" maskUnits="userSpaceOnUse" x="45" y="44" width="241" height="182">
<path d="M273.838 215.56C282.674 196.836 286.516 176.144 284.99 155.497C283.463 134.849 276.621 114.947 265.127 97.7263C253.633 80.5055 237.879 66.5515 219.397 57.2208C200.914 47.89 180.332 43.5001 159.651 44.4776C138.97 45.4551 118.893 51.7668 101.373 62.7993C83.8534 73.8317 69.4859 89.2094 59.6676 107.438C49.8492 125.666 44.9141 146.124 45.342 166.824C45.7699 187.524 51.5462 207.76 62.1094 225.567L106.377 199.307C100.345 189.138 97.046 177.581 96.8016 165.76C96.5573 153.939 99.3756 142.256 104.983 131.846C110.59 121.436 118.795 112.654 128.8 106.354C138.805 100.054 150.27 96.449 162.081 95.8908C173.891 95.3325 185.645 97.8396 196.2 103.168C206.755 108.497 215.752 116.466 222.316 126.3C228.88 136.134 232.788 147.5 233.659 159.291C234.531 171.083 232.337 182.899 227.291 193.592L273.838 215.56Z" fill="white"/>
</mask>
<g mask="url(#mask1_441_3455)">
<g filter="url(#filter0_f_441_3455)">
<path d="M31.274 231.296C20.2586 208.514 15.1857 183.316 16.5274 158.047C17.8692 132.777 25.5819 108.258 38.9479 86.7707C52.3139 65.2836 70.8987 47.5272 92.9724 35.1541C115.046 22.7809 139.891 16.1932 165.196 16.0042L165.383 41.0483C144.303 41.2058 123.607 46.6936 105.218 57.0008C86.8302 67.3081 71.3484 82.0998 60.2141 99.9993C49.0798 117.899 42.6547 138.324 41.537 159.375C40.4193 180.425 44.6452 201.416 53.8215 220.394L31.274 231.296Z" fill="white"/>
</g>
<g filter="url(#filter1_f_441_3455)">
<path d="M301.359 231.296C317.055 198.834 320.532 161.805 311.155 126.989L286.972 133.503C294.783 162.506 291.887 193.352 278.811 220.394L301.359 231.296Z" fill="#FFB800"/>
</g>
</g>
<path d="M58.2476 214.334C57.9287 213.648 57.6164 212.958 57.3108 212.265L66.4068 208.253C66.6865 208.887 66.9724 209.519 67.2643 210.147L58.2476 214.334Z" fill="white" fill-opacity="0.3"/>
<path d="M271.385 214.334C271.704 213.648 272.016 212.958 272.322 212.265L263.226 208.253C262.946 208.887 262.66 209.519 262.369 210.147L271.385 214.334Z" fill="#FFB800"/>
<path d="M47.7775 175.243C47.7105 174.489 47.6508 173.734 47.5983 172.979L57.5161 172.29C57.5641 172.982 57.6188 173.673 57.6801 174.363L47.7775 175.243Z" fill="white" fill-opacity="0.3"/>
<path d="M50.8586 136.21C51.0431 135.476 51.2347 134.743 51.4334 134.013L61.0267 136.621C60.8448 137.29 60.6694 137.961 60.5005 138.633L50.8586 136.21Z" fill="white" fill-opacity="0.3"/>
<path d="M92.5026 72.2319C93.0993 71.7659 93.7006 71.3057 94.3063 70.8514L100.272 78.804C99.7177 79.2199 99.1673 79.6412 98.621 80.0677L92.5026 72.2319Z" fill="white" fill-opacity="0.3"/>
<path d="M126.351 53.8182C127.067 53.5703 127.784 53.3294 128.504 53.0954L131.577 62.5504C130.918 62.7646 130.261 62.9851 129.606 63.212L126.351 53.8182Z" fill="white" fill-opacity="0.3"/>
<path d="M163.725 47.3488C164.482 47.3418 165.239 47.3421 165.996 47.3497L165.896 57.2908C165.203 57.2838 164.51 57.2836 163.817 57.29L163.725 47.3488Z" fill="white" fill-opacity="0.3"/>
<path d="M203.282 53.8182C202.566 53.5703 201.848 53.3294 201.128 53.0954L198.056 62.5504C198.715 62.7646 199.372 62.9851 200.027 63.212L203.282 53.8182Z" fill="white" fill-opacity="0.3"/>
<path d="M237.13 72.2319C236.533 71.7659 235.932 71.3057 235.327 70.8514L229.361 78.804C229.915 79.2199 230.466 79.6412 231.012 80.0677L237.13 72.2319Z" fill="white" fill-opacity="0.3"/>
<path d="M262.963 100.241C262.546 99.6082 262.124 98.9798 261.696 98.3555L253.499 103.981C253.891 104.552 254.277 105.128 254.659 105.707L262.963 100.241Z" fill="white" fill-opacity="0.3"/>
<path d="M278.774 136.21C278.59 135.476 278.398 134.743 278.199 134.013L268.606 136.621C268.788 137.29 268.963 137.961 269.132 138.633L278.774 136.21Z" fill="#FFB800"/>
<path d="M281.855 175.243C281.922 174.489 281.982 173.734 282.034 172.979L272.117 172.29C272.069 172.982 272.014 173.673 271.953 174.363L281.855 175.243Z" fill="#FFB800"/>
<path d="M66.6702 100.241C67.0865 99.6082 67.5089 98.9798 67.9373 98.3555L76.1342 103.981C75.742 104.552 75.3553 105.128 74.9743 105.707L66.6702 100.241Z" fill="white" fill-opacity="0.3"/>
<path d="M70.8027 94.362C71.2569 93.7562 71.7169 93.1548 72.1827 92.5579L76.6093 96.0122C76.1658 96.5806 75.7278 97.1532 75.2953 97.7301L70.8027 94.362Z" fill="white" fill-opacity="0.1"/>
<path d="M75.6625 88.3073C76.1557 87.7328 76.6544 87.1631 77.1586 86.5982L81.3474 90.3373C80.8673 90.8752 80.3925 91.4176 79.9228 91.9647L75.6625 88.3073Z" fill="white" fill-opacity="0.1"/>
<path d="M81.1368 82.3576C81.6683 81.8184 82.205 81.2843 82.7468 80.7555L86.6686 84.7738C86.1527 85.2773 85.6416 85.7859 85.1355 86.2993L81.1368 82.3576Z" fill="white" fill-opacity="0.1"/>
<path d="M86.2256 77.4954C86.7885 76.989 87.3562 76.488 87.9287 75.9926L91.6029 80.2384C91.0577 80.7102 90.5171 81.1872 89.9812 81.6694L86.2256 77.4954Z" fill="white" fill-opacity="0.1"/>
<path d="M98.8394 67.6144C99.466 67.1893 100.097 66.7702 100.731 66.3573L103.793 71.0636C103.189 71.4568 102.589 71.8559 101.992 72.2607L98.8394 67.6144Z" fill="white" fill-opacity="0.1"/>
<path d="M105.404 63.4698C106.058 63.0869 106.715 62.7105 107.375 62.3403L110.12 67.2386C109.491 67.591 108.865 67.9496 108.243 68.3141L105.404 63.4698Z" fill="white" fill-opacity="0.1"/>
<path d="M112.516 59.6243C113.194 59.2873 113.876 58.9569 114.56 58.6331L116.961 63.7085C116.31 64.0169 115.661 64.3315 115.015 64.6524L112.516 59.6243Z" fill="white" fill-opacity="0.1"/>
<path d="M118.91 56.6819C119.607 56.3861 120.307 56.097 121.009 55.8148L123.103 61.0249C122.434 61.2937 121.767 61.5689 121.104 61.8505L118.91 56.6819Z" fill="white" fill-opacity="0.1"/>
<path d="M230.793 67.6125C230.167 67.1873 229.536 66.7683 228.902 66.3553L225.839 71.0617C226.444 71.4549 227.044 71.8539 227.641 72.2587L230.793 67.6125Z" fill="white" fill-opacity="0.1"/>
<path d="M224.228 63.4678C223.575 63.085 222.918 62.7085 222.258 62.3384L219.513 67.2367C220.142 67.5891 220.767 67.9476 221.389 68.3121L224.228 63.4678Z" fill="white" fill-opacity="0.1"/>
<path d="M217.117 59.6224C216.439 59.2854 215.757 58.955 215.073 58.6311L212.671 63.7066C213.323 64.0149 213.972 64.3296 214.617 64.6505L217.117 59.6224Z" fill="white" fill-opacity="0.1"/>
<path d="M210.723 56.6799C210.026 56.3841 209.326 56.0951 208.623 55.8128L206.53 61.0229C207.199 61.2917 207.866 61.5669 208.529 61.8486L210.723 56.6799Z" fill="white" fill-opacity="0.1"/>
<path d="M196.176 51.6048C195.447 51.4027 194.715 51.2077 193.982 51.0198L192.588 56.459C193.286 56.6379 193.983 56.8236 194.678 57.016L196.176 51.6048Z" fill="white" fill-opacity="0.1"/>
<path d="M188.63 49.781C187.888 49.6276 187.145 49.4813 186.401 49.3422L185.37 54.8616C186.078 54.994 186.786 55.1333 187.492 55.2794L188.63 49.781Z" fill="white" fill-opacity="0.1"/>
<path d="M180.661 48.4159C179.911 48.3138 179.16 48.2189 178.407 48.1314L177.758 53.7086C178.474 53.792 179.189 53.8823 179.904 53.9795L180.661 48.4159Z" fill="white" fill-opacity="0.1"/>
<path d="M173.662 47.6761C172.907 47.6191 172.151 47.5694 171.395 47.527L171.081 53.1331C171.801 53.1735 172.52 53.2208 173.239 53.2751L173.662 47.6761Z" fill="white" fill-opacity="0.1"/>
<path d="M133.456 51.6067C134.186 51.4047 134.918 51.2097 135.651 51.0217L137.045 56.4609C136.346 56.6399 135.65 56.8255 134.955 57.018L133.456 51.6067Z" fill="white" fill-opacity="0.1"/>
<path d="M141.003 49.783C141.744 49.6295 142.487 49.4833 143.232 49.3442L144.263 54.8635C143.554 54.996 142.847 55.1352 142.141 55.2814L141.003 49.783Z" fill="white" fill-opacity="0.1"/>
<path d="M148.972 48.4178C149.722 48.3157 150.473 48.2209 151.225 48.1333L151.875 53.7105C151.159 53.7939 150.443 53.8842 149.729 53.9814L148.972 48.4178Z" fill="white" fill-opacity="0.1"/>
<path d="M155.971 47.6781C156.726 47.6211 157.482 47.5714 158.238 47.529L158.552 53.1351C157.832 53.1754 157.113 53.2228 156.394 53.277L155.971 47.6781Z" fill="white" fill-opacity="0.1"/>
<path d="M53.2971 127.817C53.5356 127.098 53.781 126.382 54.0333 125.668L59.3272 127.539C59.087 128.219 58.8533 128.901 58.6262 129.585L53.2971 127.817Z" fill="white" fill-opacity="0.1"/>
<path d="M55.9845 120.533C56.2699 119.832 56.5621 119.133 56.861 118.438L62.0198 120.654C61.7352 121.317 61.457 121.982 61.1852 122.65L55.9845 120.533Z" fill="white" fill-opacity="0.1"/>
<path d="M59.288 113.154C59.6209 112.474 59.9605 111.797 60.3065 111.124L65.3007 113.69C64.9712 114.331 64.6479 114.975 64.3308 115.623L59.288 113.154Z" fill="white" fill-opacity="0.1"/>
<path d="M62.571 106.928C62.9441 106.269 63.3235 105.614 63.7093 104.962L68.5408 107.823C68.1735 108.443 67.8122 109.067 67.457 109.695L62.571 106.928Z" fill="white" fill-opacity="0.1"/>
<path d="M47.3305 166.508C47.3197 165.751 47.3161 164.994 47.3198 164.237L52.9346 164.265C52.9311 164.985 52.9345 165.706 52.9449 166.427L47.3305 166.508Z" fill="white" fill-opacity="0.1"/>
<path d="M47.4753 158.746C47.5145 157.99 47.5609 157.234 47.6146 156.479L53.2154 156.877C53.1642 157.596 53.12 158.316 53.0827 159.036L47.4753 158.746Z" fill="white" fill-opacity="0.1"/>
<path d="M48.1706 150.691C48.2617 149.939 48.36 149.188 48.4655 148.439L54.0256 149.221C53.9251 149.935 53.8315 150.65 53.7448 151.366L48.1706 150.691Z" fill="white" fill-opacity="0.1"/>
<path d="M49.2257 143.732C49.3616 142.987 49.5046 142.244 49.6549 141.501L55.1581 142.616C55.0151 143.322 54.8788 144.03 54.7495 144.739L49.2257 143.732Z" fill="white" fill-opacity="0.1"/>
<path d="M276.336 127.817C276.097 127.098 275.852 126.382 275.6 125.668L270.306 127.539C270.546 128.219 270.78 128.901 271.007 129.585L276.336 127.817Z" fill="white" fill-opacity="0.1"/>
<path d="M273.648 120.533C273.363 119.832 273.071 119.133 272.772 118.438L267.613 120.654C267.898 121.317 268.176 121.982 268.448 122.65L273.648 120.533Z" fill="white" fill-opacity="0.1"/>
<path d="M270.345 113.154C270.012 112.474 269.672 111.797 269.326 111.124L264.332 113.69C264.662 114.331 264.985 114.975 265.302 115.623L270.345 113.154Z" fill="white" fill-opacity="0.1"/>
<path d="M267.062 106.928C266.689 106.269 266.309 105.614 265.924 104.962L261.092 107.823C261.459 108.443 261.821 109.067 262.176 109.695L267.062 106.928Z" fill="white" fill-opacity="0.1"/>
<path d="M282.302 166.508C282.313 165.751 282.317 164.994 282.313 164.237L276.698 164.265C276.702 164.985 276.698 165.706 276.688 166.427L282.302 166.508Z" fill="#FFB800" fill-opacity="0.15"/>
<path d="M282.157 158.746C282.118 157.99 282.072 157.234 282.018 156.479L276.417 156.877C276.469 157.596 276.513 158.316 276.55 159.036L282.157 158.746Z" fill="#FFB800" fill-opacity="0.15"/>
<path d="M281.462 150.691C281.371 149.939 281.273 149.188 281.167 148.439L275.607 149.221C275.708 149.935 275.801 150.65 275.888 151.366L281.462 150.691Z" fill="#FFB800" fill-opacity="0.15"/>
<path d="M280.407 143.732C280.271 142.987 280.128 142.244 279.978 141.501L274.475 142.616C274.618 143.322 274.754 144.03 274.883 144.739L280.407 143.732Z" fill="#FFB800" fill-opacity="0.15"/>
<path d="M54.5968 205.532C54.3344 204.821 54.079 204.109 53.8304 203.394L59.1341 201.55C59.3708 202.231 59.614 202.91 59.8638 203.586L54.5968 205.532Z" fill="white" fill-opacity="0.1"/>
<path d="M52.1487 198.164C51.9338 197.438 51.726 196.71 51.5252 195.98L56.939 194.491C57.1302 195.186 57.3282 195.879 57.5328 196.57L52.1487 198.164Z" fill="white" fill-opacity="0.1"/>
<path d="M50.1223 190.337C49.9579 189.598 49.8006 188.857 49.6505 188.115L55.1539 187.002C55.2969 187.709 55.4466 188.414 55.6032 189.118L50.1223 190.337Z" fill="white" fill-opacity="0.1"/>
<path d="M48.8002 183.424C48.6803 182.677 48.5676 181.928 48.4622 181.178L54.0224 180.396C54.1228 181.11 54.2301 181.823 54.3443 182.535L48.8002 183.424Z" fill="white" fill-opacity="0.1"/>
<path d="M275.04 205.532C275.302 204.821 275.558 204.109 275.806 203.394L270.503 201.55C270.266 202.231 270.023 202.91 269.773 203.586L275.04 205.532Z" fill="#FFB800" fill-opacity="0.15"/>
<path d="M277.488 198.164C277.703 197.438 277.911 196.71 278.112 195.98L272.698 194.491C272.506 195.186 272.309 195.879 272.104 196.57L277.488 198.164Z" fill="#FFB800" fill-opacity="0.15"/>
<path d="M279.514 190.337C279.679 189.598 279.836 188.857 279.986 188.115L274.483 187.002C274.34 187.709 274.19 188.414 274.034 189.118L279.514 190.337Z" fill="#FFB800" fill-opacity="0.15"/>
<path d="M280.837 183.424C280.956 182.677 281.069 181.928 281.174 181.178L275.614 180.396C275.514 181.11 275.407 181.823 275.292 182.535L280.837 183.424Z" fill="#FFB800" fill-opacity="0.15"/>
<path d="M258.83 94.362C258.376 93.7562 257.916 93.1548 257.45 92.5579L253.024 96.0122C253.467 96.5806 253.905 97.1532 254.338 97.7301L258.83 94.362Z" fill="white" fill-opacity="0.1"/>
<path d="M253.97 88.3073C253.477 87.7328 252.978 87.1631 252.474 86.5982L248.285 90.3373C248.765 90.8752 249.24 91.4176 249.71 91.9647L253.97 88.3073Z" fill="white" fill-opacity="0.1"/>
<path d="M248.496 82.3576C247.965 81.8184 247.428 81.2843 246.886 80.7555L242.964 84.7738C243.48 85.2773 243.991 85.7859 244.497 86.2993L248.496 82.3576Z" fill="white" fill-opacity="0.1"/>
<path d="M243.407 77.4954C242.844 76.989 242.277 76.488 241.704 75.9926L238.03 80.2384C238.575 80.7102 239.116 81.1872 239.652 81.6694L243.407 77.4954Z" fill="white" fill-opacity="0.1"/>
<defs>
<filter id="filter0_f_441_3455" x="-16.9836" y="-17.2961" width="215.666" height="281.893" filterUnits="userSpaceOnUse" color-interpolation-filters="sRGB">
<feFlood flood-opacity="0" result="BackgroundImageFix"/>
<feBlend mode="normal" in="SourceGraphic" in2="BackgroundImageFix" result="shape"/>
<feGaussianBlur stdDeviation="16.65" result="effect1_foregroundBlur_441_3455"/>
</filter>
<filter id="filter1_f_441_3455" x="245.513" y="93.6883" width="104.104" height="170.909" filterUnits="userSpaceOnUse" color-interpolation-filters="sRGB">
<feFlood flood-opacity="0" result="BackgroundImageFix"/>
<feBlend mode="normal" in="SourceGraphic" in2="BackgroundImageFix" result="shape"/>
<feGaussianBlur stdDeviation="16.65" result="effect1_foregroundBlur_441_3455"/>
</filter>
<radialGradient id="paint0_radial_441_3455" cx="0" cy="0" r="1" gradientUnits="userSpaceOnUse" gradientTransform="translate(165.316 164.344) rotate(89.9997) scale(198.656)">
<stop/>
<stop offset="1" stop-opacity="0"/>
</radialGradient>
</defs>
</svg>
