<svg width="13" height="14" viewBox="0 0 13 14" fill="none" xmlns="http://www.w3.org/2000/svg">
<g id="Vector">
<path d="M11.5779 2.52863C11.5779 2.52863 12.3191 3.08439 12.5044 4.12891C12.5877 4.59896 12.4084 4.88456 12.186 5.0568C11.5247 5.55017 10.4639 5.10725 10.6513 4.12891C10.8366 3.08439 11.5779 2.52863 11.5779 2.52863Z" fill="white"/>
<path d="M0.0141039 12.0408L0.237871 11.3933L2.05486 12.2098C2.07873 12.2206 2.10423 12.2258 2.12891 12.2342L1.91816 12.8434C1.87069 12.9906 1.69005 13.069 1.5501 13.0023L0.159213 12.3774C0.0311909 12.3199 -0.0317345 12.1737 0.0141039 12.0408Z" fill="white"/>
<path d="M0.238142 10.5121L2.26697 5.47233L1.84303 4.93095C1.74267 4.80889 1.77875 4.61008 1.91626 4.53115L6.35581 1.84241C6.46213 1.7784 6.59992 1.79386 6.68834 1.88283L8.08899 3.28348C8.19504 3.38953 8.19504 3.56149 8.08899 3.66754L7.79036 3.96644L6.50634 11.0722C6.39866 11.74 5.77048 12.2586 5.09891 12.2494C4.90064 12.2494 4.70128 12.2079 4.51386 12.1238L2.72399 11.3226L2.64642 11.5534C2.59977 11.702 2.41859 11.7815 2.27754 11.7148L0.378641 10.8615C0.245737 10.8018 0.183624 10.6475 0.238142 10.5121ZM4.78482 10.7942C5.0132 10.8913 5.27196 10.747 5.30939 10.5018L5.82012 7.16021L5.08155 7.77021C5.04792 7.79788 5.02242 7.8345 5.00751 7.87545C5.00018 7.88929 4.07826 10.4801 4.06741 10.4893L4.78482 10.7942ZM3.56916 10.2772L4.4965 7.69128C4.54451 7.55838 4.62724 7.44067 4.736 7.35062L5.5478 6.6804L4.17184 6.36631L2.98682 10.0296L3.56916 10.2772Z" fill="white"/>
<path d="M7.80826 1.12229C7.83864 1.09842 7.8739 1.08133 7.91133 1.07211L12.2649 0.00806434C12.4086 -0.0296371 12.5676 0.0690917 12.595 0.215829L12.8223 1.29127C12.8524 1.43475 12.7634 1.57633 12.621 1.61132L9.0063 2.495C9.0082 2.48415 8.46763 2.93684 8.47305 2.89914L7.18469 1.61078L7.80826 1.12229Z" fill="white"/>
</g>
</svg>
