<svg width="227" height="227" viewBox="0 0 227 227" fill="none" xmlns="http://www.w3.org/2000/svg">
    <mask id="mask0_381_1533" style="mask-type:alpha" maskUnits="userSpaceOnUse" x="0" y="0"
        width="227" height="227">
        <circle cx="113.5" cy="113.5" r="113.5" fill="url(#paint0_radial_381_1533)" />
    </mask>
    <g mask="url(#mask0_381_1533)">
        <path
            d="M-5.35998 199.171L-4.83591 189.982C-3.71834 170.388 12.1162 154.857 31.7281 154.119L40.428 153.792C56.495 153.187 69.0686 139.74 68.5942 123.669V123.669C68.1619 109.026 78.6181 96.3166 93.0701 93.9194L120.076 89.4399C132.575 87.3667 145.158 92.6265 152.464 102.978L157.581 110.229C164.898 120.596 179.074 123.376 189.763 116.539L192.968 114.49C200.733 109.524 203.86 99.7311 200.41 91.1836V91.1836C197.298 83.4765 199.513 74.6424 205.891 69.3139L233.802 45.9982"
            stroke="white" stroke-opacity="0.75" />
        <path
            d="M13.0004 81.9243L14.1329 79.585C20.6363 66.1516 37.8758 62.144 49.6378 71.3313L52.2466 73.3691C65.5082 83.7277 84.9954 75.5839 86.943 58.8693V58.8693C88.4335 46.0776 100.73 37.435 113.27 40.3649L126.934 43.5573C135.834 45.6365 142.76 52.6238 144.76 61.5415L146.162 67.7885C148.165 76.7197 156.839 82.4958 165.852 80.9014L168.554 80.4235C175.101 79.2653 179.895 73.6078 179.963 66.9589V66.9589C180.025 60.9637 183.945 55.6922 189.669 53.9086L214.716 46.1045"
            stroke="white" stroke-opacity="0.75" />
        <path
            d="M48 212C48.9811 209.711 73.4238 190.778 92.146 176.569C99.1337 171.265 102.719 162.599 101.464 153.917L100.585 147.837C98.9576 136.582 107.687 126.5 119.059 126.5V126.5C124.425 126.5 129.531 128.809 133.075 132.839L149.563 151.585C156.504 159.477 153.333 171.879 143.456 175.471V175.471C136.35 178.054 132.299 185.543 134.024 192.904L134.487 194.879C136.689 204.275 146.185 210.024 155.53 207.621L243.5 185"
            stroke="white" stroke-opacity="0.75" />
        <path
            d="M182.832 162.91L183.237 162.163C184.448 159.927 182.88 156.745 180.59 155.638C178.519 154.637 177.421 152.703 177.126 150.422L177.04 149.749C176.584 146.216 180.168 143.545 183.423 144.991L185.58 145.95C187.867 146.967 190.391 145.103 190.093 142.618C189.824 140.383 191.87 138.567 194.058 139.099L200.262 140.608C203.005 141.276 205.158 143.399 205.864 146.133L206.46 148.443C207.423 152.175 206.475 156.143 203.929 159.037L199.827 163.698C199.261 164.341 198.78 165.055 198.397 165.821L197.36 167.896C195.52 171.575 191.08 173.114 187.357 171.363L185.288 170.389C182.473 169.064 181.35 165.645 182.832 162.91Z"
            stroke="white" stroke-opacity="0.75" stroke-width="0.820513" />
        <path d="M-38 -95L105.338 107.471C109.323 113.1 117.677 113.1 121.662 107.471L265 -95H-38Z"
            fill="url(#paint1_linear_381_1533)" fill-opacity="0.5" />
        <circle cx="114" cy="113" r="7" fill="white" />
        <circle cx="114" cy="113" r="5" fill="#0B73EE" />
    </g>
    <defs>
        <radialGradient id="paint0_radial_381_1533" cx="0" cy="0" r="1"
            gradientUnits="userSpaceOnUse"
            gradientTransform="translate(113.5 113.5) rotate(90) scale(113.5)">
            <stop stop-color="#00FFF0" />
            <stop offset="0.88" stop-color="white" stop-opacity="0" />
        </radialGradient>
        <linearGradient id="paint1_linear_381_1533" x1="113.5" y1="-22.2541" x2="113.5" y2="119"
            gradientUnits="userSpaceOnUse">
            <stop stop-color="#0B73EE" stop-opacity="0" />
            <stop offset="1" stop-color="#0B73EE" />
        </linearGradient>
    </defs>
</svg>