<svg xmlns="http://www.w3.org/2000/svg" width="195" height="195" viewBox="0 0 195 195" fill="none">
  <mask id="mask0_339_53" style="mask-type:alpha" maskUnits="userSpaceOnUse" x="0" y="0" width="195"
    height="195">
    <circle cx="97.5" cy="97.5" r="97.5" fill="black" />
  </mask>
  <g mask="url(#mask0_339_53)">
    <path
      d="M-35.36 153.172L-34.8359 143.984C-33.7183 124.39 -17.8838 108.859 1.72807 108.121L10.428 107.794C26.495 107.189 39.0686 93.742 38.5942 77.6706V77.6706C38.1619 63.0276 48.6181 50.3185 63.0701 47.9214L90.076 43.4419C102.575 41.3687 115.158 46.6284 122.464 56.9797L127.581 64.231C134.898 74.598 149.074 77.3776 159.763 70.5413L162.968 68.492C170.733 63.5259 173.86 53.7331 170.41 45.1856V45.1856C167.298 37.4785 169.513 28.6444 175.891 23.3158L203.802 0.000197232"
      stroke="white" stroke-opacity="0.75" />
    <path
      d="M-16.9996 35.9243L-15.8671 33.585C-9.36366 20.1516 7.87578 16.144 19.6378 25.3313L22.2466 27.3691C35.5082 37.7277 54.9954 29.5839 56.943 12.8693V12.8693C58.4335 0.0776366 70.7299 -8.56498 83.2704 -5.63508L96.9342 -2.44274C105.834 -0.363464 112.76 6.62375 114.76 15.5415L116.162 21.7885C118.165 30.7197 126.839 36.4958 135.852 34.9014L138.554 34.4235C145.101 33.2653 149.895 27.6078 149.963 20.9589V20.9589C150.025 14.9637 153.945 9.69216 159.669 7.90862L184.716 0.104493"
      stroke="white" stroke-opacity="0.75" />
    <path
      d="M18 166C18.9811 163.711 43.4238 144.778 62.146 130.569C69.1337 125.265 72.7192 116.599 71.4639 107.917L70.5848 101.837C68.9576 90.582 77.6869 80.5 89.0587 80.5V80.5C94.4246 80.5 99.531 82.8093 103.075 86.8385L119.563 105.585C126.504 113.477 123.333 125.879 113.456 129.471V129.471C106.35 132.054 102.299 139.543 104.024 146.904L104.487 148.879C106.689 158.275 116.185 164.024 125.53 161.621L213.5 139"
      stroke="white" stroke-opacity="0.75" />
    <path
      d="M152.832 116.91L153.237 116.163C154.448 113.927 152.88 110.745 150.59 109.638C148.519 108.637 147.421 106.703 147.126 104.422L147.04 103.749C146.584 100.216 150.168 97.5448 153.423 98.9914L155.58 99.95C157.867 100.967 160.391 99.1035 160.093 96.618C159.824 94.3828 161.87 92.5672 164.058 93.0993L170.262 94.6084C173.005 95.2757 175.158 97.3991 175.864 100.133L176.46 102.443C177.423 106.175 176.475 110.143 173.929 113.037L169.827 117.698C169.261 118.341 168.78 119.055 168.397 119.821L167.36 121.896C165.52 125.575 161.08 127.114 157.357 125.363L155.288 124.389C152.473 123.064 151.35 119.645 152.832 116.91Z"
      stroke="white" stroke-opacity="0.75" stroke-width="0.820513" />
    <circle cx="98" cy="97" r="5" fill="white" />
    <path
      d="M160.172 22.8107C142.85 8.27598 121.015 0.21381 98.4039 0.0041896C75.7928 -0.205431 53.812 7.45053 36.2237 21.6616L97.5 97.5L160.172 22.8107Z"
      fill="url(#paint1_linear_339_53)" fill-opacity="0.5" />
    <circle cx="98" cy="97" r="3" fill="#C4FF48" />
    <rect x="97" y="-3" width="2" height="97" fill="#C4FF48" />
  </g>
  <defs>
    <linearGradient id="paint1_linear_339_53" x1="98" y1="-4.5" x2="81" y2="93.5"
      gradientUnits="userSpaceOnUse">
      <stop stop-color="#C4FF48" />
      <stop offset="0.972659" stop-color="#C4FF48" stop-opacity="0" />
    </linearGradient>
  </defs>
</svg>