<svg width="15" height="34" viewBox="0 0 15 34" fill="none" xmlns="http://www.w3.org/2000/svg">
<g id="Frame 35">
<path id="image 34 (Traced)" fill-rule="evenodd" clip-rule="evenodd" d="M10.2115 0.0177009C7.24981 0.471214 5.61699 3.61202 6.91719 6.35433C7.07937 6.69661 7.33057 7.03418 7.71514 7.42698C8.61841 8.34953 9.48231 8.72027 10.7325 8.72209C11.9741 8.72384 12.8423 8.35166 13.7533 7.42698C14.374 6.79681 14.6988 6.21868 14.9087 5.37023C15.0682 4.72538 15.013 3.62397 14.7876 2.95675C14.3404 1.63288 13.2135 0.550109 11.8861 0.169024C11.4426 0.0416659 10.5699 -0.0371528 10.2115 0.0177009ZM6.60793 11.157C5.10945 11.3087 2.96136 11.8456 1.45104 12.446C0.577095 12.7934 0.548663 12.8095 0.443197 13.0163C0.301931 13.2931 -0.0458027 15.1554 0.00503234 15.3625C0.0330921 15.4766 0.149872 15.6128 0.277816 15.6804C0.484505 15.7897 0.541368 15.7866 1.02508 15.6394C2.20709 15.2795 3.32844 15.1669 3.95595 15.345C4.38064 15.4655 4.70709 15.8295 4.76894 16.2513C4.84121 16.7442 4.69637 17.4028 3.92417 20.0917C2.63565 24.5783 2.21647 26.5827 2.15819 28.5366C2.07885 31.1934 2.68545 32.2621 4.86562 33.3064C6.87514 34.269 8.91129 34.2325 11.9588 33.1792C13.235 32.738 14.0971 32.3774 14.2277 32.2299C14.3952 32.0407 14.9515 30.1361 14.9233 29.8485C14.9089 29.7016 14.8253 29.5596 14.695 29.4606C14.5096 29.3198 14.4586 29.3136 14.174 29.3979C11.8426 30.0885 10.6729 30.075 10.2361 29.3525C10.09 29.111 10.0693 28.9776 10.0747 28.3116C10.087 26.7837 10.5304 24.8405 11.8113 20.7004C12.1349 19.6543 12.459 18.4902 12.5314 18.1136C12.7151 17.1589 12.7141 15.2607 12.5295 14.5825C12.0433 12.7957 10.8173 11.6544 8.98289 11.2807C8.22312 11.1261 7.35811 11.081 6.60793 11.157Z" fill="#B3F25B"/>
</g>
</svg>
