<svg width="19" height="20" viewBox="0 0 19 20" fill="none" xmlns="http://www.w3.org/2000/svg">
<path d="M9.35172 2.50004C7.3626 2.50004 5.45495 3.29022 4.04842 4.69674C2.6419 6.10326 1.85173 8.01092 1.85173 10C1.85173 11.9892 2.6419 13.8968 4.04842 15.3033C5.45495 16.7099 7.3626 17.5 9.35172 17.5C10.8115 17.5006 12.2398 17.0751 13.4613 16.2758C14.6828 15.4764 15.6445 14.338 16.2284 13L17.7559 13.6667C17.0423 15.3019 15.867 16.6932 14.3741 17.6702C12.8813 18.6471 11.1358 19.1672 9.35172 19.1667C4.28923 19.1667 0.185059 15.0625 0.185059 10C0.185059 4.93754 4.28923 0.833374 9.35172 0.833374C14.4142 0.833374 18.5184 4.93754 18.5184 10V11.6667L15.5184 9.41671L16.5184 8.08337L16.6251 8.16337C16.2157 6.54485 15.2782 5.1091 13.961 4.08334C12.6437 3.05759 11.0212 2.50043 9.35172 2.50004ZM9.35256 7.08337C9.92756 7.08337 10.3942 7.55004 10.3942 8.12504V8.75004H8.31089V8.12504C8.31089 7.55004 8.77756 7.08337 9.35256 7.08337ZM12.0609 8.75004V8.12504C12.0609 7.40675 11.7755 6.71787 11.2676 6.20996C10.7597 5.70205 10.0709 5.41671 9.35256 5.41671C8.63426 5.41671 7.94539 5.70205 7.43748 6.20996C6.92957 6.71787 6.64423 7.40675 6.64423 8.12504V8.75004H5.60089V14.1667H13.1009V8.75004H12.0609Z" fill="#FF5050"/>
</svg>
