<svg width="20" height="18" viewBox="0 0 20 18" fill="none" xmlns="http://www.w3.org/2000/svg">
<g id="Group">
<path id="Vector" d="M18.4759 6.65689L16.9701 1.38667C16.9382 1.27524 16.8709 1.17723 16.7784 1.10747C16.6858 1.0377 16.5731 0.999974 16.4572 1H12.8599L13.2821 6.07022C13.2886 6.15171 13.3144 6.23048 13.3574 6.30003C13.4004 6.36958 13.4592 6.42792 13.5292 6.47022C13.8759 6.67733 14.5532 7.05956 15.0821 7.22222C15.9852 7.50044 17.3043 7.4 18.0563 7.30756C18.1294 7.2981 18.1996 7.27281 18.2619 7.23345C18.3242 7.19409 18.3772 7.1416 18.4172 7.07964C18.4571 7.01769 18.4831 6.94776 18.4932 6.87475C18.5033 6.80173 18.4974 6.72738 18.4759 6.65689Z" stroke="#B3F25B" stroke-width="2"/>
<path id="Vector_2" d="M11.5265 7.22222C12.0314 7.06667 12.6714 6.712 13.0288 6.50044C13.1119 6.45071 13.1794 6.37855 13.2234 6.29224C13.2674 6.20592 13.2862 6.10895 13.2776 6.01244L12.8599 1H6.63764L6.21987 6.01244C6.21113 6.1091 6.22986 6.20626 6.27389 6.29274C6.31791 6.37923 6.38546 6.45153 6.46876 6.50133C6.82609 6.712 7.46609 7.06667 7.97098 7.22222C9.29809 7.63111 10.1994 7.63111 11.5265 7.22222Z" stroke="#B3F25B" stroke-width="2"/>
<path id="Vector_3" d="M2.52741 1.38667L1.02163 6.65778C1.00038 6.72816 0.994697 6.80232 1.00498 6.87512C1.01527 6.94792 1.04127 7.01761 1.08119 7.07935C1.12111 7.14109 1.17399 7.1934 1.23615 7.23266C1.29832 7.27191 1.36828 7.29717 1.44119 7.30667C2.1923 7.4 3.5123 7.49956 4.41541 7.22222C4.9443 7.05956 5.62252 6.67733 5.9683 6.47111C6.03837 6.42872 6.09733 6.37024 6.1403 6.30053C6.18328 6.23082 6.20902 6.15187 6.21541 6.07022L6.63763 1H3.0403C2.92441 0.999974 2.81166 1.0377 2.71912 1.10747C2.62658 1.17723 2.55928 1.27524 2.52741 1.38667Z" stroke="#B3F25B" stroke-width="2"/>
<path id="Vector_4" d="M1.74866 7.22217V15.2222C1.74866 15.6937 1.93596 16.1458 2.26936 16.4792C2.60275 16.8126 3.05494 16.9999 3.52644 16.9999H15.9709C16.4424 16.9999 16.8946 16.8126 17.228 16.4792C17.5614 16.1458 17.7487 15.6937 17.7487 15.2222V7.22217" stroke="#B3F25B" stroke-width="2"/>
</g>
</svg>
