<svg width="16" height="16" viewBox="0 0 16 16" fill="none" xmlns="http://www.w3.org/2000/svg">
<g id="Vector" filter="url(#filter0_d_65_171)">
<path d="M7.99995 10.6098L5.87238 11.9591C5.80986 11.9916 5.75184 12.0047 5.69831 11.9985C5.64517 11.992 5.5934 11.9727 5.54299 11.9407C5.49219 11.9078 5.4539 11.8615 5.42811 11.8015C5.40232 11.7416 5.39998 11.6762 5.42108 11.6052L5.98726 9.07525L4.11465 7.37017C4.0619 7.32503 4.02712 7.27106 4.01032 7.20828C3.99352 7.14549 3.99723 7.08537 4.02146 7.02792C4.04568 6.97047 4.07792 6.92327 4.11816 6.88634C4.1588 6.85064 4.2135 6.82643 4.28227 6.8137L6.7533 6.58718L7.71686 4.19144C7.74343 4.12373 7.78172 4.07489 7.83174 4.04494C7.88175 4.01498 7.93782 4 7.99995 4C8.06208 4 8.11834 4.01498 8.16875 4.04494C8.21915 4.07489 8.25725 4.12373 8.28304 4.19144L9.2466 6.58718L11.717 6.8137C11.7862 6.82602 11.8411 6.85043 11.8817 6.88695C11.9224 6.92307 11.9548 6.97005 11.979 7.02792C12.0029 7.08537 12.0064 7.14549 11.9896 7.20828C11.9728 7.27106 11.938 7.32503 11.8853 7.37017L10.0126 9.07525L10.5788 11.6052C10.6007 11.6754 10.5986 11.7406 10.5724 11.8009C10.5462 11.8613 10.5077 11.9076 10.4569 11.94C10.4069 11.9729 10.3551 11.9924 10.3016 11.9985C10.2485 12.0047 10.1906 11.9916 10.1281 11.9591L7.99995 10.6098Z" fill="#B3F25B"/>
</g>
<defs>
<filter id="filter0_d_65_171" x="0" y="0" width="16" height="16" filterUnits="userSpaceOnUse" color-interpolation-filters="sRGB">
<feFlood flood-opacity="0" result="BackgroundImageFix"/>
<feColorMatrix in="SourceAlpha" type="matrix" values="0 0 0 0 0 0 0 0 0 0 0 0 0 0 0 0 0 0 127 0" result="hardAlpha"/>
<feOffset/>
<feGaussianBlur stdDeviation="2"/>
<feComposite in2="hardAlpha" operator="out"/>
<feColorMatrix type="matrix" values="0 0 0 0 0.552941 0 0 0 0 1 0 0 0 0 0.870588 0 0 0 0.2 0"/>
<feBlend mode="normal" in2="BackgroundImageFix" result="effect1_dropShadow_65_171"/>
<feBlend mode="normal" in="SourceGraphic" in2="effect1_dropShadow_65_171" result="shape"/>
</filter>
</defs>
</svg>
