<svg width="52" height="52" viewBox="0 0 52 52" fill="none" xmlns="http://www.w3.org/2000/svg">
<g id="Subtract" filter="url(#filter0_d_2_31)">
<path d="M36 11C38.2091 11 40 12.7909 40 15V35C40 37.2091 38.2091 39 36 39H16C13.7909 39 12 37.2091 12 35V15C12 12.7909 13.7909 11 16 11H36ZM25.5156 15.5869C24.4865 15.7038 23.6784 16.0823 22.9834 16.7725C22.4502 17.302 22.0987 17.9342 21.9473 18.6357C21.882 18.9381 21.8752 19.1538 21.875 20.7773C21.8748 22.6547 21.8873 22.8496 22.0439 23.3213L22.1348 23.5947L21.9668 23.6885C21.6291 23.8778 21.5087 24.1386 21.5352 24.623L21.5527 24.9414L21.3711 25.0967C21.1011 25.3289 21.0128 25.5554 21.0352 25.9531C21.0458 26.1427 21.0851 26.3547 21.1348 26.4863C21.1801 26.6065 21.2131 26.7082 21.208 26.7119C21.1931 26.7207 20.7163 26.9666 20.1396 27.2627C19.557 27.5619 18.9699 27.8815 18.835 27.9727C18.1778 28.4168 17.7527 29.0209 17.5322 29.8242C17.4749 30.0331 17.464 30.3335 17.4512 32.1709C17.4366 34.2579 17.4381 34.2794 17.5166 34.3545L17.5957 34.4307H34.168L34.248 34.3545C34.3264 34.2795 34.327 34.2557 34.3135 32.1709C34.3004 30.1623 34.2962 30.0507 34.2188 29.7861C34.036 29.1618 33.7734 28.7149 33.3516 28.3115C33.0268 28.001 32.8329 27.8838 31.625 27.2637C31.0421 26.9644 30.5611 26.7162 30.5566 26.7129C30.554 26.7046 30.5925 26.5756 30.6436 26.4219C30.8339 25.8488 30.7446 25.3915 30.3828 25.0869L30.208 24.9404L30.2256 24.5908C30.2421 24.2628 30.2371 24.229 30.1348 24.0391C30.055 23.8911 29.9719 23.8024 29.8281 23.7119L29.6318 23.5879L29.7217 23.3154C29.8839 22.827 29.8957 22.6375 29.8809 20.6436L29.8662 18.751L29.7656 18.4189C29.4261 17.3014 28.6403 16.4122 27.5674 15.9316C26.954 15.6569 26.1265 15.5176 25.5156 15.5869ZM30.3398 27.0977C30.383 27.0977 30.7352 27.2851 30.7383 27.3096C30.7383 27.3864 30.1936 28.0136 29.8887 28.2881C28.9325 29.1487 27.6857 29.6912 26.3926 29.8086L26.1133 29.834V33.9883H25.6504V29.834L25.3711 29.8086C24.086 29.6919 22.8283 29.1459 21.8828 28.2949C21.5721 28.0152 21.0254 27.3871 21.0254 27.3096C21.0285 27.2833 21.3627 27.1027 21.416 27.0986C21.4305 27.0998 21.5284 27.2119 21.6348 27.3486C21.902 27.6921 22.4937 28.2251 22.8818 28.4717C23.8217 29.0687 24.7812 29.3529 25.8623 29.3555C27.2741 29.3586 28.539 28.8723 29.5732 27.9287C29.7717 27.7476 30.0225 27.4867 30.1299 27.3486C30.2358 27.2125 30.3292 27.1008 30.3398 27.0977ZM24.7197 23.1973C25.0837 22.8409 25.641 22.6886 26.2119 22.7891C26.6832 22.8721 27.1102 23.1576 27.2715 23.4971C27.5187 24.0187 27.1812 24.6373 26.5117 24.8896C26.1939 25.0093 25.5747 25.0111 25.2656 24.8936C24.7624 24.7019 24.4513 24.3506 24.4238 23.9414C24.4034 23.6331 24.4853 23.4267 24.7197 23.1973ZM25.875 23.6699C25.6066 23.6699 25.5357 23.6822 25.4834 23.7373C25.403 23.8222 25.402 23.9425 25.4805 24.0176C25.5265 24.0613 25.6235 24.0752 25.8818 24.0752C26.2519 24.0752 26.3447 24.0356 26.3447 23.876C26.3447 23.7187 26.2337 23.6699 25.875 23.6699ZM23.2227 19.7871C23.6039 19.3917 24.1846 19.2943 24.7051 19.5391C25.1508 19.7489 25.3969 20.1302 25.3984 20.6133C25.3992 20.854 25.3818 20.9243 25.2725 21.1367C25.1348 21.4041 24.9415 21.5884 24.6543 21.7236C24.5115 21.7908 24.4093 21.8079 24.1475 21.8086C23.8659 21.8094 23.7895 21.7947 23.6006 21.7061C23.323 21.5756 23.0599 21.2998 22.9512 21.0244C22.7895 20.6148 22.8972 20.1247 23.2227 19.7871ZM27.2803 19.4463C27.5241 19.3699 27.9109 19.4055 28.1738 19.5283C28.4266 19.6467 28.6683 19.8831 28.7852 20.126C28.9023 20.3694 28.9022 20.853 28.7852 21.0967C28.6679 21.3404 28.415 21.5878 28.1611 21.707C27.9747 21.7945 27.8972 21.8094 27.6162 21.8086C27.3547 21.8079 27.2529 21.7907 27.1104 21.7236C26.8231 21.5884 26.6289 21.4041 26.4912 21.1367C26.3819 20.9244 26.3645 20.854 26.3652 20.6133C26.367 20.0543 26.7016 19.6277 27.2803 19.4463ZM24.3291 20.3535C24.2663 20.2346 24.075 20.2098 23.9814 20.3086C23.8838 20.4123 23.89 20.8349 23.9902 20.9219C24.0941 21.0116 24.2685 20.9843 24.3291 20.8691C24.3913 20.7505 24.3914 20.4719 24.3291 20.3535ZM27.7773 20.3037C27.688 20.2265 27.5259 20.2258 27.46 20.3018C27.3886 20.384 27.3707 20.7557 27.4326 20.8691C27.4959 20.9841 27.67 21.0111 27.7734 20.9219C27.8779 20.8315 27.8809 20.3933 27.7773 20.3037Z" fill="#B3F25B"/>
</g>
<defs>
<filter id="filter0_d_2_31" x="0" y="0" width="52" height="52" filterUnits="userSpaceOnUse" color-interpolation-filters="sRGB">
<feFlood flood-opacity="0" result="BackgroundImageFix"/>
<feColorMatrix in="SourceAlpha" type="matrix" values="0 0 0 0 0 0 0 0 0 0 0 0 0 0 0 0 0 0 127 0" result="hardAlpha"/>
<feOffset dy="1"/>
<feGaussianBlur stdDeviation="6"/>
<feComposite in2="hardAlpha" operator="out"/>
<feColorMatrix type="matrix" values="0 0 0 0 0.552941 0 0 0 0 1 0 0 0 0 0.870588 0 0 0 0.25 0"/>
<feBlend mode="normal" in2="BackgroundImageFix" result="effect1_dropShadow_2_31"/>
<feBlend mode="normal" in="SourceGraphic" in2="effect1_dropShadow_2_31" result="shape"/>
</filter>
</defs>
</svg>
