<svg width="19" height="11" viewBox="0 0 19 11" fill="none" xmlns="http://www.w3.org/2000/svg">
<path id="Vector" d="M15.0417 9.42857V11H5.54167V9.42857C5.54167 9.42857 5.54167 6.28571 10.2917 6.28571C15.0417 6.28571 15.0417 9.42857 15.0417 9.42857ZM12.6667 2.35714C12.6667 1.89094 12.5274 1.43522 12.2664 1.04759C12.0054 0.659955 11.6345 0.357834 11.2005 0.179428C10.7666 0.00102132 10.289 -0.045658 9.82833 0.0452929C9.36762 0.136244 8.94444 0.36074 8.61229 0.690392C8.28014 1.02004 8.05394 1.44005 7.9623 1.89729C7.87066 2.35453 7.91769 2.82847 8.09745 3.25918C8.27721 3.68989 8.58162 4.05803 8.97219 4.31704C9.36275 4.57604 9.82194 4.71429 10.2917 4.71429C10.9216 4.71429 11.5256 4.46595 11.971 4.0239C12.4164 3.58185 12.6667 2.9823 12.6667 2.35714ZM15.2 6.33286C15.6328 6.7291 15.9816 7.20692 16.2263 7.73843C16.471 8.26995 16.6065 8.8445 16.625 9.42857V11H19V9.42857C19 9.42857 19 6.71786 15.2 6.33286ZM14.25 8.96895e-07C14.0108 1.46939e-05 13.7731 0.037129 13.5454 0.110001C14.0086 0.769191 14.2569 1.5535 14.2569 2.35714C14.2569 3.16079 14.0086 3.9451 13.5454 4.60429C13.7731 4.67716 14.0108 4.71427 14.25 4.71429C14.8799 4.71429 15.484 4.46595 15.9294 4.0239C16.3748 3.58185 16.625 2.9823 16.625 2.35714C16.625 1.73199 16.3748 1.13244 15.9294 0.690392C15.484 0.248342 14.8799 8.96895e-07 14.25 8.96895e-07ZM6.33333 3.92857H3.95833V1.57143H2.375V3.92857H0V5.5H2.375V7.85714H3.95833V5.5H6.33333V3.92857Z" fill="#B3F25B"/>
</svg>
