<svg xmlns="http://www.w3.org/2000/svg" version="1.1" xmlns:xlink="http://www.w3.org/1999/xlink" width="512" height="512" x="0" y="0" viewBox="0 0 432.102 432.102" style="enable-background:new 0 0 512 512" xml:space="preserve"><g transform="matrix(0.9000000000000008,0,0,0.9000000000000008,21.605041503906108,21.605096535636306)"><path d="M328.05 88.15a122.322 122.322 0 0 1-40 6.88 125.926 125.926 0 0 1-72-22.88 126.08 126.08 0 0 1-71.6 22.96 122.388 122.388 0 0 1-40.4-6.96v152c0 11.28 40 76.32 112 120 71.44-43.92 112-108.96 112-120-.56-32.64 0-120 0-152z" fill="#ffffff" opacity="1" data-original="#000000"></path><path d="M385.81 27.67a8 8 0 0 0-11.28-7.36 150.39 150.39 0 0 1-61.76 13.68 152.004 152.004 0 0 1-91.44-32 8 8 0 0 0-10.56 0 150.716 150.716 0 0 1-91.44 32 150.39 150.39 0 0 1-61.76-13.68 8 8 0 0 0-11.28 7.36c0 1.68.56 166.64 0 221.28 0 29.28 67.84 124 165.68 182.08a8 8 0 0 0 8 0c98-58.08 166.16-152.88 165.84-182.16-.56-54.64 0-219.6 0-221.2zM220.13 377.03a8 8 0 0 1-8 0c-73.2-43.36-124.08-114.56-124.08-136.88.4-40.48 0-162.56 0-163.84a8 8 0 0 1 11.28-7.36 109.358 109.358 0 0 0 44.88 10 110.241 110.241 0 0 0 66.56-22.8 8 8 0 0 1 10.56 0 110.16 110.16 0 0 0 66.32 23.12 109.358 109.358 0 0 0 44.88-10 8 8 0 0 1 11.28 7.36c.24 1.2-.4 123.52.24 163.52 0 22.32-50.88 93.52-123.92 136.88z" fill="#ffffff" opacity="1" data-original="#000000"></path></g></svg>