<svg xmlns="http://www.w3.org/2000/svg" version="1.1" xmlns:xlink="http://www.w3.org/1999/xlink" width="512" height="512" x="0" y="0" viewBox="0 0 64 64" style="enable-background:new 0 0 512 512" xml:space="preserve"><g><path d="M59.526 9.15a.999.999 0 0 0-.973-.045A66.296 66.296 0 0 1 32 15 66.44 66.44 0 0 1 5.447 9.105 1 1 0 0 0 4 10v36a1 1 0 0 0 1 1h2a5.006 5.006 0 0 1 5 5 1 1 0 0 0 .725.962C13.017 53.045 19.998 55 32 55s18.983-1.955 19.275-2.038A1 1 0 0 0 52 52a5.006 5.006 0 0 1 5-5h2a1 1 0 0 0 1-1V10a1.001 1.001 0 0 0-.474-.85ZM20 21h-4a1 1 0 0 1 0-2h4a1 1 0 0 1 0 2Zm19 25a1 1 0 0 1-2 0V21H27v25a1 1 0 0 1-2 0V20a1 1 0 0 1 1-1h12a1 1 0 0 1 1 1Zm9-25h-4a1 1 0 0 1 0-2h4a1 1 0 0 1 0 2Z" fill="#ffffff" opacity="1" data-original="#000000"></path></g></svg>