<svg xmlns="http://www.w3.org/2000/svg" version="1.1" xmlns:xlink="http://www.w3.org/1999/xlink" width="512" height="512" x="0" y="0" viewBox="0 0 64 64" style="enable-background:new 0 0 512 512" xml:space="preserve"><g transform="matrix(0.9500000000000003,0,0,0.9500000000000003,1.6000031948089521,1.5999965667724503)"><path d="M30 25a9 9 0 1 0 9 9 9.01 9.01 0 0 0-9-9Zm3.535 4.05a1 1 0 1 1 0 1.414 1 1 0 0 1 0-1.414ZM30 27a1 1 0 1 1-1 1 1 1 0 0 1 1-1Zm-6 8a1 1 0 1 1 1-1 1 1 0 0 1-1 1Zm2.465 3.95a1 1 0 1 1 0-1.414 1 1 0 0 1 0 1.414Zm0-8.485a1 1 0 1 1 0-1.414 1 1 0 0 1 0 1.414ZM30 41a1 1 0 1 1 1-1 1 1 0 0 1-1 1Zm0-4a3 3 0 1 1 3-3 3.003 3.003 0 0 1-3 3Zm4.95 1.95a1 1 0 1 1 0-1.414 1 1 0 0 1 0 1.414ZM37 34a1 1 0 1 1-1-1 1 1 0 0 1 1 1Z" fill="#ffffff" opacity="1" data-original="#000000"></path><circle cx="30" cy="34" r="1" fill="#ffffff" opacity="1" data-original="#000000"></circle><path d="M47 35a1 1 0 0 1-1-1 15.893 15.893 0 0 0-1.128-5.863 9.827 9.827 0 0 0-1.86.308 1 1 0 0 1-.524-1.93 12.452 12.452 0 0 1 1.475-.305 16.094 16.094 0 0 0-7.58-6.874 9.984 9.984 0 0 0-1.117 1.543 1 1 0 0 1-1.732-.999 12.308 12.308 0 0 1 .834-1.259A15.924 15.924 0 0 0 30 18a1 1 0 0 1-1-1V8.025A25.997 25.997 0 1 0 55.975 35ZM23.814 13.055a1 1 0 0 1 1.506 1.316c-.095.112-1.998 2.434-.876 6.624a1 1 0 1 1-1.932.517c-1.416-5.285 1.19-8.33 1.302-8.457Zm-12.065 9.447a1 1 0 0 1 1.062.927c.011.139.303 3.132 4.064 5.303a1 1 0 0 1-1 1.732c-4.739-2.736-5.048-6.731-5.06-6.9a1 1 0 0 1 .934-1.062Zm5.763 18.985a11.801 11.801 0 0 1-3.062.42 8.485 8.485 0 0 1-5.395-1.721 1 1 0 0 1 1.316-1.506c.112.095 2.437 1.997 6.624.876a1 1 0 0 1 .517 1.932Zm8.952 6.637c-2.736 4.74-6.731 5.05-6.9 5.06a1.034 1.034 0 0 1-.065.002 1 1 0 0 1-.07-1.997c.14-.011 3.132-.304 5.303-4.065a1 1 0 0 1 1.733 1Zm9.722 6.82a1 1 0 0 1-1.506-1.315c.095-.112 1.998-2.434.876-6.624a1 1 0 0 1 1.932-.517c1.416 5.285-1.19 8.33-1.302 8.457ZM30 45a11 11 0 1 1 11-11 11.012 11.012 0 0 1-11 11Zm18.251.498a.965.965 0 0 1-.065.002 1 1 0 0 1-.997-.929c-.011-.139-.303-3.131-4.064-5.303a1 1 0 0 1 1-1.732c4.739 2.736 5.048 6.731 5.06 6.9a1 1 0 0 1-.934 1.062Z" fill="#ffffff" opacity="1" data-original="#000000"></path><path d="M31 16.027A18.026 18.026 0 0 1 47.973 33H60V20a1 1 0 0 0-.293-.707l-15-15A1 1 0 0 0 44 4H31ZM54 24a3 3 0 1 1-3 3 3.003 3.003 0 0 1 3-3ZM37 7a3 3 0 1 1-3 3 3.003 3.003 0 0 1 3-3Z" fill="#ffffff" opacity="1" data-original="#000000"></path><circle cx="54" cy="27" r="1" fill="#ffffff" opacity="1" data-original="#000000"></circle><circle cx="37" cy="10" r="1" fill="#ffffff" opacity="1" data-original="#000000"></circle></g></svg>