<svg xmlns="http://www.w3.org/2000/svg" version="1.1" xmlns:xlink="http://www.w3.org/1999/xlink" width="512" height="512" x="0" y="0" viewBox="0 0 512 512" style="enable-background:new 0 0 512 512" xml:space="preserve" class=""><g><path fill-rule="evenodd" d="M496 40.428v349.171c0 5.508-4.492 10-10 10H136.485a123.94 123.94 0 0 0 3.1-27.613C139.585 303.736 84.25 248.4 16 248.4v-64.458a9.972 9.972 0 0 1 9.058-9.955l120.609-11.411 143.849-126.57c4.699-4.135 10.377-5.577 16.639-5.577H486c5.508-.001 10 4.491 10 9.999zM333.672 272.145c-8.115-2.174-16.544 2.699-18.719 10.815l-5.949 22.202c-2.208 8.241 2.883 17.563 11.581 18.883l88.899 13.497c7.608 1.155 14.08-2.971 17.434-9.667l5.949-11.879c4.234-8.456-2.037-17.82-10.296-20.031zm135.139-110.317c.476.053 2.624-45.987 2.674-48.853.124-7.056-4.087-13.569-10.583-16.295-3.52-1.477-6.007-1.322-9.63-1.322a22.398 22.398 0 0 0-14.559 5.331c-6.683 5.679-7.281 11.495-8.533 19.155a22.44 22.44 0 0 0 11.912 23.648c5.203 2.669 10.274 2.471 15.968 2.781a656.444 656.444 0 0 1-.541 7.323l-8.755-.793c-11.91-1.079-22.526 7.286-24.263 19.102-5.29 35.975-22.256 65.853-28.941 101.794l32.633 8.744a29.834 29.834 0 0 1 10.546 5.242c8.174-50.874 26.151-61.637 32.072-125.857zM216.834 357.599l26.429-45.776c.918-1.59 1.34-3.164 1.34-5v-51.869c0-2.754-.982-5.124-2.929-7.071l-23.131-23.131a9.543 9.543 0 0 1-2.143-3.186l-10.903-25.858c-1.596-3.786-5.105-6.115-9.214-6.115h-17.745l-7.193 6.329v125.674c0 19.811 16.189 36 36 36h9.489zm9.434-184.977 69.083 69.083a7 7 0 0 0 9.898-9.898l-69.083-69.084a7 7 0 0 0-9.898 9.899zm38.364 58.162-27.443-27.443-9.343 9.343 1.149 2.724 25.506 25.506zM16 481.572c60.523 0 109.586-49.064 109.586-109.586S76.523 262.4 16 262.4v64.36c24.976 0 45.225 20.249 45.225 45.225S40.975 417.21 16 417.21zm0-78.362c17.247 0 31.225-13.978 31.225-31.225 0-17.246-13.979-31.225-31.225-31.225zM486 58.428H306.42L157.345 189.596V321.6c0 27.538 22.461 50 50 50H486z" clip-rule="evenodd" fill="#ffffff" opacity="1" data-original="#000000"></path></g></svg>