<svg xmlns="http://www.w3.org/2000/svg" version="1.1" xmlns:xlink="http://www.w3.org/1999/xlink" width="512" height="512" x="0" y="0" viewBox="0 0 64 64" style="enable-background:new 0 0 512 512" xml:space="preserve"><g><g data-name="Car Seat"><path d="m41.35 10.273-1-4.001A2.997 2.997 0 0 0 37.437 4H26.561a2.997 2.997 0 0 0-2.91 2.272l-1 4A3 3 0 0 0 25.56 14h12.877a3 3 0 0 0 2.911-3.728zM52.548 51.898A3.973 3.973 0 0 0 49.146 50H14.854a4 4 0 0 0-3.578 5.79l.448.894A5.967 5.967 0 0 0 17.09 60h29.82a5.967 5.967 0 0 0 5.367-3.316l.447-.895a3.974 3.974 0 0 0-.176-3.892z" fill="#ffffff" opacity="1" data-original="#000000"></path><path d="M28 18a1 1 0 0 1-1-1v-4a1 1 0 0 1 2 0v4a1 1 0 0 1-1 1zM36 18a1 1 0 0 1-1-1v-4a1 1 0 0 1 2 0v4a1 1 0 0 1-1 1zM40 24H24a1 1 0 0 0-1 1v7h18v-7a1 1 0 0 0-1-1z" fill="#ffffff" opacity="1" data-original="#000000"></path><path d="M21 48V25a3.003 3.003 0 0 1 3-3h16a3.003 3.003 0 0 1 3 3v23h6V25a9.01 9.01 0 0 0-9-9H24a9.01 9.01 0 0 0-9 9v23z" fill="#ffffff" opacity="1" data-original="#000000"></path><path d="M23 34h18v14H23z" fill="#ffffff" opacity="1" data-original="#000000"></path></g></g></svg>