<svg xmlns="http://www.w3.org/2000/svg" version="1.1" xmlns:xlink="http://www.w3.org/1999/xlink" width="512" height="512" x="0" y="0" viewBox="0 0 64 64" style="enable-background:new 0 0 512 512" xml:space="preserve"><g><g data-name="Door 2"><path d="M10 16v12h39.882L35.215 16zM4 50v3a1 1 0 0 0 1 1h40a1 1 0 0 0 1-1 12.95 12.95 0 0 1 .363-3z" fill="#ffffff" opacity="1" data-original="#000000"></path><path d="m59.633 28.226-22-18A1.003 1.003 0 0 0 37 10H5a1 1 0 0 0-1 1v37h43.003A13.018 13.018 0 0 1 59 40a1 1 0 0 0 1-1V29a1.001 1.001 0 0 0-.367-.774zM49 36h-6a1 1 0 0 1 0-2h6a1 1 0 0 1 0 2zm4.625-6.664a.999.999 0 0 1-.941.664H9a1 1 0 0 1-1-1V15a1 1 0 0 1 1-1h26.572a1.003 1.003 0 0 1 .633.226l17.111 14a1 1 0 0 1 .309 1.11z" fill="#ffffff" opacity="1" data-original="#000000"></path></g></g></svg>