<svg xmlns="http://www.w3.org/2000/svg" version="1.1" xmlns:xlink="http://www.w3.org/1999/xlink" width="512" height="512" x="0" y="0" viewBox="0 0 64 64" style="enable-background:new 0 0 512 512" xml:space="preserve" class=""><g transform="matrix(0.9500000000000001,0,0,0.9500000000000001,1.5999823331832879,1.6010912895202623)"><g data-name="Car Wash"><path d="m59.555 15.168-2.834-1.889-1.889-2.834a1.038 1.038 0 0 0-1.664 0l-1.889 2.834-2.834 1.889a1 1 0 0 0 0 1.664l2.834 1.889 1.889 2.834a1 1 0 0 0 1.664 0l1.889-2.834 2.834-1.889a1 1 0 0 0 0-1.664ZM46.79 41.658l-.172.342H58v-2h-8.528a2.985 2.985 0 0 0-2.683 1.658ZM25 40h14v2H25z" fill="#ffffff" opacity="1" data-original="#000000" class=""></path><path d="M14.528 38A4.973 4.973 0 0 1 19 40.764l.894 1.789A1 1 0 0 1 19 44H6v4h52v-4H45a1 1 0 0 1-.894-1.447l.894-1.79A4.973 4.973 0 0 1 49.472 38H58v-1a5.006 5.006 0 0 0-5-5H11a5.006 5.006 0 0 0-5 5v1ZM23 39a1 1 0 0 1 1-1h16a1 1 0 0 1 1 1v4a1 1 0 0 1-1 1H24a1 1 0 0 1-1-1ZM6 50v3a1 1 0 0 0 1 1h50a1 1 0 0 0 1-1v-3Z" fill="#ffffff" opacity="1" data-original="#000000" class=""></path><path d="M17.21 41.658A2.985 2.985 0 0 0 14.529 40H6v2h11.382ZM52.183 30l-2.392-8.374A5.024 5.024 0 0 0 44.982 18H19.018a5.023 5.023 0 0 0-4.809 3.627L11.817 30ZM8 56v2a2.003 2.003 0 0 0 2 2h4a2.003 2.003 0 0 0 2-2v-2ZM48 56v2a2.003 2.003 0 0 0 2 2h4a2.003 2.003 0 0 0 2-2v-2ZM17.447 10.105l-3.702-1.85-1.85-3.702a1.041 1.041 0 0 0-1.79 0l-1.85 3.702-3.702 1.85a1 1 0 0 0 0 1.79l3.702 1.85 1.85 3.702a1 1 0 0 0 1.79 0l1.85-3.702 3.702-1.85a1 1 0 0 0 0-1.79Z" fill="#ffffff" opacity="1" data-original="#000000" class=""></path></g></g></svg>