<svg xmlns="http://www.w3.org/2000/svg" version="1.1" xmlns:xlink="http://www.w3.org/1999/xlink" width="512" height="512" x="0" y="0" viewBox="0 0 60 60" style="enable-background:new 0 0 512 512" xml:space="preserve" class=""><g><path d="M44 31.931v-3.949a3 3 0 0 1-2.741-2.394L41.141 25h-4.072A8.008 8.008 0 0 0 44 31.931ZM41.68 22.1A2.987 2.987 0 0 1 44 21h2.2a2.923 2.923 0 0 1 2.81 2h3.921a7.993 7.993 0 0 0-15.862 0h4.12a2.977 2.977 0 0 1 .491-.9Z" fill="#ffffff" opacity="1" data-original="#000000"></path><path d="M46 26a1 1 0 0 0 .98-.8l.2-1a1 1 0 0 0-.98-1.2H44a1 1 0 0 0-.98 1.2l.2 1a1 1 0 0 0 .98.8ZM52.931 25h-3.872l-.118.589A3.006 3.006 0 0 1 46 28v3.931A8.008 8.008 0 0 0 52.931 25ZM2 24h33a9.983 9.983 0 0 1 .2-2H2ZM29.406 37.565a.661.661 0 0 0 .6.435.652.652 0 0 0 .6-.437l1.346-3.636a.7.7 0 0 0-.081-.645.637.637 0 0 0-.53-.281h-2.69a.635.635 0 0 0-.53.282.7.7 0 0 0-.08.646Z" fill="#ffffff" opacity="1" data-original="#000000"></path><path d="M4 31h16.11a3.747 3.747 0 0 1 3.49 2.418l1.391 3.711A15.8 15.8 0 0 1 26 42.69V47a1 1 0 0 0 1 1h6a1 1 0 0 0 1-1v-4.31a15.791 15.791 0 0 1 1.008-5.56l1.392-3.712a3.745 3.745 0 0 1 1.872-2.043A9.987 9.987 0 0 1 35.2 26H2v3a2 2 0 0 0 2 2Zm22.482 1.143A2.649 2.649 0 0 1 28.656 31h2.69a2.652 2.652 0 0 1 2.172 1.139 2.7 2.7 0 0 1 .314 2.482l-1.346 3.636A2.67 2.67 0 0 1 30.042 40h-.068a2.672 2.672 0 0 1-2.441-1.733l-1.36-3.638a2.7 2.7 0 0 1 .309-2.486ZM58 29v-3h-3.2a9.986 9.986 0 0 1-2.669 5H56a2 2 0 0 0 2-2ZM58 22h-3.2a9.983 9.983 0 0 1 .2 2h3ZM58 19.22a2 2 0 0 0-1.519-1.937c-.417-.1-.888-.217-1.442-.33a1.008 1.008 0 0 1-.616-.367A11.89 11.89 0 0 0 45 12a12.017 12.017 0 0 0-7.772 2.861.949.949 0 0 1-.682.238A190.73 190.73 0 0 0 30 15c-15.188 0-23.125 1.435-26.5 2.29A1.976 1.976 0 0 0 2 19.22V20h33.841a9.991 9.991 0 0 1 18.318 0H58Z" fill="#ffffff" opacity="1" data-original="#000000"></path></g></svg>