<svg xmlns="http://www.w3.org/2000/svg" version="1.1" xmlns:xlink="http://www.w3.org/1999/xlink" width="512" height="512" x="0" y="0" viewBox="0 0 64 64" style="enable-background:new 0 0 512 512" xml:space="preserve"><g><path d="M59 29h-4a1 1 0 0 0-1 1v3h-2v-6a1 1 0 0 0-1-1h-2.465l-3.703-5.555A1 1 0 0 0 44 20h-9v-2h3a1 1 0 0 0 1-1v-4a1 1 0 0 0-1-1H26a1 1 0 0 0-1 1v4a1 1 0 0 0 1 1h3v2h-7a1 1 0 0 0-.832.445L17.465 26H13a1 1 0 0 0-1 1v7h-2v-3a1 1 0 0 0-1-1H5a1 1 0 0 0-1 1v12a1 1 0 0 0 1 1h4a1 1 0 0 0 1-1v-3h2v7a1 1 0 0 0 1 1h7.586l3.707 3.707A1 1 0 0 0 25 52h22a1 1 0 0 0 .707-.293l4-4A1 1 0 0 0 52 47v-6h2v3a1 1 0 0 0 1 1h4a1 1 0 0 0 1-1V30a1 1 0 0 0-1-1Z" fill="#ffffff" opacity="1" data-original="#000000"></path></g></svg>