<svg xmlns="http://www.w3.org/2000/svg" version="1.1" xmlns:xlink="http://www.w3.org/1999/xlink" width="512" height="512" x="0" y="0" viewBox="0 0 64 64" style="enable-background:new 0 0 512 512" xml:space="preserve"><g><path d="M14 18h-3a1 1 0 0 0-1 1v20a1 1 0 0 0 1 1h3zM43 18H16v22h27a1 1 0 0 0 1-1V19a1 1 0 0 0-1-1zM59 40h-2a1 1 0 0 1-1-1v-6a7.008 7.008 0 0 0-7-7h-3v6h3a1 1 0 0 1 1 1v6a7.008 7.008 0 0 0 7 7h2a1 1 0 0 0 1-1v-4a1 1 0 0 0-1-1zM8 21H5a1 1 0 0 0-1 1v4a1 1 0 0 0 1 1h3zM8 31H5a1 1 0 0 0-1 1v4a1 1 0 0 0 1 1h3z" fill="#ffffff" opacity="1" data-original="#000000"></path></g></svg>