<svg xmlns="http://www.w3.org/2000/svg" version="1.1" xmlns:xlink="http://www.w3.org/1999/xlink" width="512" height="512" x="0" y="0" viewBox="0 0 100 100" style="enable-background:new 0 0 512 512" xml:space="preserve" class=""><g><path d="M46.667 73.333C46.667 60.469 57.136 50 70 50V36.481a3.158 3.158 0 0 0-3.147-3.148H46.667v-4.72c2.979-1.731 5-4.919 5-8.613 0-5.524-4.473-10-10-10-5.521 0-10 4.476-10 10 0 3.691 2.024 6.882 5 8.613v4.72H16.481a3.161 3.161 0 0 0-3.148 3.148v20.186h4.721c1.731-2.976 4.922-5 8.613-5 5.523 0 10 4.479 10 10 0 5.527-4.477 10-10 10-3.691 0-6.882-2.021-8.613-5h-4.721v20.186A3.159 3.159 0 0 0 16.481 90h37.22c-4.333-4.238-7.034-10.14-7.034-16.667z" fill="#ffffff" opacity="1" data-original="#000000" class=""></path><path d="M70 56.667c-9.202 0-16.667 7.461-16.667 16.666C53.333 82.536 60.798 90 70 90s16.667-7.464 16.667-16.667c0-9.205-7.465-16.666-16.667-16.666zm10 19.166h-7.5v7.5h-5v-7.5H60v-5h7.5v-7.5h5v7.5H80z" fill="#ffffff" opacity="1" data-original="#000000" class=""></path></g></svg>