<svg xmlns="http://www.w3.org/2000/svg" version="1.1" xmlns:xlink="http://www.w3.org/1999/xlink" width="512" height="512" x="0" y="0" viewBox="0 0 463.848 463" style="enable-background:new 0 0 512 512" xml:space="preserve" class=""><g transform="matrix(0.9100000000000005,0,0,0.9100000000000005,20.873162384033066,110.83833953857416)"><path d="m103.848 224.426 12 16h20l-12-16zM287.848 120.426c-67.88 0-123.434 53.148-127.59 120h15.87c4.118-58.043 52.657-104 111.72-104s107.601 45.957 111.718 104h15.875c-4.16-66.852-59.714-120-127.593-120zM23.848 224.426l12 16h20l-12-16zM63.848 224.426l12 16h20l-12-16zM367.848 32.426h64v16h-64zm0 0" fill="#ffffff" opacity="1" data-original="#000000" class=""></path><path d="M455.848.426H265.734a68.12 68.12 0 0 0-30.308 7.16 84.245 84.245 0 0 1-37.473 8.84h-14.105c-10.297 0-19.106-6.516-22.504-15.64l-54.399 31.077C43.207 68.297 2.762 135.406 0 208.426h131.848l13.8 18.398c10.48-69.16 70.16-122.398 142.2-122.398 76.695 0 139.41 60.328 143.593 136h24.407c4.418 0 8-3.586 8-8v-224c0-4.41-3.582-8-8-8zM122.824 59.648c-44.289 25.32-75.945 68.504-86.847 118.489l-15.625-3.41c11.855-54.399 46.32-101.407 94.535-128.965l32.992-18.852 7.937 13.89zm325.024 4.778h-96v-48h96zm0 0" fill="#ffffff" opacity="1" data-original="#000000" class=""></path></g></svg>