<svg xmlns="http://www.w3.org/2000/svg" version="1.1" xmlns:xlink="http://www.w3.org/1999/xlink" width="512" height="512" x="0" y="0" viewBox="0 0 64 64" style="enable-background:new 0 0 512 512" xml:space="preserve" class=""><g><g data-name="Gear Stick"><rect width="24" height="4" x="20" y="44" rx="1" fill="#ffffff" opacity="1" data-original="#000000" class=""></rect><rect width="28" height="4" x="18" y="50" rx="1" fill="#ffffff" opacity="1" data-original="#000000" class=""></rect><rect width="32" height="4" x="16" y="56" rx="1" fill="#ffffff" opacity="1" data-original="#000000" class=""></rect><path d="m33.117 10 .747-5.972A5.97 5.97 0 0 0 33.336 4h-2.672a5.97 5.97 0 0 0-.528.028L30.883 10z" fill="#ffffff" opacity="1" data-original="#000000" class=""></path><path d="M37.834 6.03a5.998 5.998 0 0 0-2.018-1.493l-.824 6.587A1 1 0 0 1 34 12h-4a1 1 0 0 1-.992-.876l-.823-6.587a5.997 5.997 0 0 0-3.475 6.207l1.079 8.628A3.004 3.004 0 0 0 28.766 22h6.468a3.004 3.004 0 0 0 2.977-2.628l1.079-8.628a6.001 6.001 0 0 0-1.456-4.715zM28.863 24l-.819 18h7.912l-.819-18z" fill="#ffffff" opacity="1" data-original="#000000" class=""></path></g></g></svg>