<svg xmlns="http://www.w3.org/2000/svg" version="1.1" xmlns:xlink="http://www.w3.org/1999/xlink" width="512" height="512" x="0" y="0" viewBox="0 0 492.031 492.031" style="enable-background:new 0 0 512 512" xml:space="preserve"><g transform="matrix(0.9000000000000005,0,0,0.9000000000000005,24.601541137695193,24.601600646972486)"><path d="M157.551 88.436c-87.313 0-157.881 70.853-157.55 158.2.33 86.55 71.85 156.96 159.44 156.96h73.83c39.62-100.7 39.62-214.46 0-315.16h-75.72z" fill="#ffffff" opacity="1" data-original="#000000"></path><path d="M265.371 88.436c18.48 50.56 27.83 103.46 27.83 157.58s-9.35 107.02-27.83 157.58h36.339c6.278 0 11.922-3.898 14.075-9.795 34.668-94.968 34.668-200.602 0-295.57-2.153-5.897-7.797-9.795-14.075-9.795h-36.339zM369.147 121.872h87.14c8.284 0 15-6.716 15-15s-6.716-15-15-15h-87.14c-8.284 0-15 6.716-15 15s6.716 15 15 15zM374.891 199.635c0 8.284 6.716 15 15 15h87.14c8.284 0 15-6.716 15-15s-6.716-15-15-15h-87.14c-8.284 0-15 6.716-15 15zM477.031 277.397h-87.14c-8.284 0-15 6.716-15 15s6.716 15 15 15h87.14c8.284 0 15-6.716 15-15s-6.715-15-15-15zM456.287 370.159h-87.14c-8.284 0-15 6.716-15 15s6.716 15 15 15h87.14c8.284 0 15-6.716 15-15s-6.716-15-15-15z" fill="#ffffff" opacity="1" data-original="#000000"></path></g></svg>