<svg xmlns="http://www.w3.org/2000/svg" version="1.1" xmlns:xlink="http://www.w3.org/1999/xlink" width="512" height="512" x="0" y="0" viewBox="0 0 304.002 304.002" style="enable-background:new 0 0 512 512" xml:space="preserve"><g transform="matrix(0.9000000000000001,0,0,0.9000000000000001,15.200100708007852,15.200099945068274)"><path d="M89.437 181.878c1.973 25.161 23.472 39.038 48.39 39.043 35.139.011 51.196-42.305 81.405-54.069 18.237-.554 34.041-.544 45.666-.373 8.378 6.7 22.752 11.133 39.104 11.133v-49.451c-14.835 0-28.034 3.648-36.614 9.333-58.85.992-242.94-1.558-267.388-71.212V237.72c9.906-28.227 46.046-45.423 89.437-55.842zm106.451-14.032c-6.555 4.961-12.53 10.802-18.589 17.191-7.736 8.15-15.312 15.747-25.163 21.396-21.924 12.583-50.924-2.423-52.159-26.926 31.342-6.597 65.521-9.999 95.911-11.661z" fill="#ffffff" opacity="1" data-original="#000000"></path></g></svg>