<svg xmlns="http://www.w3.org/2000/svg" version="1.1" xmlns:xlink="http://www.w3.org/1999/xlink" width="512" height="512" x="0" y="0" viewBox="0 0 50 50" style="enable-background:new 0 0 512 512" xml:space="preserve"><g transform="matrix(0.9,0,0,0.9,2.5000426054000826,2.4999358296394263)"><path d="M24.44 13.805c.36-.09.74.05 1.01.31l.02.02-.34.338c-.24.25-.24.65 0 .9l.48.48 2.25-2.24-.48-.48a.634.634 0 0 0-.9 0l-.337.334-.063-.062c-.25-.25-.37-.61-.28-.94.17-.64.01-1.35-.49-1.85-.88-.88-2.42-.71-3.05.5-.28.53-.28 1.18 0 1.71.46.86 1.37 1.19 2.18.98zm-1.18-2.55c.39-.39 1.02-.39 1.42 0 .39.39.39 1.03 0 1.42-.39.39-1.03.39-1.42 0-.39-.39-.39-1.03 0-1.42zM33.46 4.775c.37-.09.75.05 1.02.32l.019.019-.34.34c-.25.25-.25.65 0 .89l.48.48 2.25-2.24-.48-.48a.634.634 0 0 0-.9 0l-.335.335-.064-.064a.971.971 0 0 1-.28-.94c.17-.64.01-1.35-.49-1.84-.88-.89-2.42-.72-3.06.49-.27.53-.27 1.18.01 1.71.46.87 1.37 1.19 2.17.98zm-1.17-2.55a.996.996 0 0 1 1.41 0c.39.4.39 1.03 0 1.42a.996.996 0 0 1-1.41 0c-.39-.39-.39-1.03 0-1.42zM43.9 1.013a.63.63 0 0 0-.57.17l-.77.77c2.14.97 4.52 3.35 5.49 5.48l.76-.76c.15-.15.22-.37.18-.58-.35-1.86-3.23-4.73-5.09-5.08zM13.3 32.213c1.76.9 3.6 2.77 4.45 4.52l9.72-9.72-4.48-4.48zM11.63 33.173a.635.635 0 0 0-.57.18l-1.67 1.73c1.32.34 2.52 1.03 3.51 2.02.99.99 1.65 2.17 2 3.43l1.64-1.7c.15-.15.22-.36.18-.57-.35-1.86-3.23-4.74-5.09-5.09zM2.858 38.163a6.35 6.35 0 0 0 0 8.977c2.478 2.478 6.5 2.478 8.978 0s2.478-6.5 0-8.977a6.35 6.35 0 0 0-8.978 0zm6.284 6.284a2.538 2.538 0 1 1-3.59-3.591 2.538 2.538 0 1 1 3.59 3.591zM41.424 3.11a1.258 1.258 0 0 0-1.269.32L23.977 19.608a1.27 1.27 0 0 0 0 1.796l4.619 4.619a1.27 1.27 0 0 0 1.795 0l16.18-16.179c.331-.332.463-.821.32-1.269-.654-2.037-3.43-4.812-5.467-5.466z" fill="#ffffff" opacity="1" data-original="#000000"></path></g></svg>