<svg xmlns="http://www.w3.org/2000/svg" version="1.1" xmlns:xlink="http://www.w3.org/1999/xlink" width="512" height="512" x="0" y="0" viewBox="0 0 512 512" style="enable-background:new 0 0 512 512" xml:space="preserve" class=""><g transform="matrix(0.9000000000000002,0,0,0.9000000000000002,25.600051498412995,25.60005111694332)"><path d="M373.492 229.763c-6.107 0-9.706 3.38-9.706 10.905v28.898c0 7.524 3.6 10.905 9.706 10.905s9.815-3.381 9.815-10.905v-28.898c0-7.525-3.708-10.905-9.815-10.905zM435.539 229.763c-6.107 0-9.706 3.38-9.706 10.905v28.898c0 7.524 3.6 10.905 9.706 10.905s9.815-3.381 9.815-10.905v-28.898c0-7.525-3.708-10.905-9.815-10.905zM311.445 229.763c-6.107 0-9.706 3.38-9.706 10.905v28.898c0 7.524 3.6 10.905 9.706 10.905s9.815-3.381 9.815-10.905v-28.898c0-7.525-3.707-10.905-9.815-10.905z" fill="#ffffff" opacity="1" data-original="#000000" class=""></path><path d="M460.688 164.532H51.312C23.019 164.532 0 187.55 0 215.843v80.314c0 28.293 23.019 51.312 51.312 51.312h409.377c28.293 0 51.312-23.019 51.312-51.312v-80.314c-.001-28.293-23.02-51.311-51.313-51.311zm-339.66 16.732c6.161 0 11.155 4.994 11.155 11.155s-4.994 11.155-11.155 11.155-11.155-4.994-11.155-11.155c.001-6.161 4.995-11.155 11.155-11.155zm-20.017 112.294L85.09 266.513l-15.922 27.044c-.763 1.199-2.29 1.745-4.035 1.745-4.688 0-11.341-3.708-11.341-8.397 0-.982.327-1.963.982-3.053l18.866-29.117-18.103-29.008c-.764-1.199-1.091-2.29-1.091-3.381 0-4.579 6.215-8.069 11.014-8.069 2.398 0 4.035.872 5.126 2.836l14.503 25.301 14.504-25.301c1.091-1.963 2.726-2.836 5.126-2.836 4.799 0 11.014 3.49 11.014 8.069 0 1.092-.327 2.182-1.091 3.381l-18.103 29.008 18.866 29.117c.654 1.091.982 2.071.982 3.053 0 4.689-6.653 8.397-11.342 8.397-1.744 0-3.379-.545-4.034-1.744zm20.017 38.294c-6.161 0-11.155-4.994-11.155-11.155s4.994-11.155 11.155-11.155 11.155 4.994 11.155 11.155-4.994 11.155-11.155 11.155zm59.807-108.742-22.466 37.405a2.821 2.821 0 0 0-.436 1.526v27.372c0 3.489-4.253 5.234-8.507 5.234s-8.505-1.745-8.505-5.234v-27.372c0-.654-.218-1.199-.437-1.526l-22.573-37.405c-.219-.436-.219-.872-.219-1.199 0-4.035 6.87-6.979 11.56-6.979 2.726 0 3.708 1.091 4.907 3.162l15.267 28.026 15.158-28.026c1.092-2.071 2.182-3.162 4.907-3.162 4.689 0 11.56 2.945 11.56 6.979.003.326.003.763-.216 1.199zm53.107 71.538h-46.455c-3.49 0-4.907-1.854-4.907-4.471 0-1.745.655-3.926 1.854-5.999l30.752-54.416h-25.301c-3.272 0-5.126-3.49-5.126-7.416 0-3.599 1.527-7.415 5.126-7.415h42.094c3.272 0 4.906 1.854 4.906 4.472 0 1.744-.654 3.816-1.853 5.998l-30.752 54.416h29.661c3.273 0 5.127 3.926 5.127 7.416-.001 3.489-1.855 7.415-5.126 7.415zm104.331-25.082c0 18.757-11.778 25.736-26.827 25.736s-26.718-6.979-26.718-25.736v-28.898c0-18.757 11.669-25.736 26.718-25.736s26.827 6.979 26.827 25.736v28.898zm8.502 0v-28.898c0-18.757 11.669-25.736 26.718-25.736s26.827 6.979 26.827 25.736v28.898c0 18.757-11.778 25.736-26.827 25.736s-26.718-6.978-26.718-25.736zm44.197 62.286c-6.161 0-11.155-4.994-11.155-11.155s4.994-11.155 11.155-11.155 11.155 4.994 11.155 11.155c-.001 6.161-4.995 11.155-11.155 11.155zm0-128.279c-6.161 0-11.155-4.994-11.155-11.155s4.994-11.155 11.155-11.155 11.155 4.994 11.155 11.155c-.001 6.161-4.995 11.155-11.155 11.155zm71.394 65.993c0 18.757-11.778 25.736-26.827 25.736-15.049 0-26.718-6.979-26.718-25.736v-28.898c0-18.757 11.669-25.736 26.718-25.736s26.827 6.979 26.827 25.736v28.898z" fill="#ffffff" opacity="1" data-original="#000000" class=""></path></g></svg>