<svg xmlns="http://www.w3.org/2000/svg" version="1.1" xmlns:xlink="http://www.w3.org/1999/xlink" width="512" height="512" x="0" y="0" viewBox="0 0 32 32" style="enable-background:new 0 0 512 512" xml:space="preserve" class=""><g transform="matrix(0.9500000000000005,0,0,0.9500000000000005,0.7999999999999918,0.7999999999999918)"><linearGradient id="a" x1="27.035" x2="4.793" y1="27.207" y2="4.964" gradientUnits="userSpaceOnUse"><stop stop-opacity="1" stop-color="#ffffff" offset="0.08301158301158301"></stop><stop stop-opacity="1" stop-color="#ffffff" offset="1"></stop></linearGradient><path fill="url(#a)" d="M29 19H3a1 1 0 0 1-1-1v-4a1 1 0 0 1 1-1h26a1 1 0 0 1 1 1v4a1 1 0 0 1-1 1zM4 17h24v-2H4zm13-9V4a1 1 0 0 0-2 0v4a1 1 0 0 0 2 0zm7.707 1.707 2.828-2.829a1 1 0 1 0-1.414-1.414l-2.828 2.829a1 1 0 1 0 1.414 1.414zm-19 17 2.829-2.829a1 1 0 0 0-1.414-1.414l-2.829 2.829a1 1 0 1 0 1.414 1.414zm2.829-17a1 1 0 0 0 0-1.414L5.707 5.464a1 1 0 0 0-1.414 1.414l2.829 2.829a1 1 0 0 0 1.414 0zm19 17a1 1 0 0 0 0-1.414l-2.828-2.829a1 1 0 0 0-1.414 1.414l2.828 2.829a1 1 0 0 0 1.414 0zM17 28v-4a1 1 0 0 0-2 0v4a1 1 0 0 0 2 0z" data-name="18 - neon" opacity="1" data-original="url(#a)" class=""></path></g></svg>