<svg xmlns="http://www.w3.org/2000/svg" version="1.1" xmlns:xlink="http://www.w3.org/1999/xlink" width="512" height="512" x="0" y="0" viewBox="0 0 512 512" style="enable-background:new 0 0 512 512" xml:space="preserve"><g transform="matrix(0.9000000000000005,0,0,0.9000000000000005,25.60004882812484,25.60014877319321)"><path fill-rule="evenodd" d="M278.472 155.237h48.153a10.365 10.365 0 0 1 10.344 10.344v11.768a10.365 10.365 0 0 0 10.344 10.344h6.664a10.364 10.364 0 0 0 10.344-10.344c0-4.917 1.322-8.788 6.211-10.919a10.157 10.157 0 0 1 11.174 1.9l17.24 16.019c-20.377 1.237-38.7 4.941-52.8 10.288-19.542 7.414-31.628 18.449-31.628 31.348v87.378h-34.3a11.594 11.594 0 0 1 2.816-12.173 21.661 21.661 0 0 0 0-30.621q-8.238-8.241-16.479-16.479a21.662 21.662 0 0 0-30.623 0 11.782 11.782 0 0 1-20.12-8.334 21.659 21.659 0 0 0-21.652-21.653h-23.3a21.66 21.66 0 0 0-21.653 21.653 11.782 11.782 0 0 1-20.121 8.334 21.659 21.659 0 0 0-30.621 0q-8.241 8.238-16.479 16.478a21.572 21.572 0 0 0-6.3 14.138h-2.821a10.365 10.365 0 0 1-10.344-10.344v-118.63a10.364 10.364 0 0 1 10.344-10.344H91.69a10.141 10.141 0 0 0 9.338-5.894l4.984-10.459a10.142 10.142 0 0 1 9.338-5.893h125.8c4.085 0 6.577 2.886 9.338 5.894l18.643 20.307c2.762 3.008 5.253 5.894 9.338 5.894zm156.736 68.311c-5.3-2.01-12.782-3.253-21.2-3.253s-15.9 1.243-21.2 3.253c-3.25 1.233-5.26 2.144-5.26 2.441s2.01 1.207 5.26 2.44c5.3 2.009 12.782 3.252 21.2 3.252s15.9-1.243 21.2-3.252c3.25-1.233 5.26-2.144 5.26-2.44s-2.01-1.208-5.26-2.441zm41.742-16.1c-15.98-6.062-38.222-9.812-62.939-9.812s-46.959 3.75-62.939 9.812c-13.933 5.286-22.551 11.8-22.551 18.278s8.618 12.991 22.551 18.277c15.98 6.062 38.223 9.812 62.939 9.812s46.959-3.75 62.939-9.812c13.933-5.286 22.551-11.8 22.551-18.277s-8.618-12.99-22.551-18.276zm-36.82 33.788c-6.812 2.584-16.057 4.182-26.119 4.182s-19.307-1.6-26.118-4.182c-8.859-3.361-14.339-8.8-14.339-15.51s5.48-12.15 14.338-15.511c6.812-2.584 16.057-4.183 26.119-4.183s19.307 1.6 26.119 4.183c8.858 3.361 14.338 8.8 14.338 15.511s-5.48 12.151-14.338 15.512zm11.71 196.915a155.926 155.926 0 0 0 16.83-3.893V295.381c-5.261 1.394-10.9 2.592-16.83 3.569v139.2zm-30.829 3.05a230.308 230.308 0 0 0 16.829-1.1V300.778c-5.444.535-11.069.89-16.829 1.05V441.2zm-30.83-1.1c5.413.562 11.04.936 16.83 1.1V301.828c-5.76-.16-11.386-.515-16.83-1.05V440.1zm109.32-4.612v11.576c0 6.481-8.618 12.992-22.551 18.277-15.98 6.063-38.222 9.813-62.939 9.813s-46.959-3.75-62.939-9.813c-13.933-5.285-22.551-11.8-22.551-18.277v-11.579c21.8 15.459 59.8 19.817 85.49 19.817s63.691-4.358 85.49-19.817zm0-153.378a77.981 77.981 0 0 1-16.831 8.768v138.24c10.532-4.8 16.831-10.361 16.831-15.9V282.108zm-154.15 147.005v-138.24a78.017 78.017 0 0 1-16.83-8.768v131.106c0 5.541 6.3 11.1 16.83 15.9zM499.5 248.26c-21.8 15.459-59.8 19.818-85.49 19.818s-63.692-4.359-85.49-19.818v11.577c0 6.481 8.618 12.991 22.551 18.276 15.979 6.063 38.222 9.813 62.939 9.813s46.96-3.75 62.939-9.813c13.933-5.285 22.551-11.8 22.551-18.276zm-140.15 47.121v138.878a155.738 155.738 0 0 0 16.83 3.894V298.95c-5.934-.977-11.568-2.175-16.83-3.569zM470.118 70.61v4.613H494.5a5.01 5.01 0 0 1 5 5V86.5a5.01 5.01 0 0 1-5 5h-24.382v4.614a7.43 7.43 0 0 1-7.416 7.416h-25.266V63.193H462.7a7.431 7.431 0 0 1 7.416 7.417zm-46.682-28.762v83.021a5.009 5.009 0 0 1-5 5H404.6a5.01 5.01 0 0 1-5-5V41.848a5.01 5.01 0 0 1 5-5h13.833a5.009 5.009 0 0 1 5 5zm-75.663 67.094h-8.8v-51.16h8.8zm-22.8 0h-10.2v-51.16h10.2zm-34.72-3.571h-18.22A16.892 16.892 0 0 1 255.162 88.5v-5.427a7 7 0 0 1 14 0V88.5a2.888 2.888 0 0 0 2.871 2.872h17.142v-1.01h-10.384a7 7 0 0 1 0-14h10.384V65.2a7.431 7.431 0 0 1 7.417-7.416h4.183v51.16h-4.183a7.4 7.4 0 0 1-6.337-3.571zm95.35-52.142v60.259a5.01 5.01 0 0 1-5 5h-13.83a5.01 5.01 0 0 1-5-5V53.229a5.01 5.01 0 0 1 5-5h13.832a5.01 5.01 0 0 1 5 5zm-94.235 282.085c-22.944 0-34.456-27.8-18.233-44.019a7.657 7.657 0 0 0 0-10.825l-16.477-16.477a7.657 7.657 0 0 0-10.825 0c-16.222 16.223-44.018 4.711-44.018-18.233a7.653 7.653 0 0 0-7.653-7.653h-23.3a7.652 7.652 0 0 0-7.652 7.653c0 22.944-27.8 34.456-44.02 18.233a7.654 7.654 0 0 0-10.823 0l-16.48 16.477a7.657 7.657 0 0 0 0 10.825c16.223 16.223 4.712 44.019-18.233 44.019A7.653 7.653 0 0 0 66 342.967v23.3a7.653 7.653 0 0 0 7.653 7.653c22.945 0 34.456 27.8 18.233 44.019a7.655 7.655 0 0 0 0 10.824l16.478 16.477a7.654 7.654 0 0 0 10.823 0c16.244-16.244 44.02-4.739 44.02 18.233a7.652 7.652 0 0 0 7.652 7.653h23.3a7.653 7.653 0 0 0 7.653-7.653c0-22.944 27.8-34.456 44.018-18.233a7.657 7.657 0 0 0 10.825 0l16.477-16.477a7.655 7.655 0 0 0 0-10.824c-16.223-16.223-4.711-44.019 18.233-44.019a7.653 7.653 0 0 0 7.653-7.653v-23.3a7.653 7.653 0 0 0-7.65-7.653zM182.511 410.6a55.979 55.979 0 1 1 55.979-55.979 55.979 55.979 0 0 1-55.979 55.979zM12.5 158.9a7 7 0 0 1 14 0v49.147h22.021v14H26.5V271.2a7 7 0 0 1-14 0zm215.734-82.751a7 7 0 1 1 0 14h-34.315v18.994h-14V90.148H145.6a7 7 0 1 1 0-14z" fill="#ffffff" opacity="1" data-original="#000000"></path></g></svg>