<svg xmlns="http://www.w3.org/2000/svg" version="1.1" xmlns:xlink="http://www.w3.org/1999/xlink" width="512" height="512" x="0" y="0" viewBox="0 0 16.933 16.933" style="enable-background:new 0 0 512 512" xml:space="preserve" class=""><g transform="matrix(0.8000000000000006,0,0,0.8000000000000006,1.6933145642280518,1.6934343099594056)"><path d="M2.355.53a.265.265 0 0 0-.162.451L3.97 2.755v.576l-.639.638h-.574L.98 2.194a.265.265 0 0 0-.45.187V4.5a.265.265 0 0 0 .077.185L1.93 6.008a.265.265 0 0 0 .187.077h2.006l2.272 2.271 1.962-1.961-2.271-2.272V2.116a.265.265 0 0 0-.078-.186L4.686.606A.265.265 0 0 0 4.498.53H2.38a.265.265 0 0 0-.026 0zm12.961 0a.272.272 0 0 0-.09.027L12.582 1.88a.265.265 0 0 0-.147.237v.95L6.46 9.04l1.432 1.434 5.975-5.975h.95c.1 0 .191-.058.236-.147l1.324-2.646a.265.265 0 0 0-.05-.305l-.794-.795a.265.265 0 0 0-.217-.076zM10.54 8.576 8.577 10.54l2.27 2.27v2.008a.265.265 0 0 0 .079.187l1.322 1.323a.265.265 0 0 0 .187.078h2.118a.265.265 0 0 0 .185-.453l-1.773-1.774v-.574l.638-.64h.575l1.775 1.775a.265.265 0 0 0 .451-.188v-2.115a.265.265 0 0 0-.078-.187l-1.322-1.325a.265.265 0 0 0-.188-.076h-2.005zm-4.986.418a.265.265 0 0 0-.184.078l-.607.608 2.49 2.49.607-.607a.265.265 0 0 0 0-.373L5.744 9.072a.265.265 0 0 0-.191-.078zm-1.165 1.06L1.092 13.35c-.718.718-.76 1.864-.067 2.557.693.693 1.84.65 2.557-.067l3.296-3.296z" fill="#ffffff" opacity="1" data-original="#000000" class=""></path></g></svg>