<svg xmlns="http://www.w3.org/2000/svg" version="1.1" xmlns:xlink="http://www.w3.org/1999/xlink" width="512" height="512" x="0" y="0" viewBox="0 0 512 512" style="enable-background:new 0 0 512 512" xml:space="preserve" class=""><g transform="matrix(-1.0499999999999996,-2.571758278209441e-16,-2.571758278209441e-16,1.0499999999999996,524.7999843597413,-12.800652885436705)"><path d="M325.8 442.1v22.2c0 1.1-.8 1.8-1.8 1.8H160.4c-1.1 0-1.8-.8-1.8-1.8v-22.2zM325.8 204v228.3H158.6v-35.5h104.5c4 0 7.2-3.1 7.1-7.1v-143c0-4-3.1-7.1-7.1-7.1H158.6V204zM325.4 194.2H159c2.4-13.5 14.1-23.8 28.4-23.9h109.5c14.2 0 26.1 10.3 28.5 23.9zM291.8 145.9v14.6h-99.5v-14.6H280.9zM276 120.2v15.9h-67.9v-15.9h57.2zM260.4 100.9v9.5h-36.6V63.5h36.6v9.6h-11.9c-4.7 0-8.6 3.9-8.6 8.6v10.6c0 4.7 3.9 8.6 8.6 8.6z" fill="#ffffff" opacity="1" data-original="#000000" class=""></path><path d="M249.7 82.9h10.7v8.3h-10.7zM158.6 249.4h101.9V387H158.6zM353.1 49.2c.9 2.6-.5 5.3-3 6.2l-12.6 4.3c-.5.2-1.1.3-1.6.3-2 0-3.9-1.3-4.6-3.3-.9-2.6.5-5.3 3-6.2l12.6-4.3c2.6-.9 5.3.5 6.2 3zM350.1 118.5c2.6.9 3.9 3.6 3 6.2-.6 2-2.5 3.3-4.6 3.3-.5 0-1.1-.1-1.6-.3l-12.6-4.3c-2.6-.9-3.9-3.6-3-6.2s3.6-3.9 6.2-3zM348.5 82c2.7 0 4.9 2.2 4.9 4.9s-2.2 4.9-4.9 4.9h-12.6c-2.7 0-4.9-2.2-4.9-4.9s2.2-4.9 4.9-4.9zM317.3 82c2.7 0 4.9 2.2 4.9 4.9-.1 2.7-2.2 4.9-4.9 4.9h-12.8c-2.7 0-4.9-2.2-4.9-4.9s2.2-4.9 4.9-4.9zM317.4 61.6c.9 2.6-.5 5.3-3.1 6.2l-11.9 4c-.5.1-1 .2-1.6.2-2 0-3.9-1.3-4.6-3.3-.9-2.6.5-5.3 3.1-6.2l11.9-4c2.6-.9 5.3.5 6.2 3.1zM314.3 106.1c2.6.9 3.9 3.6 3.1 6.2-.7 2.1-2.6 3.4-4.6 3.4-.5 0-1-.1-1.6-.3l-11.9-4c-2.6-.9-3.9-3.6-3.1-6.2.9-2.6 3.6-3.9 6.2-3.1z" fill="#ffffff" opacity="1" data-original="#000000" class=""></path></g></svg>