<svg xmlns="http://www.w3.org/2000/svg" version="1.1" xmlns:xlink="http://www.w3.org/1999/xlink" width="512" height="512" x="0" y="0" viewBox="0 0 56 68" style="enable-background:new 0 0 512 512" xml:space="preserve"><g transform="matrix(0.8700000000000008,0,0,0.8700000000000008,3.6400127609516204,4.419999875996613)"><path fill-rule="evenodd" d="m44 30.218 11.47 12.425a2 2 0 1 1-2.94 2.714L44 36.115v10.876A4.005 4.005 0 0 1 40 51H16c-2.209 0-4-1.794-4-4.009V36.115l-8.53 9.242a2 2 0 1 1-2.94-2.714L12 30.218v-.693c.03-.087.053-.177.07-.269A4.005 4.005 0 0 1 16 26h24c1.93 0 3.576 1.38 3.93 3.257.018.092.041.182.07.268v.693Zm0 31.779A6.001 6.001 0 0 1 37.996 68H18.004A6.006 6.006 0 0 1 12 61.997v-8.068A7.958 7.958 0 0 0 16 55h24c1.457 0 2.823-.39 4-1.072v8.069ZM12 6.003A6.001 6.001 0 0 1 18.004 0h19.992A6.006 6.006 0 0 1 44 6.003v17.07A7.97 7.97 0 0 0 40 22H16c-1.45 0-2.818.389-4 1.073V6.003Z" fill="#ffffff" opacity="1" data-original="#000000"></path></g></svg>