<svg xmlns="http://www.w3.org/2000/svg" version="1.1" xmlns:xlink="http://www.w3.org/1999/xlink" width="512" height="512" x="0" y="0" viewBox="0 0 64 64" style="enable-background:new 0 0 512 512" xml:space="preserve"><g><g data-name="Side Mirror"><path d="M29 20c-6.065 0-11 5.383-11 12s4.935 12 11 12c14.732 0 25-6.324 25-12S43.732 20 29 20zm-3 15a1 1 0 0 1-.707-1.707l8-8a1 1 0 0 1 1.414 1.414l-8 8A.997.997 0 0 1 26 35zm2.707 3.707a1 1 0 0 1-1.414-1.414l12-12a1 1 0 0 1 1.414 1.414zm14-8-8 8a1 1 0 0 1-1.414-1.414l8-8a1 1 0 0 1 1.414 1.414zM8 38H5a1 1 0 0 0-1 1v10a1 1 0 0 0 1 1h3z" fill="#ffffff" opacity="1" data-original="#000000"></path><path d="M29 14c-9.374 0-17 8.075-17 18a18.715 18.715 0 0 0 .98 6H10v12h19c17.383 0 31-7.907 31-18S46.383 14 29 14zm0 32c-7.168 0-13-6.28-13-14s5.832-14 13-14c16.677 0 27 7.267 27 14S45.677 46 29 46z" fill="#ffffff" opacity="1" data-original="#000000"></path></g></g></svg>