<svg xmlns="http://www.w3.org/2000/svg" version="1.1" xmlns:xlink="http://www.w3.org/1999/xlink" width="512" height="512" x="0" y="0" viewBox="0 0 64 64" style="enable-background:new 0 0 512 512" xml:space="preserve" class=""><g><rect width="4" height="18" x="4" y="20" rx="1" fill="#ffffff" opacity="1" data-original="#000000"></rect><rect width="4" height="18" x="56" y="20" rx="1" fill="#ffffff" opacity="1" data-original="#000000"></rect><path d="M10 32h44v4H10zM10 22h44v8H10zM14 38v5a1 1 0 0 0 1 1h4a1 1 0 0 0 1-1v-5zM44 38v5a1 1 0 0 0 1 1h4a1 1 0 0 0 1-1v-5z" fill="#ffffff" opacity="1" data-original="#000000"></path></g></svg>