<svg xmlns="http://www.w3.org/2000/svg" version="1.1" xmlns:xlink="http://www.w3.org/1999/xlink" width="512" height="512" x="0" y="0" viewBox="0 0 450 450" style="enable-background:new 0 0 512 512" xml:space="preserve"><g><path d="M440 186.58v166.48c0 6.56-4.18 12.14-10.01 14.24V172.35c5.83 2.09 10.01 7.68 10.01 14.23zM419.75 339.66v28.53h-31.33v-38.48zM419.75 300.01v28.91l-31.33-9.95v-28.91zM419.75 171.45v38.5l-31.33-9.94v-28.56zM419.75 220.7v28.91l-31.33-9.94v-28.92zM419.75 260.36v28.9l-31.33-9.95v-28.9zM378.18 172.36v194.93c-5.83-2.1-10.01-7.68-10.01-14.23V186.58c0-6.54 4.18-12.13 10.01-14.22zM333.79 245.11h24.15v49.42h-24.15zM323.55 257.07v25.5h-53.71c1.41-3.99 2.17-8.28 2.17-12.75s-.76-8.76-2.17-12.75zM81.83 186.58v166.48c0 6.55-4.18 12.13-10.01 14.23V172.36c5.83 2.09 10.01 7.68 10.01 14.22zM20.01 367.3C14.18 365.2 10 359.62 10 353.06V186.58c0-6.55 4.18-12.14 10.01-14.24zM61.58 339.66v28.53H30.25v-38.48zM61.58 300v28.92l-31.33-9.96v-28.9zM61.58 171.45v38.5L30.25 200v-28.55zM61.58 220.69v28.92l-31.33-9.95v-28.91zM61.58 260.35v28.91l-31.33-9.96v-28.89zM92.06 245.11h24.15v49.42H92.06zM177.99 269.82c0 4.47.76 8.76 2.17 12.75h-53.71v-25.5h53.71a38.185 38.185 0 0 0-2.17 12.75zM261.78 269.82c0 5.44-1.54 10.52-4.2 14.83-.14.18-.27.39-.39.6-5.04 7.77-13.81 12.91-23.75 12.91h-16.88c-9.94 0-18.71-5.14-23.75-12.91a5.16 5.16 0 0 0-.39-.6c-2.66-4.31-4.2-9.39-4.2-14.83 0-5.45 1.55-10.55 4.24-14.88.12-.17.25-.36.35-.54 5.04-7.77 13.81-12.91 23.75-12.91h16.88c9.94 0 18.71 5.14 23.75 12.91.11.18.23.37.35.54a28.11 28.11 0 0 1 4.24 14.88zM304.34 130.53c1.37-2.36.63-5.38-1.67-6.87-26-16.66-52.13-25.13-77.67-25.16h-.15c-25.63 0-51.72 8.46-77.55 25.15-2.29 1.47-3.02 4.49-1.66 6.86l3.43 5.93-20.84-.01-20.83.01 20.83-36.08 3.91 6.77a5.184 5.184 0 0 0 3.22 2.42c1.35.33 2.78.09 3.96-.66 28.17-17.96 56.92-27.07 85.48-27.07h.18c28.55.04 57.38 9.15 85.7 27.08 1.18.75 2.61.98 3.96.64a5.103 5.103 0 0 0 3.2-2.41l3.91-6.78 20.84 36.08-41.67-.01z" fill="#ffffff" opacity="1" data-original="#000000"></path></g></svg>