<svg xmlns="http://www.w3.org/2000/svg" version="1.1" xmlns:xlink="http://www.w3.org/1999/xlink" width="512" height="512" x="0" y="0" viewBox="0 0 64 64" style="enable-background:new 0 0 512 512" xml:space="preserve"><g><g data-name="Steering Wheel"><path d="M32 4a28 28 0 1 0 28 28A28.031 28.031 0 0 0 32 4Zm0 8a19.93 19.93 0 0 1 19.06 14H44.5L43 24a5.024 5.024 0 0 0-4-2H25a5.023 5.023 0 0 0-4 2l-1.5 2h-6.56A19.931 19.931 0 0 1 32 12Zm-5 39.364a19.98 19.98 0 0 1-14.573-15.358A15.018 15.018 0 0 1 27 51ZM32 40a6 6 0 1 1 6-6 6.007 6.007 0 0 1-6 6Zm5 11.364V51a15.019 15.019 0 0 1 14.573-14.994A19.978 19.978 0 0 1 37 51.364Z" fill="#ffffff" opacity="1" data-original="#000000"></path><circle cx="32" cy="34" r="4" fill="#ffffff" opacity="1" data-original="#000000"></circle></g></g></svg>