<svg xmlns="http://www.w3.org/2000/svg" version="1.1" xmlns:xlink="http://www.w3.org/1999/xlink" width="512" height="512" x="0" y="0" viewBox="0 0 53 53" style="enable-background:new 0 0 512 512" xml:space="preserve"><g transform="matrix(0.8999999999999998,0,0,0.8999999999999998,2.6499997615814195,2.6500253200531)"><path d="M46.445 39.829c2.56-3.81 4.05-8.4 4.05-13.33s-1.49-9.51-4.05-13.32l2.68-2.68c1.82-1.8 1.84-4.78 0-6.62a4.672 4.672 0 0 0-6.63 0l-2.02 2.03-.65.64c-3.81-2.55-8.39-4.04-13.32-4.04s-9.52 1.49-13.33 4.04l-2.67-2.67a4.68 4.68 0 0 0-6.63 0c-1.83 1.83-1.83 4.8 0 6.62l2.03 2.03.64.64c-2.55 3.81-4.04 8.4-4.04 13.33s1.49 9.52 4.05 13.33l-2.68 2.67c-1.84 1.83-1.82 4.82 0 6.63a4.708 4.708 0 0 0 6.63 0l2.03-2.04.64-.64c3.81 2.55 8.4 4.04 13.33 4.04 4.92 0 9.5-1.49 13.31-4.04l2.68 2.68a4.69 4.69 0 0 0 6.63 0 4.69 4.69 0 0 0 0-6.63zm-1.79-34c.69-.7 1.82-.7 2.52 0 .69.69.69 1.82 0 2.52-.69.69-1.83.69-2.52 0-.7-.7-.69-1.83 0-2.52zm-10.49.9c.12-.29.46-.43.75-.31 1.04.44 2.05.96 3 1.55.253.138.365.492.19.79-.216.333-.662.308-.79.18-.91-.55-1.86-1.05-2.84-1.46a.578.578 0 0 1-.31-.75zm-28.34 1.62c-.69-.7-.7-1.82 0-2.52s1.83-.7 2.52 0c.69.69.69 1.82 0 2.52-.7.69-1.82.69-2.52 0zm.06 17.84c-.01.32-.26.57-.58.57-.32 0-.58-.27-.57-.58a21.57 21.57 0 0 1 3.44-11.38 22.03 22.03 0 0 1 6.63-6.62c3.39-2.18 7.41-3.45 11.7-3.45 1.09 0 2.19.08 3.26.24.31.05.53.34.48.66-.04.31-.35.53-.65.48-1.02-.15-2.06-.23-3.09-.23-11.21 0-20.46 9.11-20.62 20.31zm2.46 20.98c-.69.7-1.82.7-2.52 0-.7-.69-.69-1.82 0-2.51.7-.7 1.82-.7 2.52 0 .69.69.69 1.82 0 2.51zm18.16-1.49c-10.58 0-19.19-8.6-19.19-19.18 0-10.57 8.61-19.18 19.19-19.18 10.57 0 19.18 8.61 19.18 19.18 0 10.58-8.61 19.18-19.18 19.18zm20.67 1.49c-.7.7-1.83.7-2.52 0-.69-.69-.7-1.81 0-2.51.69-.7 1.83-.7 2.52 0 .69.69.69 1.82 0 2.51z" fill="#ffffff" opacity="1" data-original="#000000"></path><path d="M26.505 8.819c-9.75 0-17.69 7.93-17.69 17.68s7.94 17.68 17.69 17.68 17.68-7.93 17.68-17.68-7.93-17.68-17.68-17.68zm-7.19 17.68c0-3.97 3.22-7.18 7.19-7.18a7.18 7.18 0 0 1 7.18 7.18c0 3.97-3.22 7.19-7.18 7.19-3.97 0-7.19-3.22-7.19-7.19zm21.57 4.85c-1.98 5.88-7.49 10.02-13.7 10.29-.01.01-.01.01-.02.01-.31 0-.56-.25-.58-.55-.01-.32.23-.59.55-.6 5.74-.26 10.83-4.08 12.66-9.52.11-.3.43-.46.73-.36.3.1.46.43.36.73zm.21-3.84h-.01a.578.578 0 0 1-.56-.59c0-.14.01-.28.01-.42 0-.99-.12-1.99-.33-2.99a.58.58 0 0 1 .44-.69c.31-.06.61.13.68.44.24 1.08.36 2.17.36 3.24 0 .15-.01.3-.01.45-.01.31-.26.56-.58.56z" fill="#ffffff" opacity="1" data-original="#000000"></path><path d="M23.486 22.056a.386.386 0 0 0-.539-.063 5.735 5.735 0 0 0-2.178 4.3.384.384 0 0 0 .37.396h.013a.384.384 0 0 0 .383-.37 4.966 4.966 0 0 1 1.888-3.724.385.385 0 0 0 .063-.54zM25.294 21.663a.385.385 0 0 0 .086-.01 5.042 5.042 0 0 1 1.114-.127.383.383 0 0 0-.001-.766c-.434 0-.866.05-1.285.146a.384.384 0 0 0 .086.757zM26.501 23.503a2.997 2.997 0 1 0-.001 5.995 2.997 2.997 0 0 0 .001-5.995z" fill="#ffffff" opacity="1" data-original="#000000"></path></g></svg>