<svg xmlns="http://www.w3.org/2000/svg" version="1.1" xmlns:xlink="http://www.w3.org/1999/xlink" width="512" height="512" x="0" y="0" viewBox="0 0 60 60" style="enable-background:new 0 0 512 512" xml:space="preserve" class=""><g transform="matrix(0.8100000000000003,0,0,0.8100000000000003,5.700047473907471,5.700095310211193)"><path d="M59 23.556h-1.072c-.342-1.593-1.504-2.929-3.435-3.895-1.467-.733-3.128-1.105-4.937-1.105h-11.51c-.016 0-.03.004-.046.004v-.004H10.489c-1.809 0-3.469.372-4.937 1.105-1.931.966-3.093 2.301-3.435 3.895H1a1 1 0 0 0 0 2h1l.001 8.054c.105 1.967 1.546 6.056 6.246 7.446a9.61 9.61 0 0 0 2.731.388c1.155 0 2.324-.194 3.476-.576C19.513 39.187 28 35.353 27.995 28.653c.01-.1.109-1.19.003-2.62 1.14-.863 2.922-.852 4.046.033a15.933 15.933 0 0 0 .002 2.491c0 6.797 8.487 10.631 13.546 12.312 1.151.382 2.32.576 3.476.576.941 0 1.86-.13 2.731-.388 4.699-1.391 6.141-5.479 6.247-7.5v-8H59a1 1 0 1 0 0-2.001zM7.707 28.263a.997.997 0 0 1-1.414 0 .999.999 0 0 1 0-1.414l4-4a.999.999 0 1 1 1.414 1.414l-4 4zm11-4-7 7a.997.997 0 0 1-1.414 0 .999.999 0 0 1 0-1.414l7-7a.999.999 0 1 1 1.414 1.414zm8.982-.351c-.265-1.187-.722-2.389-1.481-3.356h7.63c-.765.974-1.223 2.186-1.487 3.376a5.616 5.616 0 0 0-4.662-.02zM37 28.556a.999.999 0 0 1-.707-1.707l4-4a.999.999 0 1 1 1.414 1.414l-4 4a.997.997 0 0 1-.707.293zm11.707-4.293-7 7a.997.997 0 0 1-1.414 0 .999.999 0 0 1 0-1.414l7-7a.999.999 0 1 1 1.414 1.414z" fill="#ffffff" opacity="1" data-original="#000000" class=""></path></g></svg>