<svg xmlns="http://www.w3.org/2000/svg" version="1.1" xmlns:xlink="http://www.w3.org/1999/xlink" width="512" height="512" x="0" y="0" viewBox="0 0 64 64" style="enable-background:new 0 0 512 512" xml:space="preserve" class=""><g><path d="M40 32H24a2 2 0 0 0 0 4h16a2 2 0 0 0 0-4zM40 26H24a2 2 0 0 0 0 4h16a2 2 0 0 0 0-4zM40 20H24a2 2 0 0 0 0 4h16a2 2 0 0 0 0-4zM40 14H24a2 2 0 0 0 0 4h16a2 2 0 0 0 0-4zM39 12V5a1 1 0 0 0-1-1H26a1 1 0 0 0-1 1v7zM38 46a1 1 0 0 0 1-1v-7H25v7a1 1 0 0 0 1 1h3v.68a7 7 0 1 0 6 0V46zm-6 10a3 3 0 1 1 3-3 3.003 3.003 0 0 1-3 3z" fill="#ffffff" opacity="1" data-original="#000000" class=""></path></g></svg>