<svg xmlns="http://www.w3.org/2000/svg" version="1.1" xmlns:xlink="http://www.w3.org/1999/xlink" width="512" height="512" x="0" y="0" viewBox="0 0 512 512" style="enable-background:new 0 0 512 512" xml:space="preserve"><g transform="matrix(0.8000000000000013,0,0,0.8000000000000013,51.19995269775356,51.19999771118134)"><path d="M512 59.733c0-33.926-28.283-61.247-62.557-59.668-30.347 1.398-55.085 25.848-56.81 56.178-1.439 25.296 12.876 47.415 34.034 57.467v82.556c0 18.851-15.282 34.133-34.133 34.133h-82.556a59.963 59.963 0 0 0-28.377-28.377V113.71c21.158-10.053 35.473-32.171 34.034-57.467-1.725-30.33-26.463-54.78-56.81-56.178-34.274-1.578-62.557 25.742-62.557 59.668 0 23.827 13.954 44.39 34.133 53.977v88.313a59.963 59.963 0 0 0-28.377 28.377H85.333V113.71c21.158-10.053 35.473-32.171 34.034-57.467-1.725-30.33-26.463-54.78-56.81-56.178C28.283-1.513 0 25.807 0 59.733c0 23.827 13.954 44.39 34.133 53.977v284.579C12.975 408.342-1.34 430.46.099 455.756c1.725 30.33 26.463 54.78 56.81 56.178 34.274 1.578 62.557-25.742 62.557-59.668 0-23.827-13.954-44.39-34.133-53.977V281.6h116.689a59.963 59.963 0 0 0 28.377 28.377v88.313c-21.158 10.053-35.473 32.171-34.034 57.467 1.725 30.33 26.463 54.78 56.81 56.178 34.274 1.578 62.557-25.742 62.557-59.668 0-23.827-13.954-44.39-34.133-53.977v-88.313a59.963 59.963 0 0 0 28.377-28.377h82.556c47.128 0 85.333-38.205 85.333-85.333V113.71C498.046 104.123 512 83.56 512 59.733z" fill="#ffffff" opacity="1" data-original="#000000"></path></g></svg>