<svg xmlns="http://www.w3.org/2000/svg" version="1.1" xmlns:xlink="http://www.w3.org/1999/xlink" width="512" height="512" x="0" y="0" viewBox="0 0 464 464" style="enable-background:new 0 0 512 512" xml:space="preserve" class=""><g transform="matrix(0.8400000000000002,0,0,0.8400000000000002,58.279999999999916,37.11999999999995)"><path d="M288 248c4.406 0 8-3.586 8-8s-3.594-8-8-8h-16c-4.406 0-8 3.586-8 8s3.594 8 8 8zM241.223 32l5.336-32H169.44l5.336 32zm0 0" fill="#ffffff" opacity="1" data-original="#000000" class=""></path><path d="M83.09 179.246A7.992 7.992 0 0 0 90.398 184h235.204a8 8 0 0 0 7.308-4.754l23.867-53.695A37.236 37.236 0 0 0 360 110.359c0-3.48-.488-6.925-1.441-10.28l-20.84-72.934C333.152 11.168 318.352 0 301.734 0h-38.957l-2.664 16h39.664c10.79 0 20.32 7.273 23.16 17.688L342.113 104a23.99 23.99 0 0 1-1.687 17.047l-16.84 33.687C319.488 162.91 311.266 168 302.113 168H280v-16h22.113a7.953 7.953 0 0 0 7.153-4.426l16.84-33.687a8.01 8.01 0 0 0 .558-5.688l-19.176-70.312c-.937-3.461-4.113-5.887-7.71-5.887H257.44l-2.664 16h-93.554l-2.664-16h-42.336a8.021 8.021 0 0 0-7.72 5.887l-19.175 70.312a8.01 8.01 0 0 0 .559 5.688l16.84 33.687a7.973 7.973 0 0 0 7.16 4.426H264v16H113.887c-9.153 0-17.367-5.09-21.461-13.266l-16.84-33.687A23.971 23.971 0 0 1 73.895 104L93.07 33.687C95.902 23.273 105.434 16 116.223 16h39.664l-2.664-16h-38.957C97.648 0 82.848 11.168 78.28 27.145l-20.84 72.933A37.556 37.556 0 0 0 56 110.36c0 5.274 1.09 10.383 3.223 15.192zm63.254-80.902 32-32 11.312 11.312-32 32zm24 24 64-64 11.312 11.312-64 64zm67.312 3.312-11.312-11.312 32-32 11.312 11.312zM248 288v8h64v-8c0-13.23-10.77-24-24-24h-16c-13.23 0-24 10.77-24 24zM104 288v8h64v-8c0-13.23-10.77-24-24-24h-16c-13.23 0-24 10.77-24 24zM81.902 315.559l-7.597 11.394 3.976 13.902C82.848 356.832 97.648 368 114.266 368h187.476c16.617 0 31.418-11.168 35.985-27.145l4.144-14.488-7.2-10.808A8.032 8.032 0 0 0 328 312H88.559a7.984 7.984 0 0 0-6.657 3.559zM371.39 235.945a53.006 53.006 0 0 1 4.61 21.696c0 2.129-.191 4.246-.441 6.359H408v-18.336c0-2.473-.586-4.945-1.688-7.16l-43.511-87.113L348.313 184zM144 248c4.406 0 8-3.586 8-8s-3.594-8-8-8h-16c-4.406 0-8 3.586-8 8s3.594 8 8 8zm0 0" fill="#ffffff" opacity="1" data-original="#000000" class=""></path><path d="m347.61 306.266 10.956-38.344A37.85 37.85 0 0 0 360 257.64c0-5.274-1.09-10.383-3.223-15.192L336.68 197.23c-3.36 1.754-7.137 2.77-11.078 2.77H90.398c-3.941 0-7.71-1.016-11.078-2.777L59.223 242.44a37.3 37.3 0 0 0-3.223 15.2c0 3.48.488 6.925 1.441 10.28l11.102 38.849.059-.082c4.351-6.536 11.582-10.43 19.406-10.618V288c0-14.8 8.176-27.61 20.16-34.52A23.787 23.787 0 0 1 104 240c0-13.23 10.77-24 24-24h16c13.23 0 24 10.77 24 24a23.84 23.84 0 0 1-4.16 13.48C175.824 260.39 184 273.2 184 288v8h48v-8c0-14.8 8.176-27.61 20.16-34.52A23.84 23.84 0 0 1 248 240c0-13.23 10.77-24 24-24h16c13.23 0 24 10.77 24 24a23.84 23.84 0 0 1-4.16 13.48C319.824 260.39 328 273.2 328 288v8c7.855 0 15.113 3.848 19.61 10.266zM353.105 345.246c-6.52 22.817-27.64 38.754-51.37 38.754h-187.47c-23.73 0-44.85-15.938-51.363-38.754L62.543 344H8v16c0 30.871 25.121 56 56 56h288c30.879 0 56-25.129 56-56v-16h-54.543zM296 456c0 4.414 3.594 8 8 8h32c4.406 0 8-3.586 8-8v-24h-48zM371.754 280l-4.578 16H416v-16zM72 456c0 4.414 3.594 8 8 8h32c4.406 0 8-3.586 8-8v-24H72zM358.031 328H416v-16h-53.398zM40 257.64c0-7.527 1.55-14.831 4.61-21.695L67.687 184l-14.489-32.61-43.511 87.114A16.157 16.157 0 0 0 8 245.664V264h32.441c-.25-2.113-.441-4.23-.441-6.36zM53.398 312H0v16h57.969zM44.246 280H0v16h48.824zm0 0" fill="#ffffff" opacity="1" data-original="#000000" class=""></path></g></svg>