<svg xmlns="http://www.w3.org/2000/svg" version="1.1" xmlns:xlink="http://www.w3.org/1999/xlink" width="512" height="512" x="0" y="0" viewBox="0 0 512 512" style="enable-background:new 0 0 512 512" xml:space="preserve" class=""><g transform="matrix(0.8999999999999999,0,0,0.8999999999999999,25.600149631500244,25.600000000000023)"><path d="M60.53 116.365h-11.1v-63.9h91.886a237.358 237.358 0 0 0-64.582 45.983 241.236 241.236 0 0 0-16.204 17.917zm424.9-97.508a13.574 13.574 0 0 0-13.559 13.558v104a13.559 13.559 0 0 0 27.117 0v-104a13.573 13.573 0 0 0-13.561-13.558zm-446 45.03H13.015v41.053h26.416zm256.151 75.926a136.477 136.477 0 0 1 85.047 126.265c0 75.137-61.128 136.266-136.265 136.266S108.1 341.215 108.1 266.078s61.128-136.265 136.265-136.265h217.5v-90.8h-217.5C119.16 39.014 17.3 140.874 17.3 266.078s101.86 227.065 227.064 227.065 227.065-101.861 227.065-227.065a225.764 225.764 0 0 0-38.345-126.265zm23.563 95.26a104.655 104.655 0 0 1-21.687 16.527 54.667 54.667 0 0 1 1.567 8.141 69.049 69.049 0 0 0 20.358 3.084h.513a86.437 86.437 0 0 0 44.705-12.854l4.609-2.891a127.184 127.184 0 0 1-.23 39.347 121.246 121.246 0 0 1-49.108 10.612h-.672a104.648 104.648 0 0 1-27.061-3.651 55.088 55.088 0 0 1-4.642 6.857 68.84 68.84 0 0 0 12.214 16.574 84.526 84.526 0 0 0 40.949 22.889l5.341 1.206a127.361 127.361 0 0 1-27.966 27.65 121.037 121.037 0 0 1-42.661-27.707 104.6 104.6 0 0 1-16.523-21.685 54.8 54.8 0 0 1-8.141 1.567 69.02 69.02 0 0 0-3.084 20.357 86.267 86.267 0 0 0 12.85 45.219l2.885 4.6a126.728 126.728 0 0 1-39.342-.22 121.075 121.075 0 0 1-10.608-49.814 104.51 104.51 0 0 1 3.65-27.028 55.1 55.1 0 0 1-6.856-4.641 68.848 68.848 0 0 0-16.575 12.213 84.53 84.53 0 0 0-22.889 40.95l-1.208 5.334a127.309 127.309 0 0 1-27.649-27.965 121.052 121.052 0 0 1 27.706-42.662 104.689 104.689 0 0 1 21.686-16.524 54.76 54.76 0 0 1-1.568-8.14 69.048 69.048 0 0 0-20.357-3.084h-.411a86.615 86.615 0 0 0-44.809 12.853l-4.6 2.884a126.8 126.8 0 0 1 .22-39.34 121.258 121.258 0 0 1 49.109-10.612h.661a104.7 104.7 0 0 1 27.073 3.65 55.062 55.062 0 0 1 4.64-6.856 68.829 68.829 0 0 0-12.213-16.574 84.53 84.53 0 0 0-40.95-22.889l-5.334-1.209a127.326 127.326 0 0 1 27.964-27.647 121.011 121.011 0 0 1 42.658 27.706 104.618 104.618 0 0 1 16.525 21.685 54.668 54.668 0 0 1 8.139-1.568 69.056 69.056 0 0 0 3.085-20.356 86.293 86.293 0 0 0-12.849-45.22l-2.885-4.6a126.8 126.8 0 0 1 18.99-1.428h19.578a121.013 121.013 0 0 1 11.381 51.461 104.518 104.518 0 0 1-3.649 27.029 55.31 55.31 0 0 1 6.855 4.64A68.831 68.831 0 0 0 295.1 210.73a84.538 84.538 0 0 0 22.886-40.949l1.22-5.386a125.843 125.843 0 0 1 27.694 27.893 121.059 121.059 0 0 1-27.755 42.785zm-43.6 31a31.182 31.182 0 1 0-31.181 31.182 31.217 31.217 0 0 0 31.182-31.177z" fill="#ffffff" opacity="1" data-original="#000000"></path></g></svg>