<svg xmlns="http://www.w3.org/2000/svg" version="1.1" xmlns:xlink="http://www.w3.org/1999/xlink" width="512" height="512" x="0" y="0" viewBox="0 0 512 512.144" style="enable-background:new 0 0 512 512" xml:space="preserve"><g transform="matrix(0.9,0,0,0.9,25.553320272266916,25.607208251953068)"><path d="M291.246 146.688c98.824 0 208.922-30.118 208.922-73.344S390.07 0 291.246 0 82.324 30.172 82.324 73.344s110.106 73.344 208.922 73.344zm-126.508-36.973a9.144 9.144 0 0 1-9.144-9.145c0-5.047 4.094-9.14 9.144-9.14 5.047 0 9.14 4.093 9.14 9.14 0 5.051-4.093 9.145-9.14 9.145zm233.25-49.91a15.017 15.017 0 0 1 0 27.078 239.51 239.51 0 0 1-95.515 19.285h-.102c-3.601.102-7.308.156-11.125.156-59.902 0-94.601-13.597-106.742-19.449a15.021 15.021 0 0 1 0-27.082c12.14-5.852 46.84-19.445 106.742-19.445s94.61 13.593 106.742 19.457zm-280.793 5.629c3.785-25.454 63.614-42.313 81.856-46.875a9.15 9.15 0 0 1 8.84 2.48 9.142 9.142 0 0 1-4.398 15.258c-34.513 8.64-67.016 23.773-68.216 31.828-.101.691 1.399 3.145 6.703 6.324a9.146 9.146 0 0 1-.183 15.946 9.14 9.14 0 0 1-9.234-.274c-14.41-8.668-16.282-18.21-15.368-24.687zm0 0" fill="#ffffff" opacity="1" data-original="#000000"></path><path d="M299.73 87.844a247.628 247.628 0 0 0 83.52-14.5 253.697 253.697 0 0 0-92.004-14.703 253.412 253.412 0 0 0-92.031 14.703 247.723 247.723 0 0 0 83.539 14.5c5.41-.13 11.219-.13 16.976 0zM107.848 264.23a500.157 500.157 0 0 0 112.66 12.067 536.151 536.151 0 0 0 76.91-5.43c-2.074 0-4.07.172-6.172.172a511.058 511.058 0 0 1-118.855-13.035c-29.368-7.043-65.914-15.809-89.903-42.133a116.259 116.259 0 0 1-26.55-56.875c-28.344 13.027-44.344 28.742-44.344 43.977 0 23.476 37.777 47.543 96.254 61.257zM38.207 364.645a110.762 110.762 0 0 0-.402 41.671 236.669 236.669 0 0 0 7.316 28.426 71.506 71.506 0 0 0 10.926 23.426 96.23 96.23 0 0 0 30.344 21.941 237.31 237.31 0 0 0 42.242 15.899 398.474 398.474 0 0 0 53.613 10.972 532.596 532.596 0 0 0 61.887 4.856c4.176.11 8.34.164 12.488.164a425.12 425.12 0 0 0 150.445-23.352 162.998 162.998 0 0 0 37.954-18.914c23.12-16.605 31.652-55.015 31.937-82.855a119.554 119.554 0 0 0-2.91-27.125c-28.04 37.723-113.55 64.476-217.426 64.476-92.715 0-174.297-21.468-209.086-54.777-3.238-1.515-6.281-3.172-9.328-4.808zm0 0" fill="#ffffff" opacity="1" data-original="#000000"></path><path d="M442.879 229.484a8.75 8.75 0 0 1 4.16-1.957c.36-.004.715.016 1.07.059a85.702 85.702 0 0 0 45.559-34.79 144.764 144.764 0 0 0 13.414-36.452 124.185 124.185 0 0 0 1.434-55.61c-28.223 37.606-113.61 64.25-217.27 64.25-65.617 0-123.875-10.691-164.984-28.07a8.927 8.927 0 0 1-2.742-1.172 122.782 122.782 0 0 1-49.645-35.172 119.743 119.743 0 0 0-2.871 30.758c.156 3.656.484 7.563.914 11.594a9.073 9.073 0 0 1 .437 3.656 104.232 104.232 0 0 0 23.68 56.95c20.207 22.163 53.727 30.171 80.66 36.663a492.231 492.231 0 0 0 114.543 12.536 486.87 486.87 0 0 0 119.004-13.622c11.07-2.78 22.133-5.878 32.637-9.62zM424.594 350.508a147.588 147.588 0 0 1-36.14 21.176 366.955 366.955 0 0 1-107.392 25.812 571.844 571.844 0 0 1-60.535 3.164c-15.902 0-31.746-.64-47.097-1.894-3.903-.32-7.625-.758-11.418-1.153a523.76 523.76 0 0 0 94.61 8.328c98.815 0 208.913-30.113 208.913-73.324a36.092 36.092 0 0 0-14.39-25.492 87.334 87.334 0 0 1-26.551 43.383zm0 0" fill="#ffffff" opacity="1" data-original="#000000"></path><path d="M15.434 319.863a52.037 52.037 0 0 0 10.714 15.25 61.873 61.873 0 0 0 11.172 8.047c.176.125.395.192.559.328 1.7 1.016 3.348 2.04 5.129 3.055 4.07 2.32 8.34 4.488 12.8 6.562l.247.102a254.499 254.499 0 0 0 43.144 14.95 439.738 439.738 0 0 0 75.73 12.386 567.21 567.21 0 0 0 104.231-1.223 349.677 349.677 0 0 0 102.07-24.414 129.88 129.88 0 0 0 31.782-18.504c18.285-15.078 23.972-42.687 26.886-65.05.91-7.23 1.149-14.524.715-21.797-8.613 2.742-17.324 5.148-25.82 7.312-4.672 1.192-9.61 2.078-14.41 3.11a220.76 220.76 0 0 1-25.828 11.117 8.731 8.731 0 0 1-.766.246 468.658 468.658 0 0 1-153.281 23.242c-39.301.242-78.5-3.98-116.844-12.59C53.598 270.254 18.871 252.187 3.09 230.54a122.084 122.084 0 0 0-2.313 14.309 112.039 112.039 0 0 0 .914 31.523 181.265 181.265 0 0 0 13.743 43.492zm0 0" fill="#ffffff" opacity="1" data-original="#000000"></path></g></svg>