<svg xmlns="http://www.w3.org/2000/svg" version="1.1" xmlns:xlink="http://www.w3.org/1999/xlink" width="512" height="512" x="0" y="0" viewBox="0 0 64 64" style="enable-background:new 0 0 512 512" xml:space="preserve"><g><path d="m59.94 40.658-8-22A1 1 0 0 0 51 18H13a1 1 0 0 0-.94.658l-8 22a1 1 0 0 0 .568 1.27C5.044 42.095 15.003 46 32 46s26.956-3.905 27.372-4.071a1 1 0 0 0 .568-1.27ZM23 36a1 1 0 0 1-.707-1.707l10-10a1 1 0 0 1 1.414 1.414l-10 10A.997.997 0 0 1 23 36Zm18.707-10.293-14 14a1 1 0 0 1-1.414-1.414l14-14a1 1 0 0 1 1.414 1.414Z" fill="#ffffff" opacity="1" data-original="#000000"></path></g></svg>