<svg xmlns="http://www.w3.org/2000/svg" version="1.1" xmlns:xlink="http://www.w3.org/1999/xlink" width="512" height="512" x="0" y="0" viewBox="0 0 512 512" style="enable-background:new 0 0 512 512" xml:space="preserve" class=""><g transform="matrix(0.9100000000000001,0,0,0.9100000000000001,23.03999862670895,23.03999862670895)"><path d="M272.121 143.389a61.738 61.738 0 0 1 25.188 13.737l28.849-7.211 23.26 3.322 39.388-52.518a169.155 169.155 0 0 0-30.488-30.488l-76.909 57.683-9.288 15.475zM309.551 172.263a61.35 61.35 0 0 1 8.157 27.54l25.463 15.278 14.098 18.796 65.076-9.297c.908-7.055 1.379-14.247 1.379-21.546s-.471-14.49-1.379-21.546l-95.261-13.609-17.533 4.384zM252.768 141.326l15.278-25.463 18.795-14.097-9.295-65.076c-7.055-.909-14.247-1.38-21.546-1.38s-14.489.471-21.545 1.379l-13.609 95.261 4.383 17.533a61.342 61.342 0 0 1 27.539-8.157zM315.646 219.155a61.752 61.752 0 0 1-13.737 25.19l7.212 28.847-3.322 23.26 52.518 39.388a169.188 169.188 0 0 0 30.488-30.488l-57.683-76.91-15.476-9.287zM390.327 378.006c51.88 6.033 91.976 15.333 115.109 26.761 4.892-3.362 6.563-6.041 6.563-7.526 0-5.174-19.225-22.419-103.9-34.446a222.104 222.104 0 0 1-17.772 15.211zM256 247.172c24.338 0 44.138-19.8 44.138-44.138s-19.8-44.138-44.138-44.138-44.138 19.8-44.138 44.138 19.8 44.138 44.138 44.138zm0-61.793c9.75 0 17.655 7.904 17.655 17.655S265.75 220.69 256 220.69s-17.655-7.904-17.655-17.655 7.905-17.656 17.655-17.656zM259.232 264.743l-15.278 25.463-18.795 14.097 9.295 65.076c7.055.909 14.247 1.38 21.546 1.38s14.489-.471 21.545-1.379l13.609-95.261-4.383-17.533a61.35 61.35 0 0 1-27.539 8.157zM196.354 186.914a61.752 61.752 0 0 1 13.737-25.19l-7.212-28.847 3.322-23.261-52.516-39.388a169.193 169.193 0 0 0-30.489 30.488l57.683 76.91 15.475 9.288zM285.049 458.719a1345.801 1345.801 0 0 1-47.864.184l21.792 27.24-25.418 25.666c7.423.125 14.906.191 22.441.191 7.843 0 15.629-.072 23.349-.206l26.639-26.901-20.939-26.174zM214.159 458.381c-20.524-.643-40.465-1.759-59.496-3.321l24.866 31.082-21.858 22.072c16.59 1.336 33.884 2.331 51.667 2.964l26.03-26.286-21.209-26.511zM73.983 444.692l26.099 32.623-20.818 21.022c16.972 3.1 35.666 5.704 55.636 7.783l21.02-21.226-25.708-32.137c-20.19-2.165-39.073-4.867-56.229-8.065zM470.82 467.833l-24.508 27.843C500.04 484.361 512 471.837 512 467.862v-46.393c-13.407 8.145-34.522 15.164-63.571 21.176l22.391 25.188zM357.374 455.057c-16.16 1.327-32.973 2.333-50.243 3l22.468 28.085-24.712 24.953a1165.99 1165.99 0 0 0 43.618-2.428l28.124-31.949-19.255-21.661zM0 421.469v46.393c0 3.793 10.897 15.373 58.592 26.258l17.879-18.056-29.8-37.249C26.166 433.705 10.655 427.941 0 421.469zM428.181 446.439c-15.213 2.573-31.634 4.777-48.99 6.588l21.01 23.635-26.215 29.781c15.595-1.569 30.426-3.46 44.305-5.652l28.959-32.898-19.069-21.454zM153.684 335.839l76.91-57.683 9.286-15.476a61.738 61.738 0 0 1-25.188-13.737l-28.849 7.211-23.26-3.322-39.388 52.518a169.166 169.166 0 0 0 30.489 30.489zM202.449 233.806a61.35 61.35 0 0 1-8.157-27.54l-25.463-15.278-14.098-18.796-65.076 9.297c-.908 7.055-1.379 14.247-1.379 21.546s.471 14.49 1.38 21.546l95.26 13.609 17.533-4.384zM6.563 404.767c23.134-11.426 63.23-20.728 115.11-26.761a222.515 222.515 0 0 1-17.772-15.211C19.225 374.823 0 392.067 0 397.241c0 1.485 1.672 4.164 6.563 7.526z" fill="#ffffff" opacity="1" data-original="#000000" class=""></path><path d="M256 406.069c111.954 0 203.034-91.081 203.034-203.034S367.954 0 256 0 52.966 91.081 52.966 203.034 144.046 406.069 256 406.069zm0-388.414c102.219 0 185.379 83.16 185.379 185.379S358.219 388.414 256 388.414s-185.379-83.16-185.379-185.38S153.781 17.655 256 17.655z" fill="#ffffff" opacity="1" data-original="#000000" class=""></path></g></svg>