<svg xmlns="http://www.w3.org/2000/svg" version="1.1" xmlns:xlink="http://www.w3.org/1999/xlink" width="512" height="512" x="0" y="0" viewBox="0 0 409.12 409.12" style="enable-background:new 0 0 512 512" xml:space="preserve"><g transform="matrix(0.9100000000000001,0,0,0.9100000000000001,18.41039840698238,18.410398681908845)"><path d="M403.8 190.4c-6.36 0-5.92-6.96-6.48-11.4-1.12-8.48-2.8-11.04 6.04-13.4l1.44-2.52-6.16-23.04c-.68-2.48-3.48-1.2-5.2-.72-6.12 1.64-7.48-5.08-9.24-9.32l-2.48-5.6c-2.96-6.56 5.16-8 5.76-10.08v-1.56l-12-20.68c-1.28-2.2-3.72-.28-5.12.56-5.6 3.36-8.6-2.76-11.48-6.48-5.32-6.88-8-8-1.48-14.68V68.4l-16.96-16.84c-1.84-1.84-3.76.84-4.96 2-4.48 4.48-9-.68-12.64-3.48s-9.76-5.68-6.6-11.32c.84-1.44 2.92-4 .64-5.28l-20.92-12c-1.96-1-3.2 1.88-4 3.12-3.2 5.76-8.92 1.92-13.24 0-7.28-3.04-11.24-3.12-8.6-12a2.123 2.123 0 0 0 0-1.56l-1.24-.96-23.04-6.16a2.123 2.123 0 0 0-1.56 0l-1.68 4c-1.64 6.16-8.24 4-12.64 3.32-8.56-1.12-11.44 0-11.44-9.32L216.44.2h-24c-2.6 0-2.04 3.16-2.08 4.88 0 6.36-6.96 5.92-11.4 6.48-8.44 1.12-11.04 2.84-13.4-6.04l-2.52-1.44-23 6.16c-2.48.68-1.2 3.48-.72 5.24 1.64 6.12-5.16 7.52-9.32 9.24l-5.56 2.4c-4.92 2.24-7.28-2.08-8.8-4.8l-2.84-.76-20.68 12c-2.16 1.32-.32 3.64.56 5.12 3.36 5.6-2.76 8.6-6.48 11.48-6.88 5.28-8 8-14.68 1.48h-3.08L51.6 68.4v2.92l2 2.04c4.44 4.48-.68 9.04-3.48 12.64-2.8 3.6-5.68 9.8-11.32 6.6-1.44-.84-4-2.92-5.28-.64l-12 20.92c-1 1.96 1.88 3.2 3.12 4 5.76 3.2 1.92 8.92 0 13.24s-3.12 10.96-9.24 9.32l-4.24-.52-.96 1.24-6.16 23.04a2.123 2.123 0 0 0 0 1.56l4 1.68c6.16 1.64 4 8.24 3.32 12.64-1.12 8.56 0 11.44-9.32 11.44L0 192.56v24c0 2.6 3.16 2.04 4.88 2.08 6.36 0 5.92 6.96 6.48 11.4 1.12 8.48 2.8 11.04-6.04 13.4l-1.44 2.52L10.04 269c.68 2.48 3.48 1.2 5.2.72 6.12-1.64 7.48 5.08 9.24 9.32l2.68 5.36c2.96 6.56-5.16 8-5.76 10.08v1.56l12 20.68c1.2 2.2 3.76.28 5.12-.56 5.6-3.36 8.6 2.76 11.48 6.48 5.36 6.88 8 8 1.48 14.68v3.08l16.96 16.84c1.84 1.84 3.76-.84 4.96-2 4.48-4.48 9 .68 12.64 3.48 3.64 2.8 9.76 5.84 6.6 11.32-.84 1.44-2.92 4-.64 5.28l20.92 12c2 1 3.2-1.88 4-3.12 3.2-5.76 8.92-1.92 13.24 0 8 3.28 11 3.08 8.6 12a2.123 2.123 0 0 0 0 1.56l1.24.96 23.04 6.16a2.123 2.123 0 0 0 1.56 0l1.68-4c1.64-6.16 8.24-4 12.64-3.32 8.56 1.12 11.44 0 11.44 9.32l2.04 2.04h24c2.6 0 2.04-3.12 2.08-4.88 0-6.36 6.96-5.92 11.4-6.48 8.48-1.12 11.04-2.84 13.4 6.04l2.52 1.44 23.04-6.16c2.48-.68 1.2-3.48.72-5.2-1.64-6.12 5.08-7.48 9.32-9.24l5.68-2.44c6.56-2.96 8 5.16 10.08 5.76h1.56l20.68-12c2.2-1.2.28-3.76-.56-5.12-3.36-5.6 2.76-8.6 6.48-11.48 6.88-5.36 8-8 14.68-1.48h2.96l16.84-17.28v-2.92c-2.24-2.24-5.88-5.6-2.4-9.8l7.36-9.56c4.32-6.32 9.48.36 12-.28a2.12 2.12 0 0 0 1.28-.96l12-20.92c1-1.96-1.88-3.2-3.12-4-5.76-3.2-1.92-8.92 0-13.2 3.04-7.28 3.12-11.24 12-8.6a2.123 2.123 0 0 0 1.56 0l.96-1.24 6.16-23.04a2.123 2.123 0 0 0 0-1.56l-4-1.68c-6.16-1.64-4-8.24-3.32-12.64 1.12-8.56 0-11.44 9.32-11.44l2.04-2.04V192.4c-.48-2.52-3.6-2-5.32-2zm-84.88 128.52v-.04c-63.105 63.362-165.627 63.571-228.989.466S26.36 153.719 89.465 90.357c3.6-3.615 7.37-7.058 11.295-10.317l.56-.48c68.911-56.994 170.977-47.334 227.971 21.577 53.258 64.394 48.766 158.741-10.371 217.783z" fill="#ffffff" opacity="1" data-original="#000000"></path><path d="M351.76 233.12c.773-3.92 1.387-7.92 1.84-12l-39.68-17.36 39.56-17.32c-.48-4-1.107-8-1.88-12l-52.16 23.16-27.2-12 17.4-23.6 56.84-6.36a238.38 238.38 0 0 0-4.36-11.24l-43.04 4.8 25.6-34.76c-2.427-3.2-4.96-6.293-7.6-9.28L283.28 151l-29.52 3.28 3.28-29.2 46-33.88a127.88 127.88 0 0 0-9.4-7.56l-34.88 25.68 4.8-42.96c-3.68-1.573-7.427-3-11.24-4.28l-6.28 56.68-24 17.6-11.8-26.92 23-52.4c-3.92-.773-7.92-1.373-12-1.8l-17.36 39.68-17.32-39.56c-4 .48-8 1.107-12 1.88l23.08 52.16-12 27.2-23.6-17.4-6.32-56.84a229.297 229.297 0 0 0-11.28 4.36l4.8 43.04-34.76-25.6c-3.2 2.4-6.307 4.933-9.32 7.6l45.88 33.76 3.28 29.52-29.2-3.24-33.88-46a127.88 127.88 0 0 0-7.56 9.4l25.68 34.88-42.92-4.84c-1.573 3.68-3 7.427-4.28 11.24l56.64 6.32 17.6 24-26.92 11.8-52.4-23c-.773 3.92-1.387 7.92-1.84 12l39.68 17.36-39.56 17.32c.48 4 1.107 8 1.88 12l52.2-23.08 27.2 12-17.4 23.6-56.84 6.32a206.267 206.267 0 0 0 4.4 11.28l43.04-4.8-25.6 34.76c2.4 3.2 4.933 6.307 7.6 9.32l33.76-45.84 29.52-3.28-3.24 29.2-46.04 33.84a127.88 127.88 0 0 0 9.4 7.56l34.88-25.68-4.84 42.92c3.68 1.573 7.427 3 11.24 4.28l6.32-56.6 24-17.6 11.8 26.92-23 52.36c3.92.773 7.92 1.387 12 1.84L205 313.92l17.32 39.56c4-.48 8-1.107 12-1.88l-23.08-52.2 12-27.2 23.6 17.4 6.36 56.84a238.38 238.38 0 0 0 11.24-4.36l-4.8-43.04 34.76 25.6c3.2-2.4 6.307-4.933 9.32-7.6l-45.88-33.8-3.28-29.52 29.2 3.28 33.88 46a127.88 127.88 0 0 0 7.56-9.4l-25.68-34.88 42.96 4.8c1.573-3.68 3-7.427 4.28-11.24L290.08 246l-17.6-24 26.92-11.8 52.36 22.92zM134.52 164.4l21.12 2.36 1.2 10.84-9.56 4-12.76-17.2zm21.48 52 .76 2.72-2.08-.92 1.32-1.8zm-1.6-24.92 2.08-.92-.72 2.76-1.36-1.84zm-30.44 13.32 19.52-8.4 6.48 8.76-6.2 8.4-19.8-8.76zm32.48 37.84-21.44 2.4 12.6-17.12 10 4.48-1.16 10.24zm88-108-2.36 21.12-10.84 1.2-4-9.56 17.2-12.76zm-4 32.84-.24 2.24-2.04-2 2.28-.24zm-23.28-13.12.92 2.08-2.76-.72 1.84-1.36zm-13.32-30.44 8.6 19.52-8.76 6.48-8.4-6.2 8.56-19.8zm-13.44 30.72 1.8 1.32-2.72.76.92-2.08zm-9.6-7.08-4.36 10-10.24-1.16-2.4-21.44 17 12.6zm-11.04 20.84-2 2.04-.24-2.04h2.24zm-5.32 105.92 2.36-21.12 10.84-1.2 4 9.56-17.2 12.76zm4-33 .24-2.24 2.04 2-2.28.24zm23.28 13.12-1.04-2.04 2.76.72-1.72 1.32zm13.32 30.44-8.6-19.52 8.76-6.48 8.4 6.2-8.56 19.8zm13.44-30.72-2.04-1.32 2.72-.76-.68 2.08zm-41.136-22.856A38.279 38.279 0 0 1 166.2 204.4c0-21.119 17.121-38.24 38.24-38.24 21.119 0 38.24 17.121 38.24 38.24a38.239 38.239 0 0 1-11.2 27.039c-14.987 14.913-39.224 14.852-54.136-.135zm63.976 9.096h-2.24l2-2.04.24 2.04zm-13.4 20.68 4.52-9.8 10.36 1.16 2.4 21.44-17.28-12.8zm24.52-94.92 21.44-2.4-12.6 17.2-10-4.56 1.16-10.24zm.68 49.32 1.36 1.84-2.08.92.72-2.76zm-1-25.8 2.08.92-1.32 1.8-.76-2.72zm22.24 54.72-21.12-2.36-1.2-10.84 9.56-4 12.76 17.2zm-8.96-32-6.48-8.76 6.2-8.4 19.8 8.76-19.52 8.4z" fill="#ffffff" opacity="1" data-original="#000000"></path></g></svg>