<svg xmlns="http://www.w3.org/2000/svg" version="1.1" xmlns:xlink="http://www.w3.org/1999/xlink" width="512" height="512" x="0" y="0" viewBox="0 0 50 50" style="enable-background:new 0 0 512 512" xml:space="preserve"><g transform="matrix(0.9500000000000001,0,0,0.9500000000000001,1.25,1.25)"><path d="M25 49c13.2 0 24-10.8 24-24S38.2 1 25 1 1 11.8 1 25s10.8 24 24 24zM14.5 38.3l-2.2 1.2c-.2.1-.4.3-.4.5-.6-.5-1.2-1.1-1.7-1.7l3.8-.9 3-4.1c.7-.9.7-2.1.2-3.1v-.1c-.6-1-1.6-1.5-2.8-1.4l-5.1.5-2.8 3c-.4-1-.8-2.1-1-3.2.1 0 .3-.1.4-.1l1.7-1.1c.8-.5 1.6-.7 2.5-.8l7.9-.1c.4 1.4 1.2 2.6 2.3 3.5l-4.1 6.2c-.5.8-1.1 1.4-1.7 1.7zm5.8-11.9c.5-.3 1.1-.1 1.4.4s.1 1.1-.4 1.4-1.1.1-1.4-.4c-.2-.5-.1-1.1.4-1.4zM20 22c.3-.5.9-.7 1.4-.4s.7.9.4 1.4-.9.7-1.4.4c-.5-.2-.6-.9-.4-1.4zm8.8 22.6 1-3.3-2.1-4.7c-.5-1-1.5-1.7-2.6-1.7H25c-1.1 0-2.1.7-2.6 1.7l-2.1 4.7 1 3.4c-1.2-.2-2.4-.6-3.5-1 .1-.2.2-.3.2-.5l-.1-2c0-.9.2-1.8.6-2.6l3.8-6.7c.8.3 1.7.5 2.6.5s1.7-.1 2.5-.4l3.3 6.7c.4.7.5 1.5.5 2.3l-.1 2.5c0 .3.1.5.2.7-.8 0-1.6.3-2.5.4zm-3.8-22c1.3 0 2.4 1.1 2.4 2.4s-1.1 2.4-2.4 2.4-2.4-1.1-2.4-2.4 1.1-2.4 2.4-2.4zm-1-2.3c0-.6.5-1 1-1 .6 0 1 .5 1 1s-.5 1-1 1-1-.5-1-1zm1.9 9.4c0 .6-.5 1-1 1-.6 0-1-.5-1-1s.5-1 1-1c.6 0 1 .5 1 1zm2.3-2.8c.3-.5.9-.7 1.4-.4s.7.9.4 1.4-.9.7-1.4.4c-.6-.2-.7-.9-.4-1.4zm.4-5.1c.5-.3 1.1-.1 1.4.4s.1 1.1-.4 1.4-1.1.1-1.4-.4c-.2-.5-.1-1.1.4-1.4zm15 10.4L41 29.5l-5-.5c-1.1-.1-2.2.4-2.8 1.4v.1c-.6 1-.5 2.2.2 3.1l3 4.1 3.4.8c-.7.7-1.4 1.4-2.2 2.1-.1-.2-.2-.3-.4-.4l-1.8-.9c-.8-.4-1.5-1-1.9-1.8l-3.9-6.7c1.3-1 2.2-2.4 2.6-4l7.4.5c.8 0 1.5.3 2.2.7l2.1 1.3c.2.1.4.2.6.1-.2.9-.5 1.9-.9 2.8zm-8.1-20.5 2.2-1.2c.2-.1.4-.4.4-.6 1 .9 1.9 1.8 2.7 2.9l-4.4 1-3 4.1c-.7.9-.7 2.1-.2 3.1v.1c.6 1 1.6 1.5 2.8 1.4l5.1-.5 2.9-3.1c.3 1.1.6 2.2.7 3.3-.2 0-.4 0-.6.1l-1.7 1.1c-.8.5-1.6.7-2.5.8l-7.6.1c-.2-1.9-1.2-3.6-2.6-4.8l4.1-6.1c.5-.8 1.1-1.3 1.7-1.7zM22.1 5.2c0 .1-.1.2-.1.3L20.6 10l2.1 4.7c.5 1 1.5 1.7 2.6 1.7h.1c1.1 0 2.1-.7 2.6-1.7l2-4.7-1.4-4.5c0-.1-.1-.1-.1-.2 1.2.2 2.4.6 3.6 1-.1.2-.1.4-.1.6l.1 2c0 .9-.2 1.8-.6 2.6l-3.8 6.7c-.8-.3-1.7-.5-2.7-.5-.9 0-1.7.2-2.5.5l-3.3-6.6c-.4-.7-.5-1.5-.5-2.3l.1-2.5c0-.3-.1-.5-.3-.7 1.2-.4 2.4-.7 3.6-.9zM6.2 18.4l3.2 3.4 5.1.5c1.1.1 2.2-.4 2.8-1.4v-.1c.6-1 .5-2.2-.2-3.1l-3-4.1-4.6-1.1h-.2c.9-1.1 1.9-2.2 3.1-3.1.1.2.2.4.4.5l1.8.9c.8.4 1.5 1 1.9 1.8l3.9 6.6c-1.6 1.3-2.6 3.2-2.7 5.4l-7.3-.5c-.8 0-1.5-.3-2.2-.7l-2.1-1.3c-.3-.1-.6-.1-.9 0 .2-1.3.5-2.5 1-3.7-.1 0-.1 0 0 0z" fill="#ffffff" opacity="1" data-original="#000000"></path></g></svg>