<svg xmlns="http://www.w3.org/2000/svg" version="1.1" xmlns:xlink="http://www.w3.org/1999/xlink" width="512" height="512" x="0" y="0" viewBox="0 0 50 50" style="enable-background:new 0 0 512 512" xml:space="preserve"><g transform="matrix(0.9399999999999997,0,0,0.9399999999999997,1.500000000000007,1.4991558194160532)"><path d="M26.7 1.1C13.6-.1 1 10.6 1 25c0 12.3 9.4 23 22.3 23.9C37.1 49.9 49 39 49 25 49 12.2 38.9 1.8 26.7 1.1zM43.5 31c-5.1 1.2-9.7.1-14-3.2 5.2 1.7 10.2 1.4 14.9-1.3-.1 1.1-.3 2.2-.5 3.2-.1.5-.3.9-.4 1.3zm-3.2 6c-5.2-.7-9.1-3.2-12.1-7.8 4.7 3.6 9.4 4.8 14.5 3.9-.5 1-1 1.9-1.6 2.8-.2.4-.5.8-.8 1.1zm-5 4.5c-4.6-2.4-7.5-6.1-8.7-11.5 3.1 4.8 7.1 7.6 12.3 8.6-.8.8-1.6 1.5-2.5 2.1-.4.3-.7.6-1.1.8zM6.2 30.2c-.3-1-.5-2.1-.6-3.2 0-.4-.1-.9-.1-1.3 4.4-2.8 9.1-3.4 14.3-1.8-5.7.2-10.1 2.3-13.6 6.3zM6.5 19c5.1-1.2 9.7-.1 14 3.2-5.5-1.7-10.4-1.3-14.9 1.3.1-1.1.3-2.2.5-3.2.1-.5.3-.9.4-1.3zm3.2-6c5.2.7 9.1 3.2 12.1 7.8-4.5-3.5-9.3-4.8-14.5-3.9.5-1 1-1.9 1.6-2.8.2-.4.5-.7.8-1.1zm5-4.5c4.6 2.4 7.5 6.1 8.7 11.5-3.1-4.8-7.1-7.7-12.3-8.6.8-.8 1.6-1.5 2.5-2.1.4-.3.7-.6 1.1-.8zm29.1 11.3c.3 1 .5 2.1.6 3.2 0 .4.1.9.1 1.3-4.4 2.8-9.1 3.4-14.3 1.8 5.7-.2 10.1-2.2 13.6-6.3zm-1.3-3.3c.2.4.4.8.5 1.3-3.1 4.1-7.4 6.3-12.8 6.6 5.3-2.2 8.8-5.7 10.6-10.6.7.8 1.2 1.7 1.7 2.7zM38.6 11c.3.3.6.7.9 1-1.5 5-4.8 8.4-9.8 10.6C33.9 18.7 36 14.3 36 9c.9.6 1.8 1.3 2.6 2zm-4.4-3.2c.3 5.2-1.6 9.6-5.6 13.3 2.7-5.1 3.1-10 1.3-15 1 .3 2.1.6 3.1 1.1zm-7.8-2.2c.4 0 .9.1 1.3.1 2 4.8 1.8 9.5-.7 14.4.8-5.7-.5-10.4-3.9-14.5 1.1-.1 2.2-.1 3.3 0zM21 6c3.5 3.8 4.9 8.3 4.3 13.8-1.2-5.6-4.1-9.6-8.6-12.3C18 6.8 19.5 6.3 21 6zM7.5 33.5c-.2-.4-.4-.8-.5-1.3 3.1-4.1 7.3-6.3 12.8-6.6-5.3 2.2-8.8 5.7-10.6 10.6-.7-.8-1.2-1.7-1.7-2.7zm3 4.5c1.5-5 4.8-8.4 9.8-10.6C16.1 31.3 14 35.7 14 41c-1.3-.8-2.4-1.8-3.5-3zm5.3 4.2c-.3-5.2 1.6-9.6 5.6-13.3-2.7 5.1-3.1 10-1.3 15-1.1-.3-2.1-.6-3.1-1.1l-1.2-.6zm7.8 2.2c-.5 0-.9-.1-1.4-.2-2-4.8-1.8-9.5.7-14.4-.8 5.7.5 10.4 3.9 14.5-1 .2-2.1.2-3.2.1zm6.7-.7c-.4.1-.9.2-1.3.3-3.5-3.8-4.9-8.3-4.3-13.8 1.2 5.6 4.1 9.6 8.6 12.3-.9.5-1.9.9-3 1.2z" fill="#ffffff" opacity="1" data-original="#000000"></path></g></svg>