<svg xmlns="http://www.w3.org/2000/svg" version="1.1" xmlns:xlink="http://www.w3.org/1999/xlink" width="512" height="512" x="0" y="0" viewBox="0 0 26 26" style="enable-background:new 0 0 512 512" xml:space="preserve"><g transform="matrix(0.9000000000000001,0,0,0.9000000000000001,1.299986231327054,1.2999999821186083)"><path d="M11.91 24.631c-.448.035-.834.028-.922-.013-.072-.034.083-.196.276-.355.224-.185.02-.374-.088-.47a11.427 11.427 0 0 1-1.03-1.045.773.773 0 0 0-.627-.273c-.57.01-1.291.035-1.382-.008-.066-.031.314-.348.685-.646.322-.259.192-.592.099-.745a13.737 13.737 0 0 1-.809-1.548c-.05-.112-.202-.325-.547-.331-.541-.008-1.156.029-1.24-.01-.066-.032.411-.482.892-.881.111-.092.287-.306.181-.74-.151-.625-.319-1.256-.422-1.912-.025-.16-.16-.482-.519-.473-.491.015-.987.021-1.062-.014-.065-.031.426-.471.966-.873.146-.107.376-.186.419-.748.012-.159-.01-.319-.01-.48 0-.541.019-1.074.081-1.597.058-.485-.234-.583-.395-.575-.495.025-.997.05-1.07.015-.072-.034.643-.549 1.334-.974.139-.084.377-.247.507-.685.18-.605.333-1.21.558-1.781.203-.516-.212-.602-.422-.598-.533.01-.967.038-1.052-.001-.08-.038.834-.565 1.686-.919.198-.083.559-.243.898-.785.256-.408.538-.793.803-1.182.261-.382-.027-.433-.2-.433-.656 0-1.227.051-1.326.003-.092-.042 1.359-.601 2.231-.821a1.85 1.85 0 0 0 .804-.405c.297-.245.578-.508.889-.726.276-.194.052-.234-.074-.236-.724-.01-1.383.053-1.491.002-.104-.049 1.849-.402 2.617-.455.675-.384 1.826-.698 2.571-.913-.193 0-.356.001-.419.006h-4.334c-.244.031-1.287-.014-1.476 0-.491.053-.83.103-1.301.292-.31.125-.411.524-.2.609.234.094 1.125.403 1.016.458-.09.045-1.268 0-2.007-.051-.294-.021-.702-.047-.874.078-.438.318-.302.249-.71.66-.162.163-.203.515.031.625.225.104 1.316.833 1.17.906-.125.063-1.646.17-2.018.135-.368-.034-.562-.013-.706.192-.357.509-.395.689-.69 1.286-.117.236-.107.66.071.751.178.09 1.018.49 1.53.917-.578-.047-1.696.188-1.946.188s-.449.013-.537.277c-.225.67-.266.924-.41 1.631-.056.283.046.57.265.695.219.125 1.876 1.248 1.707 1.239-.281-.016-1.732.329-1.951.333s-.362.175-.386.463c-.045.539-.024.539-.024 1.09.001.198.004.396.01.591.009.287.266.599.506.712.328.156 2.011.983 1.861 1.059-.124.062-1.646.25-1.802.255-.354.011-.397.365-.356.654.104.725.112.86.3 1.553.055.208.238.396.426.459s2.567 1.034 2.416 1.11c-.125.063-1.551.335-1.776.345-.299.016-.268.441-.131.75.275.622.146.432.477.986.068.117.374.302.469.322.188.042 2.894.802 2.743.877-.125.063-1.571.133-1.839.148s-.233.416-.08.599c.389.463.297.385.718.751.239.208.796.191.833.219.557.088 2.9.399 2.758.471-.125.063-.989.158-1.813.256-.261-.012-.051.351.136.443.466.235.948.41 1.435.52a.253.253 0 0 0 .053.006c.174 0 1.264.104 1.456.104.247 0 3.592.018 5.229.026-.954-.276-2.227-.696-3.109-1.239a.875.875 0 0 0-.53-.126z" style="" fill="#ffffff" data-original="#030104" opacity="1"></path><path d="M24.449 11.798c-.018-.295-.17-.506-.385-.487-.005.001-.01.012-.016.013-.031-.36-.069-.717-.123-1.068.006-.001.01 0 .014-.002.188-.077.301-.372.25-.658-.128-.716-.3-1.423-.508-2.099-.08-.271-.508-.383-.508-.383s-.202-.496-.329-.8c.004-.005.01-.003.014-.007.16-.169.201-.503.089-.746a13.374 13.374 0 0 0-.944-1.719c-.137-.21-.653-.188-.657-.18a6.214 6.214 0 0 0-.399-.51c.005-.009.011-.004.015-.013.115-.241.077-.577-.081-.749a8.865 8.865 0 0 0-1.271-1.137c-.178-.127-.95-.014-.95-.014l-.197-.1c.003-.008.008-.01.009-.016.054-.285-.056-.582-.243-.663a6.044 6.044 0 0 0-1.452-.417C16.634.015 16.123.002 15.735 0a9.86 9.86 0 0 0-2.17 1.065c.664.079-.837 1.135-.722.516-.434.338-.847.715-1.237 1.129.636.061-.547 1.561-.741.866-.499.646-.947 1.36-1.336 2.137.578-.173-.119 1.729-.527 1.193-.323.827-.58 1.714-.764 2.657.538-.198.284 1.535-.201 1.286a18.89 18.89 0 0 0-.122 2.689c.523-.22.777 1.365.081 1.379.093.955.257 1.859.483 2.708.318-.313 1.143 1.062.403 1.28.277.758.608 1.466.986 2.121.196-.375 1.19.851.623.974.44.624.928 1.188 1.452 1.692.087-.357 1.123.425.717.633a10.576 10.576 0 0 0 2.91 1.671l.869.004c.527-.019.782-.078 1.001-.141.192-.056.574-.651.574-.651s.692-.033.835-.033a.256.256 0 0 0 .128-.036 8.023 8.023 0 0 0 1.325-.98c.168-.151.222-.481.121-.735-.003-.006-.008-.006-.009-.012.199-.199.239-.248.429-.472.002.006.324.04.424.04.081 0 .165-.043.23-.13.373-.485.721-1.022 1.033-1.599.123-.229.103-.565-.048-.754-.006-.007-.013-.003-.018-.009.143-.29.247-.484.376-.794.004.005.159-.014.219-.014.123 0 .24-.098.307-.271.244-.646.45-1.329.617-2.03.066-.279-.031-.586-.215-.687-.003-.001-.006.002-.009.001.071-.344.128-.695.179-1.05.005.001.006.009.01.01a.266.266 0 0 0 .061.007c.171 0 .32-.185.35-.445a19.835 19.835 0 0 0 .09-3.417zm-7.962 9.465c-2.725 0-4.934-3.699-4.934-8.26 0-4.563 2.209-8.261 4.934-8.261 2.726 0 4.933 3.698 4.933 8.261 0 4.56-2.207 8.26-4.933 8.26z" style="" fill="#ffffff" data-original="#030104" opacity="1"></path></g></svg>