<svg xmlns="http://www.w3.org/2000/svg" version="1.1" xmlns:xlink="http://www.w3.org/1999/xlink" width="512" height="512" x="0" y="0" viewBox="0 0 512 512.111" style="enable-background:new 0 0 512 512" xml:space="preserve" class=""><g transform="matrix(0.8999999999999998,0,0,0.8999999999999998,25.60510902404789,25.605557250976602)"><path d="m269.824 175.188 31.836-67.512a156.426 156.426 0 0 0-45.879-6.996 154.537 154.537 0 0 0-45.386 6.886l31.828 67.512a82.665 82.665 0 0 1 27.601.11zM219.191 192.96l8.766-5.093-34.742-73.836a146.784 146.784 0 0 0-28.844 16.602L211 197.695zM192.824 203.703l-42.57-61.305a155.18 155.18 0 0 0-45.45 78.97l74.239 6.198a82.85 82.85 0 0 1 13.781-23.863zM260.781 238.445a18.445 18.445 0 0 0-4.734-.62c-9.633 0-17.613 7.472-18.246 17.081-.633 9.614 6.297 18.067 15.847 19.332 9.547 1.262 18.438-5.093 20.329-14.539 1.89-9.445-3.868-18.734-13.168-21.246zM319.258 308.516l42.578 61.257a155.155 155.155 0 0 0 45.45-78.921l-74.24-6.2a82.501 82.501 0 0 1-13.788 23.864zM329.188 265.984l81.16 6.801a155.365 155.365 0 0 0 .12-33.36l-81.28 6.774zM327.36 214.969a79.925 79.925 0 0 1 5.742 12.578l74.468-6.207a154.528 154.528 0 0 0-45.66-78.977l-42.613 61.258a82.226 82.226 0 0 1 8.062 11.348zM301.137 197.742l46.574-67.074a155.013 155.013 0 0 0-28.856-16.582l-34.796 73.789zm0 0" fill="#ffffff" opacity="1" data-original="#000000" class=""></path><path d="M315.887 233.7a61.572 61.572 0 0 0-4.39-9.571 64.185 64.185 0 0 0-6.118-8.64 18.288 18.288 0 0 1-13.402-1.923l-17.024-9.89a18.276 18.276 0 0 1-8.383-10.531 65.082 65.082 0 0 0-17.765-.57 9.026 9.026 0 0 1-4.371 6.913l-15.98 9.235-7.81 4.57a8.291 8.291 0 0 1-.75.469c-.101.062-.218.07-.32.125l-6.773 3.922a8.588 8.588 0 0 1-8.156.359 64.558 64.558 0 0 0-8.43 15.598 18.107 18.107 0 0 1 4.973 12.468v19.75a18.197 18.197 0 0 1-4.981 12.536 61.918 61.918 0 0 0 4.387 9.57 63.393 63.393 0 0 0 6.152 8.68 18.272 18.272 0 0 1 13.332 1.89l17.078 9.867a18.287 18.287 0 0 1 8.293 10.532 64.98 64.98 0 0 0 17.836.586 9.033 9.033 0 0 1 4.371-6.915l15.985-9.234 7.804-4.57c.243-.168.493-.324.75-.465.137-.074.285-.11.422-.184l6.676-3.867a8.966 8.966 0 0 1 8.137-.34 64.602 64.602 0 0 0 8.445-15.617 18.118 18.118 0 0 1-4.973-12.469v-19.75a18.19 18.19 0 0 1 4.985-12.535zm-24.524 31.874c-4.511 16.852-20.3 28.172-37.71 27.031-17.41-1.136-31.594-14.414-33.872-31.714-2.281-17.297 7.977-33.797 24.496-39.407 16.52-5.609 34.703 1.23 43.43 16.34a36.306 36.306 0 0 1 3.656 27.75zM301.102 314.523l-8.23 4.735-8.767 5.094 34.743 73.882a150.488 150.488 0 0 0 28.828-16.648zM256.328 338.395a83.42 83.42 0 0 1-14.078-1.352l-31.781 67.437a155.177 155.177 0 0 0 91.199.11l-31.797-67.473c-4.473.801-9 1.227-13.543 1.278zm0 0" fill="#ffffff" opacity="1" data-original="#000000" class=""></path><path d="M322.305 8.832A257.632 257.632 0 0 0 255.625 0C164.23.188 79.863 49.066 34.242 128.258c-45.62 79.191-45.578 176.695.106 255.851 51.773 89.668 152.46 139.317 255.117 125.805 102.652-13.516 187.058-87.535 213.86-187.547a256.016 256.016 0 0 0-25.579-194.262A256.004 256.004 0 0 0 322.293 8.832zM192.047 27.539c5.047 0 9.14 4.094 9.14 9.14 0 5.051-4.093 9.145-9.14 9.145a9.144 9.144 0 0 1-9.145-9.144c0-5.047 4.094-9.14 9.145-9.14zM54.18 169.992c-1.973 4.653-7.34 6.824-11.989 4.852a9.146 9.146 0 0 1-4.851-11.992 235.283 235.283 0 0 1 99.847-112.614 251.66 251.66 0 0 1 23.692-11.883 9.143 9.143 0 0 1 12.039 4.727c2.02 4.629-.098 10.02-4.727 12.04a231.684 231.684 0 0 0-21.941 10.972 216.958 216.958 0 0 0-92.07 103.898zm51.422 172.977a172.438 172.438 0 0 1-21.032-60.043c0-.102-.062-.192-.062-.301-9.262-60.68 14.125-121.754 61.55-160.723.188-.222.391-.433.602-.632.13-.082.274-.09.403-.172a158.624 158.624 0 0 1 46.69-26.926l.122-.094c.102-.043.2 0 .293-.07 57.738-21.934 122.777-11.61 170.887 27.125.101.066.218.074.32.137.246.175.375.44.605.632a170.941 170.941 0 0 1 61.493 107.418c0 .102.066.192.066.301 9.262 60.68-14.125 121.754-61.55 160.723-.188.222-.391.433-.602.633-.13.082-.278.09-.403.171a173.446 173.446 0 0 1-140.8 35.711 173.443 173.443 0 0 1-118.582-83.89zm369.148 6.398a235.283 235.283 0 0 1-99.848 112.613 243.289 243.289 0 0 1-49.242 21.383 8.723 8.723 0 0 1-2.687.403 9.138 9.138 0 0 1-9.047-7.782 9.142 9.142 0 0 1 6.36-10.101 223.956 223.956 0 0 0 45.476-19.758 216.99 216.99 0 0 0 92.148-103.898 9.148 9.148 0 0 1 15.723-1.938 9.14 9.14 0 0 1 1.117 9.078zm0 0" fill="#ffffff" opacity="1" data-original="#000000" class=""></path><path d="m210.934 314.504-45.832 66.004 28.664 16.512 34.246-72.66zM182.902 246.234l-81.16-6.8a155.4 155.4 0 0 0-.12 33.363l81.28-6.777zM184.777 297.254a80.128 80.128 0 0 1-5.742-12.582l-74.469 6.207a155.103 155.103 0 0 0 45.633 79.023l42.613-61.359a82.281 82.281 0 0 1-8.035-11.29zm0 0" fill="#ffffff" opacity="1" data-original="#000000" class=""></path></g></svg>