<svg xmlns="http://www.w3.org/2000/svg" version="1.1" xmlns:xlink="http://www.w3.org/1999/xlink" width="512" height="512" x="0" y="0" viewBox="0 0 50 50" style="enable-background:new 0 0 512 512" xml:space="preserve" class=""><g transform="matrix(0.9500000000000002,0,0,0.9500000000000002,1.2499999999999964,1.2500972330570086)"><path d="M27.9 1.2C14.1-.6 1 10.2 1 25c0 1 .1 2 .2 3C2.7 39.8 12.7 49 25 49c4.1 0 8.1-1 11.7-3 1.7-.9 3.3-2.1 4.7-3.4.6-.6 1.3-1.2 1.8-1.9.7-.8 1.3-1.6 1.8-2.4 2.6-3.9 4-8.5 4-13.2 0-12.4-9.3-22.5-21.1-23.9zm12.4 10.3.3.3-.3 2.4-10.1 6.1c-.3-.4-.7-.7-1.1-1L28.7 5c4.5.8 8.6 3.1 11.6 6.5zm-9.9 13.4c-.4.1-.8-.1-1-.5-.1-.4.1-.8.5-1 .4-.1.9.1 1 .5.1.5-.1.9-.5 1zm-2.2 4.2c.3.3.2.8-.2 1.1-.3.3-.8.2-1.1-.2s-.2-.8.2-1.1c.4-.2.9-.1 1.1.2zM24 4.6l1 .3 2.2 13.5c-.7-.2-1.4-.4-2.2-.4h-.5L22.9 4.7c.4 0 .7 0 1.1-.1zm2.6 15.6c0 .4-.3.8-.8.8-.4 0-.8-.3-.8-.8s.3-.8.8-.8c.4 0 .8.3.8.8zm-5.5 8.2c.3-.3.7-.4 1.1-.2.3.3.4.7.2 1.1-.3.3-.7.4-1.1.2-.4-.3-.4-.8-.2-1.1zm-.3-4.6-.7-.1c-.2-.2-.3-.5-.2-.8.1-.4.6-.6 1-.5s.6.6.5 1c-.1.1-.3.3-.6.4zM17.2 6.1h.1l2.2 1 2.7 11.5c-.5.2-.9.4-1.3.7L7 15.3c2.3-4.1 5.9-7.4 10.2-9.2zM5.3 19.6l.6-.8 13.6 2.1c-.5.7-.9 1.5-1.2 2.4L5.1 20.6c0-.3.1-.7.2-1zm-.5 8c-.1-.5-.1-.9-.1-1.4l1.6-1.6 11.8 1c0 .5.1 1 .3 1.5l-8.2 12c-3-3.2-4.9-7.2-5.4-11.5zm9.1 14.5-.7-.9L19.3 29c.5.7 1.2 1.4 1.9 1.9l-6.6 11.8c-.2-.3-.5-.4-.7-.6zM25 45.4c-1.7 0-3.4-.2-5-.6l-1.2-2.2 4.5-10.9c.5.1 1 .2 1.5.2l8.9 11.5c-2.6 1.3-5.7 2-8.7 2zm12.9-4.6-1.2.4-9.7-9.6c.9-.3 1.7-.7 2.4-1.3l9.1 9.9-.6.6zM45.4 25c0 3.8-1.1 7.6-3.1 10.8l-2.4.5-8.9-7.7c.3-.4.5-.9.7-1.4l13.6-4.9c0 .9.1 1.8.1 2.7zM44 17.6v1.2l-12.1 6.3V25c0-.9-.2-1.8-.5-2.6l12.2-5.6c.2.2.3.5.4.8z" fill="#ffffff" opacity="1" data-original="#000000" class=""></path></g></svg>