<svg xmlns="http://www.w3.org/2000/svg" version="1.1" xmlns:xlink="http://www.w3.org/1999/xlink" width="512" height="512" x="0" y="0" viewBox="0 0 455.416 455.416" style="enable-background:new 0 0 512 512" xml:space="preserve"><g transform="matrix(0.9000000000000002,0,0,0.9000000000000002,22.770799255370974,22.770800399780143)"><path d="M235.968 52.552c.39 9.688.778 19.376 1.169 29.064h-18.855l1.167-29.064h-45.884c-30.747 116.771-61.499 233.539-92.245 350.312h124.055l1.168-29.064h42.332c.392 9.688.78 19.375 1.168 29.064h124.055c-30.747-116.771-61.498-233.54-92.245-350.312h-45.885zm-19.437 72.581c7.451 0 14.902-.004 22.354-.002 1.082 26.939 2.163 53.88 3.247 80.818h-28.848c1.086-26.937 2.166-53.877 3.247-80.816zm-8.241 205.149c1.081-26.938 2.165-53.877 3.247-80.815l32.342-.002c1.083 26.938 2.166 53.879 3.247 80.817H208.29zM311.929 52.552h-15.621c38.961 116.771 77.913 233.541 116.876 350.312h42.232c-47.827-116.773-95.657-233.541-143.487-350.312zM143.487 52.552C95.657 169.324 47.826 286.091 0 402.864h42.233c38.958-116.771 77.915-233.54 116.875-350.312h-15.621z" fill="#ffffff" opacity="1" data-original="#000000"></path></g></svg>