<svg xmlns="http://www.w3.org/2000/svg" version="1.1" xmlns:xlink="http://www.w3.org/1999/xlink" width="512" height="512" x="0" y="0" viewBox="0 0 50 50" style="enable-background:new 0 0 512 512" xml:space="preserve" class=""><g transform="matrix(0.9500000000000003,0,0,0.9500000000000003,1.249999999999993,1.249999999999993)"><path d="M25 49c7.5 0 14.2-3.4 18.5-8.8C47 36 49 30.8 49 25 49 11.5 38 1 25 1 11.8 1 1 11.7 1 25c0 13.2 10.7 24 24 24zM9.2 38l8.4-7.1c.4-.4 1.1-.3 1.5.1l.1.1c.4.4.4 1 .1 1.5L12.2 41c-1.2-1-2.2-2-3-3zm19.2-11.1c.3-.4.8-.6 1.3-.3.4.3.6.8.3 1.3-.3.4-.8.6-1.3.3-.4-.3-.5-.9-.3-1.3zm-.5 3c-.4.3-1 .1-1.3-.3s-.1-1 .3-1.3 1-.1 1.3.3c.3.5.1 1.1-.3 1.3zm1.9-4.1c-.5 0-.9-.4-.9-.9s.4-.9.9-.9.9.4.9.9-.3.9-.9.9zm-.2-2.5c-.4.3-1 .1-1.3-.3s-.1-1 .3-1.3 1-.1 1.3.3c.3.5.2 1-.3 1.3zm-1.4-2.1c-.3.4-.8.6-1.3.3s-.6-.8-.3-1.3c.3-.4.8-.6 1.3-.3.4.3.5.8.3 1.3zm-.3 3.8c0 1.6-1.3 2.9-2.9 2.9s-2.9-1.3-2.9-2.9 1.3-2.9 2.9-2.9 2.9 1.3 2.9 2.9zm-6.2 3.7c.3-.4.8-.6 1.3-.3.4.3.6.8.3 1.3-.3.4-.8.5-1.3.3-.4-.3-.5-.9-.3-1.3zm-.5-.5c-.4.3-1 .1-1.3-.3s-.1-1 .3-1.3 1-.1 1.3.3.1 1-.3 1.3zm1.8-6.7c-.4.3-1 .1-1.3-.3s-.1-1 .3-1.3 1-.1 1.3.3c.3.5.2 1-.3 1.3zm-1.5 1.4c-.3.4-.8.6-1.3.3-.3-.2-.5-.8-.2-1.2s.8-.6 1.3-.3c.3.2.5.8.2 1.2zM20.1 24c.5 0 .9.4.9.9s-.4.9-.9.9-.9-.4-.9-.9.4-.9.9-.9zm1.6 21.2c-1.4-.2-2.7-.6-3.9-1.1l3.7-10.4c.2-.6.8-.8 1.3-.7.6.2.9.7.8 1.3zM25 30.7c-.5 0-.9-.4-.9-.9s.4-.9.9-.9.9.4.9.9-.4.9-.9.9zm3.3 14.5-2-10.9c-.1-.6.3-1.1.8-1.3.6-.1 1.1.1 1.3.7l3.7 10.4c-1.1.5-2.4.9-3.8 1.1zm9.7-4.4-7.1-8.4c-.4-.4-.3-1.1.1-1.5.4-.4 1.1-.4 1.5-.1l8.4 7.1C40 39 39 40 38 40.8zm6.1-8.6-10.4-3.7c-.5-.2-.8-.8-.7-1.3.2-.6.7-.9 1.3-.8l10.8 2c-.1 1.3-.5 2.6-1 3.8zm0-14.4c.5 1.3.8 2.6 1 3.9l-10.9 2c-.6.1-1.1-.3-1.3-.8-.1-.6.1-1.1.7-1.3zm-3.3-5.7-8.4 7.1c-.4.4-1.1.3-1.5-.1-.4-.4-.5-1.1-.1-1.5l7.1-8.4c1.1.9 2.1 1.8 2.9 2.9zM28.3 4.8c1.4.2 2.7.6 3.9 1l-3.7 10.4c-.2.5-.8.8-1.3.7-.6-.1-.9-.7-.8-1.3zM25 19.1c.5 0 .9.4.9.9s-.4.9-.9.9-.9-.4-.9-.9.4-.9.9-.9zM21.7 4.8l2 10.8c.1.6-.3 1.1-.8 1.3-.6.1-1.1-.1-1.3-.7L17.8 5.9c1.2-.5 2.5-.8 3.9-1.1zm-9.6 4.4 7.1 8.4c.4.4.3 1.1-.1 1.5-.4.4-1.1.5-1.5.1l-8.4-7.1c.9-1.1 1.8-2 2.9-2.9zm-6.2 8.6 10.4 3.7c.5.2.8.8.7 1.3-.2.5-.7.9-1.3.8l-10.8-2c.2-1.3.5-2.6 1-3.8zM4.8 28.3l10.8-2c.6-.1 1.1.3 1.3.8.1.6-.1 1.1-.7 1.3L5.9 32.2c-.5-1.2-.9-2.5-1.1-3.9z" fill="#ffffff" opacity="1" data-original="#000000" class=""></path></g></svg>