<svg xmlns="http://www.w3.org/2000/svg" version="1.1" xmlns:xlink="http://www.w3.org/1999/xlink" width="512" height="512" x="0" y="0" viewBox="0 0 450 450" style="enable-background:new 0 0 512 512" xml:space="preserve"><g transform="matrix(0.9000000000000007,0,0,0.9000000000000007,22.499999237060308,22.499976798891765)"><path d="M87.945 75.913c-1.877-7.41-9.408-11.893-16.818-10.018-7.413 1.879-11.897 9.409-10.019 16.821l90.439 356.838c1.589 6.271 7.224 10.446 13.409 10.446 1.127 0 2.271-.139 3.413-.428 7.409-1.877 11.895-9.409 10.017-16.819L87.945 75.913zM388.98 176.419c-14.739-54.423-29.492-108.842-44.234-163.265-1.598-5.891-4.399-12.21-14.929-12.842-82.888-6.003-137.314 76.542-220.203 70.538-6.541-.806-10.745 2.6-9.148 8.491 14.743 54.422 29.372 108.877 44.233 163.266 2.385 8.729 8.388 12.035 14.931 12.842 82.887 6.004 137.315-76.541 220.205-70.537 6.54.804 10.742-2.601 9.145-8.493zM323.934 20.857c4.066 15.015 8.138 30.029 12.204 45.044-17.436.574-32.825 4.092-49.132 10.203-4.065-15.015-8.137-30.03-12.202-45.044 16.305-6.109 31.694-9.63 49.13-10.203zM153.13 189.197c-4.627-17.059-9.246-34.122-13.868-51.182 18.328-.531 34.591-4.503 51.602-11.227-4.07-15.015-8.138-30.03-12.204-45.045 16.629-7.433 32.314-16.332 48.022-25.523 4.066 15.014 8.138 30.029 12.205 45.044-15.709 9.19-31.395 18.092-48.023 25.524 4.623 17.06 9.244 34.122 13.866 51.182-17.012 6.723-33.273 10.695-51.6 11.227zm63.984 34.477c-4.129-15.234-8.256-30.47-12.384-45.706 16.513-7.377 32.087-16.201 47.683-25.327l12.383 45.707c-15.594 9.127-31.17 17.949-47.682 25.326zm35.636-71.229c-4.619-17.061-9.242-34.122-13.863-51.183 15.706-9.17 31.403-17.945 48.119-25.157 4.624 17.06 9.246 34.121 13.867 51.181-16.713 7.214-32.415 15.988-48.123 25.159zm60.795 20.431L301.16 127.17c16.211-6.045 31.521-9.521 48.843-10.086l12.386 45.705c-17.323.566-32.635 4.041-48.844 10.087z" fill="#ffffff" opacity="1" data-original="#000000"></path></g></svg>