<svg width="28" height="28" viewBox="0 0 28 28" fill="none" xmlns="http://www.w3.org/2000/svg"><path d="M22.4576 5.69972C20.567 6.67399 18.7825 7.84144 17.1325 9.18338C16.5549 9.64621 15.8368 9.89816 15.0967 9.8976C14.6802 9.89916 14.2675 9.8184 13.8822 9.65998C13.497 9.50156 13.1469 9.26859 12.852 8.97446C12.5283 8.64116 12.2797 8.24245 12.123 7.80511C11.9662 7.36777 11.9048 6.90194 11.943 6.43892C11.9812 5.9759 12.1181 5.52643 12.3444 5.1207C12.5708 4.71497 12.8813 4.36238 13.2553 4.08664C17.7155 0.695298 21.6024 -0.888626 22.9969 0.50581C23.32 0.809708 23.5631 1.18866 23.7047 1.60905C23.8462 2.02944 23.8818 2.47826 23.8083 2.91571C23.6625 3.72419 22.96 4.66482 22.4576 5.69972Z" fill="#C8D7EF" /><path d="M9.18338 17.1323C7.84144 18.7823 6.674 20.5668 5.69972 22.4574C4.66483 22.9598 3.72419 23.6623 2.91571 23.8081C2.47826 23.8816 2.02944 23.846 1.60905 23.7045C1.18866 23.5629 0.809708 23.3198 0.50581 22.9967C-0.888626 21.6023 0.695298 17.7153 4.08665 13.2551C4.39506 12.8439 4.79481 12.5101 5.25435 12.2799C5.71389 12.0497 6.22065 11.9294 6.73462 11.9286C7.15047 11.9267 7.56257 12.0073 7.94706 12.1657C8.33154 12.3242 8.68075 12.5574 8.97446 12.8518C9.52832 13.4154 9.85565 14.163 9.89417 14.9522C9.93269 15.7415 9.67972 16.5174 9.18338 17.1323Z" fill="#C8D7EF" /><path d="M22.8147 0.324451L27.4678 4.97759C29.3948 6.90502 25.9243 13.5007 19.7125 19.7125C13.5007 25.9243 6.90502 29.3948 4.97758 27.4678L0.324444 22.8147C1.21649 23.7063 3.11623 23.4429 5.5169 22.2754C8.28925 20.93 11.7287 18.3885 15.0593 15.0593C18.3899 11.7302 20.93 8.28926 22.2754 5.5169C23.4429 3.11624 23.7063 1.2165 22.8147 0.324451Z" fill="#C8D7EF" /></svg>