<svg width="26" height="35" viewBox="0 0 26 35" fill="none" xmlns="http://www.w3.org/2000/svg"><path d="M13 16.4706C15.2985 16.4706 17.5029 15.6029 19.1283 14.0585C20.7536 12.5141 21.6667 10.4194 21.6667 8.23529C21.6667 6.05116 20.7536 3.95648 19.1283 2.41206C17.5029 0.867644 15.2985 0 13 0C10.7015 0 8.49706 0.867644 6.87174 2.41206C5.24643 3.95648 4.33333 6.05116 4.33333 8.23529C4.33333 10.4194 5.24643 12.5141 6.87174 14.0585C8.49706 15.6029 10.7015 16.4706 13 16.4706ZM5.41667 20.5882C2.42667 20.5882 0 22.8941 0 25.7353C0 25.7353 0 35 13 35C23.3047 35 25.441 29.1776 25.883 26.7647C26 26.1347 26 25.7353 26 25.7353C26 22.8941 23.5733 20.5882 20.5833 20.5882H5.41667Z" fill="#C8D7EF" /></svg>