<svg width="23" height="33" viewBox="0 0 23 33" fill="none" xmlns="http://www.w3.org/2000/svg"><path d="M23 14.9509V31.4449C23 32.3035 22.3032 33 21.4444 33H1.55556C0.696748 33 0 32.3035 0 31.4449V14.9509C0 14.5977 0.12022 14.2551 0.340736 13.9795L0.898666 13.2817C2.59504 11.1622 3.51894 8.52887 3.51894 5.81451V0.934225C3.51894 0.41831 3.93739 0 4.45348 0H7.99792L7.99766 6.50638C7.99766 7.47314 8.38954 8.34827 9.02385 8.98237C9.6575 9.61581 10.5329 10.0076 11.5 10.0076C13.4342 10.0076 15.0023 8.4399 15.0023 6.50638L15.0029 0H18.5465C19.0626 0 19.4811 0.41831 19.4811 0.934225V5.81451C19.4811 8.52887 20.405 11.1622 22.1013 13.2817L22.6593 13.9795C22.8798 14.2551 23 14.5977 23 14.9509Z" fill="#C8D7EF" /></svg>