<svg width="24" height="38" viewBox="0 0 24 38" fill="none" xmlns="http://www.w3.org/2000/svg"><path d="M23.9999 31.5302V36.0345C23.9999 36.5558 23.8003 37.0557 23.445 37.4243C23.0896 37.7929 22.6077 38 22.1052 38C21.6027 38 21.1208 37.7929 20.7654 37.4243C20.4101 37.0557 20.2105 36.5558 20.2105 36.0345V31.5302C20.2164 29.7036 19.7289 27.9119 18.8032 26.3581C17.8775 24.8044 16.5507 23.5507 14.9731 22.7394L7.33108 18.7756C5.12284 17.6398 3.26554 15.8849 1.96979 13.7099C0.674038 11.5348 -0.00832386 9.02668 7.66376e-05 6.46983V1.96552C7.66376e-05 1.44423 0.199699 0.944293 0.555028 0.575687C0.910358 0.207081 1.39229 0 1.8948 0C2.39731 0 2.87924 0.207081 3.23457 0.575687C3.5899 0.944293 3.78953 1.44423 3.78953 1.96552V6.46983C3.7836 8.29637 4.27112 10.0881 5.19681 11.6419C6.12251 13.1956 7.44934 14.4493 9.02686 15.2606L16.6689 19.2244C18.8772 20.3602 20.7345 22.1151 22.0302 24.2901C23.326 26.4652 24.0083 28.9733 23.9999 31.5302ZM15.7894 31.4483H3.78953C3.79764 30.5614 3.92193 29.6797 4.159 28.8276H13.0326C13.5351 28.8276 14.0171 28.6205 14.3724 28.2519C14.7277 27.8833 14.9273 27.3834 14.9273 26.8621C14.9273 26.3408 14.7277 25.8408 14.3724 25.4722C14.0171 25.1036 13.5351 24.8966 13.0326 24.8966H6.27793C6.43582 24.7164 6.59372 24.5395 6.77214 24.3708C7.13813 24.0135 7.35232 23.52 7.36757 22.9989C7.38281 22.4778 7.19788 21.9717 6.85345 21.592C6.50902 21.2124 6.03331 20.9902 5.53096 20.9744C5.02861 20.9585 4.54078 21.1504 4.17479 21.5077C2.8593 22.7966 1.8107 24.35 1.09296 26.0732C0.37521 27.7963 0.00335651 29.6531 7.66376e-05 31.5302V36.0345C7.66376e-05 36.5558 0.199699 37.0557 0.555028 37.4243C0.910358 37.7929 1.39229 38 1.8948 38C2.39731 38 2.87924 37.7929 3.23457 37.4243C3.5899 37.0557 3.78953 36.5558 3.78953 36.0345V35.3793H15.7894C16.292 35.3793 16.7739 35.1722 17.1292 34.8036C17.4846 34.435 17.6842 33.9351 17.6842 33.4138C17.6842 32.8925 17.4846 32.3926 17.1292 32.024C16.7739 31.6554 16.292 31.4483 15.7894 31.4483ZM22.1052 0C21.6027 0 21.1208 0.207081 20.7654 0.575687C20.4101 0.944293 20.2105 1.44423 20.2105 1.96552V2.62069H8.21055C7.70804 2.62069 7.22611 2.82777 6.87078 3.19638C6.51545 3.56498 6.31582 4.06492 6.31582 4.58621C6.31582 5.10749 6.51545 5.60743 6.87078 5.97604C7.22611 6.34464 7.70804 6.55172 8.21055 6.55172H20.2105C20.2024 7.43862 20.0781 8.32025 19.841 9.17241H10.9642C10.4617 9.17241 9.97977 9.37949 9.62444 9.7481C9.26911 10.1167 9.06949 10.6166 9.06949 11.1379C9.06949 11.6592 9.26911 12.1592 9.62444 12.5278C9.97977 12.8964 10.4617 13.1034 10.9642 13.1034H17.7221C17.5642 13.2836 17.4063 13.4605 17.2279 13.6292C16.8619 13.9865 16.6477 14.48 16.6324 15.0011C16.6172 15.5222 16.8021 16.0283 17.1465 16.408C17.491 16.7876 17.9667 17.0098 18.469 17.0256C18.9714 17.0415 19.4592 16.8496 19.8252 16.4923C21.1407 15.2034 22.1893 13.65 22.907 11.9268C23.6248 10.2037 23.9966 8.34695 23.9999 6.46983V1.96552C23.9999 1.44423 23.8003 0.944293 23.445 0.575687C23.0896 0.207081 22.6077 0 22.1052 0Z" fill="#C8D7EF" /></svg>