<svg width="42" height="42" viewBox="0 0 42 42" fill="none" xmlns="http://www.w3.org/2000/svg">
<rect width="42" height="42" fill="url(#paint0_radial_248_1570)" fill-opacity="0.42"/>
<rect x="1.5" y="1.5" width="39" height="39" stroke="#9FFFD1" stroke-opacity="0.23" stroke-width="3"/>
<path fill-rule="evenodd" clip-rule="evenodd" d="M19.8282 11.7106C19.6809 10.7422 22.4176 10.7843 22.3124 11.7106L22.1861 16.9947L23.4702 17.7315C23.8281 16.8894 24.3334 15.4158 25.3439 15.8789C29.6385 17.5841 32.0385 27.0997 30.5648 30.5733C29.1754 32.2154 25.6597 28.2576 22.8387 26.6787C21.5966 26.0892 22.2703 24.9313 22.4597 23.6893C22.7334 22.7419 21.7229 22.0261 22.8387 19.4788C22.3124 19.0157 21.9755 18.6157 21.2387 18.0894C20.2703 18.4894 20.0387 18.9736 19.4282 19.4157C20.0598 20.9735 19.5545 22.7419 19.744 23.563C19.8493 24.5735 20.544 26.1103 19.4703 26.5945C17.5125 27.4576 13.9547 31.0996 11.8495 30.8049C9.87055 30.2996 11.3232 18.342 16.4809 15.8579C17.6809 15.3947 17.9967 17.3736 18.6703 18.0894L20.2072 17.0157C20.1861 15.5842 19.9966 13.2474 19.8282 11.7106Z" fill="#00FFA3"/>
<defs>
<radialGradient id="paint0_radial_248_1570" cx="0" cy="0" r="1" gradientUnits="userSpaceOnUse" gradientTransform="translate(21 21) rotate(90) scale(35.8235)">
<stop stop-color="#488670"/>
<stop offset="1"/>
</radialGradient>
</defs>
</svg>
