<svg width="42" height="42" viewBox="0 0 42 42" fill="none" xmlns="http://www.w3.org/2000/svg">
<rect width="42" height="42" rx="6" fill="url(#paint0_radial_277_236)" fill-opacity="0.28"/>
<rect x="0.5" y="0.5" width="41" height="41" rx="5.5" stroke="#FFC400"/>
<rect x="4" y="36" width="34" height="3" rx="1.5" fill="black" fill-opacity="0.38"/>
<rect x="4" y="36" width="18" height="3" rx="1.5" fill="#FFC400"/>
<path d="M28.9042 15.9682L28.8929 15.958C28.7656 15.8426 28.5592 15.8426 28.4319 15.958L25.2888 18.8071C25.1756 18.9145 24.9938 18.9327 24.8573 18.8506C24.7104 18.756 24.6759 18.5714 24.7802 18.4383C24.7908 18.4248 24.8026 18.4121 24.8155 18.4004L27.9585 15.5513C28.0769 15.4487 28.0971 15.2838 28.0064 15.1602C27.9021 15.027 27.6984 14.9957 27.5515 15.0903C27.5367 15.0998 27.5227 15.1105 27.5098 15.1222L24.3668 17.9713C24.2535 18.0786 24.0717 18.0969 23.9353 18.0147C23.7884 17.9202 23.7539 17.7356 23.8582 17.6024C23.8687 17.5889 23.8805 17.5763 23.8934 17.5646L27.0365 14.7155C27.1549 14.6128 27.175 14.448 27.0844 14.3243C26.98 14.1912 26.7764 14.1599 26.6295 14.2544C26.6146 14.264 26.6007 14.2747 26.5878 14.2864L23.4447 17.1355C23.3315 17.2428 23.1497 17.2611 23.0132 17.1789C22.8663 17.0844 22.8318 16.8998 22.9361 16.7666C22.9467 16.7531 22.9585 16.7405 22.9713 16.7288L26.1267 13.8685C26.254 13.7531 26.254 13.566 26.1267 13.4506L26.1155 13.4404C25.9931 13.3287 25.7955 13.3241 25.6668 13.4297C25.035 13.9491 23.2449 15.4293 22.1608 16.412C21.5573 16.9589 21.3281 17.7594 21.562 18.5034C21.6149 18.669 21.6166 18.8446 21.567 19.011L22.7587 20.0913C22.9423 20.0464 23.136 20.0479 23.3187 20.0959C24.1395 20.3079 25.0226 20.1002 25.626 19.553C26.71 18.5704 28.3429 16.9477 28.9158 16.3749C29.0324 16.2583 29.0273 16.0792 28.9042 15.9682Z" fill="#FFC400"/>
<path d="M18.9629 22.0963C18.791 22.0951 18.6199 22.0757 18.4531 22.0383C17.3353 22.9144 15.8016 24.0575 13.6329 25.6409C12.7643 26.275 12.8875 27.0003 13.4164 27.4797C13.9453 27.9591 14.7453 28.0708 15.4449 27.2834C17.6497 24.8021 19.0821 23.2358 20.1224 22.1908L19.8367 21.9318C19.5608 22.0398 19.2635 22.0958 18.9629 22.0963Z" fill="#FFC400"/>
<path d="M13.7579 13.2008C13.148 12.648 13.1999 13.3089 13.1654 14.3036C13.117 15.6973 13.7935 17.5166 15.9251 19.576C16.7999 20.4211 17.5305 20.9746 18.1555 21.2967C18.7205 21.6062 19.4388 21.5623 19.9529 21.1869L26.9739 27.5513C27.3658 27.9186 28.0001 27.959 28.4449 27.6451C28.9028 27.3045 28.9694 26.6919 28.5937 26.2768C28.5714 26.2522 28.5478 26.2286 28.523 26.2061L13.7579 13.2008Z" fill="#FFC400"/>
<defs>
<radialGradient id="paint0_radial_277_236" cx="0" cy="0" r="1" gradientUnits="userSpaceOnUse" gradientTransform="translate(21 21) rotate(90) scale(46)">
<stop stop-color="#FFC400" stop-opacity="0"/>
<stop offset="1" stop-color="#FFC400"/>
</radialGradient>
</defs>
</svg>
