<svg width="48" height="48" viewBox="0 0 48 48" fill="none" xmlns="http://www.w3.org/2000/svg">
<path d="M4.71539 12.866L24 1.73205L43.2846 12.866V35.134L24 46.2679L4.71539 35.134V12.866Z" stroke="#F29FFF" stroke-opacity="0.33" stroke-width="3"/>
<path d="M41.7846 13.732V28.5H44.7846V12L24 0V3.4641L41.7846 13.732Z" fill="#A888DE"/>
<path d="M27.2727 24.6158C28.2236 24.6158 29.0235 25.2884 29.2201 26.1866C30.4018 26.3883 31.3817 27.2089 31.7976 28.3192C32.5075 28.0729 33 27.3972 33 26.6294C33 26.0231 32.6958 25.4581 32.1846 25.1218C31.8928 24.9335 31.5545 24.8331 31.2047 24.8331C31.0485 24.8331 30.9212 24.7059 30.9212 24.5496C30.9212 24.3934 31.0485 24.2661 31.2047 24.2661C31.5835 24.2661 31.9518 24.3592 32.2829 24.531C32.6037 24.1544 32.7806 23.6836 32.7806 23.1796C32.7806 22.5567 32.5075 21.9794 32.0418 21.5851C31.6103 22.1014 30.9585 22.4326 30.23 22.4326C30.0738 22.4326 29.9465 22.3053 29.9465 22.149C29.9465 21.9928 30.0738 21.8655 30.23 21.8655C31.2203 21.8655 32.0263 21.0605 32.0263 20.0723C32.0263 19.0842 31.2213 18.2792 30.23 18.2792C30.0738 18.2792 29.9465 18.1519 29.9465 17.9956C29.9465 17.8394 30.0738 17.7121 30.23 17.7121C30.439 17.7121 30.6377 17.7411 30.8291 17.7918C30.8902 17.5797 30.9223 17.3603 30.9223 17.1296C30.9223 15.8206 29.8575 14.7559 28.5486 14.7559C28.5113 14.7559 28.472 14.7642 28.4317 14.7642C28.4317 14.7725 28.4348 14.7828 28.4348 14.7932C28.4348 16.0969 27.3752 17.1565 26.0745 17.1565C25.9152 17.1565 25.791 17.0292 25.791 16.873C25.791 16.7167 25.9152 16.5895 26.0745 16.5895C27.0627 16.5895 27.8677 15.7813 27.8677 14.7932C27.8677 13.805 27.0627 13 26.0745 13C25.0863 13 24.2813 13.805 24.2813 14.7932V32.3929C24.2813 33.3831 25.0864 34.1892 26.0745 34.1892C27.0627 34.1892 27.8015 33.4524 27.8594 32.5129C27.8646 32.4332 27.905 32.3567 27.9681 32.3091C28.0343 32.2584 28.114 32.2377 28.1937 32.2532C28.3313 32.2801 28.4792 32.2904 28.6417 32.2904C30.1855 32.2904 31.4469 31.0322 31.4469 29.4884C31.4469 29.239 31.4097 28.9855 31.3434 28.733C31.0651 27.7428 30.257 26.9874 29.2615 26.765C29.1767 27.7873 28.3189 28.5954 27.2749 28.5954C27.1186 28.5954 26.9913 28.4682 26.9913 28.3119C26.9913 28.1557 27.1186 28.0284 27.2749 28.0284C28.0644 28.0284 28.7048 27.3869 28.7048 26.5984C28.7048 25.8089 28.0633 25.1684 27.2749 25.1684C27.1186 25.1684 26.9913 25.0411 26.9913 24.8849C26.9913 24.7287 27.1186 24.6014 27.2749 24.6014L27.2727 24.6158ZM27.6804 17.8693C27.8367 17.8693 27.9639 17.9966 27.9639 18.1528C27.9639 19.0934 28.7265 19.856 29.6671 19.856C29.8233 19.856 29.9506 19.9833 29.9506 20.1395C29.9506 20.2957 29.8233 20.423 29.6671 20.423C28.414 20.423 27.3969 19.4059 27.3969 18.1528C27.3969 17.9966 27.5242 17.8693 27.6804 17.8693ZM27.4186 30.3431C27.578 30.3431 27.7021 30.4703 27.7021 30.6266C27.7021 30.7828 27.578 30.9101 27.4186 30.9101C26.9044 30.9101 26.4832 31.3312 26.4832 31.8455C26.4832 32.0048 26.3591 32.129 26.1997 32.129C26.0404 32.129 25.9162 32.0048 25.9162 31.8455C25.9162 31.0218 26.5919 30.3461 27.4156 30.3461L27.4186 30.3431ZM26.7936 23.1134C26.7409 23.1692 26.6664 23.1982 26.595 23.1982C26.5236 23.1982 26.4522 23.1692 26.3932 23.1134C26.2814 23.0016 26.2814 22.8247 26.3932 22.716C26.7585 22.3508 26.7585 21.7568 26.3932 21.3947C26.2814 21.2829 26.2814 21.106 26.3932 20.9973C26.5049 20.8856 26.6819 20.8856 26.7905 20.9973C27.3762 21.583 27.3762 22.5308 26.7905 23.1165L26.7936 23.1134Z" fill="#A888DE"/>
<path d="M20.7251 28.6048C19.6811 28.6048 18.8233 27.7967 18.7384 26.7744C17.7399 26.9968 16.9318 27.7522 16.6565 28.7424C16.5872 28.9939 16.5531 29.2484 16.5531 29.4978C16.5531 31.0416 17.8144 32.2998 19.3583 32.2998C19.5197 32.2998 19.6656 32.2895 19.8063 32.2626C19.886 32.2491 19.9677 32.2678 20.0319 32.3185C20.0929 32.3661 20.1323 32.4426 20.1405 32.5223C20.1985 33.4598 20.9859 34.1986 21.9254 34.1986C22.9136 34.1986 23.7186 33.3935 23.7186 32.4023V14.8015C23.7186 13.8134 22.9136 13.0084 21.9254 13.0084C20.9373 13.0084 20.1323 13.8134 20.1323 14.8015C20.1323 15.7897 20.9373 16.5978 21.9254 16.5978C22.0817 16.5978 22.209 16.722 22.209 16.8813C22.209 17.0407 22.0817 17.1649 21.9254 17.1649C20.6248 17.1649 19.5652 16.1053 19.5652 14.8015C19.5652 14.7912 19.5683 14.7777 19.5683 14.7694C19.529 14.7663 19.4886 14.7643 19.4514 14.7643C18.1424 14.7643 17.0777 15.829 17.0777 17.1379C17.0777 17.3656 17.1098 17.588 17.1708 17.8002C17.3643 17.7495 17.5599 17.7205 17.7699 17.7205C17.9262 17.7205 18.0535 17.8447 18.0535 18.004C18.0535 18.1634 17.9262 18.2875 17.7699 18.2875C16.7797 18.2875 15.9737 19.0926 15.9737 20.0807C15.9737 21.0689 16.7787 21.8739 17.7699 21.8739C17.9262 21.8739 18.0535 22.0012 18.0535 22.1574C18.0535 22.3136 17.9262 22.4409 17.7699 22.4409C17.0415 22.4409 16.3896 22.1098 15.9581 21.5935C15.4915 21.9856 15.2214 22.5661 15.2214 23.188C15.2214 23.6909 15.3963 24.1627 15.7171 24.5394C16.0513 24.3676 16.4186 24.2745 16.7953 24.2745C16.9515 24.2745 17.0788 24.4017 17.0788 24.558C17.0788 24.7142 16.9515 24.8415 16.7953 24.8415C16.4455 24.8415 16.1061 24.9398 15.8154 25.1302C15.3042 25.4665 15 26.0283 15 26.6378C15 27.4056 15.4956 28.0812 16.2024 28.3275C16.6183 27.2172 17.5982 26.3936 18.7799 26.1949C18.9755 25.2999 19.7732 24.6242 20.7273 24.6242C20.8835 24.6242 21.0108 24.7515 21.0108 24.9077C21.0108 25.0639 20.8835 25.1912 20.7273 25.1912C19.9378 25.1912 19.2973 25.8328 19.2973 26.6212C19.2973 27.4107 19.9388 28.0512 20.7273 28.0512C20.8835 28.0512 21.0108 28.1785 21.0108 28.3347C21.0108 28.491 20.8835 28.6182 20.7273 28.6182L20.7251 28.6048ZM18.3307 20.4202C18.1745 20.4202 18.0472 20.2929 18.0472 20.1367C18.0472 19.9804 18.1745 19.8532 18.3307 19.8532C19.2713 19.8532 20.0339 19.0906 20.0339 18.15C20.0339 17.9938 20.1612 17.8665 20.3174 17.8665C20.4737 17.8665 20.6009 17.9938 20.6009 18.15C20.6009 19.4031 19.5838 20.4202 18.3307 20.4202ZM20.7644 22.0541C20.7644 21.6536 20.9207 21.278 21.2042 20.9945C21.316 20.8827 21.4929 20.8827 21.6015 20.9945C21.7133 21.1062 21.7133 21.2832 21.6015 21.3918C21.4267 21.5667 21.3284 21.8047 21.3284 22.0541C21.3284 22.3034 21.4267 22.5383 21.6015 22.7163C21.7133 22.828 21.7133 23.005 21.6015 23.1136C21.5457 23.1695 21.4743 23.1985 21.3998 23.1985C21.3253 23.1985 21.257 23.1695 21.2011 23.1136C20.9155 22.8301 20.7613 22.4545 20.7613 22.0541H20.7644ZM22.0817 31.8426C22.0817 32.002 21.9544 32.1261 21.7981 32.1261C21.6419 32.1261 21.5146 32.002 21.5146 31.8426C21.5146 31.3284 21.0935 30.9072 20.5792 30.9072C20.4199 30.9072 20.2957 30.7831 20.2957 30.6237C20.2957 30.4644 20.4199 30.3402 20.5792 30.3402C21.4029 30.3402 22.0786 31.0159 22.0786 31.8395L22.0817 31.8426Z" fill="#A888DE"/>
</svg>
