<svg width="42" height="42" viewBox="0 0 42 42" fill="none" xmlns="http://www.w3.org/2000/svg">
<circle opacity="0.83" cx="21" cy="21" r="21" fill="black" fill-opacity="0.44"/>
<path d="M41.0118 21C41.0118 32.0522 32.0522 41.0118 21 41.0118C9.94785 41.0118 0.988281 32.0522 0.988281 21C0.988281 9.94785 9.94785 0.988281 21 0.988281C32.0522 0.988281 41.0118 9.94785 41.0118 21ZM3.29192 21C3.29192 30.78 11.2201 38.7082 21 38.7082C30.78 38.7082 38.7082 30.78 38.7082 21C38.7082 11.2201 30.78 3.29192 21 3.29192C11.2201 3.29192 3.29192 11.2201 3.29192 21Z" fill="white" fill-opacity="0.06"/>
<path d="M21 0.988281C24.6365 0.988281 28.2042 1.97915 31.3198 3.85441C34.4354 5.72967 36.9812 8.41843 38.6836 11.6318C40.3859 14.8452 41.1805 18.4616 40.982 22.0927C40.7834 25.7237 39.5992 29.232 37.5567 32.2406L35.6508 30.9466C37.4582 28.2844 38.5061 25.1799 38.6818 21.9669C38.8575 18.7539 38.1543 15.5537 36.6479 12.7102C35.1415 9.86675 32.8888 7.4875 30.1319 5.82811C27.3749 4.16872 24.2179 3.29192 21 3.29192V0.988281Z" fill="#FFC400"/>
<path d="M30.198 16.3963L30.1852 16.3847C30.0395 16.2526 29.8033 16.2526 29.6576 16.3847L26.0613 19.6447C25.9317 19.7675 25.7237 19.7884 25.5675 19.6944C25.3994 19.5862 25.3599 19.375 25.4793 19.2226C25.4914 19.2072 25.5049 19.1927 25.5196 19.1793L29.116 15.9193C29.2515 15.8018 29.2745 15.6132 29.1708 15.4717C29.0514 15.3194 28.8184 15.2836 28.6503 15.3918C28.6333 15.4027 28.6173 15.4149 28.6026 15.4283L25.0062 18.6883C24.8766 18.8111 24.6686 18.8321 24.5125 18.738C24.3444 18.6298 24.3049 18.4186 24.4242 18.2662C24.4363 18.2508 24.4498 18.2363 24.4646 18.2229L28.0609 14.9629C28.1964 14.8455 28.2195 14.6569 28.1158 14.5153C27.9964 14.363 27.7634 14.3272 27.5953 14.4354C27.5783 14.4463 27.5623 14.4586 27.5475 14.4719L23.9512 17.732C23.8216 17.8548 23.6136 17.8757 23.4574 17.7816C23.2894 17.6734 23.2499 17.4622 23.3692 17.3098C23.3813 17.2944 23.3948 17.2799 23.4095 17.2666L27.02 13.9937C27.1657 13.8617 27.1657 13.6476 27.02 13.5156L27.0071 13.5039C26.8671 13.3762 26.641 13.3708 26.4937 13.4917C25.7708 14.086 23.7226 15.7797 22.4821 16.9041C21.7915 17.5299 21.5292 18.4459 21.7969 19.2972C21.8574 19.4867 21.8594 19.6876 21.8026 19.878L23.1662 21.1141C23.3763 21.0627 23.598 21.0644 23.807 21.1193C24.7462 21.362 25.7566 21.1242 26.447 20.4982C27.6875 19.3738 29.5558 17.517 30.2114 16.8617C30.3448 16.7283 30.3389 16.5233 30.198 16.3963Z" fill="#FFC400"/>
<path d="M18.8229 23.4082C18.6263 23.4069 18.4305 23.3846 18.2396 23.3419C16.9606 24.3444 15.2057 25.6523 12.7242 27.4641C11.7303 28.1897 11.8713 29.0195 12.4765 29.5681C13.0817 30.1167 13.997 30.2444 14.7975 29.3436C17.3203 26.5043 18.9593 24.7121 20.1497 23.5164L19.8227 23.2201C19.507 23.3437 19.1668 23.4077 18.8229 23.4082Z" fill="#FFC400"/>
<path d="M12.8672 13.2298C12.1694 12.5972 12.2288 13.3534 12.1892 14.4916C12.1339 16.0863 12.908 18.168 15.347 20.5244C16.3479 21.4915 17.184 22.1248 17.8991 22.4933C18.5456 22.8475 19.3674 22.7973 19.9557 22.3677L27.9893 29.65C28.4378 30.0703 29.1636 30.1166 29.6726 29.7574C30.1965 29.3676 30.2727 28.6666 29.8427 28.1917C29.8173 28.1636 29.7903 28.1366 29.7619 28.1108L12.8672 13.2298Z" fill="#FFC400"/>
</svg>
