<svg width="689" height="713" viewBox="0 0 689 713" fill="none" xmlns="http://www.w3.org/2000/svg">
<path fill-rule="evenodd" clip-rule="evenodd" d="M75.0948 12.0551L11.1791 75.9708C-3.72635 90.8762 -3.72634 115.043 11.1791 129.948L209.742 328.511C224.647 343.416 224.647 367.583 209.742 382.488L11.1791 581.051C-3.72635 595.957 -3.72637 620.123 11.1791 635.029L77.4772 701.327C92.3827 716.232 116.549 716.232 131.455 701.327L289.839 542.942C296.997 535.784 301.018 526.076 301.018 515.953V199.811C301.018 189.688 296.997 179.98 289.839 172.822L129.072 12.0551C114.167 -2.85039 90.0002 -2.85038 75.0948 12.0551ZM613.579 12.0551L677.495 75.9708C692.4 90.8762 692.4 115.043 677.495 129.948L478.932 328.511C464.026 343.416 464.026 367.583 478.932 382.488L677.495 581.051C692.4 595.957 692.4 620.123 677.495 635.029L611.196 701.327C596.291 716.232 572.124 716.232 557.219 701.327L398.834 542.942C391.676 535.784 387.655 526.076 387.655 515.953V199.811C387.655 189.688 391.676 179.98 398.834 172.822L559.601 12.0551C574.507 -2.85039 598.673 -2.85038 613.579 12.0551Z" fill="url(#paint0_linear_32_2366)"/>
<defs>
<linearGradient id="paint0_linear_32_2366" x1="83.2147" y1="478.59" x2="644.516" y2="-46.3416" gradientUnits="userSpaceOnUse">
<stop stop-color="#75FBC6"/>
<stop offset="1" stop-color="#78FB75"/>
</linearGradient>
</defs>
</svg>
