<svg width="19" height="19" viewBox="0 0 19 19" fill="none" xmlns="http://www.w3.org/2000/svg">
    <g id="Vector">
        <path
            d="M9.40048 0.0218589C9.46362 -0.0072863 9.53638 -0.0072863 9.59952 0.0218589L18.8617 5.24668C19.0929 5.35339 19.0168 5.6998 18.7622 5.6998H0.237821C-0.0168331 5.6998 -0.0929173 5.35339 0.138298 5.24668L9.40048 0.0218589ZM9.50048 1.62853C9.36932 1.62853 9.26299 1.73486 9.26299 1.86602L9.26293 2.02827C8.99895 2.07441 8.80516 2.20032 8.71551 2.40039C8.53439 2.80458 8.8871 3.20512 9.45721 3.31076C9.76299 3.37651 9.88329 3.518 9.8527 3.58831C9.80288 3.70283 9.49767 3.7658 9.00098 3.62389C8.87486 3.58785 8.74341 3.66088 8.70738 3.787C8.67135 3.91311 8.74437 4.04456 8.87049 4.0806C9.00754 4.11975 9.13896 4.14681 9.26295 4.16208L9.26299 4.32959L9.26682 4.37228C9.28693 4.48307 9.38389 4.56708 9.50048 4.56708C9.63165 4.56708 9.73798 4.46076 9.73798 4.32959L9.73816 4.15707C10.0045 4.11039 10.1994 3.98209 10.2883 3.7778C10.4639 3.37398 10.1178 2.96688 9.55034 2.84504C9.23577 2.78666 9.12121 2.65657 9.14897 2.59462C9.17767 2.53057 9.2901 2.48281 9.47342 2.47987L9.50048 2.48234C9.50955 2.48234 9.5185 2.48184 9.52731 2.48085C9.65657 2.48402 9.81668 2.50849 10.0035 2.56186C10.1296 2.59789 10.261 2.52487 10.2971 2.39875C10.3331 2.27263 10.2601 2.14118 10.134 2.10515C9.99555 2.0656 9.86282 2.03835 9.73764 2.02307L9.73798 1.86602L9.73415 1.82333C9.71404 1.71254 9.61707 1.62853 9.50048 1.62853Z"
            fill="white" />
        <path
            d="M9.50048 1.62853C9.36932 1.62853 9.26299 1.73486 9.26299 1.86602L9.26293 2.02827C8.99895 2.07441 8.80516 2.20032 8.71551 2.40039C8.53439 2.80458 8.8871 3.20512 9.45721 3.31076C9.76299 3.37651 9.88329 3.518 9.8527 3.58831C9.80288 3.70283 9.49767 3.7658 9.00098 3.62389C8.87486 3.58785 8.74341 3.66088 8.70738 3.787C8.67135 3.91311 8.74437 4.04456 8.87049 4.0806C9.00754 4.11975 9.13896 4.14681 9.26295 4.16208L9.26299 4.32959L9.26682 4.37228C9.28693 4.48307 9.38389 4.56708 9.50048 4.56708C9.63165 4.56708 9.73798 4.46076 9.73798 4.32959L9.73816 4.15707C10.0045 4.11039 10.1994 3.98209 10.2883 3.7778C10.4639 3.37398 10.1178 2.96688 9.55034 2.84504C9.23577 2.78666 9.12121 2.65657 9.14897 2.59462C9.17767 2.53057 9.2901 2.48281 9.47342 2.47987L9.50048 2.48234C9.50955 2.48234 9.5185 2.48184 9.52731 2.48085C9.65657 2.48402 9.81668 2.50849 10.0035 2.56186C10.1296 2.59789 10.261 2.52487 10.2971 2.39875C10.3331 2.27263 10.2601 2.14118 10.134 2.10515C9.99555 2.0656 9.86282 2.03835 9.73764 2.02307L9.73798 1.86602L9.73415 1.82333C9.71404 1.71254 9.61707 1.62853 9.50048 1.62853Z"
            fill="FFA928" />
        <path
            d="M3.56271 6.17479H2.13776C2.00659 6.17479 1.90026 6.28111 1.90026 6.41228V15.9119C1.90026 16.0431 2.00659 16.1494 2.13776 16.1494H3.56271C3.69387 16.1494 3.8002 16.0431 3.8002 15.9119V6.41228C3.8002 6.28111 3.69387 6.17479 3.56271 6.17479Z"
            fill="white" />
        <path
            d="M18.7622 17.5744H0.237821C0.106658 17.5744 0.000329432 17.6807 0.000329432 17.8119V18.7618C0.000329432 18.893 0.106658 18.9993 0.237821 18.9993H18.7622C18.8933 18.9993 18.9997 18.893 18.9997 18.7618V17.8119C18.9997 17.6807 18.8933 17.5744 18.7622 17.5744Z"
            fill="white" />
        <path
            d="M4.51267 15.6682H1.18779C1.05663 15.6682 0.950296 15.7745 0.950296 15.9057V16.8619C0.950296 16.9931 1.05663 17.0994 1.18779 17.0994H4.51267C4.64384 17.0994 4.75016 16.9931 4.75016 16.8619V15.9057C4.75016 15.7745 4.64384 15.6682 4.51267 15.6682Z"
            fill="white" />
        <path
            d="M4.51267 6.17479H1.18779C1.05663 6.17479 0.950296 6.28111 0.950296 6.41228V7.36224C0.950296 7.49341 1.05663 7.59974 1.18779 7.59974H4.51267C4.64384 7.59974 4.75016 7.49341 4.75016 7.36224V6.41228C4.75016 6.28111 4.64384 6.17479 4.51267 6.17479Z"
            fill="white" />
        <path
            d="M16.8622 6.17479H15.4373C15.3061 6.17479 15.1998 6.28111 15.1998 6.41228V15.9119C15.1998 16.0431 15.3061 16.1494 15.4373 16.1494H16.8622C16.9934 16.1494 17.0997 16.0431 17.0997 15.9119V6.41228C17.0997 6.28111 16.9934 6.17479 16.8622 6.17479Z"
            fill="white" />
        <path
            d="M17.8122 15.6682H14.4873C14.3562 15.6682 14.2498 15.7745 14.2498 15.9057V16.8619C14.2498 16.9931 14.3562 17.0994 14.4873 17.0994H17.8122C17.9434 17.0994 18.0497 16.9931 18.0497 16.8619V15.9057C18.0497 15.7745 17.9434 15.6682 17.8122 15.6682Z"
            fill="white" />
        <path
            d="M17.8122 6.17479H14.4873C14.3562 6.17479 14.2498 6.28111 14.2498 6.41228V7.36224C14.2498 7.49341 14.3562 7.59974 14.4873 7.59974H17.8122C17.9434 7.59974 18.0497 7.49341 18.0497 7.36224V6.41228C18.0497 6.28111 17.9434 6.17479 17.8122 6.17479Z"
            fill="white" />
        <path
            d="M10.2125 6.17479H8.78753C8.65636 6.17479 8.55003 6.28111 8.55003 6.41228V15.9119C8.55003 16.0431 8.65636 16.1494 8.78753 16.1494H10.2125C10.3436 16.1494 10.45 16.0431 10.45 15.9119V6.41228C10.45 6.28111 10.3436 6.17479 10.2125 6.17479Z"
            fill="white" />
        <path
            d="M11.1624 15.6682H7.83756C7.70639 15.6682 7.60007 15.7745 7.60007 15.9057V16.8619C7.60007 16.9931 7.70639 17.0994 7.83756 17.0994H11.1624C11.2936 17.0994 11.3999 16.9931 11.3999 16.8619V15.9057C11.3999 15.7745 11.2936 15.6682 11.1624 15.6682Z"
            fill="white" />
        <path
            d="M11.1624 6.17479H7.83756C7.70639 6.17479 7.60007 6.28111 7.60007 6.41228V7.36224C7.60007 7.49341 7.70639 7.59974 7.83756 7.59974H11.1624C11.2936 7.59974 11.3999 7.49341 11.3999 7.36224V6.41228C11.3999 6.28111 11.2936 6.17479 11.1624 6.17479Z"
            fill="white" />
    </g>
</svg>