<svg
    viewBox="0 0 14 17"
    fill="none"
    xmlns="http://www.w3.org/2000/svg"
>
    <path
        id="Vector"
        d="M13.3184 5.84448H12.8202C12.7237 4.39164 12.0672 3.02924 10.9839 2.03378C9.90064 1.03832 8.47177 0.484375 6.98729 0.484375C5.50281 0.484375 4.07394 1.03832 2.99066 2.03378C1.90739 3.02924 1.25087 4.39164 1.15436 5.84448H0.682307C0.501348 5.84448 0.3278 5.91498 0.199843 6.04048C0.0718855 6.16597 0 6.33618 0 6.51366V7.1916C0 7.36908 0.0718855 7.53929 0.199843 7.66478C0.3278 7.79028 0.501348 7.86078 0.682307 7.86078H1.11931L1.22169 14.4791C1.56937 15.6301 4.04574 16.5129 7.04775 16.5129C10.0498 16.5129 12.5261 15.6295 12.8738 14.4791L12.915 7.86078H13.3177C13.4987 7.86078 13.6722 7.79028 13.8002 7.66478C13.9281 7.53929 14 7.36908 14 7.1916V6.51366C14 6.3363 13.9282 6.16619 13.8004 6.04072C13.6726 5.91524 13.4992 5.84466 13.3184 5.84448ZM5.11077 11.361V8.25636C5.09691 8.05524 5.02643 7.86184 4.90719 7.69766C4.78795 7.53348 4.62461 7.40495 4.43534 7.32638C4.43534 7.31964 2.29291 6.55005 2.20427 6.30947C2.1974 6.30273 2.1974 6.30273 2.1974 6.29599C2.20516 6.27758 2.21434 6.25978 2.22488 6.24275C2.45026 5.82763 4.19622 4.97785 7.04844 4.97785C9.70896 4.97785 11.4082 5.71374 11.8033 6.14234C11.8473 6.17763 11.8804 6.22433 11.8988 6.27712C11.8507 6.45099 11.4755 6.72526 10.807 6.98606C10.807 6.98606 10.4723 7.08647 10.3906 7.10669C10.1721 7.15993 9.95426 7.20036 9.74263 7.23406C9.53099 7.26775 9.32623 7.29403 9.12422 7.31425C8.62598 7.36775 8.12427 7.38352 7.62356 7.36142C7.55144 7.36035 7.48072 7.38095 7.4209 7.42047C7.36108 7.45998 7.31502 7.51651 7.28893 7.58246C7.27558 7.61433 7.26858 7.64842 7.26832 7.68287C7.26533 7.77146 7.29806 7.85764 7.35941 7.92273C7.42076 7.98782 7.50579 8.02657 7.59607 8.0306C7.73968 8.03734 7.88947 8.03734 8.04613 8.03734C8.83484 8.04004 9.62155 7.95938 10.3926 7.79676V10.3636C10.3926 10.5926 10.2999 10.8122 10.1348 10.9741C9.96977 11.1359 9.74588 11.2269 9.51244 11.2269C9.279 11.2269 9.05512 11.1359 8.89005 10.9741C8.72498 10.8122 8.63225 10.5926 8.63225 10.3636V10.3104C8.63591 10.0841 8.5489 9.86545 8.38992 9.70143C8.23093 9.5374 8.01267 9.44111 7.78205 9.43325C7.55144 9.42539 7.32689 9.5066 7.15669 9.65941C6.98648 9.81222 6.8842 10.0244 6.87185 10.2504V11.361C6.87059 11.5896 6.77745 11.8084 6.61265 11.9701C6.44786 12.1317 6.22471 12.223 5.99166 12.2243C5.7701 12.2253 5.55696 12.1411 5.39799 11.9897C5.3075 11.9108 5.23511 11.814 5.1856 11.7056C5.13609 11.5972 5.11059 11.4798 5.11077 11.361ZM6.9866 1.48504C8.01823 1.4853 9.02264 1.80967 9.85261 2.41059C10.6826 3.01151 11.2944 3.85737 11.5985 4.8242C10.1616 4.22374 8.60979 3.93369 7.04844 3.97374C5.43226 3.92282 3.82592 4.23878 2.35475 4.89698C2.64657 3.91339 3.25576 3.04915 4.09091 2.43395C4.92607 1.81876 5.94212 1.4858 6.9866 1.48504Z"
        fill="white"
    />
</svg>