<svg
    viewBox="0 0 14 17"
    fill="none"
    xmlns="http://www.w3.org/2000/svg"
>
    <g id="Vector">
        <path
            d="M9.87789 3.43579C8.55368 3.43579 7.4621 5.70842 7.4621 8.5C7.4621 11.2916 8.55368 13.5642 9.87789 13.5642C11.2021 13.5642 12.2937 11.2916 12.2937 8.5C12.2937 5.70842 11.2021 3.43579 9.87789 3.43579ZM9.77053 12.5979C8.71474 12.5979 7.87368 10.7547 7.87368 8.5C7.87368 6.24526 8.71474 4.40211 9.77053 4.40211C10.8263 4.40211 11.6674 6.24526 11.6674 8.5C11.6674 10.7547 10.8084 12.5979 9.77053 12.5979Z"
            fill="white"
        />
        <path
            d="M9.23368 0C8.33895 0 5.26105 0 4.34842 0C1.96842 0 0 3.81158 0 8.5C0 13.1884 1.95053 17 4.36632 17C5.26105 17 8.33895 17 9.25158 17C11.6674 17 13.6179 13.1884 13.6179 8.5C13.6 3.81158 11.6495 0 9.23368 0ZM9.87789 13.7432C8.44632 13.7432 7.28316 11.3989 7.28316 8.5C7.28316 5.60105 8.44632 3.25684 9.87789 3.25684C11.3095 3.25684 12.4726 5.60105 12.4726 8.5C12.4726 11.3989 11.3095 13.7432 9.87789 13.7432Z"
            fill="white"
        />
        <path
            d="M10.1284 4.79579C10.5221 5.79789 10.7547 7.08632 10.7547 8.5C10.7547 9.91368 10.5221 11.1842 10.1284 12.2042C10.7726 11.7926 11.3811 10.3968 11.3811 8.5C11.3811 6.60316 10.7905 5.20737 10.1284 4.79579Z"
            fill="white"
        />
    </g>
</svg>