<svg width="14" height="14" viewBox="0 0 14 14" fill="none" xmlns="http://www.w3.org/2000/svg">
<path id="Vector" fill-rule="evenodd" clip-rule="evenodd" d="M7 0C10.866 0 14 3.13403 14 7C14 10.866 10.866 14 7 14C3.13403 14 0 10.866 0 7C0 3.13403 3.13403 0 7 0ZM6.44584 10.8245V11.2759C6.44584 11.582 6.69406 11.8301 7 11.8301C7.3061 11.8301 7.55416 11.5818 7.55416 11.2759V10.8347C8.04784 10.7612 8.553 10.5828 8.95113 10.2809C10.1374 9.3808 9.89148 7.68646 8.66616 6.94671C8.19546 6.66251 7.63318 6.51827 7.09509 6.42991C6.50295 6.33268 5.64545 6.11524 5.60992 5.38452C5.59936 5.16616 5.6554 4.9596 5.78234 4.7809C5.98125 4.50098 6.32288 4.33423 6.65225 4.26793C6.91425 4.2151 7.20259 4.22153 7.4606 4.28707C7.93039 4.4062 8.29039 4.71398 8.47828 5.16157C8.59665 5.44363 8.92143 5.57654 9.20348 5.45818C9.48554 5.33981 9.61846 5.01503 9.50009 4.73297C9.17408 3.95632 8.54443 3.41976 7.72965 3.21335C7.67161 3.19865 7.61296 3.18579 7.55401 3.17491V2.72426C7.55401 2.41832 7.30579 2.1701 6.99985 2.1701C6.69375 2.1701 6.44568 2.41832 6.44568 2.72426V3.18303C5.84252 3.3017 5.26723 3.61561 4.89727 4.1148C4.61078 4.50144 4.482 4.95745 4.50527 5.43689C4.57081 6.78562 5.74605 7.32922 6.91716 7.52155C7.30977 7.58601 7.75216 7.68846 8.09439 7.89502C8.64411 8.227 8.84058 8.979 8.28381 9.40147C8.01798 9.60314 7.65415 9.70849 7.32585 9.74831C6.84274 9.80695 6.33543 9.7359 5.92261 9.46104C5.64422 9.27561 5.45037 9.01238 5.36936 8.68546C5.29586 8.38916 4.99681 8.20771 4.7002 8.28059C4.4036 8.35348 4.22168 8.6533 4.29534 8.94991C4.44463 9.55093 4.79851 10.0415 5.31148 10.3832C5.65203 10.6099 6.04358 10.755 6.44584 10.8245Z" fill="white"/>
</svg>
