<svg width="11" height="14" viewBox="0 0 11 14" fill="none" xmlns="http://www.w3.org/2000/svg">
<g id="Vector">
<path d="M10.2575 12.422C10.2362 12.9044 10.0945 13.34 9.74222 13.6818C9.53749 13.8805 9.29197 13.9957 9.00619 14.0045C8.79898 14.0109 8.59153 14.0088 8.38419 14.009C7.56979 14.0095 6.75546 14.0097 5.94107 14.0095C5.68665 14.0095 5.43227 14.0076 5.17782 14.0076C4.25973 14.0073 3.34169 14.0078 2.42362 14.0071C2.3284 14.007 2.2332 13.9984 2.13799 13.9988C2.02545 13.9994 1.91292 14.0096 1.80045 14.0083C1.57135 14.0057 1.34078 14.0132 1.11367 13.9886C0.867803 13.9621 0.660049 13.8336 0.486303 13.6564C0.256906 13.4226 0.110821 13.1398 0.0513812 12.8154C0.0229049 12.6598 0.00106159 12.5004 3.23236e-05 12.3426C-0.00115419 12.165 0.0304242 11.9889 0.078328 11.8158C0.116339 11.6786 0.135066 11.5359 0.166159 11.3965C0.231345 11.1043 0.299463 10.8126 0.365536 10.5206C0.436469 10.2072 0.506903 9.89361 0.576693 9.57996C0.640822 9.29142 0.703178 9.00257 0.76755 8.71411C0.820243 8.47802 0.873807 8.24212 0.927815 8.00633L1.00304 7.66094C1.00245 7.65516 1.00185 7.64942 1.00125 7.64363C1.00332 7.64264 1.00538 7.64167 1.00744 7.64068L1.10511 7.19228L1.10755 7.19277C1.1317 7.08316 1.15577 6.97353 1.18144 6.86427C1.27265 6.47647 1.44789 6.14023 1.77057 5.89927C1.963 5.75545 2.179 5.67813 2.41964 5.67813C3.37689 5.67826 3.25569 5.678 4.21293 5.67813C4.29263 5.67813 4.29363 5.6792 4.29369 5.76327C4.29382 6.02634 4.29382 6.28937 4.29369 6.55248C4.29369 6.64188 4.29344 6.64198 4.2076 6.64198C3.28353 6.64198 3.43792 6.64444 2.51391 6.63982C2.36012 6.63909 2.27109 6.7144 2.20147 6.83761C2.13809 6.94979 2.11253 7.07386 2.08487 7.19798C2.0215 7.48262 1.95459 7.76634 1.89081 8.05082C1.83697 8.29085 1.78618 8.53157 1.73283 8.77169C1.66315 9.08547 1.59273 9.399 1.52184 9.71243C1.45752 9.99684 1.39134 10.2808 1.32751 10.5652C1.28852 10.7391 1.25385 10.914 1.21469 11.0879C1.1599 11.3313 1.09817 11.5732 1.048 11.8176C1.00547 12.025 0.937922 12.229 0.955462 12.4462C0.970487 12.6325 1.01786 12.8053 1.14047 12.9502C1.19056 13.0094 1.2517 13.0375 1.33054 13.0371C1.93352 13.0347 2.53646 13.0336 3.13943 13.0337C5.04623 13.0342 6.95301 13.0343 8.85975 13.0382C9.03624 13.0386 9.11118 13.0108 9.21486 12.7911C9.32079 12.5665 9.32159 12.3312 9.2668 12.0918C9.211 11.8482 9.16047 11.6032 9.10593 11.3593C9.05321 11.1234 8.99733 10.8884 8.94462 10.6525C8.87966 10.3621 8.81696 10.0712 8.75242 9.78072C8.68274 9.46706 8.61257 9.15349 8.54173 8.84011C8.47658 8.55187 8.40937 8.2641 8.34473 7.97575C8.28006 7.68736 8.21976 7.39789 8.15286 7.11004C8.11765 6.95869 8.07306 6.80705 7.94669 6.70551C7.904 6.67123 7.84192 6.64613 7.78808 6.64495C7.51804 6.63885 6.35556 6.64076 6.08543 6.64324C6.03002 6.64377 6.01023 6.6282 6.01075 6.56962C6.01324 6.29658 6.0129 6.02355 6.011 5.75046C6.0106 5.69703 6.02662 5.67557 6.08123 5.67601C6.34937 5.67827 7.50972 5.6807 7.77783 5.67744C8.27121 5.67141 8.61538 5.91971 8.86611 6.33041C9.00116 6.55172 9.06283 6.79909 9.11422 7.05106C9.14864 7.21971 9.19606 7.38558 9.23539 7.55328C9.25346 7.63029 9.26465 7.70904 9.28133 7.78648C9.31355 7.93569 9.34761 8.08452 9.38057 8.23362C9.44474 8.52421 9.50787 8.81499 9.5729 9.10534C9.62668 9.3453 9.68349 9.58453 9.73688 9.8246C9.76613 9.95611 9.7887 10.0892 9.81852 10.2206C9.87116 10.4522 9.92864 10.6826 9.98109 10.9143C10.0463 11.2026 10.1039 11.4927 10.1736 11.7798C10.225 11.9915 10.2672 12.2042 10.2575 12.422ZM4.61919 4.18682V7.15182C4.61919 7.50542 4.86581 7.79201 5.17004 7.79201C5.47428 7.79201 5.7209 7.50542 5.7209 7.15182V4.18144C6.59625 3.93495 7.24377 3.12271 7.25457 2.15728C7.26793 0.961907 6.32851 0.0151119 5.19415 0.000187509C4.01625 -0.0153944 3.09823 0.942294 3.07194 2.0765C3.04871 3.08036 3.71301 3.93982 4.61919 4.18682Z" fill="white" fill-opacity="1.0"/>
<path d="M5.51506 7.9636C5.30438 7.97548 5.09282 7.97271 4.88161 7.97333C4.83533 7.97348 4.78744 7.96652 4.74294 7.95338C4.54467 7.89508 4.38975 7.7089 4.39921 7.46425C4.40572 7.29718 4.3986 7.12961 4.39662 6.96228C4.39595 6.90379 4.38291 6.89266 4.33564 6.92167C4.30333 6.94152 4.26265 6.97569 4.25783 7.0084L4.21293 7.33617C4.21293 7.33617 4.17027 7.648 4.17299 7.78648L3.86986 12.1981C3.87078 12.2444 3.91702 12.1988 3.86986 12.1981C4.26204 12.1981 6.58056 12.1981 6.58056 12.1981C6.58056 12.1981 6.50127 10.8027 6.48166 10.6249C6.4656 10.4787 6.45292 10.3321 6.43686 10.1859C6.41757 10.0101 6.39514 9.83453 6.37609 9.6586C6.35726 9.48523 6.34215 9.31142 6.32327 9.13809C6.30698 8.98852 6.2868 8.83943 6.2702 8.68989C6.25372 8.54176 6.24064 8.39322 6.22423 8.24502C6.20546 8.0751 6.18354 7.90559 6.165 7.73566C6.13957 7.50249 6.11916 7.26875 6.08866 7.03627C6.08336 6.99592 6.04582 6.95054 6.01075 6.9258C5.95043 6.8833 5.92921 6.8995 5.92893 6.9745C5.92836 7.15381 5.93007 7.33316 5.92774 7.51248C5.92494 7.73041 5.74237 7.95073 5.51506 7.9636Z" fill="white" fill-opacity="1.0"/>
</g>
</svg>
