<svg width="15" height="14" viewBox="0 0 15 14" fill="none" xmlns="http://www.w3.org/2000/svg">
<g id="Vector">
<path d="M11.0789 9.15337C10.064 9.91821 8.83431 10.3334 7.56993 10.3381C6.30555 10.3429 5.07289 9.93689 4.05242 9.17967L1.20968 7.07625L0 6.17879V11.6337C0.000457711 12.2611 0.246397 12.8627 0.683811 13.3064C1.12122 13.7501 1.71435 13.9995 2.33295 14H12.6671C13.2856 13.9995 13.8788 13.7501 14.3162 13.3064C14.7536 12.8627 14.9995 12.2611 15 11.6337V6.17178L11.0789 9.15337Z" fill="white"/>
<path d="M4.76959 8.19807C5.5808 8.79965 6.56073 9.1217 7.56561 9.11697C8.5705 9.11223 9.54744 8.78097 10.3531 8.17178L14.9914 4.6468C14.9408 4.05675 14.6741 3.50734 14.2438 3.10693C13.8135 2.70652 13.251 2.48419 12.6671 2.48379H10.8404V2.36635C10.84 1.73889 10.594 1.13727 10.1566 0.693599C9.71921 0.249924 9.12608 0.000464263 8.50749 0H6.49251C5.87391 0.000464263 5.28079 0.249924 4.84337 0.693599C4.40596 1.13727 4.16002 1.73889 4.15956 2.36635V2.48379H2.33295C1.74605 2.48375 1.18074 2.70824 0.749878 3.11245C0.319018 3.51666 0.0543218 4.07084 0.00864059 4.66433L1.21832 5.55653L4.76959 8.19807ZM5.36924 2.36635C5.3697 2.06431 5.48819 1.77478 5.69874 1.56121C5.9093 1.34764 6.19474 1.22746 6.49251 1.22699H8.50749C8.80526 1.22746 9.0907 1.34764 9.30126 1.56121C9.51181 1.77478 9.6303 2.06431 9.63076 2.36635V2.48379H5.36924V2.36635Z" fill="white"/>
</g>
</svg>
