<svg width="13" height="13" viewBox="0 0 13 13" fill="none" xmlns="http://www.w3.org/2000/svg">
    <g id="Vector">
        <path
            d="M7.16421 4.0288C7.20469 3.96312 7.22539 3.88755 7.22449 3.81467C7.22449 3.75169 7.20469 3.69141 7.16421 3.65093C7.15251 3.63923 7.14082 3.63113 7.12822 3.62304L4.69627 2.15655C4.59641 2.09627 4.49025 2.05668 4.39039 2.05668C4.31571 2.05668 4.24374 2.08188 4.18436 2.14305L2.51813 3.80658C2.45965 3.86506 2.43446 3.93704 2.43446 4.01171V4.01981C2.43536 4.11517 2.47495 4.22044 2.53433 4.31671L3.99992 6.75027C4.00802 6.76197 4.01702 6.77366 4.02871 6.78446C4.0692 6.82494 4.12858 6.84474 4.19245 6.84474C4.26533 6.84564 4.3409 6.82495 4.40568 6.78626C4.43087 6.76916 4.45516 6.75027 4.47675 6.72868L7.10747 4.09889C7.12906 4.07729 7.14801 4.05309 7.16421 4.0288ZM4.74861 5.68512L4.43193 5.36843L5.74726 4.0531L6.06395 4.36979L4.74861 5.68512Z"
            fill="white" fill-opacity="1" />
        <path
            d="M3.95787 2.06479L1.93267 0.0395875C1.90748 0.0143951 1.87149 0 1.8373 0C1.80401 0.000899859 1.77072 0.0125956 1.74283 0.0404854L0.418494 1.36482C0.393301 1.39002 0.381606 1.4251 0.378906 1.45839C0.378906 1.49258 0.391502 1.52857 0.418494 1.55376L2.44459 3.57986L3.95787 2.06479Z"
            fill="white" fill-opacity="1" />
        <path
            d="M7.48084 2.49502L7.44395 2.53191L8.30765 2.75144L8.08543 1.88864L8.04854 1.92552C8.00715 1.96691 7.93788 1.96691 7.89649 1.92552L6.95091 0.979946L6.53525 1.3956L7.48083 2.34118C7.52222 2.38617 7.52222 2.45364 7.48084 2.49502Z"
            fill="white" fill-opacity="1" />
        <path
            d="M10.1855 5.20036C10.2269 5.15897 10.2961 5.15897 10.3375 5.20036L11.2831 6.14594L11.6988 5.73028L10.7532 4.7847C10.7118 4.74332 10.7118 4.67404 10.7532 4.63266L10.7901 4.59577L9.92727 4.37355L10.1468 5.23724L10.1855 5.20036Z"
            fill="white" fill-opacity="1" />
        <path
            d="M12.6137 10.7207L10.5894 8.69636L9.07527 10.2105L11.0996 12.2348C11.1248 12.26 11.1608 12.2744 11.1949 12.2744C11.2291 12.2744 11.2615 12.2618 11.2885 12.2348L12.6128 10.9105C12.6407 10.8826 12.6533 10.8502 12.6533 10.816C12.6524 10.7818 12.6398 10.7468 12.6137 10.7207Z"
            fill="white" fill-opacity="1" />
        <path
            d="M11.13 7.73641C11.1291 7.66354 11.1021 7.59246 11.0473 7.53578L10.0819 6.57042C10.027 6.51554 9.95323 6.48765 9.88126 6.48765C9.81018 6.48765 9.73731 6.51554 9.68063 6.57042L6.94743 9.30362C6.89254 9.3585 6.86465 9.43228 6.86465 9.50425C6.86375 9.57713 6.89254 9.6482 6.94743 9.70488L7.91279 10.6702C7.96767 10.7251 8.03874 10.753 8.11342 10.753C8.18449 10.753 8.25737 10.7251 8.31405 10.6702L11.0482 7.93612C11.104 7.88034 11.13 7.80749 11.13 7.73641Z"
            fill="white" fill-opacity="1" />
        <path
            d="M8.74414 7.20299L7.96322 6.42207C7.93173 6.39058 7.89034 6.37529 7.84896 6.37348C7.80757 6.37438 7.76709 6.38968 7.7365 6.42027L6.79903 7.35774C6.76754 7.38923 6.75225 7.43061 6.75225 7.4702C6.75315 7.51158 6.76934 7.55297 6.80083 7.58446L7.58175 8.36538L8.74414 7.20299Z"
            fill="white" fill-opacity="1" />
    </g>
</svg>