<svg
    viewBox="0 0 14 14"
    fill="none"
    xmlns="http://www.w3.org/2000/svg"
>
    <path
        id="Vector"
        fillRule="evenodd"
        clipRule="evenodd"
        d="M12.2618 9.16335C12.0765 9.61002 12.1876 10.1291 12.5166 10.6175C12.6657 10.8336 12.6554 11.1221 12.4906 11.3267C12.1532 11.7517 11.7687 12.1368 11.3437 12.4748C11.1391 12.6402 10.8494 12.6511 10.6332 12.5014C10.1461 12.1785 9.62701 12.0668 9.17911 12.2539C8.73123 12.441 8.44209 12.8877 8.33222 13.4654C8.28634 13.7261 8.07326 13.9253 7.80948 13.9537C7.27165 14.0153 6.72839 14.0153 6.19049 13.9537C5.92792 13.9259 5.71484 13.728 5.66776 13.4684C5.5579 12.8907 5.26756 12.4422 4.82087 12.2569C4.37419 12.0716 3.85326 12.1845 3.36673 12.5135C3.15064 12.6638 2.8609 12.6529 2.65626 12.4875C2.2307 12.1453 1.84619 11.7559 1.50937 11.3268C1.34458 11.1221 1.33432 10.8336 1.48341 10.6175C1.81238 10.1352 1.92346 9.61608 1.74598 9.16336C1.56851 8.71064 1.11701 8.42935 0.542351 8.31647C0.28038 8.27543 0.0775622 8.06536 0.0461776 7.80219C-0.0153925 7.26919 -0.0153925 6.73075 0.0461776 6.19773C0.0733405 5.93636 0.269517 5.72448 0.528474 5.6774C1.10313 5.56452 1.54861 5.27538 1.73211 4.83051C1.91621 4.38564 1.80635 3.86471 1.47738 3.37637C1.33251 3.16028 1.34579 2.87536 1.50938 2.67315C1.8468 2.24819 2.23131 1.86308 2.65627 1.52505C2.86089 1.35966 3.15063 1.3488 3.36674 1.49849C3.85386 1.82142 4.37298 1.9331 4.82088 1.74598C5.26876 1.55887 5.5579 1.11217 5.66777 0.534517C5.71364 0.273751 5.92672 0.0745489 6.1905 0.0461776C6.72834 -0.0153925 7.2716 -0.0153925 7.80949 0.0461776C8.07207 0.0739447 8.28514 0.271927 8.33223 0.531488C8.44209 1.10916 8.73242 1.55765 9.17912 1.74296C9.6258 1.92826 10.1467 1.81539 10.6333 1.48641C10.8493 1.3361 11.1391 1.34697 11.3437 1.51236C11.7693 1.85461 12.1538 2.24396 12.4906 2.67313C12.6554 2.87776 12.6657 3.16629 12.5166 3.38238C12.1876 3.87072 12.0759 4.38983 12.2619 4.83652C12.4472 5.2832 12.8908 5.57053 13.4655 5.68341C13.7244 5.72748 13.923 5.93693 13.9538 6.19769C14.0154 6.73069 14.0154 7.26913 13.9538 7.80216C13.9267 8.06353 13.7305 8.2754 13.4715 8.32248C12.8969 8.43536 12.4514 8.7245 12.2679 9.16937L12.2618 9.16335ZM7.00001 3.50021C6.07164 3.50021 5.18122 3.86902 4.5251 4.52516C3.86897 5.1813 3.50014 6.07168 3.50014 7.00008C3.50014 7.92848 3.86896 8.81887 4.5251 9.475C5.18124 10.1311 6.07161 10.5 7.00001 10.5C7.92842 10.5 8.81881 10.1311 9.47493 9.475C10.1311 8.81886 10.4999 7.92848 10.4999 7.00008C10.4999 6.07168 10.1311 5.18129 9.47493 4.52516C8.81879 3.86904 7.92842 3.50021 7.00001 3.50021Z"
        fill="white"
    />
</svg>