<svg width="28" height="26" viewBox="0 0 28 26" fill="none" xmlns="http://www.w3.org/2000/svg">
<g id="Sun">
<g id="Sun_2">
<g id="Vector">
<path fill-rule="evenodd" clip-rule="evenodd" d="M9.69366 7.19521L6.71484 10.174L9.69366 13.1528V17.3681H13.909L16.8889 20.348L19.8688 17.3681H24.0819V13.155L27.0629 10.174L24.0819 7.19303V2.9799H19.8688L16.8889 0L13.909 2.9799H9.69366V7.19521ZM9.69366 7.19521V13.1528L13.909 17.3681H19.8688L24.0819 13.155V7.19303L19.8688 2.9799H13.909L9.69366 7.19521Z" fill="#B29D45"/>
<path d="M9.69366 7.19521V13.1528L13.909 17.3681H19.8688L24.0819 13.155V7.19303L19.8688 2.9799H13.909L9.69366 7.19521Z" fill="#B29D45"/>
</g>
<circle id="Ellipse 1" cx="16.8872" cy="10.1724" r="6.2349" fill="url(#paint0_linear_366_618)"/>
</g>
<path id="Vector_2" d="M7.19412 26.0015C3.22092 26.0015 0 22.7806 0 18.8074C0 14.8342 3.22092 11.6133 7.19412 11.6133C10.6746 11.6133 13.5778 14.0848 14.2443 17.3686H17.7455C20.1294 17.3686 22.062 19.3011 22.062 21.685C22.062 24.069 20.1294 26.0015 17.7455 26.0015H7.19412Z" fill="#D9D9D9"/>
</g>
<defs>
<linearGradient id="paint0_linear_366_618" x1="19.7213" y1="3.9375" x2="13.4864" y2="15.8405" gradientUnits="userSpaceOnUse">
<stop stop-color="#9E6313" stop-opacity="0"/>
<stop offset="1" stop-color="#9E6313"/>
</linearGradient>
</defs>
</svg>
