<svg width="37" height="30" viewBox="0 0 37 30" fill="none" xmlns="http://www.w3.org/2000/svg">
<rect width="37" height="30" rx="1" fill="url(#paint0_radial_287_883)" fill-opacity="0.58"/>
<rect x="0.5" y="0.5" width="36" height="29" rx="0.5" stroke="white" stroke-opacity="0.1"/>
<path d="M15.0652 22C15.0652 22 18.4379 22 19.869 22C21.3 22 22.354 21.0891 22.6291 20.0579C23.5133 16.7369 24.3691 13.4906 25.2865 9.52906C25.7078 7.71169 23.0373 7.28031 22.3225 9.52906C21.6076 11.7778 19.2556 17.2973 19.2556 17.2973C19.2556 17.2973 16.4026 17.6639 14.0423 17.1958C12.1768 16.8248 11.3338 18.78 12.6117 20.6709C13.2793 21.6587 13.838 22 15.0652 22Z" fill="white"/>
<path d="M15.4064 15.4375V14.6737L17.1911 13.0212C17.3429 12.8743 17.4702 12.7421 17.573 12.6246C17.6774 12.5071 17.7566 12.392 17.8105 12.2794C17.8643 12.1652 17.8912 12.0419 17.8912 11.9097C17.8912 11.7629 17.8578 11.6364 17.7909 11.5303C17.724 11.4226 17.6326 11.3401 17.5167 11.283C17.4008 11.2243 17.2694 11.1949 17.1225 11.1949C16.9691 11.1949 16.8353 11.2259 16.721 11.2879C16.6068 11.3499 16.5187 11.4389 16.4566 11.5548C16.3946 11.6706 16.3636 11.8086 16.3636 11.9685H15.3574C15.3574 11.6404 15.4317 11.3556 15.5802 11.1141C15.7287 10.8726 15.9368 10.6857 16.2045 10.5535C16.4721 10.4213 16.7806 10.3552 17.1299 10.3552C17.4889 10.3552 17.8015 10.4188 18.0675 10.5461C18.3352 10.6718 18.5433 10.8464 18.6918 11.07C18.8403 11.2936 18.9146 11.5499 18.9146 11.8387C18.9146 12.0281 18.877 12.2149 18.8019 12.3994C18.7285 12.5838 18.5971 12.7886 18.4078 13.0138C18.2185 13.2374 17.9516 13.5059 17.6073 13.8193L16.8753 14.5366V14.5709H18.9807V15.4375H15.4064Z" fill="white"/>
<defs>
<radialGradient id="paint0_radial_287_883" cx="0" cy="0" r="1" gradientUnits="userSpaceOnUse" gradientTransform="translate(18.5 15) rotate(90) scale(15 18.5)">
<stop stop-color="white"/>
<stop offset="1" stop-color="#999999"/>
</radialGradient>
</defs>
</svg>
