<svg width="16" height="7" viewBox="0 0 16 7" fill="none" xmlns="http://www.w3.org/2000/svg">
<path id="Vector" fill-rule="evenodd" clip-rule="evenodd" d="M7.66731 0.65316V6.12387C7.66731 6.47581 7.30251 6.76457 6.84589 6.77365C6.71768 6.77626 6.59182 6.77695 6.4673 6.77667V1.19704e-05C6.59214 -0.000114071 6.71831 0.00073671 6.8469 0.0034466C7.30336 0.0129627 7.66731 0.301346 7.66731 0.65316ZM8.16303 3.38836C8.16303 3.04341 8.44527 2.76114 8.79027 2.76114H13.0241C13.3691 2.76114 13.6514 3.04341 13.6514 3.38836C13.6514 3.73336 13.3691 4.0156 13.0241 4.0156H8.79027C8.44527 4.0156 8.16303 3.73336 8.16303 3.38836ZM9.76208 1.40213C9.76208 1.05715 10.0443 0.774916 10.3893 0.774916H14.6232C14.9682 0.774916 15.2504 1.05715 15.2504 1.40213C15.2504 1.74711 14.9682 2.02938 14.6232 2.02938H10.3893C10.0443 2.02938 9.76208 1.74711 9.76208 1.40213ZM9.76208 5.37462C9.76208 5.02964 10.0443 4.7474 10.3893 4.7474H14.6232C14.9682 4.7474 15.2504 5.02964 15.2504 5.37462C15.2504 5.71959 14.9682 6.00186 14.6232 6.00186H10.3893C10.0443 6.00186 9.76208 5.71959 9.76208 5.37462ZM5.64223 6.75348C1.85335 6.54135 -0.0253595 4.4944 0.000258467 3.33031C0.0250256 2.20234 1.90818 0.223421 5.64223 0.0219432V6.75348Z" fill="white" fill-opacity="1.0"/>
</svg>
