<svg width="37" height="30" viewBox="0 0 37 30" fill="none" xmlns="http://www.w3.org/2000/svg">
<rect width="37" height="30" rx="1" fill="url(#paint0_radial_287_889)" fill-opacity="0.58"/>
<rect x="0.5" y="0.5" width="36" height="29" rx="0.5" stroke="white" stroke-opacity="0.1"/>
<path d="M22.2668 22C22.2668 22 18.8941 22 17.4631 22C16.032 22 14.9781 21.0891 14.7029 20.0579C13.8187 16.7369 12.9629 13.4906 12.0455 9.52906C11.6242 7.71169 14.2947 7.28031 15.0096 9.52906C15.7244 11.7778 18.0764 17.2973 18.0764 17.2973C18.0764 17.2973 20.9294 17.6639 23.2897 17.1958C25.1552 16.8248 25.9983 18.78 24.7203 20.6709C24.0527 21.6587 23.494 22 22.2668 22Z" fill="white"/>
<path d="M20.2596 15.506C19.894 15.506 19.5684 15.4432 19.2828 15.3175C18.9988 15.1902 18.7744 15.0156 18.6096 14.7936C18.4464 14.57 18.3623 14.3122 18.3574 14.02H19.4248C19.4313 14.1424 19.4713 14.2502 19.5448 14.3432C19.6198 14.4346 19.7194 14.5056 19.8434 14.5562C19.9675 14.6068 20.107 14.6321 20.2621 14.6321C20.4237 14.6321 20.5665 14.6035 20.6905 14.5464C20.8145 14.4893 20.9116 14.4101 20.9818 14.3089C21.052 14.2077 21.0871 14.091 21.0871 13.9588C21.0871 13.825 21.0496 13.7067 20.9745 13.6038C20.901 13.4994 20.795 13.4178 20.6562 13.359C20.5191 13.3003 20.3559 13.2709 20.1666 13.2709H19.699V12.4924H20.1666C20.3265 12.4924 20.4677 12.4647 20.5901 12.4092C20.7142 12.3537 20.8105 12.277 20.879 12.179C20.9476 12.0795 20.9818 11.9636 20.9818 11.8314C20.9818 11.7057 20.9516 11.5956 20.8912 11.5009C20.8325 11.4046 20.7493 11.3295 20.6415 11.2757C20.5354 11.2218 20.4114 11.1949 20.2694 11.1949C20.1258 11.1949 19.9944 11.221 19.8753 11.2732C19.7561 11.3238 19.6606 11.3965 19.5888 11.4911C19.517 11.5858 19.4787 11.6968 19.4738 11.8241H18.4578C18.4627 11.5352 18.5451 11.2806 18.7051 11.0602C18.865 10.8399 19.0804 10.6677 19.3514 10.5437C19.6239 10.418 19.9316 10.3552 20.2743 10.3552C20.6203 10.3552 20.9231 10.418 21.1826 10.5437C21.4421 10.6694 21.6436 10.8391 21.7873 11.0529C21.9325 11.2651 22.0043 11.5034 22.0027 11.7678C22.0043 12.0485 21.917 12.2827 21.7407 12.4704C21.5661 12.6581 21.3384 12.7772 21.0577 12.8278V12.867C21.4266 12.9143 21.7073 13.0424 21.8999 13.2513C22.0941 13.4586 22.1904 13.7181 22.1888 14.0298C22.1904 14.3154 22.108 14.5692 21.9415 14.7912C21.7767 15.0132 21.549 15.1878 21.2585 15.3151C20.968 15.4424 20.635 15.506 20.2596 15.506Z" fill="white"/>
<defs>
<radialGradient id="paint0_radial_287_889" cx="0" cy="0" r="1" gradientUnits="userSpaceOnUse" gradientTransform="translate(18.5 15) rotate(90) scale(15 18.5)">
<stop stop-color="white"/>
<stop offset="1" stop-color="#999999"/>
</radialGradient>
</defs>
</svg>
