<svg width="17" height="12" viewBox="0 0 17 12" fill="none" xmlns="http://www.w3.org/2000/svg">
<path id="Vector" d="M16.854 0.42424H16.1375C16.0659 0.42424 16.0122 0.368941 15.9763 0.313643C15.851 0.000286667 15.3316 0.055585 15.3316 0.055585L15.1167 0.29521C15.0092 0.405807 14.8838 0.461105 14.7405 0.461105H4.03016C3.95852 0.461105 3.90479 0.442672 3.83314 0.42424L2.83017 0.0371522C2.56151 -0.0734443 2.25704 0.0740177 2.14957 0.332076L2.11375 0.42424H1.82719C1.59435 0.42424 1.39734 0.590134 1.34361 0.82976C1.21824 1.45647 0.931671 2.63617 0.573465 2.96796C0.0898858 3.42878 0.268989 3.779 0.752568 3.96333C1.25406 4.14765 2.38241 3.7237 1.73764 5.54854C1.20033 7.09689 0.34063 9.99083 0.0182445 11.2996C-0.0713072 11.6498 0.179437 12 0.537644 12H4.29881C4.69284 12 4.9615 11.576 4.8003 11.2074L4.72866 11.0415C4.65702 10.8756 4.67493 10.6728 4.76448 10.5069C4.94359 10.212 5.1406 9.56688 5.39134 8.77427C5.71373 7.81577 5.91074 7.17062 5.98238 6.8757H9.06296C9.67191 6.8757 10.1913 6.50704 10.4241 5.9172L11.1764 3.98176H15.9943C16.2987 3.98176 16.5316 3.7237 16.5316 3.42878V2.7652C16.5316 2.67303 16.6032 2.5993 16.6928 2.5993H16.836C16.9256 2.5993 16.9972 2.52557 16.9972 2.43341V0.608567C17.0151 0.497971 16.9435 0.42424 16.854 0.42424ZM9.654 5.62227C9.56445 5.8619 9.33162 6.02779 9.06296 6.02779H6.25104L6.84208 4.35041C6.91372 4.12922 7.12864 3.98176 7.36148 3.98176H7.43312C7.63013 4.60847 7.95252 5.43794 8.34655 5.67757C9.09878 5.67757 8.05998 4.99556 8.34655 3.98176H10.2988L9.654 5.62227Z" fill="white"/>
</svg>
